<?xml version="1.0" encoding="UTF-8"?>
<svg xmlns="http://www.w3.org/2000/svg" xmlns:xlink="http://www.w3.org/1999/xlink" width="288" height="288" viewBox="0 0 288 288">
<defs>
<clipPath id="clip-0">
<path clip-rule="nonzero" d="M 8.21875 139 L 282.519531 139 L 282.519531 141 L 8.21875 141 Z M 8.21875 139 "/>
</clipPath>
<clipPath id="clip-1">
<path clip-rule="nonzero" d="M 146 5.480469 L 149 5.480469 L 149 279.78125 L 146 279.78125 Z M 146 5.480469 "/>
</clipPath>
</defs>
<rect x="-28.8" y="-28.8" width="345.6" height="345.6" fill="rgb(100%, 100%, 100%)" fill-opacity="1"/>
<rect x="-28.8" y="-28.8" width="345.6" height="345.6" fill="rgb(100%, 100%, 100%)" fill-opacity="1"/>
<path fill="none" stroke-width="1.066978" stroke-linecap="round" stroke-linejoin="round" stroke="rgb(100%, 100%, 100%)" stroke-opacity="1" stroke-miterlimit="10" d="M 0 288 L 288 288 L 288 0 L 0 0 Z M 0 288 "/>
<path fill="none" stroke-width="1.066978" stroke-linecap="butt" stroke-linejoin="round" stroke="rgb(96.862745%, 57.647059%, 11.372549%)" stroke-opacity="1" stroke-miterlimit="10" d="M 39.300781 27.332031 L 41.007812 39.417969 L 46.019531 54.816406 L 52.308594 70.242188 L 62.464844 89.320312 L 74.363281 108.808594 L 82.523438 123.5625 L 88.875 138.265625 L 102.671875 159.085938 L 114.488281 179.011719 L 122.363281 190.863281 L 121.964844 187.355469 L 130.78125 185.214844 L 150.828125 187.3125 L 173.828125 188.242188 L 195.601562 182.929688 L 214.808594 178.644531 L 213.375 178.058594 L 216.710938 168.800781 L 222.816406 149.761719 L 224.054688 126.289062 L 224.761719 98.863281 L 229.398438 75.425781 L 241.007812 56.835938 L 253.144531 42 L 258.855469 31.792969 L 263.871094 27.597656 L 266.433594 24.328125 L 266.796875 23.40625 L 267.679688 28.945312 L 262.304688 29.78125 L 262.980469 30.199219 L 263.363281 32.042969 L 260.796875 34.277344 L 258.308594 35.425781 L 248.464844 36.480469 L 241.644531 40.933594 L 227.832031 51.539062 L 216.007812 60.1875 L 212.652344 64.960938 L 200.472656 79.675781 L 187.84375 97.628906 L 171.226562 116.570312 L 162.140625 126.917969 L 161.976562 124.566406 L 155.523438 127.996094 L 141.683594 133.402344 L 126.007812 143.925781 L 107.824219 153.71875 L 87.921875 164.269531 L 73.039062 173.800781 L 65.988281 176.066406 L 64.75 177.589844 L 67.917969 179.90625 L 66.125 193.082031 L 65.277344 214.300781 L 67.199219 220.363281 L 66.128906 224.882812 L 64.417969 228.167969 L 61.535156 235.527344 L 60.886719 231.007812 L 63.5625 223.832031 L 75.027344 223.367188 L 87.042969 225.421875 L 111.589844 222.476562 L 130.734375 219.824219 L 128.34375 219.972656 L 131.28125 216.851562 L 140.78125 212.796875 L 153.648438 202.632812 L 165.433594 188.910156 L 179.066406 177.109375 L 187.488281 167.027344 L 198.761719 157.632812 L 215.046875 136.816406 L 222.882812 118.550781 L 229.726562 99.089844 L 235.238281 82.792969 L 238.300781 73.257812 L 244.101562 62.59375 L 248.960938 51.125 L 256.359375 39.675781 L 257.164062 38.671875 L 255.535156 40.757812 L 252.183594 43.226562 L 253.46875 40.597656 L 244.320312 44.785156 L 220.578125 50.175781 L 194.621094 61.964844 L 168.964844 76.605469 L 146.144531 89.21875 L 130.867188 98.324219 L 110.574219 109.613281 L 96.277344 123.613281 L 93.515625 128.179688 L 94.382812 135.890625 L 88.347656 148.324219 L 87.179688 166.976562 L 84.484375 179.851562 L 86.1875 192.328125 L 83.863281 200.660156 L 84.539062 211.679688 L 84.429688 217.699219 L 82.476562 218.957031 L 86.972656 216.453125 L 92.136719 219.898438 L 98.355469 220.109375 L 107.777344 222.875 L 115.585938 218.8125 L 114.820312 218.929688 L 117.808594 216.882812 L 120.574219 216.007812 L 123.054688 215.652344 L 127.007812 209.5625 L 129.042969 203.855469 L 130.609375 202.546875 L 130.378906 202.871094 L 129.613281 203.671875 L 129.078125 203.804688 L 129.035156 203.757812 L 129.011719 203.660156 L 128.964844 203.691406 L 129.007812 203.613281 L 129.007812 203.617188 L 128.890625 204.019531 L 127.746094 204.871094 L 126.699219 204.0625 L 126.730469 204.019531 L 126.851562 203.847656 L 126.84375 203.96875 L 126.859375 203.964844 L 126.890625 203.964844 L 126.976562 204.21875 L 127.019531 204.773438 L 127.035156 204.800781 L 127.0625 204.742188 L 126.929688 205.328125 L 122.785156 206.042969 L 121.007812 203.464844 L 121.242188 203.074219 L 120.800781 202.21875 L 123.171875 208.324219 L 123.03125 208.394531 L 123.113281 208.25 L 123.222656 208.417969 L 122.886719 210.375 L 122.628906 211.054688 L 122.503906 210.839844 L 122.78125 210.84375 L 122.878906 210.585938 L 122.800781 210.511719 L 122.695312 210.320312 L 122.464844 210.046875 L 121.683594 211.460938 L 118.695312 213.761719 L 110.9375 218.785156 L 101.332031 223.042969 L 99.660156 223.320312 L 99.675781 223.40625 L 99.023438 223.632812 L 97.554688 223.929688 L 92.144531 224.8125 L 77.101562 221.183594 L 64.125 218.039062 L 62.398438 217.851562 L 63.046875 218.074219 L 61.605469 220.070312 L 54.394531 223.550781 L 48.339844 233.195312 L 37.464844 244.054688 L 32.964844 247.511719 L 33.34375 246.816406 L 35.914062 246.152344 L 35.53125 245.957031 L 40.082031 242.332031 L 45.921875 238.164062 L 50.570312 235.75 L 62.882812 236.109375 L 70.558594 233.203125 L 79.941406 227.585938 L 99.921875 215.113281 L 120.507812 202.996094 L 134.105469 197.753906 L 131.050781 197.683594 L 130.886719 196.867188 L 129.308594 196.722656 L 128.316406 191.164062 L 133.800781 180.621094 L 136.667969 165.601562 L 139.117188 149.160156 L 141.644531 141.734375 L 141.4375 142.179688 L 141.351562 142.039062 L 142.816406 136.433594 L 142.292969 119.5625 L 148.664062 104.992188 L 154.34375 88.386719 L 155.089844 79.691406 L 153.980469 84.207031 L 150.777344 86.261719 L 130.984375 74.390625 L 108.9375 64.3125 L 84.59375 59.59375 L 74.203125 54.550781 L 66.640625 46.582031 L 58.914062 43.332031 L 51.269531 37.378906 L 45.933594 32.242188 L 37.464844 26.277344 L 39.042969 28.375 L 41.652344 30.976562 L 43.414062 30.320312 L 44.671875 31.597656 L 44.34375 33.601562 L 43.378906 32.710938 L 43.28125 31.128906 L 43.335938 30.273438 L 41.914062 40.359375 L 45.570312 49.835938 L 52.867188 57.710938 L 73.195312 78.972656 L 95.277344 97.027344 L 118.4375 112.285156 L 134.324219 122.597656 L 135.75 121.410156 L 138.667969 118.476562 L 158.660156 113.683594 L 183.667969 108.0625 L 195.703125 108.648438 L 209.015625 106.226562 L 218.941406 106.484375 L 218.796875 106.457031 L 217.9375 105.816406 L 217.808594 105.050781 L 217.816406 104.8125 L 217.191406 105.011719 L 213.203125 104.214844 L 214.828125 97.835938 L 219.238281 92.734375 L 221.800781 89.628906 L 221.292969 89.773438 L 222.152344 88.59375 L 227.511719 80.371094 L 234.761719 74.492188 L 241.550781 60.476562 L 252.3125 41.390625 L 257.375 35.011719 L 255.101562 36.554688 L 254.113281 37.335938 L 254.054688 36.03125 L 259.417969 31.128906 L 260.726562 30.207031 L 264.570312 24.800781 L 266.027344 23.617188 L 265.09375 24.449219 L 264.414062 25.492188 L 262.242188 29.40625 L 249.976562 34.277344 L 233.34375 43.640625 L 214.238281 57.722656 L 191.144531 73.738281 L 172.222656 88.738281 L 150.527344 106.550781 L 132.628906 118.574219 L 116.128906 129.109375 L 94.058594 140.890625 L 73.832031 156.515625 L 69.375 161.761719 L 71.429688 161.808594 L 66.847656 177.726562 L 56.855469 204.910156 L 48.070312 227.347656 L 34.863281 243.675781 L 29.886719 247.636719 L 26.265625 253.453125 L 22.179688 258.097656 L 23.683594 255.3125 L 37.949219 247.304688 L 53.515625 240.496094 L 80.523438 225.667969 L 107.261719 214.035156 L 115.492188 210.148438 L 119.261719 208.457031 L 116.527344 206.761719 L 111.976562 196.386719 L 113.78125 175.277344 L 111.058594 152.6875 L 110.332031 145.894531 L 109.433594 147.753906 L 107.035156 146.5 L 95.101562 135.980469 L 78.769531 129.242188 L 73.292969 121.300781 L 65.023438 111.480469 L 66.570312 112.003906 L 61.371094 112.746094 L 58.902344 107.175781 L 64.09375 114.726562 L 64.816406 115.253906 L 70.277344 110.550781 L 61.136719 90.558594 L 51.5 54.65625 L 45.515625 40.246094 L 38.097656 32.355469 L 40.210938 34.417969 L 44.851562 38.875 L 44.742188 38.277344 L 47.878906 37.558594 L 49.535156 36.339844 L 50.058594 37.308594 L 49.742188 46.347656 L 57.425781 66.449219 L 64.453125 83.328125 L 71.746094 106.75 L 79.09375 128.328125 L 86.6875 154.542969 L 95.734375 179.871094 L 99.769531 185.101562 L 106.257812 194.941406 L 114.632812 201.644531 L 114.410156 204.085938 L 113.0625 201.734375 L 118.699219 196.804688 L 147.734375 191.753906 L 167.65625 186.234375 L 175.96875 184.789062 L 183.523438 180.621094 L 194.480469 174.515625 L 213.71875 159.257812 L 219.738281 155.710938 L 215.492188 155.457031 L 214.269531 139.644531 L 215.4375 115.546875 L 221.253906 90.003906 L 225.726562 75.472656 L 223.449219 71.960938 L 221.109375 59.992188 L 227.777344 56.664062 L 238.09375 48.367188 L 245.089844 47.476562 L 237.039062 51.46875 L 222.894531 54.871094 L 191.601562 59.375 L 165.839844 60.078125 L 134.503906 63.820312 L 102.167969 66.191406 L 79.605469 63.261719 L 57.371094 47.269531 L 56.703125 39.070312 L 59.550781 45.378906 L 57.128906 70.058594 L 59.28125 94.414062 L 69.285156 124.21875 L 82.164062 153.808594 L 93.882812 185.742188 L 102.414062 211.066406 L 103.242188 214.503906 L 102.183594 216.609375 L 98.539062 218.125 L 95.433594 216.472656 L 111.046875 209.964844 L 114.675781 209.003906 L 110.023438 207.5 L 114.410156 198.636719 L 129.5625 188.488281 L 143.277344 173.089844 L 140.945312 175.113281 L 139.855469 173.296875 L 140.085938 160.753906 L 139.414062 153.046875 L 138.808594 156.074219 L 135.183594 154.859375 L 130.253906 147.976562 L 117.59375 135.730469 L 102.695312 126.980469 L 92.101562 112.632812 L 82.398438 103.261719 L 79.546875 94.519531 L 69.554688 85.535156 L 63.058594 67.695312 L 60.371094 52.40625 L 58.722656 51.15625 L 58.800781 51.242188 L 59.109375 51.515625 L 59.230469 51.296875 L 58.933594 50.472656 L 58.992188 51.433594 L 59.078125 52.246094 L 58.703125 52.292969 L 60.113281 51.417969 L 62.539062 52.410156 L 62.179688 55.667969 L 62.660156 55.410156 L 64.425781 53.785156 L 63.667969 55.210938 L 55.414062 55.171875 L 55.703125 55.027344 L 55.550781 55.25 L 55.351562 55.082031 L 55.222656 54.945312 L 56.222656 55.253906 L 55.414062 53.824219 L 56.609375 51.183594 L 61.308594 65.078125 L 71.066406 83.828125 L 92.15625 109.769531 L 117.367188 135.503906 L 121.433594 141.507812 L 120.148438 138.683594 L 124.402344 137.105469 L 135.492188 137.925781 L 131.492188 137.140625 L 133.132812 136.617188 L 138.992188 134.707031 L 148.238281 131.585938 L 157.546875 124.867188 L 154.757812 125.726562 L 155.332031 123.710938 L 154.53125 123.835938 L 156.074219 112.703125 L 160.453125 101.75 L 160.808594 104.03125 L 160.402344 104.742188 L 160.4375 104.804688 L 160.40625 104.828125 L 158.699219 106.617188 L 156.925781 104.742188 L 156.488281 104.503906 L 150.453125 100.667969 L 136.871094 86.996094 L 136.289062 82.796875 L 136.558594 82.964844 L 136.683594 83.03125 L 135.792969 82.289062 L 124.578125 69.328125 L 124.148438 64.957031 L 127.492188 66.511719 L 129.921875 66.921875 L 128.929688 68.539062 L 127.449219 69.304688 L 127.929688 69.980469 L 128.242188 70.410156 L 128.675781 70.28125 L 128.820312 70.328125 L 128.59375 70.976562 L 128.253906 70.820312 L 128.554688 70.308594 L 130.542969 70.515625 L 133.886719 68.753906 L 149.984375 62.167969 L 145.476562 59.683594 L 144.574219 60.839844 L 155.457031 69.949219 L 163.433594 79.179688 L 177.007812 88.234375 L 187.570312 97.78125 L 204.617188 109.96875 L 216.371094 114.242188 L 216.046875 114.328125 L 216.164062 114.761719 L 216.375 115.257812 L 216.867188 113.980469 L 210.929688 111.535156 L 209.527344 109.339844 L 210.253906 109.148438 L 209.765625 109.339844 L 209.621094 109.25 L 209.777344 108.601562 L 210.402344 108.863281 L 210.167969 109.710938 L 210.285156 110.042969 L 210.378906 110.21875 L 210.40625 110.152344 L 210.414062 110.183594 L 210.566406 110.273438 L 210.578125 110.460938 L 210.605469 110.492188 L 210.414062 110.515625 L 210.535156 110.617188 L 210.578125 110.714844 L 210.652344 110.761719 L 210.589844 110.738281 L 210.625 110.761719 L 210.65625 110.789062 L 210.671875 110.820312 L 210.527344 110.78125 L 210.472656 110.660156 L 210.414062 110.671875 L 210.5 110.65625 L 210.535156 110.65625 L 210.585938 110.640625 L 210.605469 110.664062 L 210.636719 110.671875 L 210.457031 110.714844 L 210.691406 110.675781 L 210.695312 110.671875 L 210.722656 110.675781 L 210.183594 110.910156 L 209.023438 109.878906 L 207.441406 111.847656 L 206.445312 113.097656 L 205.375 113.847656 L 205.246094 113.730469 L 205.300781 113.71875 L 205.367188 113.726562 L 205.414062 113.746094 L 205.921875 113.261719 L 206.035156 113.152344 L 206.035156 113.085938 L 206.003906 113.136719 L 206.160156 112.925781 L 206.109375 112.957031 L 206.167969 112.921875 L 206.050781 112.992188 L 206.234375 112.773438 L 206.238281 112.757812 L 206.285156 112.78125 L 206.140625 112.800781 L 206.304688 112.613281 L 206.300781 112.609375 L 206.371094 112.613281 L 206.246094 112.660156 L 206.015625 112.386719 L 206.167969 112.34375 L 206.183594 112.339844 L 206.078125 112.445312 L 206.023438 112.132812 L 206.097656 112.140625 L 206.140625 112.105469 L 206.003906 112.203125 L 206.140625 112.050781 L 206.214844 112.027344 L 206.296875 112.03125 L 206.132812 112.152344 L 206.269531 111.96875 L 206.316406 111.984375 L 206.339844 111.972656 L 206.179688 112.246094 L 206.386719 111.894531 L 206.402344 111.9375 L 206.4375 111.933594 L 206.351562 112.101562 L 206.585938 111.878906 L 206.601562 111.875 L 206.652344 111.828125 L 206.5 111.984375 L 206.640625 111.828125 L 201.394531 112.988281 L 199.019531 115.527344 L 199.234375 115.21875 L 199.140625 114.875 L 199.175781 114.898438 L 199.203125 114.894531 L 199.113281 115.042969 L 199.214844 114.890625 L 199.230469 114.894531 L 199.25 114.914062 L 199.183594 115.097656 L 199.253906 114.894531 L 199.269531 114.863281 L 199.269531 114.851562 L 199.160156 115.171875 L 195.214844 117.371094 L 193.710938 118.886719 L 193.824219 118.746094 L 195.074219 120.683594 L 195.417969 120.867188 L 195.648438 120.878906 L 195.640625 120.820312 L 195.738281 121.277344 L 195.261719 120.722656 L 195.367188 120.640625 L 195.382812 120.664062 L 194.429688 123.167969 L 190.71875 126.140625 L 165.539062 115.199219 L 148.898438 100.054688 L 151.582031 102.941406 L 152.90625 103.410156 L 152.757812 104.558594 L 152.777344 104.53125 L 152.808594 104.429688 L 152.507812 106.003906 L 151.320312 110.019531 L 151.558594 109.8125 L 151.546875 109.839844 L 152.238281 110.328125 L 154.066406 113.269531 L 153.566406 113.3125 L 153.4375 113.066406 L 154.125 112.136719 L 155.105469 112.882812 L 139.019531 131.417969 L 134.828125 137.0625 L 135.738281 133.785156 L 135.835938 133.714844 L 135.945312 133.648438 L 136.011719 133.582031 L 136.894531 133.480469 L 139.179688 134.707031 L 138.925781 135.191406 L 138.820312 135.285156 L 140.222656 134.441406 L 141.644531 133.539062 L 142.203125 132.492188 L 141.453125 132.503906 L 142.730469 132.621094 L 135.820312 143.828125 L 138.046875 142.476562 L 138.417969 141.894531 L 144.695312 139.996094 L 153.027344 165.207031 L 153.074219 183.988281 L 154.945312 180.808594 L 154.882812 180.390625 L 159.523438 176.210938 L 159.015625 176.140625 L 158.652344 176.0625 L 158.351562 176.15625 L 156.453125 173.382812 L 152.070312 163.230469 L 156.421875 159.859375 L 160.234375 159.707031 L 155.257812 159.851562 L 154.398438 134.6875 L 153.277344 133.082031 L 152.804688 134.699219 L 145.757812 139.527344 L 127.242188 119.597656 L 121.117188 110.695312 L 123.167969 115.3125 L 128.148438 101.128906 L 128.261719 73.507812 L 128.066406 75.832031 L 130.839844 76.832031 L 132.160156 78.175781 L 138.292969 81.015625 L 167.703125 90.453125 L 201.230469 94.847656 L 220.179688 89.777344 L 214.386719 90.15625 L 212.273438 89.535156 L 211.332031 89.785156 L 208.886719 91.292969 L 208.550781 91.542969 L 208.636719 90.652344 L 208.566406 91.101562 L 208.21875 91.492188 L 207.988281 91.230469 L 207.992188 91.539062 L 207.863281 91.558594 L 207.519531 91.488281 L 207.238281 91.464844 L 206.9375 91.578125 L 207.023438 91.691406 L 207.355469 92.109375 L 207.613281 92.160156 L 207.898438 91.96875 L 208.535156 91.902344 L 208.617188 91.453125 L 208.625 91.03125 L 207.886719 91.785156 L 207.585938 91.683594 L 207.53125 91.800781 L 207.308594 91.875 L 207.371094 92.007812 L 207.335938 92 L 207.550781 92.601562 L 207.410156 94.1875 L 208.78125 95.117188 L 209.023438 94.09375 L 209.226562 93.367188 L 209.375 92.710938 L 209.621094 92.46875 L 209.492188 92.507812 L 209.34375 92.292969 L 209.566406 91.921875 L 209.636719 91.859375 L 209.566406 91.988281 L 209.511719 91.996094 L 209.851562 93.011719 L 210.121094 93.914062 L 209.296875 97.125 L 204.339844 105.40625 L 203.167969 104.835938 L 204.675781 103.835938 L 206.992188 122.042969 L 206.4375 146.226562 L 203.984375 179.148438 L 207.511719 172.960938 L 209.875 171.5625 L 210.210938 170.449219 L 210.113281 170.703125 L 210.023438 170.773438 L 209.203125 170.257812 L 209.203125 170.300781 L 208.246094 169.472656 L 205.585938 168.746094 L 205.097656 167.890625 L 205.105469 167.871094 L 205.402344 167.144531 L 206.636719 168.089844 L 206.351562 168.144531 L 206.300781 168.199219 L 206.203125 168.292969 L 205.703125 168.109375 L 204.351562 166.574219 L 189.277344 165.335938 L 152.320312 156.167969 L 119.574219 142.476562 L 98.085938 114.546875 L 84.269531 73.292969 L 73.554688 56.039062 L 73.398438 56.554688 L 70.136719 55.453125 L 69.796875 52.511719 L 68.128906 49.09375 L 70.761719 55.109375 L 86.078125 59.925781 L 109.023438 62.792969 L 160.875 68.664062 L 205.792969 68.195312 L 216.792969 72.105469 L 214 76.695312 L 210.132812 104.675781 L 209.660156 105.101562 L 209.367188 109.691406 L 208.671875 115.519531 L 204.195312 121.410156 L 204.558594 120.769531 L 206.234375 118.621094 L 212.941406 123.855469 L 216.886719 162.035156 L 207.175781 182.648438 L 208.886719 182.261719 L 208.867188 182 L 208.621094 181.871094 L 205.019531 181.832031 L 205.210938 181.800781 L 198.96875 182.4375 L 180.050781 187.164062 L 181.46875 187 L 159.378906 183.128906 L 132.40625 187.558594 L 131.0625 188.597656 L 136.519531 191.582031 L 136.582031 191.308594 L 123.597656 202.253906 L 111.574219 217.558594 L 112.066406 216.929688 L 96.046875 223.078125 L 78.335938 232.136719 L 60.632812 236.191406 L 63.582031 233.355469 L 57.433594 222.675781 L 57.953125 203.523438 L 64.042969 177.53125 L 68.171875 143.457031 L 69.902344 107.574219 L 77.085938 84.605469 L 99.601562 76.214844 L 131.652344 75.144531 L 176.613281 78.144531 L 212.816406 79 L 231.53125 64.777344 L 227.957031 67.195312 L 226.863281 67.953125 L 225.894531 68.375 L 226.792969 70.480469 L 227.070312 71.609375 L 220.949219 89.515625 L 217.636719 92.824219 L 196.722656 93.820312 L 174.257812 97.199219 L 176.050781 94.445312 L 163.1875 89.261719 L 144.308594 108.414062 L 137.511719 115.605469 L 137.992188 111.667969 L 132.011719 108.191406 L 112.613281 97.425781 L 91.777344 81.070312 L 80.660156 70.324219 L 82.441406 74.808594 L 67.109375 92.589844 L 66.148438 107.640625 L 65.335938 129.402344 L 62.394531 145.046875 L 59.570312 150.945312 L 57.90625 151.9375 L 60.214844 146.710938 L 62.570312 142.550781 L 65.828125 145.222656 L 79.867188 158.394531 L 86.550781 164.34375 L 86.519531 166.945312 L 85.15625 166.011719 L 81.980469 165.492188 L 84.480469 175.007812 L 95.921875 183.046875 L 109.75 193.449219 L 120.800781 202.085938 L 117.339844 196.902344 L 129.046875 185.101562 L 146.53125 171.945312 L 157.988281 166.863281 L 155.160156 168.09375 L 151.679688 167.4375 L 150.175781 164.277344 L 151.011719 165.292969 L 146.28125 169.246094 L 146.503906 169.253906 L 146.625 169.207031 L 146.644531 169.328125 L 146.71875 169.375 L 146.683594 176.859375 L 131.949219 183.109375 L 132.949219 182.730469 L 134.378906 182.992188 L 138.503906 184.664062 L 137.46875 184.851562 L 123.15625 205.335938 L 124.980469 204.5 L 128.765625 199.488281 L 132.347656 198.328125 L 127.066406 199.5625 L 109.269531 211.699219 L 111.929688 209.410156 L 115.800781 205.386719 L 130.617188 201.660156 L 160.34375 196.171875 L 169.5625 190.707031 L 163.507812 193.472656 L 159.472656 176.902344 L 162.371094 164.238281 L 164.023438 155.527344 L 164.226562 156.222656 L 182.410156 131.609375 L 187.722656 109.136719 L 181.6875 116.285156 L 140.863281 93.765625 L 90.992188 66.371094 L 79.253906 58.210938 L 80.039062 58.339844 L 82.21875 60.800781 L 82.519531 61.921875 L 82.898438 61.585938 L 86.945312 59.535156 L 87.570312 58.507812 L 87.636719 58.589844 L 88.328125 58.644531 L 89.117188 59.023438 L 90.699219 60.804688 L 78.851562 79.726562 L 65.679688 116.375 L 63.183594 162.703125 L 52.414062 192.425781 L 46.964844 212.996094 L 40.707031 234.921875 L 37.125 235.652344 L 38.21875 236.183594 L 38.84375 234.652344 L 38.667969 235.273438 L 38 237.480469 L 46.742188 238.5 L 43.652344 239.414062 L 40.976562 238.785156 L 39.871094 237.457031 L 40.167969 237.128906 L 40.71875 237.316406 L 41.199219 237.816406 L 40.6875 238.097656 L 39.746094 238.644531 L 40.285156 239.292969 L 39.992188 239.707031 L 38.917969 238.777344 L 39.238281 239.757812 L 38.550781 239.386719 L 37.863281 239.890625 L 37.042969 239.820312 L 37.285156 239.824219 L 37.578125 239.964844 L 37.082031 239.703125 L 37.507812 239.929688 L 37.582031 239.597656 L 37.972656 239.988281 L 37.421875 239.621094 L 38.183594 240.074219 L 38.691406 240.378906 L 38.0625 239.824219 L 37.273438 239.605469 L 39.289062 239.375 L 38.113281 238.800781 L 39.929688 239.304688 L 44.324219 236.125 L 49.289062 237.226562 L 49.898438 237.957031 L 50.113281 240.550781 L 49.554688 242.527344 L 52.371094 248.109375 L 61.691406 243.796875 L 72.765625 229.320312 L 94.023438 215.335938 L 118.019531 199.742188 L 129.703125 192.121094 L 126.082031 195.09375 L 119.941406 185.976562 L 113.765625 159.730469 L 111.542969 121.136719 L 113.246094 100.703125 L 135.980469 71.21875 L 172.292969 61.445312 L 216 51.972656 L 235.605469 44.953125 L 232.800781 48.519531 L 233.796875 51.054688 L 232.511719 52.992188 L 226.230469 59.59375 L 220.492188 64.289062 L 216.964844 64.847656 L 214.765625 64.667969 L 196.277344 67.070312 L 176.015625 67.113281 L 150.484375 79.035156 L 130.734375 98.796875 L 113.597656 128.535156 L 107.417969 141.195312 L 110.121094 138.28125 L 120.855469 146.816406 L 120.71875 146.644531 L 122.457031 151.703125 L 129.570312 165.566406 L 128.472656 171.992188 L 127.136719 177.003906 L 137.859375 180.820312 L 135.34375 178.585938 L 145.941406 168.445312 L 164.03125 158.03125 L 183.207031 146.542969 L 182.652344 147.226562 L 179.792969 146.328125 L 180.511719 134.605469 L 177.457031 143.535156 L 175.882812 145.3125 L 177.964844 144.136719 L 180.179688 143.757812 L 183.21875 137.515625 L 194.417969 117.164062 L 209.8125 99.5 L 223.09375 81.6875 L 226.238281 64.148438 L 211.195312 58.152344 L 183.894531 59.960938 L 160.195312 77.019531 L 141.941406 101.183594 L 125.484375 127.074219 L 127.046875 126.199219 L 132.558594 135.964844 L 138.449219 148.433594 L 150.683594 167.398438 L 162.757812 181.453125 L 179.070312 201.347656 L 198.597656 222.523438 L 208.042969 231.824219 L 212.550781 233.441406 L 224.425781 239.113281 L 223.117188 246.167969 L 228.195312 248.570312 L 249.289062 252.09375 L 257.621094 262.761719 L 256.699219 262.535156 L 256.570312 261.984375 L 264.25 261.855469 L 264.941406 262.421875 L 267.238281 261.890625 L 265.460938 260.667969 L 253.640625 260.976562 L 254.496094 247.378906 L 249.722656 241.183594 L 243.136719 229.679688 L 234.519531 208.277344 L 233.855469 202.140625 L 229.871094 140.0625 L 229.691406 115.933594 L 239.757812 71.914062 L 252.292969 43.238281 L 243.195312 45.066406 L 227.757812 44.972656 L 176.988281 57.074219 L 124.21875 59.042969 L 91.625 50.984375 L 97.683594 52.324219 L 86.078125 54.101562 L 77.75 60.898438 L 74.875 56.097656 L 69.179688 52.878906 L 64.953125 48.640625 L 66.265625 47.933594 L 66.726562 48.417969 L 58.757812 69.476562 L 61.1875 125.207031 L 62.164062 158.53125 L 66.792969 186.460938 L 64.566406 195.492188 L 54.953125 211.175781 L 42.425781 230.75 L 53.25 233.707031 L 81.570312 229.160156 L 105.339844 219.414062 L 109.488281 218.445312 L 109.042969 219.429688 L 104.449219 219.25 L 109.699219 204.542969 L 120.453125 189.433594 L 132.160156 171.085938 L 133.035156 171.820312 L 132.964844 171.902344 L 131.890625 169.273438 L 129.324219 158.050781 L 129.738281 160.511719 L 129.855469 160.675781 L 129.9375 160.867188 L 128.136719 162.011719 L 128.332031 162.449219 L 128.324219 162.539062 L 128.386719 162.523438 L 128.351562 162.683594 L 128.367188 162.816406 L 128.335938 162.808594 L 128.789062 163.710938 L 119.015625 159.214844 L 119.769531 159.894531 L 119.851562 159.789062 L 119.824219 159.765625 L 120.035156 159.890625 L 124.175781 163.183594 L 124.492188 163.453125 L 124.535156 163.429688 L 124.628906 163.460938 L 124.632812 163.691406 L 124.84375 163.636719 L 128.121094 161.359375 L 129.816406 158.109375 L 129.808594 158.546875 L 129.070312 159.585938 L 126.558594 161.496094 L 104.917969 144.800781 L 108.5 148.460938 L 111.507812 154.722656 L 111.492188 154.558594 L 111.304688 155.109375 L 113.769531 156.679688 L 113.800781 163.019531 L 115.867188 174.566406 L 96.417969 191.703125 L 95.179688 191.382812 L 95.769531 190.949219 L 95.800781 190.910156 L 100.167969 189.445312 L 127.554688 196.445312 L 157.003906 204.132812 L 155.171875 204.105469 L 155.046875 203.738281 L 153.292969 202.753906 L 163.511719 193.792969 L 162.695312 195.085938 L 160.222656 182.183594 L 162.917969 172.578125 L 160.847656 178.113281 L 146.695312 178.445312 L 148.738281 178.261719 L 149 178.296875 L 154.496094 181.878906 L 156.703125 183.605469 L 156.566406 183.585938 L 156.894531 183.242188 L 154.46875 165.570312 L 154.179688 167.847656 L 130.875 130.644531 L 122.640625 118.910156 L 119.070312 108.105469 L 102.238281 69.933594 L 100.113281 63.972656 L 100.65625 64.199219 L 100.683594 64.171875 L 100.671875 64.164062 L 100.671875 64.199219 L 101.273438 66.515625 L 98.628906 68.210938 L 90.3125 72.34375 L 79.25 74.714844 L 67.019531 63.25 L 63.277344 57.136719 L 62.882812 57.566406 L 62.796875 57.636719 L 63.433594 58.195312 L 63.25 58.503906 L 63.453125 58.640625 L 63.917969 59.042969 L 63.902344 59.183594 L 64.273438 58.953125 L 59.359375 54.550781 L 56.0625 49.039062 L 58.792969 47.90625 L 58.917969 55.355469 L 55.667969 75.003906 L 56.671875 86.8125 L 55.316406 86.675781 L 57.308594 91.25 L 58.757812 93.175781 L 64.101562 101.054688 L 68.574219 111.171875 L 63.703125 120.660156 L 60.570312 148.226562 L 57.5 173.167969 L 59.0625 183.988281 L 53.867188 204.460938 L 42.351562 226.613281 L 38.25 234.050781 L 50.097656 239.976562 L 64.179688 235.109375 L 91.746094 225.804688 L 105.472656 222.128906 L 106.925781 222.359375 L 109.289062 221.167969 L 109.199219 220.21875 L 105.820312 216.890625 L 103.746094 197.359375 L 108.203125 178.550781 L 106.15625 177.917969 L 105.753906 177.953125 L 105.859375 177.863281 L 104.953125 176.257812 L 102.308594 166.230469 L 87.363281 139.160156 L 67.714844 100.628906 L 57.730469 79.296875 L 51.253906 54.964844 L 47.832031 52.769531 L 50.371094 56.46875 L 55.378906 56.308594 L 66.691406 55.792969 L 94.613281 59.464844 L 130.007812 68.9375 L 164.058594 68.957031 L 199.511719 64.324219 L 231.742188 53.65625 L 255.875 36.867188 L 256.730469 42.015625 L 248.320312 43.445312 L 229.175781 48.328125 L 198.546875 54.855469 L 163.105469 66.113281 L 140.835938 82.886719 L 117.417969 108.011719 L 103.222656 124.519531 L 106.8125 120.53125 L 114.101562 126.699219 L 118.957031 140.28125 L 131.265625 154.859375 L 129.441406 154.140625 L 129.195312 154.101562 L 129.132812 154.027344 L 129.117188 152.113281 L 129.035156 152.449219 L 129.097656 152.503906 L 129.132812 152.542969 L 128.648438 152.210938 L 124.761719 147.074219 L 124.28125 147.121094 L 124.21875 147.101562 L 124.0625 147.066406 L 124.191406 147.066406 L 124.027344 147.078125 L 124.015625 144.785156 L 124.046875 145.09375 L 124.105469 144.964844 L 121.929688 144.71875 L 123.820312 122.664062 L 123.488281 125.359375 L 115.613281 123.09375 L 95.5 93.449219 L 79.726562 61.34375 L 75.816406 51.6875 L 76.253906 52.683594 L 79.664062 54.664062 L 78.503906 56.183594 L 76.710938 58.945312 L 67.476562 60.871094 L 61.890625 66.371094 L 61.363281 69.863281 L 67.433594 83.691406 L 80.011719 99.78125 L 98.523438 115.148438 L 112.027344 126.226562 L 112.765625 130.09375 L 111.878906 128.074219 L 121.136719 124.1875 L 139.511719 125.078125 L 148.34375 128.746094 L 147.210938 128.195312 L 144.519531 126.835938 L 151.589844 120.117188 L 158.28125 115.0625 L 156.472656 116.277344 L 154.882812 116.117188 L 155.074219 116.042969 L 154.929688 116.160156 L 155.109375 116.085938 L 155.15625 116.183594 L 149.074219 118.691406 L 148.019531 117.570312 L 148.132812 117.808594 L 148.085938 117.800781 L 148.730469 119.863281 L 150.3125 121.867188 L 150.542969 121.6875 L 150.644531 121.648438 L 141.195312 121.398438 L 132.019531 107.40625 L 133.527344 108.789062 L 123.878906 110.671875 L 97.015625 102.722656 L 91.910156 98.71875 L 91.636719 99.34375 L 91.765625 99.351562 L 92.410156 99.671875 L 93.304688 100.765625 L 93.558594 99.335938 L 73.980469 82.761719 L 58.019531 65.9375 L 43.519531 42.734375 L 45.179688 44.152344 L 45.832031 42.515625 L 49.042969 40.351562 L 48.40625 38.234375 L 50.210938 36.847656 L 53.152344 38.371094 L 52.554688 38.152344 L 50.886719 37.539062 L 53.84375 45.339844 L 59.007812 56.253906 L 69.304688 75.027344 L 81.453125 99.359375 L 88.539062 122.398438 L 89.691406 141.621094 L 92.753906 160.054688 L 89.664062 168.285156 L 96.128906 181.011719 L 103.203125 199.816406 L 110.871094 212.199219 L 112.996094 211.335938 L 116.132812 203.832031 L 132.117188 197.0625 L 147.667969 188.230469 L 158.714844 186.707031 L 157.246094 186.542969 L 156.542969 183.492188 L 155.824219 183.695312 L 155.722656 183.789062 L 155.578125 184.03125 L 151.472656 187.039062 L 145.824219 185.496094 L 146.683594 185.75 L 146.96875 185.976562 L 147.152344 186.085938 L 147.804688 198.070312 L 121.941406 204.546875 L 124.628906 204.644531 L 117.945312 206.117188 L 90.578125 222.769531 L 54.046875 237.003906 L 51.105469 239.871094 L 51.265625 239.800781 L 51.816406 239.675781 L 52.003906 239.648438 L 51.882812 239.640625 L 51.386719 239.730469 L 52.785156 239.457031 L 56.265625 236.203125 L 52.597656 212.949219 L 65.710938 155.308594 L 69.695312 106.683594 L 72.804688 91.648438 L 72.652344 94.320312 L 72.335938 94.203125 L 72.355469 94.507812 L 72.378906 94.460938 L 72.21875 94.664062 L 72.6875 94.242188 L 75.976562 92.578125 L 73.945312 94.644531 L 80.828125 95.226562 L 95.753906 96.132812 L 113.730469 102.242188 L 123.472656 105.425781 L 121.578125 103.261719 L 121.34375 101.984375 L 122.015625 101.847656 L 141.277344 92.269531 L 140.980469 92.140625 L 141.132812 92.0625 L 141.132812 92.039062 L 141.191406 92.019531 L 141.1875 92.0625 L 140.019531 92.445312 L 142.050781 88.835938 L 142.539062 73.957031 L 142.085938 71.085938 L 136.984375 73.046875 L 138.675781 74.550781 L 143.308594 77.359375 L 171.785156 71.007812 L 191.734375 69.90625 L 195.9375 67.789062 L 196.199219 68.066406 L 189.382812 66.277344 L 156.859375 63.710938 L 138.070312 59.8125 L 126.628906 57.667969 L 112.992188 70.519531 L 91.222656 91.339844 L 69.796875 107.167969 L 69.605469 130.878906 L 78.300781 152.816406 L 88.429688 173.246094 L 94.148438 184.214844 L 96.179688 192.914062 L 110.867188 207.269531 L 112.679688 210.238281 L 111.535156 207.820312 L 121.753906 202.84375 L 138.78125 202.765625 L 151.367188 199.632812 L 149.859375 200.609375 L 145.472656 198.785156 L 144.800781 197.925781 L 145.082031 198.070312 L 145.070312 198.140625 L 145.066406 198.289062 L 135.421875 200.148438 L 135.976562 200.429688 L 127.472656 189.488281 L 107.332031 144.304688 L 105.332031 120.226562 L 106.34375 120.632812 L 106.222656 120.894531 L 106.246094 121.007812 L 106.269531 121.046875 L 105.105469 123.730469 L 103.503906 123.457031 L 91.136719 110.554688 L 77.023438 91.367188 L 77.609375 88.992188 L 78.714844 90.546875 L 79.523438 92.261719 L 79.785156 92.03125 L 79.390625 91.792969 L 77.847656 92.085938 L 78.320312 94.683594 L 77.375 96.417969 L 70.222656 91.617188 L 68.042969 98.339844 L 74.273438 109.925781 L 84.496094 127.820312 L 100.183594 149.253906 L 115.640625 165.679688 L 114.222656 166.910156 L 116.835938 163.910156 L 136.582031 165.226562 L 153.273438 174.152344 L 174.613281 189.464844 L 171.726562 186.5 L 174.199219 181.730469 L 196.460938 173.007812 L 195.515625 174.390625 L 195.070312 159.664062 L 195.894531 157.230469 L 177.515625 155.609375 L 152.828125 140.929688 L 148.355469 145.933594 L 143.417969 147.136719 L 150.28125 148.503906 L 144.226562 171.234375 L 143.121094 176.007812 L 115.609375 198.191406 L 116.273438 196.921875 L 116.167969 196.886719 L 116.472656 196.714844 L 114.011719 198.671875 L 83.003906 219.667969 L 76.328125 223.511719 L 76.59375 223.230469 L 76.609375 223.136719 L 76.582031 223.121094 L 76.5 223.144531 L 76.453125 223.148438 L 76.398438 223.183594 L 76.34375 223.171875 L 75.484375 223.664062 L 58.851562 228.714844 L 39.027344 239.496094 L 32.550781 245.289062 L 33.289062 244.550781 L 33.511719 244.585938 L 33.507812 244.644531 L 33.457031 244.75 L 32.710938 246.167969 L 29.460938 248.757812 L 27.0625 246.539062 L 32.394531 251.132812 L 30.648438 250.367188 L 34.648438 248.53125 L 35.527344 248.386719 L 35.589844 248.179688 L 36.078125 247.867188 L 36.230469 247.847656 L 35.253906 247.925781 L 40.042969 242.0625 L 46.878906 229.527344 L 54.140625 200.648438 L 63.976562 159.910156 L 73.675781 129.445312 L 90.691406 108.054688 L 115.71875 86.539062 L 153.964844 83.363281 L 202.296875 77.921875 L 235.210938 65.707031 L 254.574219 40.296875 L 255.40625 39.082031 L 259.191406 36.316406 L 257.203125 37.703125 L 247.476562 36.269531 L 246.40625 33.757812 L 234.304688 48.386719 L 215.765625 65.46875 L 190.386719 89.519531 L 169.335938 108.136719 L 161.828125 111.464844 L 168.261719 114.332031 L 168.003906 132.382812 L 168.386719 149.519531 L 161.285156 157.15625 L 153.402344 169.527344 L 151.242188 168.480469 L 143.195312 167.765625 L 137.816406 164.460938 L 136.5 160.292969 L 135.4375 160.566406 L 135.738281 166.011719 L 134.421875 166.644531 L 139.472656 165.085938 L 151.457031 174.464844 L 160.28125 195.511719 L 184.617188 222.628906 L 210.472656 234.34375 L 229.710938 240.644531 L 235.234375 244.148438 L 252.945312 254.570312 L 261.550781 261.941406 L 261.652344 261.554688 L 259.417969 263.492188 L 260.074219 264.421875 L 262.835938 263.613281 L 270.050781 265.488281 L 269.625 267.3125 L 255.699219 262.808594 L 257.085938 251.558594 L 252.519531 245.386719 L 241.445312 241.039062 L 207.070312 232.824219 L 144.386719 220.558594 L 80.925781 232.621094 L 32.765625 258.601562 L 22.886719 259.300781 L 26.210938 261.230469 L 28.175781 257.039062 L 31.800781 254.820312 L 27.335938 253.261719 L 32.121094 247.925781 L 41.765625 238.617188 L 54.710938 221.375 L 67.195312 210.027344 L 83.3125 205.5 L 100.113281 202.613281 L 121.410156 195.714844 L 118.679688 198.445312 L 110.527344 203.792969 L 109.21875 200.5 L 100.152344 182.332031 L 88.472656 156.277344 L 74.8125 127.136719 L 65.097656 100.683594 L 55.867188 74.78125 L 42.792969 45.59375 L 33.550781 31.136719 L 29.71875 31.613281 L 29.300781 31.292969 L 28.070312 22.707031 L 28.484375 19.226562 L 29.449219 19.214844 L 28.464844 17.949219 L 29.058594 22.421875 L 35.921875 29.257812 L 41.597656 39.570312 L 54.375 50.742188 L 68.996094 55.628906 L 90.972656 68.390625 L 107.351562 84.570312 L 116.054688 106.265625 L 121.046875 115.039062 L 120.121094 111.261719 L 132.207031 111.851562 L 144.257812 114.625 L 152.734375 121.015625 L 159.117188 131.070312 L 170.351562 151.691406 L 182.960938 170.867188 L 189.253906 177.050781 L 186.183594 176.121094 L 186.5 176.226562 L 186.742188 176.320312 L 186.84375 176.433594 L 186.699219 176.5625 L 186.75 176.597656 L 185.902344 176.820312 L 186.410156 171.414062 L 196.144531 168.871094 L 203.816406 161.886719 L 202.035156 158.195312 L 202.09375 158.191406 L 202.148438 158.230469 L 202.164062 158.464844 L 201.875 159.949219 L 193.179688 162.523438 L 195.039062 161.988281 L 168.582031 132.40625 L 148.722656 120.003906 L 119.132812 95.03125 L 121.046875 95.25 L 123.804688 99.285156 L 103.695312 113.429688 L 83.898438 136.871094 L 65.710938 160.472656 L 57.148438 185.574219 L 46.480469 214.292969 L 39.652344 235.011719 L 39.828125 233.703125 L 39.847656 233.582031 L 39.824219 233.6875 L 39.808594 233.773438 L 37.460938 237.714844 L 29.359375 247.78125 L 32.726562 247.242188 L 34.707031 256.25 L 32.796875 255.980469 L 32.773438 255.539062 L 32.980469 255.671875 L 32.828125 255.515625 L 32.84375 255.5 L 32.917969 255.519531 L 32.9375 255.523438 L 32.933594 255.523438 L 32.929688 255.480469 L 32.945312 255.464844 L 32.957031 255.46875 L 33 255.464844 L 32.957031 255.457031 L 33.007812 255.449219 L 33.027344 255.484375 L 32.851562 255.898438 L 33.121094 255.402344 L 33.246094 254.992188 L 29.933594 251.5625 L 32.871094 255.96875 L 34.484375 255.648438 L 34.605469 255.640625 L 33.808594 248.855469 L 44.9375 234.945312 L 50.914062 225.800781 L 52.847656 225.945312 L 52.777344 219.457031 L 52.972656 218.171875 L 51.761719 220.894531 L 53.726562 214.824219 L 60.292969 196.011719 L 67.414062 165.664062 L 76.796875 147.625 L 95.695312 137.195312 L 117.101562 127.925781 L 128.714844 124.96875 L 118.699219 124.402344 L 117.957031 105.238281 L 120.578125 93.457031 L 136.503906 81.480469 L 147.871094 70.84375 L 151.964844 68.027344 L 148.765625 67.269531 L 150.039062 65.332031 L 148.070312 65.347656 L 144.613281 61.589844 L 145.855469 61.109375 L 145.363281 65.253906 L 139.417969 69.914062 L 128.644531 64.964844 L 112.132812 76.90625 L 93.585938 88.507812 L 91.882812 88.234375 L 92.109375 87.617188 L 92.042969 88.039062 L 92.148438 87.964844 L 93.902344 88.222656 L 90.222656 106.179688 L 91.777344 120.949219 L 108.703125 138.949219 L 117.175781 149.128906 L 113.871094 139.371094 L 134.335938 131.367188 L 151.074219 122.984375 L 171.117188 120.65625 L 182.539062 118.003906 L 179.179688 117.171875 L 177.257812 110.601562 L 177.597656 96.667969 L 176.179688 99.847656 L 176.382812 100.074219 L 176.402344 100.191406 L 173.050781 101.207031 L 164.410156 97.582031 L 165.945312 97.566406 L 165.953125 97.511719 L 167.699219 98.007812 L 169.664062 101.316406 L 169.09375 101.347656 L 169.222656 101.25 L 169.300781 101.238281 L 169.355469 101.089844 L 169.496094 101.007812 L 169.363281 101 L 169.398438 100.988281 L 171.734375 100.757812 L 168.714844 105.75 L 170.261719 104.617188 L 172.9375 104.191406 L 169.199219 126.117188 L 169.667969 123.105469 L 169.621094 122.488281 L 169.613281 122.449219 L 169.609375 120.335938 L 169.050781 117.972656 L 170.40625 117.777344 L 170.511719 117.808594 L 170.445312 117.847656 L 166.917969 122.601562 L 173.828125 137.328125 L 200.296875 180.957031 L 218.757812 205.429688 L 224.835938 212.714844 L 223.789062 212.433594 L 222.554688 212.003906 L 220.480469 211.234375 L 213.722656 203.050781 L 214.5625 203.027344 L 212.410156 197.683594 L 188.738281 201.722656 L 163.507812 201.15625 L 119.632812 215.535156 L 83.714844 221.015625 L 85.183594 220.882812 L 71.933594 229.179688 L 43.515625 244.261719 L 43.921875 244.1875 L 44 244.128906 L 43.964844 244.167969 L 43.984375 244.160156 L 44.003906 244.140625 L 44.007812 244.132812 L 44 244.132812 L 43.976562 244.128906 L 41.269531 245.191406 L 41.933594 245.886719 L 41.265625 250.207031 L 32.988281 245.453125 L 31.113281 246.792969 L 26.847656 246.851562 L 30.726562 249.902344 L 30.84375 249.601562 L 30.902344 249.546875 L 30.933594 250.191406 L 30.972656 249.628906 L 30.980469 249.574219 L 31 249.621094 L 31.015625 250.320312 L 31.019531 250.335938 L 31.042969 250.351562 L 31 250.390625 L 30.839844 250.546875 L 30.796875 249.898438 L 31.742188 254.65625 L 30.683594 249.746094 L 30.839844 249.792969 L 31.792969 250.066406 L 33.667969 249.871094 L 35.570312 248.019531 L 43.210938 250.832031 L 49.710938 249.4375 L 56.851562 247.820312 L 59.554688 238.945312 L 61.457031 244.753906 L 68.023438 241.355469 L 75.234375 225.183594 L 86.722656 206.300781 L 99.851562 190.273438 L 109.664062 183.335938 L 107.308594 185.738281 L 94.65625 188.058594 L 82.925781 164.214844 L 66.078125 135.957031 L 57.433594 97.792969 L 47.011719 59.984375 L 42.601562 46.148438 L 44.113281 49.480469 L 46.152344 49.8125 L 46.554688 49.003906 L 46.300781 46.195312 L 46.675781 48.609375 L 48.65625 53.628906 L 69.339844 63.179688 L 89.453125 74.09375 L 105.613281 94.042969 L 107.644531 99.472656 L 116.558594 124.199219 L 119.761719 137.734375 L 121.0625 126.023438 L 139.246094 126.101562 L 150.492188 125.824219 L 159.484375 129.703125 L 156.449219 127.949219 L 153.929688 121.722656 L 155.144531 121.175781 L 157.839844 114.632812 L 156.660156 114.617188 L 156.730469 114.621094 L 156.703125 114.769531 L 156.460938 115.398438 L 156.433594 115.457031 L 156.527344 115.425781 L 155.917969 116.371094 L 152.34375 119.222656 L 152.519531 119.171875 L 152.722656 119.296875 L 152.742188 119.3125 L 153.523438 120.644531 L 153.578125 120.167969 L 153.695312 120.097656 L 152.40625 121.480469 L 145.125 123.613281 L 128.378906 124.097656 L 118.035156 125.914062 L 108.648438 150.691406 L 96.464844 177.9375 L 94.550781 177.5 L 60.679688 214.089844 L 43.753906 231.710938 L 42.371094 231.914062 L 42.398438 231.773438 L 42.414062 231.789062 L 42.390625 231.839844 L 42.265625 231.984375 L 38.421875 234.742188 L 38.449219 237.792969 L 37.65625 237.851562 L 37.847656 237.859375 L 37.886719 237.917969 L 38.023438 236.785156 L 39.199219 241.683594 L 40.304688 246.761719 L 37.308594 247.460938 L 37.941406 244.824219 L 36.835938 247.5625 L 36.6875 247.554688 L 37.039062 245.734375 L 37.011719 245.699219 L 37.484375 244.914062 L 37.117188 245.441406 L 37.15625 245.417969 L 37.191406 245.363281 L 37.269531 245.308594 L 37.617188 244.6875 L 37.304688 245.289062 L 37.671875 244.699219 L 37.703125 244.679688 L 37.71875 244.699219 L 37.746094 244.964844 L 37.863281 245.007812 L 38.429688 243.832031 L 40.582031 242.703125 L 49.640625 237.15625 L 70.113281 229.816406 L 91.328125 217.339844 L 108.960938 211.761719 L 116.433594 208.558594 L 106.890625 203.035156 L 112.414062 178.601562 L 115.5 170.625 L 123.089844 164.289062 L 118.867188 167.878906 L 113.480469 169.238281 L 113.140625 169.808594 L 113.085938 170.003906 L 113.097656 169.992188 L 113.070312 170.027344 L 111.367188 170.550781 L 106.730469 164.039062 L 107.578125 164.5625 L 107.550781 164.507812 L 107.558594 164.5 L 109.5625 167.269531 L 111.789062 169.800781 L 111.210938 172.296875 L 110.996094 171.929688 L 111.257812 172.050781 L 111.191406 172.125 L 111.234375 172.164062 L 111.433594 172.121094 L 113.664062 170.605469 L 113.871094 171.613281 L 105.90625 181 L 71.511719 201.589844 L 53.023438 217.34375 L 39.640625 232.917969 L 39.230469 231.726562 L 40.132812 232.765625 L 40.203125 232.839844 L 40.222656 232.941406 L 40.210938 232.992188 L 39.921875 232.554688 L 39.5 235.261719 L 43.773438 244.582031 L 39.128906 246.0625 L 36.957031 247.726562 L 38.1875 245.296875 L 37.917969 243.796875 L 38.335938 243.804688 L 38.316406 243.773438 L 38.367188 243.828125 L 37.554688 244.613281 L 36.441406 247.125 L 35.535156 248.34375 L 35.621094 248.453125 L 36.007812 248.398438 L 35.894531 248.046875 L 38.253906 246.359375 L 51.605469 232.238281 L 66.445312 219.414062 L 87.726562 200.074219 L 106.375 189.015625 L 112.988281 187.710938 L 110.621094 184.667969 L 102.839844 182.621094 L 93.65625 147.625 L 95.355469 125.726562 L 104.082031 116.925781 L 118.875 103.6875 L 134.125 98.285156 L 133.441406 98.535156 L 133.359375 98.773438 L 133.347656 98.828125 L 133.351562 98.867188 L 131.511719 98.183594 L 137.402344 93.828125 L 138.179688 94.378906 L 138.328125 94.371094 L 138.308594 94.453125 L 135.246094 97.253906 L 139.046875 100.195312 L 143.027344 106.539062 L 141.984375 109.492188 L 144.03125 108.625 L 144.015625 108.480469 L 155.246094 119.242188 L 157.910156 124.109375 L 156.792969 123.078125 L 162.277344 116.652344 L 183.015625 115.601562 L 182.609375 115.203125 L 182.191406 114.980469 L 182.148438 114.929688 L 180.261719 113.992188 L 180.617188 114.089844 L 180.597656 114.074219 L 180.546875 114.089844 L 180.597656 114.085938 L 180.523438 114.128906 L 173.410156 114.613281 L 170.949219 113.742188 L 171.035156 113.785156 L 170.898438 113.777344 L 170.890625 113.757812 L 170.925781 113.820312 L 161.457031 109.832031 L 154.257812 96.699219 L 152.386719 104.539062 L 128.066406 112.085938 L 120.011719 114.476562 L 106.789062 121.792969 L 110.78125 126.871094 L 87.109375 167.328125 L 59.867188 200.738281 L 50.230469 212.472656 L 50.304688 212.238281 L 50.292969 212.109375 L 50.324219 212.125 L 50.292969 212.140625 L 50.285156 212.160156 L 50.269531 212.160156 L 50.265625 212.15625 L 49.199219 213.964844 L 47.710938 214.246094 L 49.46875 215.234375 L 50.660156 222.597656 L 49.707031 224.917969 L 49.40625 221.527344 L 49.6875 221.605469 L 48.535156 220.773438 L 49.019531 220.699219 L 49.035156 220.707031 L 48.953125 220.792969 L 49 220.765625 L 54.960938 215.699219 L 66.898438 208.917969 L 82.765625 203.851562 L 100.621094 202.515625 L 105.675781 208.121094 L 108.675781 209.4375 L 108.5 206.449219 L 98.871094 199.414062 L 107.578125 173.058594 L 113.296875 163.363281 L 115.457031 160.894531 L 111.414062 163.734375 L 97.78125 141.195312 L 88.117188 116.042969 L 84.417969 102.246094 L 85.304688 102.863281 L 85.328125 102.632812 L 85.609375 103.882812 L 85.652344 103.742188 L 85.785156 105.210938 L 87.15625 106.15625 L 87.886719 106.515625 L 89.890625 108.597656 L 103.957031 109.230469 L 110.78125 115.441406 L 112.488281 117.664062 L 112.957031 110.628906 L 134.292969 108.363281 L 149.59375 110.078125 L 149.121094 111.042969 L 147.558594 110.261719 L 148.660156 108.71875 L 149.152344 108.765625 L 148.660156 108.707031 L 148.804688 108.582031 L 146.941406 108.851562 L 141.828125 106.664062 L 141.820312 106.710938 L 141.421875 106.734375 L 140.914062 107.324219 L 128.171875 104.476562 L 118.957031 89.257812 L 124.964844 95.03125 L 123.703125 97.828125 L 110.710938 109.976562 L 95.449219 125.828125 L 103.015625 124.792969 L 110.695312 149.765625 L 109.382812 150.605469 L 104.71875 166.488281 L 105.589844 163.210938 L 113.046875 162.027344 L 112.488281 162.691406 L 110.574219 160.691406 L 130.316406 141.214844 L 151.144531 135.675781 L 159.699219 113.539062 L 177.832031 89.445312 L 176.542969 91.269531 L 168.90625 92.382812 L 163.488281 83.09375 L 162.292969 85.632812 L 129.613281 79.183594 L 106.613281 70.789062 L 107.1875 70.691406 L 107.09375 70.636719 L 107.078125 70.746094 L 107.132812 70.738281 L 102.660156 76.667969 L 88.117188 83.726562 L 82.601562 90.773438 L 68.589844 109.273438 L 62.882812 111.171875 L 65.21875 114.601562 L 65.21875 122.210938 L 71.886719 136.757812 L 73.300781 151.132812 L 70.371094 161.945312 L 62.324219 177.476562 L 58.757812 192.738281 L 64.878906 199.613281 L 84.097656 200.554688 L 100.339844 199.347656 L 110.691406 204.117188 L 110.382812 201.101562 L 109.226562 193.636719 L 116.0625 167.707031 L 123.171875 158.199219 L 127.875 150.113281 L 121.957031 157.679688 L 117.800781 160.007812 L 117.851562 160.738281 L 115.464844 160.589844 L 115.605469 159.914062 L 98.140625 156.382812 L 88.503906 149.15625 L 88.8125 148.980469 L 88.902344 149.136719 L 88.996094 149.199219 L 83.199219 142.746094 L 65.746094 116.121094 L 57.800781 90.363281 L 55.210938 72.171875 L 53.953125 74.726562 L 56.5625 77.589844 L 68.160156 77.699219 L 92.71875 79.785156 L 113.445312 82.164062 L 122.070312 94.71875 L 127.714844 109.332031 L 128.617188 113.285156 L 133.597656 101.535156 L 156.722656 103.082031 L 170.019531 102.164062 L 179.390625 101.363281 L 171.75 98.46875 L 172.082031 92.28125 L 171.890625 92.511719 L 171.914062 92.570312 L 171.804688 92.691406 L 171.75 92.714844 L 170.019531 92.226562 L 169.945312 91.546875 L 173.296875 88.820312 L 174.917969 88.21875 L 175.039062 88.535156 L 174.207031 91 L 174.144531 93.074219 L 177.671875 94.796875 L 180.101562 99.828125 L 182.421875 108.886719 L 181.285156 110.269531 L 181.128906 98.5 L 207.234375 87.414062 L 225.476562 74.585938 L 243.234375 56.570312 L 251.628906 40.183594 L 254.203125 39.511719 L 254.082031 39.714844 L 253.761719 40.339844 L 248.605469 40.921875 L 243.996094 33.546875 L 243.34375 41.011719 L 232.511719 46.628906 L 229.65625 53.066406 L 213.953125 72.304688 L 196.0625 84.0625 L 177.214844 90.179688 L 164.722656 101.523438 L 156.492188 107.3125 L 168.792969 102.851562 L 173.488281 116.503906 L 174.613281 115.804688 L 175.59375 115.730469 L 174.753906 106.84375 L 195.886719 101.546875 L 195.550781 101.359375 L 195.125 101.144531 L 194.898438 101.347656 L 194.902344 101.382812 L 194.882812 101.46875 L 194.78125 101.386719 L 188.617188 95.292969 L 188.277344 94.304688 L 187.855469 94.671875 L 187.445312 90.945312 L 188.597656 88.699219 L 188.808594 88.765625 L 188.460938 89.503906 L 189.425781 91.628906 L 195.761719 81.726562 L 208.980469 68.050781 L 207.726562 68.371094 L 203.210938 64.703125 L 195.121094 65.546875 L 172.847656 70.34375 L 158.425781 72.742188 L 146.273438 69.636719 L 132.046875 83.660156 L 113.851562 102.90625 L 111.734375 111.558594 L 116.515625 101.929688 L 134.152344 111.792969 L 143.160156 117.355469 L 145.34375 119.710938 L 143.121094 117.378906 L 164.269531 107.113281 L 169.382812 106.429688 L 168.8125 106.53125 L 168.320312 106.757812 L 168.222656 106.828125 L 163.492188 102.484375 L 163.082031 102.933594 L 153.421875 103.339844 L 153.152344 103.816406 L 153.398438 103.726562 L 148.171875 104.378906 L 150.3125 105.820312 L 104.507812 94.753906 L 94.945312 92.441406 L 95.339844 93.148438 L 77.644531 124.40625 L 68.046875 151.300781 L 61.660156 170.175781 L 59.589844 176.816406 L 58.308594 176.765625 L 58.171875 176.730469 L 58.183594 176.648438 L 58.214844 176.792969 L 57.460938 176.304688 L 57.820312 180.539062 L 57.289062 193.058594 L 57.773438 210.539062 L 61.949219 224.625 L 57.976562 221.578125 L 57.003906 219.628906 L 57.066406 218.976562 L 59.988281 217.074219 L 68.394531 212.476562 L 66.160156 214.492188 L 66.308594 215.28125 L 66.160156 215.042969 L 66.101562 214.832031 L 65.882812 214.675781 L 69.992188 206.953125 L 83.761719 190.964844 L 93.144531 187.066406 L 99.507812 187.777344 L 105.777344 184.28125 L 106.726562 184.734375 L 99.648438 172.90625 L 113.914062 143.5625 L 126.121094 134.25 L 117.589844 139.070312 L 87.519531 127.234375 L 86.292969 127.066406 L 83.359375 132.535156 L 67.074219 151.054688 L 58.53125 172.625 L 57.476562 175.222656 L 58.078125 174.871094 L 58.195312 175.125 L 65.546875 190.015625 L 76.839844 206.246094 L 100.292969 214.246094 L 104.070312 213.84375 L 113.78125 200.296875 L 117.152344 197.003906 L 107.378906 197.847656 L 84.671875 167.765625 L 75.429688 142.53125 L 80.164062 132.5625 L 79.851562 131.410156 L 79.90625 131.492188 L 82.082031 131.507812 L 99.9375 119.875 L 117.375 112.027344 L 127.835938 110.058594 L 119.558594 110.699219 L 119.765625 110.371094 L 119.535156 110.882812 L 115.90625 106.015625 L 116.683594 106.910156 L 116.894531 106.957031 L 116.902344 106.929688 L 110.871094 111.847656 L 112.078125 112.746094 L 112.75 113.945312 L 91.113281 119.257812 L 91.007812 119.195312 L 90.535156 119.226562 L 91.566406 120.519531 L 75.078125 128.988281 L 66.328125 144.820312 L 61.585938 153.445312 L 61.445312 154.289062 L 64.835938 159.070312 L 70.636719 167.484375 L 77.734375 175.515625 L 94.199219 188.285156 L 103.324219 196.308594 L 101.871094 195.351562 L 99.59375 196.511719 L 94.273438 197.039062 L 91.378906 198.523438 L 94.710938 194.21875 L 111.503906 195.546875 L 118.878906 196.839844 L 109.171875 193.339844 L 106.199219 193.195312 L 103.101562 167.691406 L 105.578125 159.261719 L 112.574219 152.464844 L 111.398438 154.582031 L 110.945312 154.800781 L 110.507812 155.050781 L 110.695312 154.796875 L 110.808594 154.875 L 101.683594 153.316406 L 97.078125 140.324219 L 97.128906 141.203125 L 97.238281 141.3125 L 96.078125 143.0625 L 80.714844 128.589844 L 81.429688 129.699219 L 81.609375 129.898438 L 81.433594 131 L 80.820312 131 L 85.226562 130.484375 L 101.3125 116.066406 L 116.070312 117.644531 L 116.507812 120.355469 L 109.253906 115.4375 L 131.289062 102.332031 L 166.371094 91.03125 L 188.214844 77.402344 L 208.582031 59.8125 L 230.503906 46.410156 L 239.742188 40.476562 L 239.460938 40.539062 L 240.847656 41.371094 L 242.292969 43.953125 L 245.851562 46.617188 L 240.195312 50.820312 L 240.917969 51.121094 L 231.078125 58.007812 L 218.476562 68.921875 L 200.332031 86.21875 L 180.875 98.039062 L 161.210938 102.941406 L 151.976562 105.84375 L 162.8125 111.203125 L 168.421875 125.441406 L 181.054688 143.242188 L 188.542969 158.574219 L 186.125 150.003906 L 187.320312 149.730469 L 187.351562 149.703125 L 183.472656 147.449219 L 172.976562 156.28125 L 168.25 157.523438 L 150.121094 164.023438 L 86.945312 175.316406 L 59.582031 204.785156 L 45.128906 224.539062 L 45.222656 223.644531 L 45.269531 223.550781 L 45.253906 223.460938 L 45.199219 223.425781 L 45.199219 223.410156 L 44.859375 230.101562 L 45.394531 241.347656 L 44.359375 241.765625 L 45.328125 240.691406 L 45.269531 240.898438 L 45.292969 240.847656 L 45.273438 240.855469 L 45.285156 240.816406 L 45.292969 240.828125 L 45.34375 240.824219 L 45.351562 240.808594 L 44.449219 241.722656 L 45.003906 239.976562 L 45.589844 237.652344 L 46.164062 239.3125 L 49.621094 238.488281 L 48.582031 235.328125 L 56.695312 211.25 L 66.996094 200.148438 L 80.347656 197.851562 L 99.765625 190.636719 L 112.640625 194.582031 L 119.015625 193.625 L 110.621094 188.941406 L 102.824219 161.269531 L 108.484375 147.90625 L 111.992188 141.089844 L 103.535156 149.757812 L 78.113281 135.753906 L 64.3125 118.238281 L 58.28125 100.308594 L 53.164062 85.5 L 53.105469 82.175781 L 53.140625 82.066406 L 53.34375 82.160156 L 53.351562 82.289062 L 53.46875 81.863281 L 53.988281 82.046875 L 55.90625 84.492188 L 63.21875 82.835938 L 82.511719 84.9375 L 92.003906 95.484375 L 96.238281 116.371094 L 102.152344 136.382812 L 101.175781 144.117188 L 99.136719 148.335938 L 98.675781 165.515625 L 103.128906 182.238281 L 110.527344 196.5 L 113.886719 199.511719 L 108.046875 191.003906 L 115.242188 180.152344 L 125.167969 168.453125 L 133.054688 159.878906 L 124.800781 163.402344 L 106.691406 144.144531 L 86.238281 123.824219 L 73.285156 107.898438 L 71.566406 99.613281 L 71.785156 99.875 L 72.0625 99.738281 L 72.21875 99.765625 L 72.585938 101.070312 L 76.800781 100.257812 L 88.8125 90.171875 L 110.429688 86.925781 L 118.929688 89.804688 L 133.394531 103.738281 L 138.492188 111.363281 L 135.6875 99.945312 L 153.214844 86.902344 L 178.320312 67.25 L 213.632812 51.085938 L 242.992188 40.25 L 241.433594 40.3125 L 241.425781 40.53125 L 240.503906 40.832031 L 237.882812 44.523438 L 240.792969 63.90625 L 229.386719 103.589844 L 222.84375 116.761719 L 225.46875 111.6875 L 228.019531 113.007812 L 230.644531 135.746094 L 228.746094 176.101562 L 229.074219 174.996094 L 231.621094 199.875 L 238.066406 218.0625 L 207.722656 229.363281 L 128.117188 222.03125 L 57.609375 238.945312 L 39.1875 246.957031 L 35.074219 248.796875 L 27.640625 253.785156 L 27.507812 254.007812 L 27.640625 253.773438 L 27.746094 253.714844 L 27.726562 253.707031 L 28.261719 252.527344 L 24.394531 249.511719 L 28.230469 254.390625 L 36.390625 255.320312 L 36.4375 255.210938 L 34.21875 255.085938 L 32.992188 255.535156 L 34.230469 254.644531 L 34.449219 254.703125 L 34.371094 254.648438 L 34.449219 254.660156 L 34.449219 254.625 L 34.460938 254.601562 L 34.53125 254.5625 L 34.894531 254.492188 L 34.90625 254.429688 L 34.90625 254.476562 L 34.917969 254.429688 L 34.929688 254.460938 L 34.917969 254.441406 L 34.304688 254.574219 L 34.96875 254.402344 L 35.582031 254.226562 L 39.519531 245.792969 L 51.851562 234.492188 L 69.113281 218.019531 L 92.339844 206.742188 L 109.554688 195.984375 L 110.957031 195.828125 L 95.980469 183.53125 L 88.664062 141.296875 L 88.882812 101.015625 L 95.242188 95.429688 L 95.011719 95.757812 L 95.171875 95.847656 L 95.242188 95.859375 L 95.121094 96.019531 L 95.121094 96.402344 L 106.140625 93.441406 L 119.273438 98.082031 L 127.734375 111.132812 L 132.507812 116.96875 L 129.5 103.6875 L 150.382812 103.671875 L 151.59375 103.414062 L 155.363281 102.347656 L 142.015625 99.140625 L 141.996094 98.371094 L 142.398438 97.992188 L 137.824219 90.980469 L 133.332031 75.382812 L 129.867188 74.03125 L 104.636719 61.113281 L 87.765625 52.167969 L 77.488281 48.089844 L 73.199219 45.453125 L 73.582031 45.519531 L 73.097656 50.214844 L 76.839844 45.140625 L 77.335938 44.996094 L 76.777344 58.667969 L 77.3125 94.644531 L 83.417969 134.542969 L 95.917969 148.777344 L 102.53125 156.621094 L 101.570312 160.222656 L 114.46875 173.203125 L 111.574219 169.765625 L 113.242188 160.117188 L 123.300781 149.765625 L 129.773438 143.433594 L 135.804688 141.914062 L 130.859375 142.292969 L 130.226562 141.839844 L 130.136719 142.152344 L 130.210938 142.203125 L 129.820312 142.898438 L 123.5 139.136719 L 120.773438 132.828125 L 121.503906 133.621094 L 122.558594 137.398438 L 112.730469 143.921875 L 113.09375 143.121094 L 113.773438 142.917969 L 116.605469 143.863281 L 103.78125 171.847656 L 99.113281 176.65625 L 67.976562 207.855469 L 46.003906 229.046875 L 37.742188 235.113281 L 38.984375 234.894531 L 39.011719 234.855469 L 38.992188 234.921875 L 39.078125 234.773438 L 40.496094 234.5 L 39.746094 234.308594 L 37.632812 237.1875 L 32.160156 244.160156 L 36.808594 247.480469 L 37.671875 254.101562 L 35.578125 247.738281 L 36.21875 247.226562 L 36.125 247.042969 L 36.253906 247.105469 L 36.121094 246.917969 L 39.800781 242.84375 L 52.210938 230.953125 L 67.464844 218.703125 L 85.144531 215.421875 L 99.515625 211.085938 L 116.394531 203.464844 L 131.632812 199.523438 L 116.949219 195.417969 L 109.855469 168.242188 L 112.035156 154.019531 L 113.222656 151.667969 L 106.816406 157.574219 L 93.402344 146.164062 L 93.929688 146.308594 L 92.839844 149.347656 L 82.8125 149.5625 L 71.660156 149.203125 L 71.628906 148.472656 L 72.019531 148.613281 L 74.832031 144.171875 L 65.761719 116.878906 L 69.089844 104.121094 L 86.308594 100.539062 L 113.304688 99.4375 L 131.957031 103.796875 L 139.019531 105.972656 L 127.226562 99.800781 L 126.242188 98.828125 L 126.808594 99.28125 L 127.085938 99.234375 L 125.148438 101.605469 L 124.976562 102.992188 L 112.234375 102.554688 L 88.980469 91.492188 L 76.152344 102.148438 L 67.214844 116.386719 L 63.949219 135.628906 L 60.675781 165.019531 L 53.816406 201.988281 L 47.214844 229.488281 L 46.433594 235.925781 L 48.695312 240.058594 L 47.195312 237.050781 L 49.003906 235.453125 L 49.011719 235.601562 L 49.078125 235.625 L 49.070312 235.578125 L 49.097656 235.53125 L 49.132812 235.507812 L 49.164062 235.488281 L 49.179688 235.453125 L 49.125 235.597656 L 50.300781 235.953125 L 68.441406 220.765625 L 91.242188 217.480469 L 105.175781 219.257812 L 108.449219 218.257812 L 109.613281 214.929688 L 96.09375 207.320312 L 100.402344 171.246094 L 103.921875 164.378906 L 108.519531 156.914062 L 111.957031 152.285156 L 101.007812 160.078125 L 95.269531 158.988281 L 95.675781 158.839844 L 95.554688 159.945312 L 82.621094 151.277344 L 73.007812 137.289062 L 73.5 136.832031 L 81.980469 140.15625 L 98.796875 132.640625 L 110.082031 135.015625 L 112.734375 138.058594 L 105.523438 133.402344 L 118.753906 118.101562 L 132.957031 108.0625 L 146.875 100.652344 L 145.132812 101.730469 L 144.851562 101.773438 L 131.59375 98.304688 L 136.730469 91.359375 L 135.644531 91.503906 L 136.160156 92.289062 L 151.089844 86.765625 L 193.53125 74.152344 L 235.765625 59.175781 L 254.800781 37.511719 L 262.363281 29.382812 L 264.890625 23.671875 L 265.578125 23.023438 L 265.347656 22.46875 L 265.25 22.660156 L 267.449219 23.042969 L 269.304688 26.035156 L 265.644531 27.0625 L 253.433594 32.085938 L 243.667969 35.601562 L 226.457031 53.03125 L 207.6875 73.019531 L 187.042969 91.566406 L 175.3125 99.003906 L 157.988281 103.1875 L 149.792969 106.507812 L 162.15625 102.9375 L 164.753906 112.613281 L 170.058594 119.167969 L 173.65625 131.273438 L 171.066406 122.4375 L 173.199219 122.710938 L 173.3125 123.160156 L 173.03125 123.054688 L 167.769531 116.375 L 168.277344 116.3125 L 168.277344 116.511719 L 168.351562 116.523438 L 168.621094 116.496094 L 168.601562 116.339844 L 171.1875 108.449219 L 175.847656 102.335938 L 168.90625 106.261719 L 118.328125 102.75 L 99.128906 111.65625 L 72.078125 139.042969 L 62.84375 166.664062 L 59.109375 175.707031 L 58.125 194.382812 L 49.796875 220.394531 L 36.871094 238.359375 L 37.746094 238.300781 L 36.089844 240.691406 L 26.628906 251.8125 L 23.804688 256.980469 L 24.792969 259.601562 L 24.09375 260.265625 L 24.34375 260.484375 L 24.664062 260.527344 L 24.792969 260.636719 L 25.261719 260.195312 L 22.851562 257.695312 L 21.214844 254.332031 L 28.214844 255.941406 L 35.238281 255.191406 L 44.773438 238.777344 L 62.773438 226.695312 L 85.847656 215.3125 L 104.339844 209.117188 L 115.914062 200.894531 L 113.960938 200.179688 L 97.742188 198.6875 L 80.570312 170.039062 L 78.292969 155.730469 L 81.765625 149.492188 L 82.6875 150.003906 L 92.148438 145.101562 L 104.132812 145.886719 L 110.597656 153.707031 L 115.183594 154.550781 L 105.519531 146.246094 L 106.0625 146.546875 L 101.785156 130.945312 L 113.242188 121.160156 L 115.042969 120.300781 L 106.535156 125.511719 L 93.359375 118.320312 L 92.699219 116.554688 L 92.71875 116.339844 L 87.847656 119.128906 L 72.839844 121.359375 L 73.152344 122.511719 L 73.078125 122.421875 L 74.820312 123.003906 L 70.503906 138.210938 L 71.171875 154.046875 L 81.832031 172.542969 L 98.414062 179.023438 L 108.691406 189.539062 L 109.367188 191.300781 L 103.296875 182.65625 L 110.714844 176.628906 L 120.683594 171.925781 L 120.945312 171.320312 L 109.75 173.921875 L 108.449219 155.898438 L 108.800781 155.914062 L 108.929688 156.164062 L 100.449219 161.09375 L 78.742188 144.742188 L 78.34375 144.539062 L 78.449219 144.464844 L 78.496094 144.5625 L 79.714844 147.628906 L 79.375 147.035156 L 79.554688 147.183594 L 81.59375 149.492188 L 82.882812 139.066406 L 85.621094 125.550781 L 101.21875 120.738281 L 114.417969 123.441406 L 116.824219 124.609375 L 112.261719 115.222656 L 135.035156 104 L 181.859375 85.871094 L 218.035156 66.664062 L 246.898438 39.867188 L 254.257812 33.570312 L 253.34375 33.558594 L 252.617188 34.605469 L 252.816406 34.425781 L 245.160156 35.09375 L 245.453125 40.84375 L 237.644531 69.460938 L 222.992188 82.945312 L 204.839844 89.628906 L 183.839844 94.261719 L 166.488281 100.121094 L 153.835938 107.097656 L 136.78125 119.308594 L 144.894531 113.175781 L 149.285156 113.601562 L 148.875 113.554688 L 153.5625 115.917969 L 151.46875 112.921875 L 146.875 114.808594 L 142.558594 123.546875 L 143.085938 123.332031 L 143.453125 122.65625 L 143.449219 122.640625 L 143.191406 122.832031 L 128.363281 143.023438 L 130.070312 138.132812 L 96.285156 175.085938 L 66.65625 210.386719 L 44.039062 231.277344 L 40.917969 231.515625 L 41.035156 231.222656 L 41.074219 231.222656 L 41.078125 231.207031 L 40.984375 231.035156 L 39.367188 236.203125 L 40.199219 241.929688 L 40.011719 246.28125 L 38.402344 245.203125 L 38.863281 244.839844 L 38.886719 245.035156 L 38.886719 245.003906 L 38.902344 244.96875 L 38.929688 244.984375 L 39.773438 242.410156 L 42.726562 240.992188 L 48.636719 237.523438 L 61.640625 226.101562 L 77.328125 210.207031 L 93.0625 200.894531 L 106.449219 199.3125 L 114.238281 192.433594 L 109.535156 196.332031 L 99.332031 196.261719 L 79.253906 165.894531 L 79.785156 151.914062 L 80.546875 151.898438 L 86.027344 148.132812 L 103.832031 136.101562 L 114.769531 137.765625 L 115.851562 137.308594 L 107.347656 135.578125 L 100.167969 129.664062 L 83.425781 102.046875 L 65.898438 76.191406 L 46.894531 41.882812 L 32.414062 26.898438 L 24.878906 22.792969 L 23.53125 20.261719 L 23.464844 18.410156 L 23.371094 21.253906 L 28.757812 22.238281 L 34.234375 27.171875 L 33.148438 36.160156 L 43.800781 42.667969 L 58.800781 62.132812 L 69.0625 92.292969 L 77.117188 122.609375 L 90.746094 144.554688 L 103.128906 163.570312 L 105.5 178.191406 L 118.914062 192.488281 L 130.042969 193.050781 L 117.523438 189.722656 L 114.644531 187.640625 L 114.046875 156.242188 L 116.960938 149.484375 L 113.9375 154.015625 L 103.382812 149.859375 L 86.734375 134.972656 L 85.117188 132.269531 L 85.167969 131.835938 L 86.238281 135.503906 L 84.027344 134.640625 L 66.097656 114.863281 L 54.464844 76.050781 L 62.394531 57.070312 L 76.800781 58.882812 L 106.339844 73.101562 L 116.257812 84.472656 L 120.082031 104.238281 L 116.628906 115.289062 L 120.738281 107.007812 L 142.542969 108.648438 L 154.898438 114.195312 L 156.871094 115.367188 L 154.28125 113.03125 L 146.214844 109.964844 L 146.507812 110.617188 L 145.957031 111.035156 L 145.910156 110.605469 L 147.1875 105.964844 L 147.226562 105.832031 L 160.46875 91.488281 L 161.617188 90.59375 L 208.777344 62.375 L 216.8125 54.308594 L 216.515625 54.5625 L 215.007812 56.542969 L 214.652344 61.164062 L 213.507812 67.140625 L 216.265625 79.367188 L 215.445312 91.050781 L 216.410156 104.152344 L 211.792969 107.945312 L 216.648438 104 L 217.175781 104.324219 L 226.773438 124.574219 L 229.78125 154.660156 L 229.632812 162.886719 L 220.011719 197.03125 L 162.160156 211.042969 L 108.253906 224.703125 L 85.566406 228.835938 L 50.738281 239.871094 L 46.070312 243.421875 L 46.246094 243.269531 L 46.230469 243.191406 L 46.210938 243.109375 L 46.246094 243.082031 L 47.144531 242.550781 L 47.789062 241.570312 L 48 231.824219 L 51.898438 209.675781 L 53.433594 204.488281 L 53.988281 203.757812 L 54.074219 203.777344 L 54.164062 203.792969 L 53.828125 204.46875 L 57.253906 200.570312 L 67.992188 197.769531 L 74.097656 200.367188 L 88.53125 200.40625 L 102 199.898438 L 113.894531 202.71875 L 111.699219 200.75 L 98.875 194.824219 L 99.171875 164.96875 L 99.382812 164.214844 L 105.292969 155.425781 L 114.558594 149.875 L 115.398438 148.753906 L 111.046875 150.078125 L 99.277344 150.363281 L 79.34375 150.453125 L 55.78125 186.324219 L 45.894531 216.085938 L 34.851562 239.003906 L 34.800781 240.167969 L 29.078125 248.128906 L 22.476562 253.597656 L 24.015625 257.34375 L 24.886719 260.410156 L 20.6875 254.5625 L 24.367188 256.171875 L 35.640625 255.609375 L 40.472656 253.578125 L 44.183594 240.398438 L 55.914062 229.296875 L 84.761719 214.75 L 105.296875 214.054688 L 106.375 213.980469 L 108.277344 211.355469 L 117.1875 203.921875 L 97.605469 203.355469 L 95.589844 162.871094 L 97.425781 146.382812 L 103.417969 141.90625 L 109.382812 140.015625 L 117.183594 139.082031 L 109.359375 138.441406 L 109.15625 137.644531 L 109.289062 137.589844 "/>
<g clip-path="url(#clip-0)">
<path fill="none" stroke-width="1.066978" stroke-linecap="butt" stroke-linejoin="round" stroke="rgb(0%, 71.764706%, 100%)" stroke-opacity="1" stroke-dasharray="4.267913 4.267913" stroke-miterlimit="10" d="M 8.21875 140.09375 L 282.519531 140.09375 "/>
</g>
<g clip-path="url(#clip-1)">
<path fill="none" stroke-width="1.066978" stroke-linecap="butt" stroke-linejoin="round" stroke="rgb(0%, 71.764706%, 100%)" stroke-opacity="1" stroke-dasharray="4.267913 4.267913" stroke-miterlimit="10" d="M 147.511719 279.78125 L 147.511719 5.480469 "/>
</g>
</svg>
