<?xml version="1.0" encoding="UTF-8"?>
<svg xmlns="http://www.w3.org/2000/svg" xmlns:xlink="http://www.w3.org/1999/xlink" width="288" height="288" viewBox="0 0 288 288">
<defs>
<clipPath id="clip-0">
<path clip-rule="nonzero" d="M 8.21875 148 L 282.519531 148 L 282.519531 150 L 8.21875 150 Z M 8.21875 148 "/>
</clipPath>
<clipPath id="clip-1">
<path clip-rule="nonzero" d="M 146 5.480469 L 148 5.480469 L 148 279.78125 L 146 279.78125 Z M 146 5.480469 "/>
</clipPath>
</defs>
<rect x="-28.8" y="-28.8" width="345.6" height="345.6" fill="rgb(100%, 100%, 100%)" fill-opacity="1"/>
<rect x="-28.8" y="-28.8" width="345.6" height="345.6" fill="rgb(100%, 100%, 100%)" fill-opacity="1"/>
<path fill="none" stroke-width="1.066978" stroke-linecap="round" stroke-linejoin="round" stroke="rgb(100%, 100%, 100%)" stroke-opacity="1" stroke-miterlimit="10" d="M 0 288 L 288 288 L 288 0 L 0 0 Z M 0 288 "/>
<path fill="none" stroke-width="1.066978" stroke-linecap="butt" stroke-linejoin="round" stroke="rgb(32.54902%, 52.54902%, 54.509804%)" stroke-opacity="1" stroke-miterlimit="10" d="M 58.585938 106.644531 L 47.707031 53.429688 L 47.261719 46.796875 L 47.792969 45.597656 L 241.804688 33.660156 L 240.246094 35.660156 L 240.320312 35.679688 L 236.035156 39.011719 L 235.769531 39.679688 L 235.371094 39.828125 L 235.230469 39.796875 L 234.386719 38.652344 L 237.8125 36.261719 L 241.214844 35.117188 L 238.945312 35.359375 L 236.496094 37.191406 L 233.253906 37.171875 L 175.996094 74.519531 L 190.488281 60.894531 L 198.355469 55.546875 L 204.964844 50.875 L 205.648438 49.824219 L 202.097656 51.996094 L 198.992188 52.679688 L 197.269531 53.785156 L 198.160156 53.164062 L 202.621094 52.167969 L 221.796875 44.320312 L 241.292969 34.566406 L 249.070312 26.625 L 248.730469 27.542969 L 249.894531 26.847656 L 246.742188 28.761719 L 242.625 31.875 L 248.195312 27.90625 L 248.34375 28.554688 L 245.351562 30.082031 L 237.277344 32.066406 L 241.210938 39.460938 L 242.324219 54.105469 L 237.039062 69.804688 L 226.695312 93.433594 L 222.832031 116.019531 L 226.875 132.921875 L 225.246094 144.484375 L 225.441406 168.46875 L 229.207031 195.449219 L 233.691406 219.296875 L 233.875 224.835938 L 232.070312 217.117188 L 232.457031 217.230469 L 232.703125 215.476562 L 232.84375 215.984375 L 233.125 215.25 L 233.175781 215.871094 L 233.355469 214.992188 L 233.300781 215.226562 L 233.777344 214.890625 L 234.011719 215.867188 L 233.761719 217.121094 L 238.539062 223.578125 L 240.039062 224.71875 L 235.636719 219.792969 L 234.4375 214.605469 L 234.4375 208.035156 L 229.890625 209.644531 L 229.035156 206.957031 L 229.925781 200.425781 L 230.859375 199.535156 L 229.253906 199.738281 L 223.832031 202.855469 L 221.992188 205.71875 L 215.878906 202.898438 L 211.199219 200.890625 L 201.582031 204.820312 L 193.664062 210.785156 L 191.375 213.742188 L 194.21875 211.191406 L 196.917969 210.90625 L 202.339844 216.867188 L 214.960938 230.152344 L 231.308594 238.949219 L 238.117188 240.832031 L 235.964844 240.574219 L 235.453125 237.8125 L 236.703125 237.6875 L 236.773438 236.292969 L 228.828125 237.816406 L 231.132812 232.417969 L 230.164062 233.09375 L 229.273438 226.53125 L 228.335938 224.785156 L 226.324219 229.3125 L 223.457031 232.347656 L 220.46875 233.425781 L 220.566406 232.609375 L 210.316406 230.863281 L 199.144531 230.628906 L 192.875 228.65625 L 191.0625 229.082031 L 196.566406 228.273438 L 198.855469 231.332031 L 205.503906 234.035156 L 208.640625 234.28125 L 208.746094 229.164062 L 209.703125 227.035156 L 218.546875 233.390625 L 232.988281 239.539062 L 234.632812 241.878906 L 234.777344 243.507812 L 248.628906 253.433594 L 248.332031 253.9375 L 248.832031 253.425781 L 249.628906 255.289062 L 249.863281 254.472656 L 240.175781 253.726562 L 239.839844 248.242188 L 241.40625 245.832031 L 241.132812 240.320312 L 237.089844 237.371094 L 235.71875 231.761719 L 219.90625 221.964844 L 205.382812 220.433594 L 194.296875 222.300781 L 195.074219 222.316406 L 192.867188 223.15625 L 193.9375 222.78125 L 192.117188 223.523438 L 193.445312 223.644531 L 198.371094 223.585938 L 204.480469 227.402344 L 209.09375 228.613281 L 217.441406 233.816406 L 226.90625 241.003906 L 226.367188 238.722656 L 223.566406 232.785156 L 235.210938 237.253906 L 237.488281 237.933594 L 234.179688 234.398438 L 233.503906 231.398438 L 228.035156 232.5 L 228.226562 230.253906 L 225.800781 233.074219 L 221.265625 229.632812 L 214.351562 221.84375 L 196.027344 215.109375 L 187.976562 216.601562 L 183.089844 217.054688 L 183.441406 216.855469 L 182.898438 217.035156 L 179.5625 217.941406 L 178.605469 218.53125 L 179.402344 218.417969 L 179.890625 218.285156 L 183.433594 216.621094 L 186.105469 214.511719 L 191.644531 220.441406 L 193.546875 219.910156 L 194.34375 222.632812 L 206.1875 228.613281 L 217.460938 228.207031 L 223.398438 223.574219 L 225.332031 221.152344 L 221.09375 221.492188 L 223.941406 207.1875 L 223.316406 183.828125 L 216.570312 165.414062 L 206.5 153.765625 L 191.398438 150.492188 L 179.230469 152.71875 L 171.925781 159.011719 L 162.929688 168.644531 L 165.886719 168.863281 L 170.449219 170.722656 L 173.496094 177.128906 L 181.058594 179.074219 L 182.433594 177.90625 L 196.84375 182.753906 L 213.945312 181.125 L 212.394531 182.007812 L 211.628906 179.957031 L 213.179688 178.519531 L 213.503906 178.363281 L 211.03125 180.015625 L 215.925781 182.453125 L 220.664062 184.734375 L 223.980469 184.398438 L 229.351562 178.777344 L 229.957031 179.554688 L 217.824219 187.683594 L 217.535156 184.667969 L 219.902344 176.179688 L 224.183594 158.773438 L 222.175781 127.929688 L 216.984375 98.507812 L 212.972656 77.992188 L 204.308594 62.484375 L 202.265625 58.375 L 198.117188 60.777344 L 182.277344 55.523438 L 160.375 59.203125 L 142.332031 68.023438 L 128.804688 77.21875 L 115.164062 86.023438 L 104.746094 104.46875 L 103.070312 115.035156 L 103.410156 116.164062 L 103.5625 116.835938 L 103.371094 117.738281 L 103.1875 117.820312 L 103.453125 118.035156 L 103.363281 118.386719 L 104.515625 119.027344 L 106.710938 117.863281 L 107.339844 117.519531 L 120.632812 129.394531 L 128.308594 130.773438 L 136.015625 133.015625 L 141.355469 134.398438 L 137.570312 131.332031 L 135.777344 132.339844 L 135.78125 132.738281 L 133.917969 133.351562 L 131.632812 133.152344 L 132.226562 132.785156 L 132.507812 132.171875 L 132.722656 131.695312 L 132.664062 131.511719 L 132.035156 131.359375 L 132.929688 131.429688 L 133.023438 131.441406 L 132.492188 131.226562 L 133.160156 131.464844 L 133.351562 131.339844 L 132.816406 131.703125 L 133.785156 131.484375 L 133.085938 131.457031 L 133.277344 131.632812 L 132.964844 132.019531 L 133.488281 132.066406 L 133.144531 132.195312 L 134.101562 132.199219 L 133.394531 132.289062 L 133.414062 132.476562 L 133.289062 132.332031 L 134.160156 132.320312 L 134.933594 132.46875 L 133.03125 132.136719 L 132.75 132.265625 L 133.589844 133.125 L 133.628906 133.183594 L 133.59375 133.039062 L 133.542969 132.929688 L 133.757812 132.84375 L 133.859375 132.976562 L 133.871094 132.859375 L 133.945312 132.980469 L 134.023438 132.953125 L 134.148438 132.742188 L 134.238281 132.820312 L 134.035156 132.816406 L 134.351562 132.800781 L 135.929688 133.546875 L 136.332031 133.511719 L 136.429688 133.578125 L 145.507812 129.785156 L 151.117188 120.355469 L 150.851562 99.992188 L 143.824219 80.875 L 130.859375 69.183594 L 124.949219 62.21875 L 109.609375 57.214844 L 89.019531 58.136719 L 67.949219 67.207031 L 62.421875 74.597656 L 63.066406 76.847656 L 61.726562 93.511719 L 70.953125 114.011719 L 84.539062 132.890625 L 90.625 142.371094 L 94.1875 148.414062 L 99.234375 160.117188 L 112.25 170.550781 L 130.269531 179.113281 L 142.425781 183.769531 L 143.507812 180.222656 L 143.898438 179.554688 L 142.65625 169.039062 L 141.777344 168.445312 L 141.953125 167.296875 L 141.765625 165.960938 L 141.714844 166.019531 L 141.726562 167.097656 L 141.71875 167.269531 L 141.65625 166.410156 L 141.65625 166.414062 L 141.761719 166.714844 L 141.730469 167.101562 L 141.6875 166.441406 L 141.601562 166.910156 L 141.621094 167.054688 L 141.769531 167.222656 L 141.566406 165.894531 L 140.171875 163.949219 L 139.429688 160.160156 L 134.488281 153.070312 L 134.042969 153.273438 L 133.589844 150.613281 L 134.089844 150.160156 L 133.300781 147.96875 L 133.96875 146.992188 L 134.121094 147.355469 L 134.253906 147.425781 L 134.191406 147.453125 L 134.191406 147.914062 L 134.253906 147.457031 L 134.078125 147.410156 L 133.632812 148.847656 L 129.816406 144.273438 L 126.199219 143.855469 L 122.449219 142.671875 L 121.125 141.496094 L 120.808594 140.722656 L 120.542969 141.027344 L 120.214844 141.285156 L 120.171875 141.292969 L 120.039062 141.246094 L 119.871094 141.242188 L 120.074219 141.269531 L 119.816406 141.292969 L 119.683594 141.144531 L 119.957031 141.429688 L 120.015625 141.585938 L 120.144531 141.925781 L 120.386719 142.664062 L 121.1875 142.4375 L 120.308594 142.238281 L 119.503906 141.742188 L 118.996094 141.671875 L 119.007812 141.464844 L 117.789062 142.042969 L 118.332031 142.109375 L 117.898438 141.953125 L 110.726562 144.410156 L 105.417969 144.796875 L 99.316406 145.625 L 89.179688 149.292969 L 75.578125 154.5 L 68.449219 160.871094 L 66.164062 159.753906 L 64.664062 157.695312 L 65.148438 157.320312 L 64.410156 157.140625 L 65.328125 158.023438 L 65.664062 158.140625 L 65.5625 158.257812 L 63.816406 157.050781 L 63.792969 156.613281 L 63.945312 157.378906 L 62.183594 153.910156 L 61.8125 156.003906 L 59.339844 155.335938 L 58.753906 153.359375 L 58.988281 154.285156 L 59.070312 154.816406 L 58.324219 154.121094 L 60.519531 156.070312 L 68.125 157.808594 L 66.570312 160.941406 L 66.914062 160.582031 L 65.296875 162.449219 L 63.433594 165.195312 L 65.949219 163.820312 L 64.46875 166.121094 L 61.894531 170.125 L 61.648438 170.417969 L 58.074219 177.863281 L 61.511719 189.472656 L 67.761719 193.535156 L 77.726562 200.859375 L 88.777344 204.636719 L 95.863281 213.214844 L 106 221.148438 L 106.824219 216.359375 L 104.722656 221.921875 L 101.894531 224.445312 L 102.398438 223.753906 L 100.691406 225.683594 L 100.476562 226.203125 L 100.765625 231.761719 L 100.75 232.074219 L 99.808594 233.148438 L 99.882812 233.125 L 100.546875 233.074219 L 99.558594 233.808594 L 98.675781 234.335938 L 98.269531 234.238281 L 99.558594 233.148438 L 102.398438 223.402344 L 102.039062 219.09375 L 101.238281 224.515625 L 100.847656 223.996094 L 89.535156 230.535156 L 68.730469 233.769531 L 57.355469 234.972656 L 54.242188 229.746094 L 51.691406 226.339844 L 52.5 226.804688 L 53.621094 228.527344 L 53.25 225.523438 L 53.1875 226.125 L 53.207031 226.152344 L 53.21875 225.90625 L 53.398438 224.636719 L 52.28125 211 L 57.6875 199.667969 L 67.136719 188.773438 L 74.898438 183.453125 L 74.054688 180.667969 L 67.910156 167.121094 L 64.117188 156.128906 L 62.378906 146.222656 L 62.660156 144.515625 L 63.019531 145.535156 L 59.976562 132.691406 L 58.425781 114.773438 L 58.449219 102.945312 L 57.707031 97.75 L 56.179688 87.277344 L 52.601562 73.167969 L 48.164062 61.605469 L 42.765625 57.585938 L 44.058594 53.609375 L 41.597656 53.183594 L 39.558594 51.710938 L 39.664062 51.820312 L 39.402344 51.566406 L 40.511719 52.203125 L 40.5625 54.261719 L 36.886719 52.28125 L 40.121094 53.003906 L 45.410156 53.90625 L 42.082031 44.992188 L 39.34375 40.507812 L 42.582031 38.078125 L 44.898438 40.292969 L 47.859375 38.953125 L 57.59375 38.871094 L 81.421875 46.183594 L 102.207031 50.914062 L 108.265625 53.636719 L 108.089844 54.488281 L 108.222656 53.777344 L 107.035156 53.566406 L 106.261719 53.398438 L 113.179688 54.15625 L 129.777344 56.71875 L 146.410156 56.433594 L 159.773438 58.539062 L 174.484375 57.640625 L 190.167969 51.953125 L 204.632812 46.96875 L 217.863281 44.820312 L 219.457031 44.367188 L 218.984375 43.835938 L 234.734375 42.722656 L 238.753906 45.226562 L 236.363281 50.097656 L 237.914062 61.703125 L 235.960938 77.464844 L 233.140625 84.207031 L 231.136719 102.554688 L 229.808594 122.628906 L 227.925781 140.53125 L 224.613281 164.1875 L 221.734375 182.003906 L 222.878906 200.859375 L 218.511719 220.894531 L 214.46875 226.925781 L 215.4375 225.269531 L 216.859375 225.40625 L 215.160156 227.285156 L 216.675781 226.105469 L 216.507812 227.558594 L 215.988281 227.4375 L 215.667969 226.453125 L 213.679688 227.785156 L 208.207031 230.585938 L 198.914062 227.691406 L 174.074219 222.011719 L 154.65625 224.351562 L 124.699219 223.132812 L 89.675781 221.410156 L 72.136719 217.523438 L 63.277344 215.527344 L 62.789062 208.480469 L 61.886719 205.3125 L 69.078125 211.589844 L 70.074219 214.921875 L 63.945312 216.679688 L 51.109375 225.203125 L 48.691406 225.203125 L 51.03125 222.832031 L 50.5 226.035156 L 42.800781 240.097656 L 39.265625 245.308594 L 39.507812 245.101562 L 38.445312 246.808594 L 31.613281 254.835938 L 31.957031 255.9375 L 32.585938 255.273438 L 30.457031 253.53125 L 31.84375 255.523438 L 29.972656 256.148438 L 28.058594 257.289062 L 25.007812 259.574219 L 24.75 259.367188 L 26.0625 259.046875 L 24.945312 259.628906 L 29.308594 258.949219 L 38.164062 253.199219 L 41.058594 246.496094 L 54.535156 217.328125 L 60.5625 199.632812 L 59.085938 198.117188 L 59.695312 177.140625 L 68.734375 149.207031 L 78.886719 115.570312 L 90.90625 94.886719 L 108.183594 73.796875 L 133.050781 58.878906 L 165.128906 57.515625 L 193.691406 53.808594 L 218.140625 49.707031 L 238.085938 45.582031 L 234.285156 45.59375 L 233.6875 45.054688 L 233.527344 44.996094 L 233.464844 44.886719 L 233.175781 44.660156 L 233.40625 44.925781 L 233.40625 45.0625 L 234.300781 47.5625 L 234.171875 60.25 L 227.851562 89.148438 L 215.605469 128.683594 L 208.125 148.523438 L 205.308594 149.296875 L 205.746094 148.980469 L 204.097656 154.917969 L 205.011719 153.632812 L 203.917969 158.519531 L 199.101562 163.09375 L 197.75 175.382812 L 188.3125 190.105469 L 188.9375 193.746094 L 190.304688 191.699219 L 178.699219 197.25 L 153.558594 205.769531 L 123.238281 218.773438 L 100.539062 224.527344 L 97.113281 219.859375 L 79.890625 216.996094 L 59.929688 217.746094 L 65.851562 214.863281 L 67.160156 215.660156 L 67.816406 215.601562 L 67.828125 215.757812 L 64.210938 215.457031 L 65.558594 214.207031 L 65.148438 216.398438 L 67.28125 228.710938 L 65.144531 231.113281 L 54.484375 242.496094 L 36.757812 253.808594 L 30.328125 258.066406 L 32.367188 256.878906 L 30.707031 259.0625 L 27.617188 263.269531 L 33.339844 256.988281 L 40.234375 248.535156 L 60.511719 240.941406 L 89.582031 227.160156 L 128.804688 224.136719 L 152.386719 224.105469 L 182.699219 230.496094 L 211.089844 233.453125 L 232.878906 238.554688 L 235.332031 239.5625 L 234.851562 239.128906 L 234.761719 238.839844 L 234.996094 238.710938 L 236.828125 239.242188 L 244.171875 243.011719 L 249.808594 249.597656 L 248.042969 245.839844 L 243.746094 245.753906 L 244.0625 247.574219 L 244.765625 251.578125 L 243.417969 254.234375 L 241.726562 243.933594 L 240.269531 236.785156 L 241.503906 236.574219 L 242.027344 241.597656 L 241.800781 246.09375 L 242.601562 250.25 L 243.660156 248.890625 L 241.605469 237.132812 L 218.308594 228.300781 L 182.257812 214.183594 L 149.4375 202.734375 L 148.890625 202.53125 L 149.199219 202.8125 L 133.421875 199.511719 L 127.117188 198.136719 L 124.054688 195.691406 L 113.789062 181.898438 L 104.851562 163.136719 L 102.949219 150.769531 L 103.203125 152.421875 L 91.460938 140.921875 L 68.050781 112.167969 L 58.265625 85.347656 L 54.867188 53.304688 L 57.433594 50.742188 L 55.699219 53.453125 L 55.523438 53.679688 L 55.839844 53.648438 L 58.714844 50.554688 L 71.988281 49.976562 L 112.917969 55.824219 L 151.289062 59.429688 L 152.144531 58.117188 L 170.089844 55.613281 L 201.550781 54.683594 L 218.605469 54.824219 L 228.808594 81.164062 L 218.816406 134.316406 L 216.628906 169.546875 L 214.085938 202.832031 L 212.929688 225.074219 L 211.660156 220.890625 L 212.382812 219.386719 L 212.707031 218.921875 L 212.808594 218.769531 L 212.949219 218.730469 L 212.789062 218.519531 L 212.660156 218.632812 L 212.738281 218.515625 L 212.660156 218.492188 L 212.632812 218.425781 L 212.683594 218.429688 L 212.757812 218.414062 L 212.851562 218.445312 L 212.953125 218.597656 L 212.949219 218.691406 L 212.855469 220.363281 L 212.632812 226.503906 L 214.917969 223.992188 L 218.367188 226.300781 L 213.398438 220.351562 L 209.210938 208.0625 L 209.023438 209.871094 L 208.445312 206.585938 L 207.476562 219.609375 L 208.949219 224.53125 L 215.035156 224.46875 L 230.3125 236.273438 L 234.949219 242.457031 L 235.308594 242.035156 L 231.589844 239.621094 L 228.140625 237.6875 L 245.957031 248.757812 L 243.148438 249.609375 L 241.679688 253.300781 L 248.824219 258.332031 L 250.316406 259.300781 L 251.449219 259.378906 L 253.140625 259.019531 L 251.894531 259.597656 L 251.332031 259.820312 L 251.96875 259.691406 L 253.347656 260.367188 L 254.132812 261.175781 L 254.878906 261.28125 L 255.230469 261.902344 L 255.367188 261.878906 L 255.410156 261.757812 L 256.378906 261.417969 L 256.394531 261.085938 L 256.371094 261.664062 L 255.9375 261.558594 L 260.765625 261.753906 L 260.457031 263.632812 L 254.492188 260.328125 L 247.007812 257.484375 L 244.429688 256.535156 L 249.023438 254.449219 L 253.914062 255.847656 L 253.429688 258.160156 L 249.285156 257.574219 L 253.042969 255.167969 L 258.191406 253.53125 L 260.289062 253.195312 L 256.335938 250.894531 L 251.675781 252.503906 L 245.257812 255.398438 L 242.675781 253.714844 L 243.265625 244.152344 L 239.386719 222.445312 L 232.574219 194.195312 L 227.695312 162.289062 L 225.183594 135.773438 L 225.84375 120.304688 L 229.050781 117.054688 L 224.621094 119.335938 L 223.96875 120.433594 L 223.332031 121.109375 L 224.328125 123.832031 L 229.121094 130.769531 L 230.769531 131.804688 L 231.007812 132.363281 L 231.226562 132.328125 L 225.050781 131.589844 L 222.128906 142.429688 L 229.351562 184.308594 L 235.867188 221.898438 L 241.550781 241.242188 L 241.96875 244.859375 L 242.496094 250.925781 L 247.210938 255.355469 L 250.316406 258.703125 L 253.648438 255.960938 L 251.964844 254.335938 L 251.070312 257.214844 L 253.226562 256.730469 L 252.175781 259.277344 L 251.691406 259.527344 L 254.660156 262.664062 L 254.011719 261.789062 L 255.976562 256.082031 L 254.738281 253.257812 L 246.78125 243.5 L 248.769531 248.339844 L 246.945312 254.652344 L 246.195312 249.199219 L 250.84375 250.636719 L 250.414062 252.871094 L 243.851562 254.617188 L 255.929688 257.152344 L 254.707031 261.945312 L 257.113281 259.339844 L 257.6875 259.066406 L 260.027344 260.953125 L 265.464844 260.242188 L 263.714844 262.285156 L 263.136719 263.425781 L 259.914062 258.117188 L 253.765625 258.351562 L 245.585938 255.632812 L 246 252.195312 L 246.992188 239.585938 L 233.746094 210.375 L 222.101562 182.195312 L 215.15625 147.929688 L 211.554688 113.871094 L 204.746094 84.890625 L 196.796875 60.925781 L 199.582031 59.539062 L 200.730469 53.304688 L 204.070312 51.152344 L 203.75 51.304688 L 203.777344 52.550781 L 205.070312 52.753906 L 224.390625 41.617188 L 224.847656 41.160156 L 224.207031 41.734375 L 227.070312 39.3125 L 226.855469 40.363281 L 225.425781 41.574219 L 254.625 27.664062 L 185.851562 159.105469 L 164.851562 179.242188 L 168.800781 174.984375 L 166.519531 177.070312 L 165.464844 176.355469 L 158.515625 174.269531 L 148.742188 170.859375 L 147.761719 162.335938 L 146.160156 161.359375 L 145.484375 154.464844 L 138.792969 128.332031 L 140.472656 123.796875 L 140.441406 125.707031 L 140.472656 125.0625 L 140.222656 125.109375 L 140.34375 125.066406 L 140.542969 125.597656 L 137.84375 121.152344 L 128.058594 110.257812 L 113.945312 102.601562 L 93.148438 90.847656 L 63.152344 78.40625 L 48.253906 61.226562 L 40.714844 45.625 L 42.890625 44.5625 L 43.597656 45.039062 L 40.371094 41.183594 L 38.40625 38.996094 L 28.503906 23.152344 L 28.503906 28.3125 L 44.117188 34.746094 L 72.125 45.394531 L 114.496094 54.429688 L 153.207031 55.445312 L 184.042969 52.632812 L 214.230469 54.070312 L 228.03125 59.941406 L 227.996094 78.0625 L 227.246094 119.65625 L 226.019531 169.988281 L 228.820312 204.023438 L 234.09375 232.675781 L 238.804688 241.605469 L 234.046875 236.269531 L 234.734375 235.894531 L 234.285156 236.027344 L 234.375 236.078125 L 234.445312 235.683594 L 239.871094 239.464844 L 247.972656 241.679688 L 235.4375 237.132812 L 226.785156 231.761719 L 233.757812 236.957031 L 241.917969 245.148438 L 244.601562 248.074219 L 244.261719 248.535156 L 250.128906 251.636719 L 250.402344 255.0625 L 249.472656 252.683594 L 251.050781 258.394531 L 251.101562 259.339844 L 251.078125 259.035156 L 248.863281 257.664062 L 251.34375 259.257812 L 246.660156 257.085938 L 247.867188 255.566406 L 250.808594 255.398438 L 253.191406 257.96875 L 258.433594 258.589844 L 260.957031 258.644531 L 259.171875 258.605469 L 248.097656 257.382812 L 240.152344 252.101562 L 242.871094 241.625 L 232.425781 212.183594 L 222.414062 179.585938 L 217.695312 163.082031 L 218.570312 164.269531 L 207.640625 157.367188 L 177.855469 151.710938 L 133.707031 142.222656 L 100.160156 135.402344 L 72.652344 133.472656 L 68.65625 134.960938 L 62.644531 130.523438 L 58.128906 129.3125 L 56.101562 130.929688 L 54.195312 130.523438 L 55.816406 131.320312 L 62.203125 134.523438 L 69.320312 136.089844 L 63.503906 157.179688 L 56.605469 191.746094 L 50.742188 223.921875 L 41.90625 244.964844 L 45.355469 248.265625 L 46.949219 241.738281 L 45.042969 233.191406 L 39.304688 229.230469 L 37.902344 228.3125 L 37.988281 227.710938 L 35.585938 232.550781 L 34.40625 233.722656 L 33.433594 234.460938 L 34.246094 236.855469 L 41.066406 238.3125 L 50.9375 238.480469 L 50.8125 235.6875 L 60.128906 220.449219 L 78.066406 187.371094 L 97.410156 149.976562 L 100.386719 139.738281 L 111.335938 99.921875 L 125.035156 69.507812 L 126.109375 67.566406 L 121.957031 65.839844 L 119.734375 62.210938 L 116.695312 63.1875 L 122.863281 65.988281 L 159.726562 58.78125 L 193.648438 56.691406 L 203.289062 55.703125 L 217.453125 47.628906 L 235.191406 37.035156 L 242.792969 32.492188 L 241.230469 32.007812 L 239.226562 31.9375 L 240.742188 32.472656 L 241.457031 32.277344 L 238.269531 36.230469 L 240.207031 53.851562 L 232.871094 80.953125 L 226.597656 122.28125 L 223.65625 160.253906 L 220.554688 192.886719 L 215.9375 216.042969 L 215.714844 223.300781 L 215.96875 224.9375 L 218.558594 232.097656 L 216.046875 232.355469 L 216.453125 231.628906 L 223.738281 238.46875 L 234.265625 246.757812 L 229.75 245.308594 L 227.730469 244.296875 L 232.800781 241.632812 L 236.734375 240.035156 L 236.171875 242.003906 L 236.046875 239.308594 L 233.714844 230.648438 L 232.695312 231.890625 L 218.175781 220.136719 L 199.921875 202.773438 L 180.59375 179.519531 L 171.507812 158.066406 L 170.921875 151.214844 L 171.585938 157.996094 L 170.246094 160.484375 L 168.289062 162.183594 L 169.390625 163.5625 L 158.347656 184.398438 L 153.671875 213.527344 L 152.84375 215.128906 L 153.785156 214.363281 L 181.71875 229.242188 L 208.058594 231.816406 L 228.914062 233.863281 L 235.695312 236.757812 L 232.800781 237.480469 L 232.191406 238.558594 L 236.460938 240.078125 L 235.164062 240.425781 L 235.207031 240.582031 L 235.273438 240.753906 L 235.332031 240.488281 L 235.328125 240.597656 L 235.304688 238.4375 L 233.144531 223.992188 L 229.203125 197.464844 L 227.820312 176.769531 L 226.085938 168.582031 L 225.777344 133.773438 L 224.308594 92.773438 L 225.472656 58.347656 L 227.671875 49.308594 L 228.757812 52.878906 L 231.109375 49.726562 L 221.066406 53.5 L 200.480469 66.917969 L 181.847656 92.984375 L 162.160156 129.914062 L 142.207031 166 L 125.019531 199.457031 L 115.714844 215.394531 L 87.230469 229.636719 L 49.605469 246.765625 L 35 257.140625 L 33.25 257.066406 L 34.851562 255.207031 L 37.085938 256.578125 L 34.359375 258.261719 L 31.011719 258.929688 L 25.484375 260.722656 L 24.667969 261.105469 L 23.847656 263.449219 L 23.945312 263.539062 L 24.230469 263.765625 L 24.414062 263.777344 L 24.667969 265.257812 L 24.242188 267.3125 L 24.421875 266.066406 L 29.46875 260.664062 L 31.308594 258.882812 L 30.207031 254.480469 L 35.445312 255.183594 L 43.046875 253.851562 L 45.039062 250.300781 L 45.261719 254.976562 L 45.496094 254.625 L 45.523438 254.949219 L 45.46875 254.578125 L 45.808594 254.769531 L 46.449219 253.628906 L 48.355469 251.878906 L 46.871094 249.347656 L 48.722656 240.578125 L 50.917969 226.140625 L 54.003906 197.925781 L 56.132812 188.464844 L 57.207031 181.773438 L 57.792969 181.578125 L 58.078125 180.511719 L 61.507812 169.527344 L 72.03125 126.707031 L 82.222656 94 L 87.171875 69.332031 L 83.984375 59.746094 L 84.617188 64.085938 L 84.472656 65.140625 L 84.109375 65.285156 L 84.035156 65.097656 L 84.019531 65.160156 L 84.074219 65.324219 L 84.105469 65.289062 L 83.84375 65.578125 L 84.09375 65.179688 L 85.402344 64.300781 L 102.910156 61.300781 L 139.886719 65.148438 L 142.589844 66.015625 L 162.453125 65.152344 L 171.390625 67 L 170.5 63.394531 L 167.980469 63.453125 L 166.175781 66.054688 L 172.644531 69.246094 L 204.453125 67.984375 L 215.28125 66.046875 L 214.058594 63.757812 L 210.519531 62.191406 L 213.476562 56.753906 L 211.863281 55.75 L 207.519531 53.132812 L 206.023438 49.976562 L 206.257812 46.714844 L 206.597656 47.105469 L 210.832031 56.136719 L 207.210938 60.097656 L 203.425781 70.03125 L 210.78125 106.273438 L 224.421875 144.320312 L 228.234375 184.371094 L 233.890625 216.132812 L 238.378906 234.726562 L 243.679688 241.835938 L 246.175781 248.695312 L 240.269531 244.476562 L 240.085938 244.167969 L 246.9375 243.628906 L 255.757812 248.726562 L 258.699219 249.082031 L 253.878906 249.957031 L 245.976562 242.773438 L 252.035156 236.640625 L 255.121094 235.566406 L 241.554688 241.511719 L 232.210938 243.609375 L 237.792969 243.855469 L 243.460938 247.5625 L 252.171875 248.820312 L 254.191406 250.171875 L 253.320312 255.558594 L 253.402344 259.398438 L 255.945312 260.597656 L 256.347656 261.0625 L 258.390625 259.019531 L 258.582031 259 L 258.722656 258.632812 L 258.765625 258.605469 L 258.523438 258.445312 L 258.816406 258.320312 L 258.597656 258.265625 L 259.253906 258.308594 L 258.929688 258.347656 L 258.699219 258.003906 L 257.953125 258.714844 L 258.136719 258.925781 L 258.066406 259.042969 L 258.167969 258.804688 L 258.574219 259.140625 L 259.863281 261.332031 L 262.585938 262.058594 L 259.019531 260.628906 L 254.804688 260.292969 L 259.953125 252.644531 L 260.101562 252.570312 L 260.824219 252.40625 L 262.785156 251.648438 L 257.511719 254.710938 L 251.265625 257.539062 L 251.65625 255.113281 L 255.058594 249.117188 L 254.820312 250.496094 L 254.496094 250.3125 L 259.03125 246.660156 L 258.015625 246.5625 L 242.453125 245.375 L 235.78125 243.511719 L 232.214844 243.914062 L 235.328125 243.695312 L 233.433594 243.097656 L 229.363281 241.054688 L 219.382812 234.03125 L 198.972656 219.769531 L 164.429688 199.589844 L 122.40625 183.085938 L 89.382812 178.316406 L 66.644531 183.632812 L 69.066406 185.902344 L 55.238281 204.925781 L 47.824219 222.539062 L 45.59375 228.355469 L 45.015625 235.378906 L 41.152344 241.144531 L 43.1875 241.566406 L 41.578125 242.023438 L 41.785156 241.683594 L 41.246094 243.226562 L 43.460938 234.769531 L 45.367188 236.613281 L 46.941406 240.769531 L 46.734375 242.433594 L 44.566406 239.925781 L 42.550781 238.902344 L 38.988281 241.246094 L 41.742188 237.699219 L 44.496094 233.703125 L 64.382812 235.683594 L 91.488281 229.488281 L 125.738281 221.570312 L 157.46875 214.644531 L 175.847656 208.460938 L 195.492188 199.050781 L 206.433594 192.753906 L 220.542969 179.144531 L 221.765625 172.738281 L 220.332031 174.445312 L 220.082031 176.015625 L 220.464844 178.246094 L 222.03125 179.570312 L 222.003906 177.730469 L 220.035156 180.007812 L 218.171875 184.261719 L 217.019531 186.023438 L 217.277344 184.328125 L 216.578125 183.101562 L 216.363281 182.296875 L 216.503906 184.429688 L 216.910156 183.152344 L 215.6875 171.402344 L 215.652344 141.609375 L 217.125 107.058594 L 217.910156 75.105469 L 217.925781 55.003906 L 229.492188 45.207031 L 249.328125 28.433594 L 254.070312 26.6875 L 253.820312 26.402344 L 254.132812 26.617188 L 253.5 25.652344 L 255.226562 25.105469 L 254.859375 24.9375 L 254.839844 25.019531 L 255.242188 26.234375 L 255.253906 24.824219 L 254.277344 25.820312 L 254.515625 25.042969 L 251.488281 27.671875 L 253.09375 28.128906 L 253.589844 26.378906 L 253.402344 26.445312 L 253.851562 26.15625 L 258.148438 23.453125 L 259.9375 23.359375 L 260.019531 22.667969 L 260.394531 22.371094 L 262.628906 20.160156 L 265.164062 17.949219 L 264.808594 17.960938 L 257.390625 22.460938 L 249.171875 33.160156 L 245.082031 38.148438 L 243.773438 43.339844 L 245.132812 39.824219 L 236.097656 42.046875 L 221.160156 55.179688 L 208.632812 71.859375 L 201.324219 81.050781 L 202.039062 81.007812 L 202.863281 78.988281 L 201.214844 94.363281 L 198.714844 125.15625 L 200.386719 159.128906 L 207.757812 192.472656 L 219.632812 225.964844 L 219.929688 228.917969 L 225.632812 235.605469 L 236.425781 240.332031 L 234.566406 243.671875 L 231.90625 244.859375 L 232.945312 243.34375 L 236.832031 239.34375 L 238.945312 240.707031 L 233.234375 242.421875 L 235.167969 243.9375 L 247.574219 249.390625 L 249.167969 257.273438 L 251.699219 256.390625 L 261.226562 257.53125 L 264.65625 255.699219 L 264.148438 256.242188 L 260.515625 257.871094 L 254.320312 256.484375 L 255.46875 256.125 L 259.40625 259.515625 L 260.015625 259.679688 L 252.1875 254.175781 L 246.792969 254.210938 L 250.578125 242.5625 L 239.074219 231.183594 L 219.492188 216.621094 L 201.195312 209.257812 L 167.226562 198.933594 L 135.957031 179.835938 L 108.386719 159.484375 L 80.542969 145.082031 L 73.796875 142.429688 L 69.503906 142.832031 L 67.800781 143.402344 L 68.007812 145.402344 L 68.898438 145.3125 L 64.132812 144.585938 L 58.898438 147.300781 L 58.074219 150.320312 L 58.015625 150.03125 L 58.273438 150.335938 L 67.476562 148.097656 L 70.542969 151.753906 L 81.855469 164.960938 L 106.125 168.105469 L 131.382812 159.882812 L 156.617188 147.550781 L 164.210938 145.578125 L 160.863281 141.839844 L 157.5 116.851562 L 145.621094 86.296875 L 139.746094 68.78125 L 141.625 68.660156 L 143.996094 65.023438 L 148.171875 62.253906 L 148.109375 62.332031 L 145.660156 64.136719 L 141.070312 66.144531 L 136.164062 62.742188 L 127.109375 56.691406 L 110.527344 53.386719 L 71.335938 46.289062 L 50.867188 44.132812 L 55.003906 43.109375 L 46.640625 38.941406 L 40.765625 35.820312 L 41.640625 34.914062 L 26.136719 25.0625 L 25.820312 25.6875 L 25.332031 25.351562 L 26.5625 26.207031 L 24.519531 27.734375 L 25.636719 25.179688 L 25.941406 24.863281 L 25.421875 24.734375 L 24.921875 23.089844 L 25.976562 23.953125 L 26.175781 23.65625 L 24.71875 24.222656 L 24.578125 21.957031 L 24.453125 21.722656 L 24.21875 21.761719 L 24.035156 21.703125 L 23.578125 22.148438 L 23.019531 22.648438 L 23.894531 21.890625 L 23.925781 21.082031 L 21.320312 19.039062 L 24.519531 21.238281 L 44.074219 32.515625 L 44.546875 32.414062 L 39.675781 35.703125 L 40.78125 38.226562 L 36.914062 46.648438 L 38.238281 44.480469 L 38.632812 41.601562 L 47.003906 47.699219 L 51.214844 52.167969 L 52.085938 50.640625 L 67.789062 50.785156 L 73.621094 48.851562 L 78.425781 56.0625 L 105.472656 69.175781 L 132.960938 76.835938 L 143.550781 71.214844 L 155.066406 62.832031 L 171.105469 54.476562 L 172.300781 53.601562 L 166.964844 56.886719 L 163.863281 57.484375 L 163.261719 58.070312 L 181.820312 62.742188 L 201.203125 78.660156 L 216.71875 107.660156 L 225.675781 133.644531 L 227.164062 150.976562 L 230.785156 165.773438 L 231.105469 166.5 L 236.796875 164.9375 L 237.386719 165.042969 L 237.914062 165.367188 L 238.332031 164.363281 L 233.09375 164.191406 L 221.398438 158.925781 L 228.015625 182.066406 L 236.613281 222.265625 L 243.488281 237.5 L 240.898438 238.222656 L 240.851562 239.667969 L 241.085938 238.902344 L 241.042969 237.570312 L 240.441406 235.859375 L 241.140625 237.625 L 241.007812 237.648438 L 244.667969 241.457031 L 252.96875 253.660156 L 258.328125 252.535156 L 255.195312 253.855469 L 255.726562 256.742188 L 256.855469 257.214844 L 257.328125 257.925781 L 257.242188 258.121094 L 259.058594 259.875 L 255.679688 257.398438 L 250.976562 251.375 L 250.539062 255.484375 L 257.28125 251.261719 L 254.777344 256.074219 L 252.679688 258.875 L 252.757812 259.304688 L 252.589844 259.191406 L 253.871094 255.175781 L 249.207031 259.082031 L 250.207031 258.394531 L 248.976562 257.546875 L 243.074219 254.128906 L 244.597656 250.515625 L 252.089844 249.027344 L 253.425781 253.691406 L 253.292969 254.855469 L 252.261719 259.074219 L 255.429688 261.25 L 258 263.050781 L 262.585938 261.78125 L 262.90625 261.714844 L 263.671875 261.863281 L 257.0625 263 L 256.164062 256.039062 L 260.925781 255.714844 L 262.25 256.675781 L 262.222656 256.152344 L 262.203125 256.261719 L 261.785156 255.804688 L 261.867188 256.003906 L 261.890625 255.886719 L 262.105469 256.269531 L 262.253906 256.75 L 259.296875 256.394531 L 256.21875 259.003906 L 260.722656 253.949219 L 260.160156 253.675781 L 249.503906 251.136719 L 246.140625 249.28125 L 247.152344 250.71875 L 247.90625 249.523438 L 232.980469 242.222656 L 209.425781 227.863281 L 183.585938 212.742188 L 155.566406 210.632812 L 122.175781 219.722656 L 93.320312 232.28125 L 81.613281 234.824219 L 81.90625 235.21875 L 85.878906 237.71875 L 87.066406 240.160156 L 87.558594 239.386719 L 87.644531 232.710938 L 87.632812 222.4375 L 86.492188 221.699219 L 86.171875 219.578125 L 80.0625 226.410156 L 62.648438 241.414062 L 48.007812 251.070312 L 45.21875 250.617188 L 45.148438 251.355469 L 35.554688 256.050781 L 39.734375 258.761719 L 43.855469 253.984375 L 44.085938 249.402344 L 47.859375 252.578125 L 47.015625 238.707031 L 46.035156 224.570312 L 47.316406 222.910156 L 47.265625 217.890625 L 49.011719 212.242188 L 57.566406 179.101562 L 61.886719 138.445312 L 57.460938 91.890625 L 52.136719 68.648438 L 42.6875 43.507812 L 27.976562 23.121094 L 25.609375 23.054688 L 24.90625 22.261719 L 24.859375 21.96875 L 24.847656 21.742188 L 24.667969 21.339844 L 24.542969 21.386719 L 24.410156 21.367188 L 24.433594 21.339844 L 24.546875 21.25 L 24.316406 21.449219 L 24.457031 21.492188 L 24.429688 21.195312 L 24.328125 21.425781 L 24.101562 21.546875 L 24.402344 21.300781 L 24.65625 21.351562 L 24.570312 21.101562 L 24.597656 21.085938 L 24.769531 21.164062 L 24.554688 21.492188 L 24.578125 21.214844 L 24.769531 20.835938 L 24.832031 20.886719 L 23.9375 20.441406 L 22.730469 19.5 L 24.933594 22.9375 L 26.246094 24.292969 L 29.792969 29.433594 L 46.472656 34.261719 L 63.289062 44.972656 L 99.375 55.867188 L 134.355469 64.546875 L 151.113281 69.191406 L 145.515625 69.933594 L 160.84375 88.300781 L 191.03125 114.980469 L 217.121094 139.925781 L 220.640625 150.816406 L 217.824219 151.492188 L 218.316406 147.894531 L 213.398438 155.898438 L 197.089844 175.859375 L 178.441406 198.929688 L 160.953125 215.65625 L 155.003906 220.09375 L 155.121094 219.484375 L 157.042969 223.351562 L 159.324219 217.65625 L 188.980469 225.089844 L 210.296875 226.300781 L 227.507812 227.890625 L 233.949219 232.621094 L 230.988281 233.023438 L 231.152344 234.164062 L 232.894531 233.421875 L 234.105469 234.207031 L 232.308594 238.292969 L 232.910156 237.589844 L 233.390625 237.125 L 233.859375 237.316406 L 233.503906 237.429688 L 233.320312 236.738281 L 233.882812 237.019531 L 233.324219 236.316406 L 233.734375 238.191406 L 233.613281 237.757812 L 225.347656 230.78125 L 224.679688 229.289062 L 223.578125 227.867188 L 222.433594 227.601562 L 206.007812 224.894531 L 191.0625 224.347656 L 177.808594 219.632812 L 179.230469 218.785156 L 182.304688 216.882812 L 188.554688 210.972656 L 199.871094 220.070312 L 220.21875 222.613281 L 222.160156 224.007812 L 222.484375 224.804688 L 226.832031 222.25 L 232.863281 218.90625 L 240.550781 219.417969 L 238.660156 219.660156 L 231.816406 219.527344 L 221.359375 221.304688 L 214.371094 205.175781 L 191.972656 185.574219 L 173.320312 157.246094 L 159.945312 127.773438 L 148.179688 96.035156 L 138.824219 77.085938 L 138.371094 77.820312 L 123.035156 62.609375 L 118.890625 60.933594 L 110.308594 58.988281 L 89.707031 53.691406 L 65.734375 47.664062 L 48.664062 43.027344 L 53.773438 43.976562 L 51.667969 44.535156 L 50.253906 44.578125 L 55.03125 45.125 L 59.242188 49.34375 L 62.351562 59.621094 L 61.746094 62.1875 L 66.808594 76.785156 L 65.492188 83.878906 L 65.152344 95.3125 L 69.300781 103.574219 L 85.359375 126.496094 L 89.40625 132.96875 L 89.03125 132.882812 L 255.171875 23.550781 L 252.75 24.445312 L 248.5625 29.992188 L 31.859375 257.90625 L 26.683594 261.53125 L 27.808594 260.628906 L 26.914062 258.992188 L 27.660156 260.554688 L 25.5625 258.917969 L 27.101562 262.839844 L 26.984375 263.074219 L 24.914062 264.292969 L 24.941406 265.636719 L 24.496094 265.855469 L 28.839844 262.566406 L 39.675781 258.199219 L 42.285156 253.300781 L 36.910156 256.523438 L 35.308594 261.566406 L 33.628906 261.726562 L 35.46875 262.234375 L 38.445312 259.140625 L 34.300781 259.550781 L 35.214844 260.589844 L 36.0625 261.933594 L 35.621094 261.738281 L 31.894531 264.203125 L 28.699219 264.210938 L 27.28125 264.589844 L 25.804688 265.890625 L 23.214844 266.457031 L 23.15625 266.355469 L 32.855469 263.78125 L 34.839844 259.621094 L 36.011719 258.027344 L 38.421875 256.082031 L 41.824219 257.101562 L 44.546875 247.015625 L 49.75 235.980469 L 58.128906 203.222656 L 64.683594 172.09375 L 70.519531 144.195312 L 77.550781 120.425781 L 84.648438 93.375 L 90.332031 75.640625 L 94.480469 61.472656 L 93.097656 62.105469 L 94.332031 60.65625 L 95.210938 60.007812 L 95.308594 60.433594 L 95.5 60.117188 L 94.84375 61.476562 L 94.675781 55.03125 L 90.570312 50.335938 L 89.035156 46.828125 L 88.054688 45.292969 L 89.285156 44.691406 L 92.890625 52.101562 L 89.355469 51.605469 L 60.4375 41.464844 L 43.882812 37.578125 L 27.335938 24.507812 L 36.457031 38.480469 L 38.652344 33.1875 L 32.875 22.3125 L 30.664062 19.273438 L 28.652344 20.074219 L 27.757812 20.0625 L 27.753906 20.050781 L 28.871094 20.925781 L 28.199219 20.777344 L 27.28125 19.207031 L 26.382812 20.226562 L 28.972656 24.511719 L 38.496094 37.40625 L 38.992188 39.582031 L 45.542969 45.070312 L 46.378906 49.265625 L 44.28125 53.390625 L 44.390625 57.921875 L 43.242188 55.964844 L 44.613281 53.863281 L 49.265625 50.789062 L 50.683594 56.902344 L 69.984375 71.03125 L 100.59375 75.285156 L 130.285156 75.585938 L 150.429688 75.171875 L 150.609375 71.546875 L 147.855469 72.65625 L 143.5625 75.90625 L 137.910156 78.808594 L 159.476562 78.476562 L 187.746094 78.496094 L 202.558594 73.824219 L 221.066406 56.5625 L 230.980469 45.035156 L 231.40625 47.425781 L 244.742188 36.160156 L 252.257812 29.960938 L 255.511719 29.042969 L 255.574219 29.304688 L 254.347656 34.804688 L 245.109375 34.371094 L 229.390625 40.761719 L 203.929688 58.664062 L 187.222656 67.03125 L 152.382812 68.542969 L 120.816406 67.160156 L 94.949219 72.050781 L 77.832031 86.335938 L 80.246094 88.707031 L 81.65625 87.390625 L 82.140625 93.507812 L 84.617188 93.464844 L 99.519531 92.207031 L 116.710938 79.59375 L 122.648438 74.964844 L 118.308594 80.582031 L 135.761719 93.960938 L 165.617188 109.988281 L 191.632812 120.644531 L 215.636719 128.574219 L 216.132812 130.917969 L 212.769531 127.433594 L 212.214844 127.507812 L 213.296875 127.585938 L 219.066406 118.363281 L 222.191406 108.730469 L 224.730469 107.308594 L 224.324219 101.535156 L 225.484375 103.222656 L 224.960938 103.601562 L 222.175781 104.363281 L 225.082031 103.042969 L 224.808594 102.859375 L 224.652344 102.519531 L 224.003906 103.335938 L 224.246094 103.0625 L 225.074219 103.007812 L 225.945312 103.105469 L 226.566406 103.3125 L 226.691406 103.460938 L 226.109375 103.6875 L 226.160156 103.742188 L 225.75 103.644531 L 225.578125 103.496094 L 225.523438 103.703125 L 225.238281 103.734375 L 225.195312 103.820312 L 224.90625 103.90625 L 225.554688 103.527344 L 225.21875 103.714844 L 224.652344 103.976562 L 224.8125 103.765625 L 224.398438 104.105469 L 225.382812 103.886719 L 225.210938 103.527344 L 224.1875 103.875 L 224.875 103.90625 L 224.402344 103.90625 L 224.832031 104.085938 L 223.898438 104.214844 L 224.777344 103.84375 L 225.171875 103.863281 L 224.4375 104.175781 L 225.296875 103.625 L 224.011719 104.316406 L 225.65625 103.304688 L 225.195312 103.289062 L 225.5 103.160156 L 225.703125 103.285156 L 226.082031 103.445312 L 226.015625 103.539062 L 226.042969 103.460938 L 226.105469 104.019531 L 226.960938 102.855469 L 226.136719 103.453125 L 225.101562 103.660156 L 224.160156 104.796875 L 223.601562 105.941406 L 215.34375 110.394531 L 200.363281 122.007812 L 202.960938 122.808594 L 205.046875 121.535156 L 205.304688 119.253906 L 201.953125 116.992188 L 189.371094 118.933594 L 166.972656 126.539062 L 153.867188 137.429688 L 157.5625 146.800781 L 157.066406 172.222656 L 155.800781 194.894531 L 159.121094 211.292969 L 161.964844 213.828125 L 161.3125 211.71875 L 164.335938 215.171875 L 185.285156 227.386719 L 202.085938 227.152344 L 203.265625 227.109375 L 205.015625 226.117188 L 213.894531 220.257812 L 222.976562 207.503906 L 226.542969 200.46875 L 224.714844 187.863281 L 225.960938 174.632812 L 224.136719 176.832031 L 225.578125 178.453125 L 222.617188 181.902344 L 219.96875 185.167969 L 230.863281 195.097656 L 234.582031 205.101562 L 241.726562 219.8125 L 238.246094 222.863281 L 250.75 244.167969 L 254.386719 250.960938 L 257.378906 252.988281 L 255.59375 254.363281 L 270.050781 245.222656 L 256.136719 255.480469 L 256.257812 257.164062 L 257.789062 257.640625 L 257.464844 258.328125 L 258.792969 258.992188 L 259.984375 260.78125 L 259.945312 260.746094 L 259.640625 260.660156 L 259.503906 260.910156 L 259.285156 260.675781 L 259.34375 261.105469 L 258.609375 261.859375 L 255.058594 261.035156 L 251.597656 257.171875 L 254.09375 257.074219 L 251.460938 258.933594 L 249.625 258.972656 L 248.9375 256.886719 L 254.652344 255.222656 L 259.980469 255.457031 L 257.226562 257.890625 L 254.382812 250.894531 L 247.949219 245.019531 L 249.359375 246.441406 L 242.835938 244.859375 L 232.652344 237.519531 L 220.800781 232.601562 L 213.460938 233.007812 L 200.625 232.210938 L 191.480469 229.433594 L 189.585938 229.980469 L 188.082031 230.667969 L 187.773438 233.484375 L 190.441406 233.792969 L 191.042969 234.402344 L 192.480469 232.320312 L 196.675781 227.976562 L 199.988281 227.585938 L 213.082031 234.195312 L 232.449219 235.554688 L 231.898438 238.039062 L 230.867188 238.925781 L 247.410156 245.238281 L 250.320312 251.09375 L 257.699219 254.277344 L 258.03125 255.425781 L 253.289062 256.074219 L 252.589844 252.832031 L 254.296875 253.789062 L 254.832031 253.402344 L 254.132812 259.054688 L 252.300781 258.839844 L 251.800781 251.929688 L 251.019531 252.28125 L 254.855469 259.921875 L 258.257812 257.171875 L 258.003906 257.359375 L 258.699219 257.835938 L 259.132812 258.625 L 260.8125 260.292969 L 261.796875 261.375 L 260.828125 260.5625 L 261.214844 260.410156 L 261.769531 260.914062 L 262.449219 261.429688 L 262.347656 261.144531 L 261.691406 260.480469 L 261.941406 260.675781 L 254.617188 253.246094 L 244.453125 253.976562 L 244.882812 252.929688 L 250.929688 247.644531 L 248.285156 243.457031 L 227.890625 231.574219 L 204.054688 220.738281 L 180.945312 215.117188 L 182.289062 216.082031 L 176.246094 217.617188 L 151.816406 214.292969 L 126.226562 206.578125 L 112.964844 203.925781 L 113.421875 205.53125 L 115.996094 202.945312 L 107.148438 193.1875 L 87.316406 183.28125 L 70.003906 180.832031 L 71.207031 182.011719 L 57.257812 198.769531 L 46.121094 226.472656 L 40.511719 241.796875 L 36.421875 245.019531 L 39.679688 239.847656 L 63.703125 240.511719 L 97.226562 227.128906 L 127.308594 217.308594 L 158.46875 214.023438 L 182.894531 206.527344 L 198.488281 201.40625 L 200.03125 202.402344 L 196.101562 203.246094 L 215.566406 201.601562 L 223.328125 197.902344 L 227.089844 191.230469 L 229.683594 170.453125 L 227.953125 135.855469 L 225.207031 103.863281 L 222.929688 78.339844 L 226.875 54.359375 L 231.597656 50.636719 L 239.363281 39.699219 L 252.921875 27.628906 L 254.054688 27.910156 L 253.382812 34.925781 L 241.261719 35.710938 L 215.085938 47.359375 L 198.902344 60.21875 L 197.191406 64.1875 L 199.167969 70.242188 L 201.6875 109.375 L 205.390625 149.328125 L 212.105469 183.476562 L 223.171875 218.957031 L 229.125 235.777344 L 228.25 239.582031 L 228.507812 243.964844 L 229.242188 243.957031 L 229.890625 232.859375 L 230.484375 232.160156 L 239.152344 240.726562 L 233.535156 238.121094 L 235.230469 237.4375 L 239.820312 239.859375 L 249.832031 245.761719 L 246.5 244.128906 L 256.664062 253.570312 L 258.398438 258.203125 L 258.765625 258.691406 L 262.050781 262.363281 L 263.21875 262.277344 L 260.128906 262.808594 L 256.589844 261.671875 L 251.933594 259.539062 L 248.53125 256.339844 L 250.113281 251.152344 L 242.957031 236.867188 L 237.472656 229.480469 L 231.441406 226.320312 L 228.519531 224.601562 L 228.582031 216.691406 L 227.277344 215.304688 L 224.523438 213.363281 L 226.183594 214.257812 L 225.839844 213.515625 L 225.621094 213.167969 L 226.539062 214.617188 L 223.894531 214.707031 L 211.910156 212.6875 L 184.375 207.40625 L 154.3125 204.046875 L 128.984375 197.230469 L 106.503906 191.933594 L 85.960938 188.289062 L 78.839844 184.085938 L 76.621094 154.554688 L 75.316406 121.941406 L 69.769531 88.121094 L 61.515625 67.667969 L 50.925781 57.585938 L 43.441406 47.0625 L 38.808594 39.140625 L 26.378906 25.476562 L 26.433594 25.511719 L 26.042969 25.683594 L 25.738281 26.148438 L 28.894531 25.75 L 29.070312 23.992188 L 28.511719 29.332031 L 43.496094 35.195312 L 54.113281 38.492188 L 93.46875 49.121094 L 133.261719 55.523438 L 138.875 56.773438 L 150.261719 56.246094 L 154.472656 55.621094 L 153.84375 53.304688 L 155.34375 50.148438 L 156.042969 49.535156 L 155.4375 49.445312 L 154.300781 51.40625 L 153.25 50.566406 L 151.875 56.246094 L 145.804688 68.078125 L 161.121094 62.527344 L 184.355469 54.746094 L 206.734375 49.066406 L 225.054688 43.15625 L 242.1875 35.011719 L 245.234375 35.628906 L 246.5 33.1875 L 242.335938 36.585938 L 244.738281 47.226562 L 234.242188 80.847656 L 225.839844 128.28125 L 224.296875 173.113281 L 227.019531 203.097656 L 227.367188 221.300781 L 229.28125 231.796875 L 224.574219 231.105469 L 217.105469 233.347656 L 210.570312 234.261719 L 212.179688 239.785156 L 212.445312 240.550781 L 216.121094 234.960938 L 221.085938 232.925781 L 234.867188 245.753906 L 236.875 248.621094 L 241.769531 246.625 L 250.03125 248.777344 L 256.597656 250.472656 L 255.617188 251.949219 L 256.09375 253.324219 L 256.648438 250.921875 L 260.957031 245.792969 L 260.835938 247.386719 L 256.808594 251.761719 L 250.28125 248.441406 L 255.488281 253.421875 L 251.265625 250.855469 L 248.171875 247.292969 L 244.9375 243.46875 L 245.421875 249.773438 L 247.453125 250.804688 L 248.769531 255.441406 L 248.726562 257.183594 L 248.273438 249.910156 L 251 249.253906 L 249.472656 248.207031 L 247.722656 244.277344 L 247.441406 242.429688 L 244.667969 241.699219 L 249.546875 243.566406 L 257.730469 247.167969 L 255.824219 246.660156 L 248.871094 242.902344 L 239.71875 232.878906 L 230.992188 204.636719 L 213.824219 177.15625 L 189.964844 163.964844 L 153.976562 153.03125 L 123.546875 134.660156 L 117.113281 130.628906 L 117.203125 131.234375 L 118.546875 120.777344 L 103.867188 88.847656 L 91.035156 68.878906 L 87.171875 63.785156 L 95.71875 61.328125 L 123.445312 57.1875 L 172.191406 56.007812 L 203.65625 53.992188 L 230.773438 57.769531 L 237.488281 58.605469 L 244.046875 57.609375 L 244.425781 57.351562 L 245.792969 58.148438 L 243.464844 58.082031 L 231.5625 56.792969 L 227.40625 69.148438 L 225.007812 112.117188 L 220.679688 165.414062 L 219.15625 207.253906 L 225.757812 233.734375 L 232.539062 237.886719 L 244.410156 244.980469 L 255.375 255.03125 L 254.988281 256.046875 L 259.113281 260.265625 L 260.121094 260.167969 L 263.414062 257.257812 L 257.707031 252.699219 L 257.203125 243.632812 L 258.398438 239.492188 L 259.527344 240.828125 L 258.808594 240.851562 L 244.675781 244.105469 L 238.902344 230.144531 L 223.742188 186.679688 L 216.625 147.800781 L 215.269531 122.636719 L 218.257812 89.023438 L 222.875 65.816406 L 225.621094 51.363281 L 223.808594 54.210938 L 233.105469 59.683594 L 228.042969 79.460938 L 224.933594 128.125 L 225.601562 161.988281 L 232.214844 200.242188 L 239.367188 229.417969 L 245.261719 242.855469 L 244.921875 247.257812 L 255.132812 244.582031 L 250.492188 245.097656 L 245.976562 248.910156 L 248.292969 251.234375 L 253.21875 252.421875 L 253.332031 254.695312 L 256.804688 257.355469 L 255.671875 261.601562 L 260.144531 262.855469 L 261.160156 264.210938 L 264.027344 260.875 L 264.226562 261.257812 L 263.035156 258.261719 L 259.402344 258.199219 L 255.902344 257.007812 L 257.367188 245.90625 L 257.726562 245.59375 L 234.609375 239.132812 L 206.855469 228.558594 L 167.382812 221.011719 L 135.394531 217.421875 L 134.378906 215.652344 L 134.910156 216.097656 L 131.589844 217.316406 L 132.917969 218.132812 L 133.53125 217.4375 L 136.5 216.6875 L 138.273438 216.878906 L 138.097656 217.269531 L 139.984375 221.246094 L 144.472656 221.925781 L 150.363281 216.601562 L 171.976562 218.480469 L 193.746094 222.414062 L 198.214844 222.003906 L 196.992188 223.21875 L 197.042969 223.539062 L 196.0625 223.488281 L 197.019531 223.492188 L 202.355469 223.929688 L 219.925781 227.183594 L 231.1875 234.488281 L 232.714844 236.628906 L 237.011719 242.84375 L 242.472656 246.609375 L 243.484375 244.902344 L 245.992188 244.773438 L 234.597656 243.535156 L 235.792969 220.09375 L 227.40625 194.953125 L 207.960938 183.3125 L 176.914062 178.367188 L 154.539062 174.445312 L 157.78125 174.433594 L 157.574219 174.351562 L 157.695312 174.53125 L 156.535156 174.617188 L 153.496094 176.160156 L 139.460938 188.601562 L 125.503906 205.847656 L 125.039062 205.507812 L 122.332031 207.726562 L 121.183594 204.945312 L 119.613281 206.730469 L 123.488281 200.6875 L 110.078125 198.242188 L 81.035156 214.703125 L 56.578125 234.242188 L 48.550781 244.839844 L 46.011719 245.019531 L 41.527344 252.226562 L 33.074219 257.964844 L 39.945312 257.464844 L 38.855469 253.464844 L 32.453125 254.648438 L 27.777344 257.1875 L 28.460938 257.160156 L 27.148438 257.191406 L 40.539062 250.796875 L 54.921875 250.867188 L 51.792969 250.027344 L 46.132812 241.441406 L 46.453125 243.175781 L 47.023438 245.277344 L 50.714844 226.582031 L 62.417969 183.359375 L 65.109375 141 L 59.867188 103.875 L 53.265625 71.734375 L 40.457031 42.601562 L 40.746094 47.183594 L 41.171875 47.253906 L 42.027344 47.796875 L 41.207031 46 L 27.003906 25.394531 L 27.46875 23.492188 L 37.660156 39.226562 L 47.367188 37.515625 L 53.898438 38.746094 L 90.878906 48.066406 L 134.253906 55.421875 L 156.34375 55.066406 L 175.53125 52.316406 L 175.949219 53.035156 L 177.234375 52.179688 L 192.746094 48.796875 L 206.261719 46.128906 L 224.761719 39.71875 L 237.488281 35.683594 L 239.320312 34.160156 L 236.753906 36.539062 L 231.320312 39.628906 L 228.636719 38.328125 L 229.074219 37.058594 L 229.875 37.394531 L 230.933594 37.984375 L 234.730469 47.246094 L 228.46875 42.878906 L 228.542969 42.539062 L 227.660156 42.3125 L 227.457031 42.390625 L 227.4375 43.222656 L 221.019531 43.957031 L 202.628906 46.453125 L 189.003906 47.332031 L 184.414062 50.484375 L 188.695312 50.414062 L 190.195312 50.242188 L 185.890625 53.847656 L 177.207031 66.515625 L 169.085938 78.902344 L 161.347656 91.175781 L 154.390625 101.9375 L 144.960938 115.863281 L 140.546875 124.210938 L 135.855469 121.507812 L 126.714844 122.609375 L 113.425781 124.652344 L 89.273438 135.90625 L 69.382812 154.355469 L 69.359375 160.355469 L 63.125 180.402344 L 62.65625 194.347656 L 60.222656 195.449219 L 62.140625 183.765625 L 62.273438 181.570312 L 74.050781 187.101562 L 100.277344 183.855469 L 132.527344 174.5 L 157.609375 165.859375 L 175.941406 162.914062 L 177.4375 160.734375 L 178.476562 148.195312 L 179.351562 119.730469 L 177.816406 95.09375 L 176.503906 69.511719 L 175.636719 68.410156 L 173.179688 72.589844 L 164.824219 64.445312 L 144.402344 58.089844 L 114.878906 59.980469 L 89.898438 52.597656 L 65.363281 47.042969 L 50.3125 41.113281 L 48.757812 37.640625 L 52.796875 39.523438 L 48.152344 44.597656 L 51.648438 43.929688 L 49.355469 44.261719 L 49.625 42.878906 L 50.757812 48.113281 L 54.867188 56.257812 L 77.199219 64.082031 L 112.96875 65.265625 L 148.699219 65.203125 L 175.585938 68.136719 L 173.535156 67.570312 L 171.160156 67.714844 L 179.453125 64.96875 L 195.414062 55.550781 L 216.453125 43.605469 L 225.4375 44.015625 L 240.820312 39.191406 L 253.816406 28.777344 L 255.539062 26.035156 L 256.167969 24.992188 L 257.652344 26.492188 L 256.910156 26.996094 L 258.230469 27.394531 L 258.988281 26.957031 L 258.074219 26.773438 L 256.621094 25.5 L 253.394531 27.859375 L 254.445312 26.148438 L 254.644531 26.902344 L 253.609375 29.414062 L 255.085938 29.765625 L 258.917969 28.335938 L 258.738281 27.410156 L 257.015625 26.515625 L 255.9375 26.125 L 254.957031 26.285156 L 253.195312 20.816406 L 253.765625 22.078125 L 253.019531 27.136719 L 254.796875 28.421875 L 254.859375 27.886719 L 256.046875 26.679688 L 254.667969 33.707031 L 245.914062 35.25 L 237.488281 37.15625 L 234.777344 36.671875 L 236.082031 36.3125 L 235.757812 39.730469 L 227.058594 58.332031 L 219.207031 98.71875 L 222.609375 144.730469 L 226.636719 167.308594 L 225.828125 175.480469 L 222.777344 185.949219 L 224.886719 186.535156 L 222.921875 189.179688 L 214.84375 194.191406 L 200.625 212.707031 L 193.714844 221.363281 L 181.207031 219.292969 L 164.160156 224.097656 L 137.722656 224.105469 L 131.316406 222.496094 L 134.238281 219.316406 L 118.507812 191.144531 L 97.03125 169.613281 L 74.019531 155.914062 L 69.328125 151.054688 L 66.824219 144.515625 L 66.332031 145.351562 L 66.390625 144.941406 L 59.355469 138.339844 L 54.433594 139.179688 L 55.351562 142.4375 L 53.640625 142.214844 L 57.085938 140.886719 L 69.445312 139.757812 L 72.371094 150.054688 L 97.445312 161.535156 L 140.480469 169.074219 L 180.398438 178.089844 L 203.929688 188.699219 L 216.078125 197.8125 L 228.4375 207.273438 L 239.40625 217.972656 L 242.59375 224.808594 L 250.78125 224.019531 L 249.804688 223.640625 L 238.367188 221.464844 L 246.84375 238.253906 L 254.320312 253.097656 L 256.652344 253.679688 L 255.757812 255.828125 L 254.035156 259.96875 L 253.578125 259.148438 L 254.277344 259.554688 L 251.800781 258.484375 L 251.992188 260.117188 L 252.503906 260.125 L 252.734375 260.144531 L 252.589844 259.800781 L 253.144531 259.855469 L 250.707031 258.53125 L 252.59375 255.105469 L 249.300781 256.605469 L 251.917969 259.644531 L 252.949219 260.097656 L 253.636719 261.152344 L 255.65625 261.890625 L 255.898438 261.53125 L 256.394531 261.386719 L 255.914062 261.132812 L 255.40625 261.578125 L 255.4375 261.46875 L 255.605469 261.789062 L 255.773438 261.632812 L 258.148438 263.011719 L 261.15625 263.304688 L 253.835938 261.730469 L 247.375 257.222656 L 247.464844 255.785156 L 248.363281 254.363281 L 253.039062 255.175781 L 252.957031 254.660156 L 252.441406 255.890625 L 252.425781 255.277344 L 252.503906 255.742188 L 252.785156 255.800781 L 252.492188 255.855469 L 252.789062 248.039062 L 246.429688 237.390625 L 234.292969 226.570312 L 225.875 212.394531 L 226.574219 209.324219 L 225.171875 208.378906 L 224.738281 210.144531 L 209.050781 206.113281 L 174.332031 195.402344 L 147.03125 191.675781 L 118.574219 182.167969 L 103.503906 162.789062 L 97.761719 133.449219 L 107.910156 100.1875 L 121.878906 68.558594 L 125.121094 63.132812 L 133.007812 55.226562 L 132.308594 54.910156 L 131.613281 54.855469 L 128.878906 51.726562 L 127.433594 51.21875 L 127.820312 57.824219 L 124.839844 59.078125 L 123.539062 58.039062 L 123.101562 57.894531 L 122.824219 56.746094 L 123.089844 57.726562 L 124.089844 56.855469 L 124.269531 60.820312 L 124.65625 68.308594 L 123.761719 67.410156 L 126.703125 68.839844 L 136.679688 64.679688 L 158.746094 60.445312 L 181.925781 62.007812 L 211.882812 65.28125 L 227.640625 65.863281 L 232.863281 64.769531 L 240.957031 54.746094 L 253.175781 33.53125 L 255.894531 29.652344 L 254.78125 33.578125 L 258.488281 30.015625 L 260.460938 22.019531 L 260.265625 21.183594 L 261.539062 19.464844 L 263.785156 18.691406 L 256.917969 25.046875 L 254.707031 32.753906 L 246.203125 31.929688 L 235.78125 49.425781 L 230.050781 91.710938 L 220.359375 140.316406 L 212.132812 175.546875 L 205.476562 201.191406 L 203.949219 219.164062 L 205.425781 215.292969 L 210.855469 218.726562 L 210.347656 218.71875 L 204.898438 208.386719 L 208.9375 208.035156 L 219.519531 209.3125 L 219.851562 210.871094 L 222.652344 213.992188 L 232.378906 221.085938 L 239.875 227.308594 L 249.300781 229.855469 L 243.726562 229.863281 L 237.015625 228.253906 L 244.207031 237.996094 L 254.839844 253.335938 L 258.871094 258.5 L 261.757812 262.257812 L 259.882812 263.011719 L 260.503906 255.460938 L 260.53125 248.28125 L 260.292969 246.777344 L 246.742188 253.203125 L 243.207031 252.472656 L 244.40625 252 L 246.113281 239.074219 L 228.503906 215.699219 L 221.132812 209.195312 L 216.074219 214.214844 L 174.375 218.234375 L 127.914062 219.582031 L 103.054688 216.882812 L 72.011719 208.433594 L 67.5 206.867188 L 59.558594 215.1875 L 46.320312 240.667969 L 35.867188 256.601562 L 31.1875 256.777344 L 26.460938 261.136719 L 28.070312 263.667969 L 30.078125 264.304688 L 29.84375 264.382812 L 33.585938 255.488281 L 42.9375 247.925781 L 71.234375 228.328125 L 85.496094 212.832031 L 98.335938 203.394531 L 97.152344 205.320312 L 107.789062 204.984375 L 123.25 209.554688 L 155.222656 221.121094 L 188.980469 226.726562 L 209.5 228.300781 L 223.476562 231.082031 L 233.890625 232.714844 L 234.246094 232.65625 L 235.308594 222.738281 L 231.363281 189.929688 L 228.710938 159.882812 L 229.734375 128.636719 L 229.320312 116.707031 L 229.625 103.433594 L 229.011719 80.230469 L 225.902344 66.679688 L 223.960938 59.605469 L 229.074219 64.097656 L 230.917969 63.0625 L 245.894531 46 L 258.941406 30.730469 L 255.84375 28.792969 L 254.261719 29.464844 L 258.667969 23.707031 L 262.585938 21.890625 L 262.710938 21.363281 L 255.503906 22.476562 L 249.6875 29.746094 L 247.355469 33.316406 L 238.882812 57.871094 L 235.6875 89.09375 L 226.84375 128.605469 L 223.589844 162.832031 L 221.941406 191.785156 L 227 206.089844 L 240.261719 231.1875 L 251.011719 250.148438 L 249.359375 248.488281 L 249.867188 250.65625 L 252.847656 256.191406 L 252.277344 250.898438 L 251.210938 248.183594 L 244.871094 243.929688 L 246.644531 238.992188 L 252.316406 235.683594 L 251.675781 241.355469 L 256.691406 243.765625 L 250.691406 248.734375 L 248.34375 245.730469 L 251.21875 248.964844 L 257.773438 257.238281 L 258.5625 257.984375 L 261.960938 262.699219 L 260.523438 263.59375 L 260.691406 263.246094 L 259.367188 262.65625 L 260.84375 262.675781 L 252.390625 258.625 L 249.914062 253.652344 L 247.359375 250.894531 L 240.816406 242.984375 L 205.09375 231.730469 L 161.746094 224.191406 L 124.671875 220.207031 L 127.691406 214.597656 L 132.191406 215.28125 L 128.300781 220.636719 L 126.855469 222.054688 L 127.910156 219.226562 L 132.664062 212.675781 L 136.902344 214.871094 L 157.273438 218.476562 L 170.800781 209.660156 L 177.5625 196.488281 L 188.089844 173.453125 L 197.746094 140.589844 L 199.480469 110.667969 L 201.398438 110.03125 L 199.089844 101.054688 L 199.222656 93.179688 L 201.40625 72.5625 L 206.9375 58.238281 L 207.636719 56.285156 L 214.382812 50.890625 L 222.058594 45.410156 L 223.640625 44.128906 L 222.121094 45.300781 L 219.9375 46.648438 L 222.929688 47.746094 L 239.175781 42.683594 L 236.242188 41.453125 L 236.433594 49.746094 L 233.289062 72.777344 L 220.363281 101.191406 L 198.804688 140.3125 L 180.683594 169.183594 L 164.382812 192.316406 L 150.546875 214.539062 L 149.371094 212.457031 L 152.109375 214.140625 L 150.066406 220.472656 L 148.1875 217.273438 L 148.546875 217.339844 L 148.199219 217.371094 L 147.746094 217.003906 L 147.492188 216.980469 L 148.070312 217.382812 L 147.785156 217.292969 L 147.402344 216.789062 L 147.074219 216.707031 L 148.445312 217.359375 L 149.667969 218.152344 L 146.296875 216.640625 L 149.859375 220.234375 L 149.195312 217.445312 L 156.621094 217.195312 L 161.15625 220.558594 L 156.300781 222.175781 L 154.195312 222.457031 L 154.535156 222.78125 L 153.726562 223.902344 L 153.46875 223.429688 L 154.5 220.007812 L 164.316406 200.382812 L 175.851562 165.875 L 182.039062 131.5 L 182.882812 98.691406 L 177.542969 68.488281 L 178.988281 66.277344 L 180.324219 72.230469 L 186.550781 65.636719 L 195.386719 57.679688 L 207.273438 50.417969 L 209.933594 52.785156 L 207.332031 54.597656 L 206.121094 55.835938 L 201.707031 56.257812 L 196.226562 56.199219 L 174.117188 56.082031 L 157.152344 60.269531 L 157.632812 56.382812 L 148.066406 55.742188 L 145.042969 54.515625 L 145.386719 54.953125 L 123.398438 53.667969 L 90.058594 55.289062 L 61.40625 56.132812 L 56.707031 54.363281 L 53.203125 53.308594 L 48.070312 52.007812 L 50.863281 53.171875 L 51.488281 54.882812 L 51.472656 53.78125 L 40.828125 44.453125 L 24.351562 28.535156 L 24.542969 26.355469 L 25.367188 26.242188 L 24.796875 24.890625 L 23.859375 21.574219 L 23.929688 22.054688 L 23.941406 22.390625 L 22.804688 20.082031 L 20.6875 18.648438 L 25.410156 21.878906 L 39.910156 33.984375 L 26.65625 23.21875 L 25.96875 24.25 L 25.566406 25.167969 L 25.074219 26.425781 L 24.855469 25.40625 L 28.113281 27.714844 L 29.429688 22.179688 L 28.855469 20.824219 L 40.546875 34.386719 L 41.609375 38.351562 L 44.324219 43.976562 L 58.128906 51.71875 L 73.425781 51.710938 L 81.613281 51.566406 L 85.289062 52.085938 L 111.695312 60.957031 L 143.355469 73.484375 L 146.25 82.171875 L 147.6875 105.503906 L 154.070312 134.242188 L 180.4375 169.75 L 204.332031 195.558594 L 209.070312 201.601562 L 211.242188 207.03125 L 225.804688 228.390625 L 238.089844 242.582031 L 252.226562 252.601562 L 247.714844 256.105469 L 251.929688 256.625 L 258.519531 254.394531 L 261.359375 254.574219 L 254.695312 254.945312 L 253.691406 253.503906 L 257.222656 257.597656 L 256.285156 260.390625 L 254.609375 261.519531 L 254.910156 261.351562 L 254.546875 261.234375 L 254.472656 261.253906 L 254.230469 261.285156 L 254.210938 261.316406 L 252.035156 260.265625 L 249.132812 257.460938 L 248.863281 255.574219 L 253.65625 252.636719 L 252.117188 256.695312 L 251.777344 246.644531 L 243.609375 228.570312 L 234.582031 207.257812 L 222.554688 176.410156 L 213.40625 153.023438 L 210.878906 154.953125 L 210.664062 155.792969 L 201.007812 150.707031 L 190.402344 132.261719 L 185.226562 104.300781 L 176.289062 73.128906 L 171.707031 67.46875 L 180.652344 63.265625 L 207.277344 49.789062 L 238.8125 37.988281 L 252.429688 29.980469 L 250.132812 28.40625 L 240.746094 32.230469 L 242.90625 41.628906 L 239.007812 66.230469 L 230.617188 103.269531 L 226.515625 154.15625 L 226.128906 177.148438 L 228.472656 210.058594 L 229.113281 235.234375 L 230.4375 232.816406 L 233.390625 241.917969 L 239.609375 251.878906 L 248.003906 257.742188 L 249.820312 258.675781 L 248.761719 257.0625 L 247.664062 256.503906 L 251.011719 253.957031 L 251.671875 254.125 L 255.195312 256.152344 L 252.027344 259.023438 L 255.105469 255.675781 L 258.175781 258.464844 L 258.5625 258.84375 L 258.453125 259.074219 L 258.527344 259.492188 L 258.429688 261.125 L 259.09375 260.878906 L 258.996094 261.027344 L 254.511719 261.050781 L 250.710938 257.960938 L 252.738281 259.484375 L 252.789062 260.140625 L 247.539062 257.386719 L 253.273438 254.222656 L 253.886719 257.484375 L 247.417969 256.03125 L 248.042969 254.582031 L 250.730469 254.933594 L 249.984375 255.414062 L 250.121094 255.050781 L 250.046875 255.632812 L 249.976562 255.269531 L 248.640625 254.601562 L 245.089844 239.714844 L 232.652344 225.769531 L 225.28125 213.039062 L 223.039062 212.488281 L 224.761719 212.179688 L 225.773438 212.871094 L 225.117188 212.632812 L 225.046875 212.546875 L 224.90625 212.558594 L 224.464844 212.074219 L 225.660156 213.199219 L 223.835938 212.214844 L 224.710938 212.695312 L 225.335938 212.484375 L 224.21875 211.554688 L 221.46875 208.074219 L 210.351562 194.75 L 185.144531 184.144531 L 183.609375 184.257812 L 170.105469 188.78125 L 148.792969 201.714844 L 136.246094 207.523438 L 124.632812 212.609375 L 123.472656 214.613281 L 123.585938 214.878906 L 125.691406 213.46875 L 125.15625 214.554688 L 122.335938 215.136719 L 98.148438 226.085938 L 82.308594 234.175781 L 76.542969 235.519531 L 73.835938 236.144531 L 72.988281 237.296875 L 75.285156 235.042969 L 72.832031 238.417969 L 60.910156 245.855469 L 46.082031 251.175781 L 41.722656 252.078125 L 36.597656 258.460938 L 34.058594 259.617188 L 34.503906 258.515625 L 40.441406 256.042969 L 38.929688 257.238281 L 39.546875 256.050781 L 40.578125 241.140625 L 55.589844 211.1875 L 61.613281 176.789062 L 61.25 136.058594 L 58.339844 113.179688 L 56.199219 96.582031 L 57.472656 67.722656 L 62.515625 55.78125 L 103.171875 56.574219 L 138.535156 60.566406 L 169.078125 54.425781 L 192.65625 53.21875 L 209.785156 85.964844 L 223.421875 113.277344 L 227.625 150.609375 L 231.277344 187.457031 L 239.839844 222.753906 L 242.300781 239.394531 L 242.027344 235.5 L 240.886719 235.648438 L 243.878906 244.5 L 245.488281 247.898438 L 247.441406 253.917969 L 248.738281 249.449219 L 245.558594 243.601562 L 251.039062 249.136719 L 254.328125 255.960938 L 251.945312 252.949219 L 250.417969 253.574219 L 253.09375 258.945312 L 253.921875 259.386719 L 253.339844 258.917969 L 253.316406 259.164062 L 251.835938 259.328125 L 255.300781 256.125 L 257.355469 258.355469 L 259.292969 257.851562 L 259.042969 258.375 L 258.75 258.292969 L 259.347656 258.90625 L 258.90625 258.601562 L 259.234375 259.023438 L 258.882812 258.558594 L 259.5 259.003906 L 259.269531 258.679688 L 259.550781 258.890625 L 259.441406 258.730469 L 259.449219 258.847656 L 260.960938 260.417969 L 262.972656 262.628906 L 262.75 262.277344 L 259.28125 262.007812 L 254.9375 261.4375 L 251.054688 259.386719 L 258.046875 254.539062 L 254.023438 249.195312 L 242.335938 229.964844 L 230.796875 214.429688 L 227.429688 211.132812 L 223.988281 204.429688 L 204.449219 161.605469 L 191.957031 122.855469 L 184.214844 100.757812 L 177.28125 83.25 L 168.746094 64.171875 L 169.253906 56.128906 L 166.347656 53.644531 L 166.445312 51.855469 L 165.933594 52.269531 L 168.910156 57.242188 L 170.351562 68.316406 L 160.769531 70.957031 L 160.058594 103.292969 L 165.566406 152.945312 L 168.121094 189.917969 L 170.050781 214.417969 L 170.007812 214.140625 L 171.402344 215.953125 L 162.792969 208.722656 L 175.804688 204.378906 L 198.636719 200.308594 L 211.8125 197.242188 L 227.382812 194.023438 L 236.203125 192.667969 L 232.597656 194.511719 L 226.910156 193.785156 L 211.996094 192.679688 L 209.648438 192.960938 L 207.113281 186.574219 L 200.234375 154.902344 L 191.792969 121.589844 L 189.492188 104.410156 L 190.230469 84.332031 L 193.765625 62.113281 L 195.710938 69.359375 L 193.015625 76.742188 L 178.9375 91.980469 L 171.027344 125.753906 L 155.785156 160.179688 L 144.589844 186.449219 "/>
<g clip-path="url(#clip-0)">
<path fill="none" stroke-width="1.066978" stroke-linecap="butt" stroke-linejoin="round" stroke="rgb(0%, 71.764706%, 100%)" stroke-opacity="1" stroke-dasharray="4.267913 4.267913" stroke-miterlimit="10" d="M 8.21875 148.703125 L 282.519531 148.703125 "/>
</g>
<g clip-path="url(#clip-1)">
<path fill="none" stroke-width="1.066978" stroke-linecap="butt" stroke-linejoin="round" stroke="rgb(0%, 71.764706%, 100%)" stroke-opacity="1" stroke-dasharray="4.267913 4.267913" stroke-miterlimit="10" d="M 147.359375 279.78125 L 147.359375 5.480469 "/>
</g>
</svg>
