<?xml version="1.0" encoding="UTF-8"?>
<svg xmlns="http://www.w3.org/2000/svg" xmlns:xlink="http://www.w3.org/1999/xlink" width="288" height="288" viewBox="0 0 288 288">
<defs>
<clipPath id="clip-0">
<path clip-rule="nonzero" d="M 8.21875 142 L 282.519531 142 L 282.519531 144 L 8.21875 144 Z M 8.21875 142 "/>
</clipPath>
<clipPath id="clip-1">
<path clip-rule="nonzero" d="M 147 5.480469 L 149 5.480469 L 149 279.78125 L 147 279.78125 Z M 147 5.480469 "/>
</clipPath>
</defs>
<rect x="-28.8" y="-28.8" width="345.6" height="345.6" fill="rgb(100%, 100%, 100%)" fill-opacity="1"/>
<rect x="-28.8" y="-28.8" width="345.6" height="345.6" fill="rgb(100%, 100%, 100%)" fill-opacity="1"/>
<path fill="none" stroke-width="1.066978" stroke-linecap="round" stroke-linejoin="round" stroke="rgb(100%, 100%, 100%)" stroke-opacity="1" stroke-miterlimit="10" d="M 0 288 L 288 288 L 288 0 L 0 0 Z M 0 288 "/>
<path fill="none" stroke-width="1.066978" stroke-linecap="butt" stroke-linejoin="round" stroke="rgb(41.176471%, 41.176471%, 41.176471%)" stroke-opacity="1" stroke-miterlimit="10" d="M 247.078125 44.957031 L 247.382812 45.03125 L 250.539062 43.191406 L 250.554688 42.480469 L 251.589844 40.421875 L 258.214844 34.769531 L 259.183594 33.214844 L 261.414062 30.027344 L 259.632812 29.957031 L 258.523438 30.144531 L 258.039062 31.519531 L 256.808594 32.144531 L 257.382812 32.136719 L 256.972656 32.898438 L 249.421875 31.375 L 246.550781 34.410156 L 248.417969 37.886719 L 247.480469 42.402344 L 241.792969 51.445312 L 232.402344 72.101562 L 231.035156 74.3125 L 231.109375 73.136719 L 232.9375 73.238281 L 229.625 93.421875 L 229.070312 121.945312 L 223.863281 154.171875 L 219.457031 179.117188 L 222.332031 204.019531 L 232.066406 228.027344 L 239.265625 238.585938 L 247.027344 245.824219 L 240.886719 239.453125 L 240.003906 239.8125 L 241.394531 241.625 L 241.207031 239.152344 L 241.6875 239.292969 L 241.441406 239.3125 L 241.332031 238.949219 L 241.132812 238.769531 L 241.160156 238.691406 L 240.6875 238.5 L 240.902344 238.3125 L 240.914062 238.53125 L 240.386719 238.574219 L 241.160156 237.960938 L 240.632812 238.820312 L 240.699219 238.542969 L 240.621094 239.019531 L 240.230469 239.085938 L 240.300781 239.015625 L 240.46875 238.738281 L 240.394531 238.671875 L 240.136719 238.769531 L 239.941406 239.191406 L 239.859375 239.523438 L 239.949219 239.273438 L 239.9375 239.398438 L 240.019531 239.863281 L 240.515625 239.261719 L 240.503906 238.863281 L 240.660156 238.992188 L 240.972656 238.820312 L 242.363281 239.410156 L 241.878906 240.265625 L 241.5625 239.339844 L 241.191406 239.816406 L 241.09375 239.199219 L 241.257812 241.171875 L 242.738281 243.515625 L 245.882812 245.851562 L 252.785156 255.277344 L 255.804688 256.667969 L 258.019531 260.261719 L 258.207031 261.339844 L 258.183594 261.492188 L 259.988281 263.28125 L 262.578125 265.144531 L 258.371094 261.386719 L 248.347656 254.289062 L 244.433594 254.414062 L 244.800781 253.335938 L 241.746094 246.671875 L 231.898438 243.625 L 238.140625 243.746094 L 234.691406 240.386719 L 231.558594 236.691406 L 233.003906 236.855469 L 232.378906 230.617188 L 232.246094 234.6875 L 232.8125 233.589844 L 232.90625 223.65625 L 231.03125 219.429688 L 215.140625 211.875 L 193.632812 209.148438 L 164.203125 209.175781 L 132.21875 215.621094 L 118.503906 218.277344 L 101.128906 220.054688 L 96.976562 216.46875 L 96.921875 219.164062 L 89.234375 220.285156 L 89.328125 218.222656 L 89.246094 218.394531 L 88.511719 218.398438 L 89.554688 218.632812 L 88.132812 220.308594 L 88.390625 223.316406 L 85.796875 225.441406 L 80.398438 228.792969 L 80.375 228.949219 L 77.917969 230.023438 L 62.46875 240.933594 L 49.167969 245.476562 L 37.160156 253.175781 L 36.605469 258.382812 L 33.1875 256.484375 L 36.550781 259.050781 L 36.417969 260.125 L 35.800781 260.621094 L 37.878906 259.035156 L 35.949219 259.421875 L 36.496094 258.957031 L 38.066406 259.78125 L 38.308594 259.585938 L 35.535156 254.855469 L 37.433594 258.007812 L 36.933594 260.046875 L 38.261719 259.191406 L 35.03125 256.996094 L 29.121094 256.828125 L 26.738281 259.742188 L 23.753906 259.871094 L 24.246094 259.128906 L 27.449219 258.734375 L 43.441406 258.421875 L 44.589844 256.839844 L 38.878906 259.644531 L 36.621094 260.195312 L 36.894531 261.113281 L 31.867188 262.386719 L 30.519531 263.210938 L 27.738281 261.1875 L 26.839844 262.105469 L 22.082031 263.34375 L 20.6875 261.953125 L 21.777344 263.15625 L 27.34375 259.488281 L 41.902344 258.382812 L 46.367188 254.535156 L 44.59375 255.148438 L 42.738281 256.730469 L 41.414062 257.707031 L 39.007812 259.246094 L 39.21875 259.820312 L 39.867188 259.414062 L 39.714844 258.945312 L 37.101562 260.234375 L 34.617188 261.777344 L 27.566406 260.929688 L 28.007812 261.492188 L 27.488281 261.210938 L 27.015625 260.613281 L 26.980469 261.023438 L 27.039062 260.960938 L 26.867188 260.566406 L 26.984375 261.132812 L 24.339844 263.34375 L 24.015625 264.101562 L 23.066406 263.816406 L 34.042969 257.394531 L 44.203125 253.605469 L 55.644531 228.160156 L 75.261719 206.390625 L 91.417969 193.570312 L 97.335938 188.097656 L 104.171875 178.175781 L 110.230469 167.402344 L 117.726562 159.722656 L 129.429688 143.820312 L 132.75 138.644531 L 128.140625 145.742188 L 127.59375 147.019531 L 126.988281 146.789062 L 127.011719 146.949219 L 130.546875 150.664062 L 148.789062 164.503906 L 164.757812 175.953125 L 177.902344 185.351562 L 185.796875 191.242188 L 183.421875 189.21875 L 199.242188 190.898438 L 218.769531 194.863281 L 211.988281 193.050781 L 218.1875 184.988281 L 225.335938 166.875 L 229.820312 155.984375 L 233.085938 152.480469 L 236.101562 151.3125 L 236.648438 147.898438 L 236.792969 146.898438 L 236.648438 145.671875 L 234.390625 148.0625 L 228.910156 155.375 L 228.832031 146.488281 L 227.761719 115.597656 L 223.492188 96.097656 L 218.753906 81.933594 L 218.707031 67.558594 L 218.699219 60.25 L 217.695312 52.585938 L 219.617188 52.183594 L 220.484375 59.875 L 221.488281 61.179688 L 227.984375 57.683594 L 243.542969 47.722656 L 249.1875 46.457031 L 253.117188 49.273438 L 252.664062 50.476562 L 247.890625 50.734375 L 229.515625 56.269531 L 225.570312 78.75 L 216.175781 92.992188 L 205.003906 94.417969 L 188.011719 89.242188 L 166.828125 80.878906 L 164.671875 78.125 L 157.746094 71.082031 L 155.289062 68.246094 L 155.890625 71.496094 L 157.046875 70.570312 L 156.378906 70.351562 L 157.339844 72.285156 L 156.011719 72.054688 L 157.523438 70.398438 L 158.097656 72.378906 L 157.445312 71.425781 L 157.492188 69.847656 L 158.449219 70.742188 L 158.984375 69.992188 L 158.882812 70.46875 L 158.761719 70.6875 L 158.394531 71.230469 L 160.101562 72.136719 L 161.757812 73.886719 L 160.308594 72.117188 L 155.601562 68.886719 L 157.671875 72.378906 L 158.0625 76.210938 L 159.863281 75.050781 L 152.410156 83.324219 L 132.636719 98.433594 L 118.996094 106.578125 L 99.097656 113.367188 L 81.730469 119.503906 L 74.761719 124.082031 L 73.199219 132.875 L 66.867188 159.78125 L 61.664062 180.144531 L 57 200.78125 L 55.878906 216.910156 L 58.816406 218.976562 L 59.671875 221.277344 L 67.398438 228.351562 L 64.210938 226.945312 L 63.855469 219.902344 L 64.328125 212.941406 L 61.417969 191.445312 L 66.910156 162.726562 L 70.753906 145.355469 L 73.46875 120.683594 L 73.644531 92.5 L 73.960938 74.914062 L 70.203125 55.613281 L 62.597656 49.96875 L 49.03125 40.589844 L 36.242188 28.953125 L 30.566406 23.910156 L 29.882812 24.382812 L 29.753906 24.367188 L 29.691406 23.945312 L 27.527344 21.726562 L 25.808594 19.636719 L 28.796875 21.789062 L 30.9375 23.433594 L 32.167969 25.769531 L 36.933594 29.105469 L 35.292969 35.449219 L 43.945312 39.890625 L 70.277344 52.71875 L 99.5 70.820312 L 123.960938 86.964844 L 148.320312 102.738281 L 169.53125 118.355469 L 182.207031 137.492188 L 193.476562 165.636719 L 209.359375 196.691406 L 224.90625 217.792969 L 243.160156 240.785156 L 248.28125 244.523438 L 248.777344 245.632812 L 251.839844 244.339844 L 250.722656 242 L 250.9375 236.882812 L 246.269531 235.25 L 241.402344 232.546875 L 239.417969 228.394531 L 230.566406 197.472656 L 218.441406 162.488281 L 215.492188 132.769531 L 221.371094 112.0625 L 226.644531 100.082031 L 231.3125 98.417969 L 237.632812 95.308594 L 239.109375 92.460938 L 242.617188 89.429688 L 242.847656 87.542969 L 242.800781 85.652344 L 237.929688 91.300781 L 228.441406 95.84375 L 235.925781 73.410156 L 245.410156 51.972656 L 254.417969 38.488281 L 256.9375 33.996094 L 260.789062 29.011719 L 257.414062 36.734375 L 259.230469 35.648438 L 263.105469 32.503906 L 261.171875 33.054688 L 262.910156 34.277344 L 261.730469 34.425781 L 241.386719 42.980469 L 232.8125 50.238281 L 231.3125 74.804688 L 219.222656 97.558594 L 204.761719 113.597656 L 188.039062 123.308594 L 170.875 132.695312 L 169.527344 133.21875 L 165.953125 135.839844 L 164.835938 136.625 L 163.023438 137.433594 L 163.222656 137.734375 L 163.878906 137.59375 L 160.449219 137.949219 L 162.679688 137.785156 L 161.328125 136.207031 L 150.269531 130.0625 L 132.457031 120.269531 L 120.253906 110.074219 L 119.0625 105.492188 L 119.765625 109.171875 L 110.78125 106.394531 L 100.769531 104.664062 L 105.367188 104.417969 L 106.046875 109.855469 L 101.519531 127.339844 L 103.660156 149.867188 L 111.398438 171.601562 L 112.78125 194.804688 L 112.332031 208.523438 L 108.617188 215.332031 L 90.570312 229.019531 L 69.574219 236.0625 L 51.957031 241.402344 L 37.796875 249.082031 L 30.960938 253.769531 L 32.757812 255.964844 L 30.785156 257.285156 L 26.796875 260.164062 L 26.585938 260.816406 L 26.800781 260.710938 L 25.179688 260.660156 L 34.148438 260.097656 L 37.390625 256.402344 L 45.402344 242.160156 L 57.421875 227.058594 L 68.050781 209.109375 L 73.855469 195.339844 L 76.925781 184.058594 L 84.078125 173.980469 L 93.792969 166.855469 L 95.699219 167.226562 L 101.097656 169.109375 L 114.375 173.296875 L 126.542969 177.894531 L 147.820312 181.609375 L 163.359375 184.542969 L 175.5 188.628906 L 186.15625 192.144531 L 207.441406 198.5625 L 224.714844 208.933594 L 232.054688 219.695312 L 239.300781 231.796875 L 251.683594 248.640625 L 256.253906 254.816406 L 257.304688 259.632812 L 259.679688 260.480469 L 260.019531 260.941406 L 263.90625 264.714844 L 263.796875 264.640625 L 263.617188 265.023438 L 258.96875 257.988281 L 252.390625 261.558594 L 252.695312 254.664062 L 245.171875 247.882812 L 217.730469 232.769531 L 191.382812 226.097656 L 156.304688 213.617188 L 128.984375 198.1875 L 109.378906 188.433594 L 100.875 180.738281 L 103.832031 188.261719 L 81.941406 199.648438 L 63.25 215.785156 L 57.121094 227.914062 L 54.53125 239.007812 L 52.273438 248.601562 L 53.019531 239.0625 L 42.003906 246.394531 L 36.648438 251.566406 L 30.648438 255.171875 L 36.417969 254.554688 L 36.757812 260.519531 L 37.324219 259.640625 L 41.140625 256.230469 L 44.113281 232.511719 L 52.042969 229.441406 L 78.410156 222.824219 L 101.195312 210.214844 L 129.546875 194.027344 L 145.464844 182.105469 L 155.132812 170.851562 L 154.777344 169.605469 L 153.605469 173.855469 L 151.046875 172.195312 L 152.785156 164.027344 L 152.5 163.808594 L 152.789062 164.300781 L 152.21875 163.3125 L 152.511719 162.382812 L 136.960938 146.394531 L 119.753906 138.835938 L 102.273438 129.441406 L 93.082031 120.648438 L 89.71875 112.90625 L 87.550781 100.875 L 83.195312 96.273438 L 83.390625 100.125 L 77.359375 93.222656 L 62.25 75.113281 L 53.429688 59.242188 L 42.597656 38.085938 L 36.195312 30.847656 L 33.914062 28.628906 L 33.226562 28.570312 L 32.683594 29.105469 L 33.242188 28.78125 L 33.203125 28.730469 L 34.140625 30.40625 L 31.699219 28.308594 L 28.996094 27.125 L 28.996094 23.574219 L 28.753906 22.707031 L 26.453125 19.09375 L 27.109375 18.214844 L 27.597656 17.949219 L 31.234375 23.84375 L 38.253906 34.523438 L 37.140625 31.070312 L 37.121094 31.730469 L 38.40625 34.050781 L 40.335938 32.722656 L 41.113281 32.746094 L 42.800781 33.480469 L 47.234375 30.574219 L 47.859375 32.421875 L 48.953125 32.949219 L 49.789062 32.882812 L 50.515625 32.550781 L 50.554688 32.269531 L 50.628906 32.335938 L 50.402344 32.238281 L 50.546875 32.011719 L 50.597656 32.140625 L 49.425781 32.1875 L 47.695312 32.539062 L 45.390625 34.207031 L 42.929688 34.585938 L 41.433594 34.121094 L 42.859375 34.53125 L 47.117188 36.878906 L 47.332031 42.324219 L 47.195312 43.648438 L 47.347656 44.421875 L 48.652344 49.53125 L 54.035156 71.738281 L 65.65625 98.214844 L 75.726562 118.789062 L 79.886719 125.035156 L 82.898438 131.414062 L 87.585938 135.75 L 99.382812 146.085938 L 110.058594 151.214844 L 124.714844 159.457031 L 131.855469 165.328125 L 147.550781 176.082031 L 164.046875 184.019531 L 177.496094 189.394531 L 198.597656 202.039062 L 213.621094 211.699219 L 227.582031 224.257812 L 244.792969 240.511719 L 252.464844 251.839844 L 255.375 254.515625 L 255.03125 254.382812 L 256.464844 259.722656 L 256.488281 259.898438 L 260.277344 261.269531 L 261.082031 262.40625 L 257.980469 259.539062 L 250.070312 255.699219 L 250.128906 256.785156 L 245.335938 258.5 L 241.585938 255.484375 L 240.902344 248.78125 L 227.085938 241.527344 L 228.511719 239.246094 L 225.242188 238.003906 L 218.789062 232.910156 L 218.980469 233.03125 L 218.339844 232.738281 L 217.976562 232.949219 L 215.941406 233.425781 L 212.105469 233.496094 L 209.808594 232.71875 L 197.671875 230.347656 L 182.453125 227.535156 L 146.972656 222.960938 L 128.316406 223.035156 L 91.628906 224.269531 L 92.613281 222.210938 L 99 220.832031 L 101.457031 219.929688 L 101.636719 221.0625 L 100.125 220.597656 L 101.28125 222.113281 L 107.609375 227.421875 L 117.808594 229.265625 L 142.109375 225.304688 L 161.78125 223.132812 L 187.910156 231.117188 L 190.472656 232.242188 L 192.617188 232.140625 L 191.410156 231.988281 L 191.480469 233.609375 L 191.832031 235.652344 L 195.367188 238.367188 L 195.394531 237.996094 L 190.570312 230.105469 L 186.539062 212.738281 L 184.375 213.824219 L 184.742188 212.335938 L 173.410156 218.144531 L 152.117188 215.140625 L 126.75 207.75 L 106.382812 202.851562 L 84.226562 198.191406 L 68.761719 189.851562 L 74.957031 191.429688 L 76.886719 200.265625 L 81.378906 212.746094 L 85.417969 223.570312 L 87.367188 231.121094 L 84.386719 227.320312 L 84.984375 214.84375 L 110.496094 208.589844 L 125.039062 200.503906 L 134.285156 193.128906 L 145.984375 181.460938 L 164.082031 163.652344 L 188.238281 137.679688 L 210.53125 113.535156 L 229.324219 91.085938 L 236.050781 75.71875 L 240.859375 57.398438 L 254.015625 38.414062 L 257.625 34.539062 L 256.019531 35.808594 L 261.105469 31.6875 L 262.679688 28.820312 L 262.558594 29.039062 L 261.351562 29.976562 L 260.980469 30.316406 L 261.132812 30.839844 L 263.425781 30.328125 L 264.601562 28.753906 L 264.796875 27.449219 L 259.457031 31.8125 L 248.6875 46.390625 L 251.121094 48.847656 L 254.257812 51.214844 L 253.859375 53.617188 L 253.3125 54.089844 L 238.890625 53.003906 L 232.320312 68.507812 L 218.902344 94.769531 L 206.960938 109.125 L 185.582031 122.28125 L 160.453125 129.394531 L 137.734375 129.25 L 123.066406 124.800781 L 114.902344 108.226562 L 105.882812 87.40625 L 95.320312 65.988281 L 88.800781 56.457031 L 86.253906 57.195312 L 86.59375 52.484375 L 85.886719 51.761719 L 85.230469 51.097656 L 85.316406 48.566406 L 84.070312 47.210938 L 83.347656 46.433594 L 83.449219 46.90625 L 84.839844 50.96875 L 89.695312 63.476562 L 88.550781 69.367188 L 75.394531 59.011719 L 62.640625 50.691406 L 42.742188 37.4375 L 39.265625 34.101562 L 38.894531 32.835938 L 36.914062 29.855469 L 37.640625 30.242188 L 36.660156 29.613281 L 30.242188 24.328125 L 30.3125 24.402344 L 30.359375 24.121094 L 30.402344 24.777344 L 29.046875 21.425781 L 31.316406 23.824219 L 33.855469 26.835938 L 37.980469 26.949219 L 39.023438 28.695312 L 37.703125 40.746094 L 47.707031 41.179688 L 60.695312 50.621094 L 79.867188 74.1875 L 97.554688 103.542969 L 103.839844 125.085938 L 106.296875 128.425781 L 114.109375 140.511719 L 117.589844 152.699219 L 118.464844 170.664062 L 124.546875 190.386719 L 136.269531 216.035156 L 137.339844 218.148438 L 139.832031 221.460938 L 140.246094 222.046875 L 142.332031 220.457031 L 175.792969 231.273438 L 202.773438 233.980469 L 225.738281 239.835938 L 241.507812 246.742188 L 250.28125 254.0625 L 257.089844 258.507812 L 254.53125 256.726562 L 257.566406 256.257812 L 254.746094 254.292969 L 254.753906 248.523438 L 255.242188 247.320312 L 247.691406 249.226562 L 245.867188 243.667969 L 237.730469 220.175781 L 233.320312 201.652344 L 230.921875 187.453125 L 230.296875 182.449219 L 229.050781 183.378906 L 229.234375 183.5625 L 229.078125 184.355469 L 229.710938 181.320312 L 228.59375 179.617188 L 225.5625 171.410156 L 224.675781 150.648438 L 228.386719 130.335938 L 230.453125 117.269531 L 231.519531 113.632812 L 232.460938 107.539062 L 236.480469 93 L 235.660156 89.472656 L 236.523438 88.382812 L 238.808594 84.695312 L 237.34375 83.167969 L 237.878906 82.246094 L 242.234375 71.785156 L 250.753906 48.335938 L 256.191406 37.773438 L 257.902344 33.742188 L 259.90625 32.425781 L 260.238281 30.898438 L 259.457031 29.628906 L 259.035156 29.5625 L 259.203125 29.089844 L 259.875 30.730469 L 260.945312 29 L 254.160156 40.28125 L 248.992188 52.015625 L 243.0625 52.390625 L 224.949219 53.839844 L 205.964844 59.140625 L 192.660156 60.234375 L 174.328125 64.207031 L 161.429688 64.976562 L 142.789062 63.480469 L 126.558594 62.429688 L 124.566406 62.289062 L 127.429688 63.992188 L 128.074219 68.039062 L 114.058594 84.789062 L 95.472656 105.105469 L 76.6875 116.761719 L 70.789062 121.394531 L 67.628906 130.792969 L 66.441406 135.429688 L 64.449219 138.113281 L 61.527344 150.640625 L 60.78125 167.882812 L 58.851562 194.253906 L 54.484375 217.335938 L 51.390625 226.078125 L 51.960938 228.164062 L 51.785156 231.816406 L 49.738281 227.804688 L 48.253906 226.726562 L 44.882812 232.644531 L 41.484375 241.757812 L 36.804688 249.113281 L 29.171875 246.109375 L 27.839844 248.527344 L 29.242188 252.679688 L 27.714844 249.792969 L 30.960938 251.839844 L 28.78125 248.582031 L 31.152344 249.9375 L 34.222656 245.417969 L 34.945312 244.660156 L 31.445312 250.839844 L 27.492188 250.984375 L 31.613281 252.585938 L 28.601562 247.84375 L 31.453125 247.417969 L 35.371094 250.972656 L 35.320312 251.519531 L 32.449219 248.761719 L 31.898438 248.554688 L 30.101562 245.484375 L 29.402344 247.367188 L 32.292969 249.972656 L 28.847656 247.503906 L 31.15625 250.582031 L 28.515625 248.007812 L 34.472656 246.464844 L 34.300781 251.945312 L 32.582031 251.3125 L 34.613281 253.921875 L 34.320312 256.019531 L 34.707031 255.457031 L 34.417969 248.058594 L 29.167969 247.054688 L 30.964844 243.183594 L 38.046875 244.347656 L 45.507812 244.429688 L 56.945312 249.726562 L 59.199219 242.234375 L 67.214844 234.046875 L 72.664062 221.617188 L 71.324219 211.804688 L 71.21875 202 L 70.003906 192.34375 L 65.28125 183.179688 L 66.648438 185.671875 L 71.46875 179.664062 L 79.367188 175.375 L 94.929688 162.8125 L 104.9375 155.699219 L 103.117188 152.984375 L 103.542969 153.839844 L 102.632812 156.511719 L 102.867188 155.164062 L 110.75 149.402344 L 123.738281 138.464844 L 132.578125 129.679688 L 131.378906 127.714844 L 130.058594 124.972656 L 129.332031 131.613281 L 130.328125 132.082031 L 138.085938 119.019531 L 141.210938 107.359375 L 142.242188 106.355469 L 143.453125 106.4375 L 143.601562 107.121094 L 143.019531 107.199219 L 143.144531 106.796875 L 143.957031 107.3125 L 143.960938 106.433594 L 144.519531 105.207031 L 154.132812 89.804688 L 164.484375 72.945312 L 163.917969 73.378906 L 162.589844 76.207031 L 163.125 77.113281 L 161.65625 79.679688 L 160.21875 79.34375 L 158.886719 77.191406 L 159.925781 79.816406 L 161.367188 88.398438 L 163.378906 89.582031 L 163.398438 90.070312 L 161.015625 91.082031 L 159.542969 91.066406 L 155.578125 81.851562 L 149.410156 69.390625 L 146.359375 64.445312 L 146.550781 61.675781 L 146.226562 60.457031 L 147.4375 59.472656 L 148.085938 59.273438 L 148.464844 62.5 L 148.757812 63.460938 L 147.234375 64.03125 L 149.585938 75.160156 L 152.527344 90.121094 L 151.464844 93.382812 L 152.449219 93.894531 L 152.84375 94.140625 L 152.078125 93.496094 L 146.59375 89.503906 L 136.222656 86.421875 L 131.460938 87.890625 L 131.804688 87.449219 L 131.652344 86.136719 L 132.496094 86.296875 L 137.476562 86.980469 L 143.996094 89.550781 L 142.773438 93.640625 L 138.761719 108.300781 L 137.558594 129.398438 L 136.933594 129.566406 L 136.90625 128.863281 L 138.238281 132.195312 L 146.671875 163.035156 L 147.316406 174.789062 L 150.820312 191.425781 L 152.726562 210.621094 L 152.890625 214.695312 L 155.386719 216.054688 L 161.476562 218.164062 L 164.925781 220.300781 L 179.644531 232.703125 L 183.476562 232.65625 L 183.492188 232.742188 L 192.246094 233.105469 L 198.160156 234.546875 L 204.890625 236.300781 L 211.835938 239.605469 L 221.511719 242.257812 L 224.84375 242.34375 L 223.757812 241.058594 L 223.816406 241.722656 L 227.167969 245.605469 L 235.796875 249.011719 L 244.324219 251.601562 L 249.277344 255.101562 L 256.960938 258.011719 L 257.648438 260.964844 L 258.859375 261.148438 L 260.878906 261.992188 L 261.292969 262.734375 L 261.511719 262.585938 L 259.035156 259.984375 L 246.386719 247.460938 L 239.988281 244.085938 L 237.085938 232.238281 L 237.191406 231.773438 L 239.828125 233.328125 L 245.550781 246.328125 L 250.46875 248.734375 L 250.820312 249.578125 L 257.425781 256.742188 L 256.0625 257.027344 L 254.550781 255.875 L 251.328125 253.0625 L 247.773438 248.640625 L 247.75 241.21875 L 235.144531 232.085938 L 236.84375 231.511719 L 229.988281 224.144531 L 210.628906 212.207031 L 196.347656 204.554688 L 189.621094 203.253906 L 174.46875 205.925781 L 136.230469 211.800781 L 97.894531 218.308594 L 77.9375 220.757812 L 65.863281 225.816406 L 53.800781 236.386719 L 40.753906 248.164062 L 34.269531 256.160156 L 28.066406 259.625 L 28.5 259.285156 L 28.320312 260.414062 L 35.539062 252.402344 L 32.199219 245.023438 L 34.25 243.257812 L 55.492188 242.617188 L 60.566406 241.242188 L 56.453125 242.527344 L 59.101562 238.121094 L 55.886719 219.804688 L 61.730469 184.390625 L 70.1875 153.882812 L 75.550781 131.558594 L 74.640625 120.117188 L 73.371094 118.132812 L 71.554688 109.597656 L 66.351562 105.949219 L 68.363281 108.613281 L 67.074219 109.078125 L 68.578125 108.398438 L 68.628906 107.5 L 68.191406 107.066406 L 67.796875 106.554688 L 68.449219 106.902344 L 77.449219 112.859375 L 82.601562 109.796875 L 85.335938 96.019531 L 89.214844 92.976562 L 85.886719 98.40625 L 80.121094 94.464844 L 68.953125 88.800781 L 61.761719 90.605469 L 59.394531 89.523438 L 75.050781 88.699219 L 79.339844 89.824219 L 76.8125 89.1875 L 80.542969 88.40625 L 85.808594 90.3125 L 74.90625 97.671875 L 65.757812 111.394531 L 61.507812 114.832031 L 59.578125 115.71875 L 58.625 116.800781 L 58.234375 115.566406 L 55.089844 115.941406 L 59.832031 112.859375 L 77.296875 105.765625 L 84.8125 131.132812 L 102.867188 149.835938 L 124.933594 164.589844 L 141.808594 173.453125 L 165.054688 188.175781 L 190.269531 206.597656 L 201.542969 217.515625 L 216.621094 233.175781 L 224.296875 240.0625 L 228.609375 240.101562 L 238.226562 246.183594 L 247.585938 251.445312 L 252.40625 257.285156 L 255.242188 255.738281 L 255.519531 258.746094 L 249.609375 259.613281 L 248.464844 256.339844 L 243.929688 258.746094 L 243.144531 251.773438 L 238.167969 243.539062 L 223.40625 238.386719 L 200.746094 228.679688 L 160.09375 219.941406 L 128.980469 213.613281 L 106.332031 205.664062 L 92.652344 199.296875 L 89.015625 202.460938 L 76.15625 207.726562 L 62.347656 221.453125 L 53.617188 230.609375 L 41.121094 244.625 L 39.65625 250.125 L 41.621094 255.539062 L 42.976562 243.894531 L 42.921875 237.003906 L 49.144531 231.722656 L 55.710938 222.128906 L 54.023438 220.761719 L 58.050781 222.644531 L 68.210938 226.992188 L 91.261719 227.699219 L 129.835938 221.070312 L 159.824219 216.59375 L 189.5625 212.410156 L 213.261719 216.757812 L 227.476562 220.890625 L 236.21875 227.054688 L 248.6875 244.988281 L 255.34375 255.542969 L 257.089844 254.695312 L 257.121094 254.644531 L 258.132812 258.78125 L 260.105469 262.585938 L 260.234375 263.101562 L 260.664062 264.320312 L 261.457031 262.988281 L 255.90625 256.328125 L 247.742188 258.535156 L 251.914062 249.824219 L 230.132812 241.179688 L 203.574219 229.671875 L 164.761719 220.03125 L 134.53125 209.191406 L 118.738281 194.691406 L 105.425781 173.96875 L 100.601562 155.09375 L 102.472656 161.8125 L 103.371094 164.222656 L 106.105469 152.191406 L 112.433594 139.523438 L 124.851562 125.65625 L 137.4375 109.800781 L 139.382812 111.015625 L 143.121094 108.105469 L 148.257812 100.820312 L 163.410156 85.390625 L 178.335938 77.527344 L 191.324219 69.671875 L 212.699219 62.769531 L 232.117188 58.191406 L 234.292969 58.628906 L 233.515625 61.402344 L 234.886719 61.203125 L 238.210938 62.773438 L 239.535156 62.890625 L 241.117188 61.875 L 240.652344 62.367188 L 239.691406 62.082031 L 240.417969 62 L 240.683594 62.90625 L 240.390625 62.671875 L 233.035156 61.132812 L 219.316406 61.777344 L 223.652344 57.664062 L 223.066406 59.242188 L 222.695312 60.9375 L 223.667969 59.839844 L 222.273438 61.074219 L 212.773438 70.027344 L 222.558594 67.339844 L 235.707031 62.183594 L 234.410156 62.691406 L 228.085938 65.453125 L 225.097656 61.410156 L 228.222656 59.089844 L 236.988281 46.804688 L 251.53125 34.335938 L 256.691406 31.632812 L 259.246094 30.0625 L 260.34375 28.800781 L 256.976562 30.335938 L 254.28125 31.316406 L 251.292969 32.898438 L 248.484375 35.539062 L 250.574219 41.863281 L 223.621094 54.792969 L 200.441406 66.464844 L 187.210938 68.28125 L 174.917969 69.8125 L 162.886719 69.097656 L 143.609375 64.636719 L 131.511719 64.492188 L 125.027344 63.566406 L 115.714844 59.800781 L 104.246094 56.324219 L 103.980469 57.386719 L 107.992188 61.820312 L 108.65625 60.835938 L 105.265625 61.449219 L 77.644531 66.011719 L 60.703125 66.808594 L 61.132812 66.679688 L 53.65625 59.394531 L 42.199219 46.671875 L 41.765625 46.289062 L 37.921875 44.609375 L 35.59375 44.226562 L 36.527344 44.257812 L 36.160156 44.753906 L 39.8125 48.585938 L 45.082031 51.234375 L 53.742188 46.375 L 58.078125 65.359375 L 70.875 98.703125 L 92.542969 122.613281 L 104.554688 138.992188 L 126.460938 159.441406 L 124.449219 160.792969 L 126.210938 160.804688 L 144.996094 165.472656 L 167.21875 174.1875 L 190.121094 189.054688 L 202.808594 197.820312 L 213.109375 200.789062 L 224.6875 209.949219 L 238.457031 228.9375 L 246.578125 243.398438 L 248.472656 243.652344 L 253.675781 250.652344 L 258.9375 256.289062 L 259.796875 257.605469 L 259.894531 258.996094 L 259.734375 259.171875 L 259.570312 259.5625 L 259.441406 259.433594 L 260.058594 259.46875 L 259.734375 259.589844 L 260.8125 260.699219 L 262.824219 263.421875 L 262.382812 262.445312 L 257.410156 254.941406 L 251.117188 248.796875 L 239.109375 246.128906 L 217.71875 231.503906 L 196.085938 219.308594 L 178.96875 210.128906 L 169.996094 205.109375 L 153.613281 194.996094 L 144.289062 188.988281 L 133.378906 179.914062 L 133.847656 177.984375 L 135.527344 177.96875 L 137.839844 179.550781 L 141.023438 173.96875 L 143.328125 164.453125 L 159.453125 140.421875 L 164.796875 130.144531 L 178.566406 107.621094 L 188.039062 93.664062 L 185.6875 91.910156 L 185.25 93.773438 L 187.699219 94.347656 L 188.148438 94.894531 L 188.242188 96.050781 L 188.710938 96.652344 L 189.066406 96.484375 L 189.15625 96.371094 L 188.550781 98.449219 L 187.445312 101.558594 L 186.148438 103.652344 L 184.972656 108.320312 L 189.191406 108.238281 L 186.515625 108.5 L 186.523438 106.613281 L 180.167969 106.589844 L 169.394531 93.53125 L 151.695312 75.644531 L 141.667969 64.851562 L 141.808594 60.792969 L 139.609375 57.511719 L 142.339844 64.164062 L 133.515625 74.046875 L 110.058594 80.675781 L 105.964844 84.285156 L 100.5625 99.027344 L 94.652344 126.476562 L 85.09375 161.765625 L 78.1875 187.316406 L 73.875 205.8125 L 75.96875 214.511719 L 78.074219 219.261719 L 80.609375 216.65625 L 86.867188 218.785156 L 94.128906 222.347656 L 109.089844 218.519531 L 122.242188 211.414062 L 136.515625 200.179688 L 155.417969 183.519531 L 170.179688 171.335938 L 180.117188 161.230469 L 181.722656 157.734375 L 187.199219 144.566406 L 187.207031 142.1875 L 190.898438 146.023438 L 209.753906 144.574219 L 219.480469 140.347656 L 223.335938 131.113281 L 230.410156 113.175781 L 235.59375 97.96875 L 240.027344 72.519531 L 246.25 51.898438 L 249.671875 42.605469 L 257.152344 37.503906 L 262.246094 31.113281 L 262.140625 29.117188 L 263.113281 27.875 L 265.515625 27.125 L 268.105469 25.46875 L 267.371094 25.308594 L 265.636719 25.964844 L 268.019531 24.421875 L 267.921875 24.0625 L 268.347656 24.023438 L 258.625 30.046875 L 255.03125 35.835938 L 256.371094 38.714844 L 259.417969 40.613281 L 257.742188 40.078125 L 249.601562 39.242188 L 233.25 61.152344 L 219.421875 87.273438 L 207.890625 106.574219 L 206.488281 109.734375 L 207.800781 118.242188 L 198.167969 121.871094 L 187.027344 127.324219 L 180.960938 127.039062 L 172.464844 121.464844 L 164.550781 113.914062 L 159.179688 106.191406 L 159.417969 103.539062 L 146.648438 95.070312 L 148.648438 94.8125 L 149.304688 94.953125 L 147.886719 95.066406 L 148.898438 94.203125 L 148.484375 91.597656 L 138.980469 82.035156 L 141.882812 81.941406 L 141.464844 82.675781 L 142.394531 83.078125 L 149.492188 86.871094 L 160.65625 93.675781 L 158.375 103.347656 L 162.542969 128.011719 L 174.429688 153.3125 L 180.40625 165.597656 L 196.503906 175.167969 L 219.761719 182.8125 L 224.644531 190.601562 L 231.953125 197.207031 L 230.855469 200.339844 L 229.753906 198.777344 L 237.855469 199.652344 L 238.113281 197.0625 L 241.15625 191.054688 L 239.765625 190.410156 L 243.125 187.261719 L 236.933594 189.484375 L 224.234375 196.722656 L 213.386719 200.851562 L 222.839844 212.582031 L 237.796875 236.585938 L 244.046875 246.773438 L 251.703125 252.691406 L 255.519531 255.925781 L 257.1875 257.1875 L 255.691406 254.039062 L 254.847656 254.835938 L 256.746094 256.160156 L 257.363281 256.019531 L 257.375 256.863281 L 257.488281 255.890625 L 257.054688 256.171875 L 257.996094 257.304688 L 260.878906 258.769531 L 260.839844 259.699219 L 260.996094 260.183594 L 262.195312 261.320312 L 262.070312 261.605469 L 262.101562 261.539062 L 261.894531 261.203125 L 258.402344 261.167969 L 255.539062 263.957031 L 255.238281 264.21875 L 255.175781 264.183594 L 254.074219 264.285156 L 253.300781 264.34375 L 253.230469 264.382812 L 253.660156 262.351562 L 252.835938 248.527344 L 244.351562 243.710938 L 234.566406 241.589844 L 216.785156 230.175781 L 197.933594 219.574219 L 185.605469 212.109375 L 174.027344 203.410156 L 163.375 188 L 161.441406 182.734375 L 162.300781 183.164062 L 164.765625 184.726562 L 166.875 189.101562 L 161.5625 187.554688 L 148.394531 184.128906 L 117.433594 175.144531 L 97.027344 169.027344 L 77.414062 163.707031 L 70.535156 162.871094 L 61.066406 162.414062 L 60.136719 161.507812 L 70.34375 160.820312 L 73.214844 163.535156 L 70.808594 165.769531 L 70.714844 164.84375 L 70.71875 164.085938 L 70.648438 163.777344 L 69.949219 164.902344 L 67.417969 165.15625 L 66.253906 166.527344 L 64.324219 170.785156 L 58.761719 193.628906 L 55.609375 213.863281 L 46.953125 239.386719 L 35.441406 252.113281 L 30.023438 253.71875 L 30.027344 255.03125 L 27.597656 257.917969 L 25.707031 258.371094 L 25.949219 258.9375 L 25.480469 259.035156 L 23.367188 261.382812 L 22.347656 263.902344 L 27.371094 256.296875 L 29.152344 247.855469 L 29.011719 247.019531 L 34.726562 246.511719 L 42.746094 239.679688 L 40.121094 242.214844 L 33.660156 250.707031 L 36.425781 245.175781 L 41.507812 246.871094 L 38.507812 242.851562 L 35.183594 248.636719 L 34.03125 254.214844 L 31.941406 256.914062 L 27.699219 260.148438 L 27.855469 260.671875 L 27.972656 261.148438 L 23.574219 263.304688 L 23.851562 264.035156 L 39.679688 260.539062 L 42.410156 246.304688 L 54.828125 229.503906 L 67.933594 210.71875 L 74.796875 200.289062 L 78.640625 193.203125 L 81.488281 180.199219 L 84.535156 169.839844 L 84.070312 158.695312 L 84.011719 158.636719 L 88.40625 155.582031 L 87.570312 156.242188 L 85.144531 149.265625 L 84.96875 148.640625 L 84.617188 145.585938 L 84.539062 142.34375 L 84.378906 143.523438 L 84.769531 136.632812 L 86.441406 134.933594 L 88.824219 135.847656 L 101.234375 127.125 L 98.621094 129.417969 L 97.550781 130.644531 L 94.738281 139.042969 L 98.585938 141.339844 L 102.605469 142.828125 L 106.046875 144.441406 L 101.117188 140.179688 L 100.875 131.78125 L 97.960938 120.113281 L 94.523438 114.984375 L 90.609375 112.046875 L 93.1875 114.257812 L 91.957031 110.011719 L 87.914062 105.644531 L 91.714844 113.050781 L 93.296875 115.550781 L 92.269531 115.121094 L 92.523438 115.613281 L 98.78125 122.011719 L 94.585938 121.511719 L 94.816406 116.523438 L 93.097656 113.40625 L 90.824219 114.3125 L 91.164062 115.058594 L 89.339844 112.859375 L 88.199219 111.695312 L 89.273438 112.214844 L 93.878906 115.160156 L 98.773438 116.800781 L 100.425781 115.867188 L 104.339844 110.417969 L 122.859375 105.355469 L 139.492188 100.761719 L 161.601562 96.585938 L 179.757812 95.765625 L 196.542969 99.683594 L 214.945312 121.386719 L 221.035156 150.140625 L 222.246094 183.421875 L 226.851562 213.25 L 229.613281 234.625 L 228.648438 234.382812 L 228.601562 238.691406 L 233.0625 245.40625 L 233.988281 246.546875 L 231.753906 238.890625 L 231.316406 235.308594 L 244.371094 248.800781 L 251.164062 254.84375 L 252.933594 255.304688 L 256.425781 255.933594 L 255.273438 251.441406 L 250.898438 249.992188 L 245.40625 249.773438 L 249.695312 243.640625 L 249.519531 245.484375 L 240.660156 252.203125 L 232.605469 225.011719 L 218.589844 201.765625 L 207.597656 186.472656 L 205.117188 181.40625 L 206.113281 174.539062 L 208.734375 161.367188 L 209.292969 153.351562 L 210.257812 158.175781 L 210.425781 158.390625 L 211.988281 158.78125 L 211.902344 157.351562 L 211.253906 158.648438 L 211.644531 163.378906 L 206.371094 169.238281 L 191.480469 166.488281 L 165.023438 165.074219 L 146.652344 165.617188 L 135.578125 168.328125 L 118.640625 173.871094 L 115.417969 175.128906 L 117.03125 174.363281 L 113.074219 173.070312 L 92.898438 171.40625 L 73.863281 169.25 L 72.398438 169.191406 L 70.980469 167.640625 L 75.113281 168.289062 L 73.539062 167.582031 L 74.984375 168.308594 L 75.777344 169.140625 L 76.851562 169.476562 L 76.773438 169.386719 L 77.261719 169.253906 L 78.035156 169.292969 L 78.390625 169.480469 L 78.40625 168.898438 L 80.671875 169.230469 L 81.773438 169.785156 L 91.398438 173.285156 L 94.15625 179.585938 L 94.320312 178.445312 L 88.898438 179.71875 L 84.695312 182.183594 L 77.523438 195.855469 L 72.777344 218.324219 L 69.191406 225.988281 L 60.878906 235.21875 L 47.441406 246.855469 L 42.453125 249.847656 L 45.867188 254.882812 L 47.695312 248.191406 L 53.777344 239.597656 L 57.265625 232.125 L 65.914062 202.804688 L 80.578125 179.992188 L 87.425781 168.648438 L 87.433594 165.503906 L 88.121094 160.484375 L 90.972656 163.195312 L 92.582031 164.160156 L 93.628906 166.796875 L 112.546875 167.042969 L 131.835938 171.207031 L 151.945312 178.121094 L 169.566406 184.816406 L 191.59375 187.1875 L 211.570312 191.808594 L 221.316406 198.855469 L 220.625 199.351562 L 221.113281 199.332031 L 231.699219 212.386719 L 237.039062 221.375 L 239.886719 235.03125 L 241.128906 237.96875 L 239.371094 239.570312 L 239.632812 238.472656 L 246.3125 243 L 255.703125 255.65625 L 256.941406 257.523438 L 257.425781 258.269531 L 251.507812 256.351562 L 247.753906 257.886719 L 246.71875 249.214844 L 237.910156 243.28125 L 204.585938 229 L 171.289062 219.832031 L 148.710938 216.984375 L 138.550781 213.648438 L 138.730469 212.722656 L 130.367188 197.113281 L 124.660156 184.945312 L 118 175.4375 L 111.179688 163.789062 L 111.847656 161.144531 L 113.863281 151.480469 L 119.714844 141.21875 L 129.84375 115.609375 L 140.808594 92.1875 L 147.164062 74.796875 L 154.039062 70.605469 L 152.027344 70.175781 L 147.976562 68.953125 L 144.265625 66.042969 L 134.753906 61.007812 L 117.339844 58.074219 L 99.34375 56.527344 L 85.910156 55.039062 L 85.925781 54.328125 L 86.804688 54.058594 L 87.820312 54.667969 L 86.941406 54.792969 L 89.4375 55.066406 L 93.253906 50.292969 L 90.675781 51.15625 L 84.285156 49.308594 L 56.867188 42.417969 L 45.734375 36.402344 L 37.070312 30.25 L 37.253906 30.023438 L 38.234375 29.5625 L 37.039062 29.308594 L 34.183594 28.121094 L 35.136719 30.957031 L 40.472656 32.804688 L 55.261719 39.03125 L 52.796875 39.03125 L 51.09375 39.089844 L 43.59375 32.121094 L 37.039062 27.285156 L 30.148438 21.375 L 28.949219 21.273438 L 27.101562 19.65625 L 27.585938 19.042969 L 36.476562 25.035156 L 47.957031 30.828125 L 48.90625 32.902344 L 50.195312 34.234375 L 51.234375 37.199219 L 57.101562 52.96875 L 64.851562 78.691406 L 77.71875 102.390625 L 94.832031 131.515625 L 107.535156 154.082031 L 119.597656 171.964844 L 130.777344 181.15625 L 154.820312 192.351562 L 177.636719 197.570312 L 191.890625 195.761719 L 209.15625 188.933594 L 222.1875 184.613281 L 219.136719 186.800781 L 221.25 190.378906 L 231.734375 201.613281 L 236.015625 203.945312 L 245.707031 203.859375 L 246.507812 203.765625 L 246.578125 204.40625 L 247.5 206.90625 L 238.074219 207.929688 L 223.140625 203.753906 L 230.550781 221.570312 L 232.152344 235.605469 L 231.308594 238.949219 L 229.476562 238.007812 L 221.667969 233.304688 L 193.613281 228.769531 L 164.984375 222.5 L 134.976562 221.664062 L 104.285156 215.617188 L 84.113281 210.90625 L 71.550781 206.734375 L 69.085938 207.621094 L 72.25 206.136719 L 73.960938 209.402344 L 76.960938 212.625 L 82.550781 215.121094 L 98.167969 219.164062 L 128.457031 214.742188 L 154.347656 204.769531 L 164.328125 200.851562 L 180.773438 191.28125 L 203.875 177.414062 L 222.125 153.554688 L 224.433594 131.835938 L 227.566406 102.324219 L 231.707031 76.695312 L 230.367188 63.320312 L 236.355469 59.640625 L 244.628906 44.914062 L 253.34375 37.042969 L 258.011719 32.394531 L 260.722656 31.070312 L 258.878906 30.839844 L 258.75 31.996094 L 259.648438 30.964844 L 262.101562 28 L 261.058594 28.667969 L 258.507812 32.429688 L 247.304688 49.042969 L 244.316406 50.453125 L 244.296875 51.359375 L 245.359375 50.660156 L 244.515625 50.1875 L 246.910156 45.832031 L 253.195312 40.050781 L 257.003906 37.203125 L 253.378906 37.316406 L 252.542969 36.980469 L 245.980469 50.398438 L 244.214844 59.523438 L 246.21875 62.65625 L 245.667969 65.09375 L 241.742188 65.996094 L 240.507812 66.375 L 239.960938 66.292969 L 233.542969 64.347656 L 225.4375 81.339844 L 216.121094 97.671875 L 205.449219 114.652344 L 194.6875 128.335938 L 183.066406 141.96875 L 169.738281 155.570312 L 154.890625 170.183594 L 137.332031 180.570312 L 112.441406 192.304688 L 93.566406 201.640625 L 77.132812 208.082031 L 66.761719 212.703125 L 56.21875 221.238281 L 44.054688 239.929688 L 30.898438 255.660156 L 31.105469 256.457031 L 28.382812 258.082031 L 27.890625 257.617188 L 27.390625 258.144531 L 26.261719 258.304688 L 26.429688 259.152344 L 29.0625 258.046875 L 30.691406 254.070312 L 29.285156 250.164062 L 32.421875 245.78125 L 36.4375 243.488281 L 39.933594 242.332031 L 41.71875 239.847656 L 56.820312 226.15625 L 66.734375 219.601562 L 73.472656 209.34375 L 75.113281 201.40625 L 75.769531 195.863281 L 77.121094 191.152344 L 80.152344 179.207031 L 85.882812 168.296875 L 86.257812 169.324219 L 84.925781 171.867188 L 84.125 164.472656 L 84.078125 151.554688 L 84.503906 149.015625 L 88.863281 144.136719 L 95.007812 134.292969 L 96.585938 126.488281 L 100.296875 123.5 L 100.832031 122.722656 L 99.441406 123.015625 L 102.589844 126.996094 L 109.90625 127.9375 L 126.816406 134.800781 L 144.660156 144.515625 L 165.519531 162.554688 L 177.03125 175.699219 L 175.746094 176.5625 L 171.386719 191.820312 L 165.351562 210.300781 L 161.128906 215.515625 L 159.320312 219.652344 L 158.433594 221.484375 L 158.628906 221.644531 L 159.066406 219.941406 L 157.222656 209.632812 L 156.730469 211.230469 L 146.824219 212.355469 L 118 214.585938 L 95.277344 215.167969 L 77.632812 212.480469 L 62.375 208.761719 L 56.140625 204.507812 L 63.996094 207.039062 L 71.378906 192.90625 L 77.082031 176.632812 L 78.871094 173.851562 L 89.007812 166.980469 L 97.269531 158.609375 L 95.183594 162.175781 L 93.96875 162.824219 L 92.429688 165.328125 L 90.519531 154.003906 L 86.808594 126.519531 L 80.238281 102.390625 L 75.789062 89.644531 L 73.078125 79.496094 L 72.082031 78.007812 L 73.433594 77.46875 L 74.105469 77.070312 L 75.558594 75.398438 L 75.472656 75.539062 L 74.558594 60.214844 L 73.175781 58.839844 L 72.40625 58.710938 L 71.6875 59.167969 L 71.703125 57.453125 L 70.523438 57.257812 L 71.691406 57.1875 L 64.847656 53.164062 L 50.808594 41.453125 L 46.21875 36.859375 L 48.410156 38.382812 L 50.9375 39.167969 L 48.972656 38.15625 L 50.316406 35.988281 L 52.421875 38.996094 L 59.75 49.445312 L 53.28125 45.828125 L 50.476562 43.074219 L 42.578125 36.742188 L 43.914062 36.019531 L 44.542969 38.5625 L 46.195312 39.671875 L 46.640625 38.851562 L 45.417969 35.761719 L 37.914062 29.894531 L 33.878906 25.316406 L 33.714844 25.046875 L 34.246094 25.683594 L 34.320312 26.25 L 33.566406 26.304688 L 38.222656 27.679688 L 42.582031 32.507812 L 51.605469 50.867188 L 65.730469 71.445312 L 80.207031 95.054688 L 90.933594 113.917969 L 93.878906 129.191406 L 92.886719 131.828125 L 92.652344 132.523438 L 91.882812 131.457031 L 90.90625 126.140625 L 93.5625 126.898438 L 101.105469 126.535156 L 126.523438 131.078125 L 144.851562 131.953125 L 170.714844 124.3125 L 192.386719 115.078125 L 196.539062 113.34375 L 210.429688 96.878906 L 225.625 76.304688 L 238.203125 59.855469 L 240.375 54.246094 L 240.355469 55.3125 L 241.371094 56.816406 L 241.308594 55.699219 L 239.886719 54.46875 L 241.429688 55.847656 L 245.9375 57.261719 L 244.585938 58.078125 L 243.246094 58.292969 L 237.964844 57.789062 L 229.851562 61.191406 L 228.457031 62.484375 L 228.242188 63.492188 L 229.339844 61.289062 L 229.667969 63.609375 L 230.410156 61.320312 L 229.011719 60.125 L 228.144531 56.554688 L 231.875 55.320312 L 231.277344 56.023438 L 230.699219 46.421875 L 231.273438 56.976562 L 230.574219 72.023438 L 227.734375 75.167969 L 222.519531 94.476562 L 216.761719 122.039062 L 214.488281 149.226562 L 212.488281 175.09375 L 214.832031 207.3125 L 219.519531 223.980469 L 229.515625 238.074219 L 233.128906 242.011719 L 241.589844 246.449219 L 256.179688 258.414062 L 259.109375 260.636719 L 258.460938 261.558594 L 258.984375 261.480469 L 262.792969 264.855469 L 263.308594 265.507812 L 262.175781 267.3125 L 263.203125 265.960938 L 259.613281 264.988281 L 255.285156 262.644531 L 253.066406 257.777344 L 247.613281 257.53125 L 246.726562 255.496094 L 244.828125 242.234375 L 243.480469 230.625 L 235.804688 211.878906 L 224.535156 184.65625 L 221.425781 166.472656 L 220.652344 158.410156 L 221.058594 150.105469 L 224.691406 138.71875 L 223.355469 131.230469 L 228.519531 121.535156 L 227.890625 117.390625 L 228.972656 116.980469 L 230.632812 119.355469 L 230.5625 127.375 L 235 133.328125 L 237.828125 138.011719 L 235.042969 138.671875 L 220.859375 138.113281 L 224.109375 154.5 L 227.722656 181.226562 L 227.964844 205.519531 L 228.347656 229.464844 L 232.417969 236.851562 L 237.25 245.65625 L 240.507812 245.4375 L 239.519531 251.65625 L 234.496094 250.796875 L 230.542969 249.03125 L 227.027344 243.871094 L 224.273438 242.238281 L 221.800781 235.269531 L 187.042969 227.117188 L 144.054688 219.546875 L 118.191406 216.535156 L 102.898438 216.523438 L 98.5 218.660156 L 82.878906 219.484375 L 69.683594 218.976562 L 61.925781 223.496094 L 48.652344 234.574219 L 39.144531 240.945312 L 37.753906 244.71875 L 34.808594 248.109375 L 30.597656 251.519531 L 30.78125 253.011719 L 28.246094 250.851562 L 29.023438 252.152344 L 30.019531 253.449219 L 26.515625 257.503906 L 26.503906 259.648438 L 26.320312 259.90625 L 24.199219 261.710938 L 22.765625 263.632812 L 22.15625 263.960938 L 22.484375 263.351562 L 35.753906 252.824219 L 40.417969 248.828125 L 45.097656 239.410156 L 57.113281 222.535156 L 61.5625 210.242188 L 63.550781 203.347656 L 65.316406 199.628906 L 73.527344 194.625 L 85.804688 183.402344 L 92.835938 174.425781 L 95.621094 168.820312 L 98.328125 167.160156 L 103.714844 153.636719 L 114.832031 138.304688 L 121.621094 127.683594 L 128.496094 113.605469 L 131.582031 106.761719 L 132.496094 102.382812 L 138.191406 82.570312 L 142.449219 71.65625 L 142.742188 73.1875 L 141.324219 75.445312 L 142.3125 75.398438 L 141.335938 76.816406 L 139.875 77.304688 L 141.171875 76.835938 L 141.59375 76.675781 L 141.496094 75.988281 L 141.210938 74.054688 L 138.679688 78.957031 L 138.769531 87.992188 L 136.699219 88.128906 L 136.691406 83.976562 L 134.425781 82.257812 L 123.289062 78.238281 L 114.074219 75.96875 L 102.074219 75.710938 L 77.339844 76.308594 L 60.960938 73.371094 L 54.804688 72.800781 L 55.109375 73.3125 L 57.210938 71.972656 L 54.960938 71.789062 L 51.742188 71.949219 L 67 69.851562 L 74.679688 66.597656 L 72.074219 65.710938 L 67.855469 63.625 L 53.78125 55.527344 L 46.152344 47.316406 L 45.75 46.214844 L 40.449219 35.714844 L 34.84375 31.339844 L 33.183594 30.425781 L 33.875 31.472656 L 32.949219 30.28125 L 31.378906 31.925781 L 33.789062 35.289062 L 35.515625 34.417969 L 36.785156 36.535156 L 39.554688 37.761719 L 43.410156 37.828125 L 47.824219 39.488281 L 48.230469 40.402344 L 50.136719 43.453125 L 51.785156 50.328125 L 58.792969 57.472656 L 61.21875 60.957031 L 59.949219 60.195312 L 60.160156 61 L 59.679688 60.40625 L 60.472656 61.054688 L 71.394531 66.933594 L 81.75 71.84375 L 89.546875 70.550781 L 102.316406 68.851562 L 103.929688 70.535156 L 104.691406 69.398438 L 108.601562 77.28125 L 123.453125 90.863281 L 130.625 94.996094 L 137.292969 93.796875 L 139.664062 94.648438 L 138.140625 99.917969 L 140.96875 108.136719 L 147.9375 138.101562 L 152.726562 169.433594 L 155.175781 187.804688 L 154.386719 198.304688 L 151.199219 199.945312 L 135.273438 210.71875 L 117.460938 214.089844 L 92.097656 220.039062 L 91.140625 220.292969 L 86.714844 217.292969 L 76.605469 205.578125 L 70.109375 197.492188 L 71.039062 199.339844 L 68.449219 198.621094 L 71.332031 198.265625 L 72.023438 185.152344 L 79.761719 168.308594 L 89.484375 139.640625 L 92.359375 121.070312 L 94.300781 114.101562 L 92.964844 112.050781 L 92.761719 114.546875 L 93.191406 117.726562 L 93.371094 119.6875 L 92.957031 120.703125 L 92.808594 120.402344 L 92.820312 120.421875 L 92.800781 120.1875 L 92.710938 120.164062 L 92.652344 119.851562 L 90.199219 117.515625 L 92.0625 114.003906 L 92.605469 116.1875 L 93.097656 118.03125 L 91.652344 120.015625 L 90.558594 120.382812 L 90.890625 116.65625 L 86.707031 103.460938 L 84.128906 102.226562 L 81.085938 99.738281 L 77.875 98.042969 L 78.453125 97.335938 L 81.1875 98.164062 L 83.757812 98.460938 L 81.550781 87.46875 L 80.90625 70.953125 L 82.769531 62.976562 L 79.03125 62.382812 L 74.878906 53.925781 L 69.164062 53.484375 L 65.148438 51.492188 L 56.691406 48.140625 L 49.972656 45.277344 L 52.714844 44.660156 L 53.597656 44.234375 L 49.933594 41.089844 L 42.738281 37.859375 L 35.234375 28.558594 L 33.625 26.976562 L 30.746094 24.140625 L 31.035156 24.167969 L 29.847656 23.078125 L 30.078125 23.058594 L 29.746094 22.855469 L 30 22.839844 L 29.667969 22.824219 L 29.707031 22.863281 L 29.734375 23.007812 L 28.449219 21.480469 L 27.023438 20.335938 L 32.128906 25.148438 L 31.105469 24.28125 L 27.507812 20.699219 L 28.273438 20.609375 L 40.9375 34.027344 L 46.269531 40.058594 L 59.210938 46.304688 L 88.023438 58.40625 L 115.289062 74.0625 L 125.054688 79.5 L 128.433594 78.554688 L 126.304688 77.5625 L 124.449219 77.964844 L 122.949219 80.167969 L 128.125 84.164062 L 143.332031 97.164062 L 149.832031 106.070312 L 151.382812 104.417969 L 150.679688 105.632812 L 147.886719 102.96875 L 145.71875 103.789062 L 145.929688 111.855469 L 146.921875 128.878906 L 144.53125 135.246094 L 144.019531 129.367188 L 143.625 128.210938 L 143.53125 128.34375 L 143.703125 128.789062 L 143.230469 128.03125 L 143.667969 131.261719 L 138.230469 147.957031 L 130.128906 168.765625 L 122.734375 179.289062 L 114.855469 186.601562 L 94.175781 205.773438 L 75.726562 226.222656 L 71.574219 230.585938 L 75.054688 226.601562 L 72.933594 218.03125 L 75.542969 209.867188 L 84.328125 180.246094 L 93.40625 156.6875 L 96.15625 141.089844 L 97.007812 129.148438 L 99.429688 119.46875 L 102.371094 105.503906 L 100.164062 104.507812 L 99.574219 103.898438 L 99.070312 105.355469 L 99.710938 105.097656 L 101.019531 106.710938 L 100.769531 103.59375 L 100.015625 105.070312 L 100.578125 105.460938 L 100.222656 104.375 L 100.265625 106.457031 L 100.558594 103.738281 L 100.261719 105.441406 L 100.40625 103.390625 L 101.414062 105.183594 L 101.511719 109.183594 L 122.28125 112.085938 L 145.5625 114.910156 L 164.300781 122.042969 L 179.789062 127.859375 L 181.871094 130.390625 L 177.394531 128.136719 L 186.929688 131.761719 L 205.449219 140.636719 L 216.128906 156.207031 L 219.769531 190.351562 L 220.707031 211.164062 L 225.933594 224.480469 L 223.597656 220.898438 L 221.03125 226.785156 L 220.667969 227.949219 L 223.8125 227.40625 L 233.691406 236.1875 L 242.015625 247.003906 L 247.214844 248.8125 L 248.570312 250.644531 L 253.167969 256.167969 L 254.726562 258.863281 L 257.304688 261.957031 L 258.15625 262.300781 L 257.445312 261.585938 L 257.238281 261.5 L 259.265625 263.304688 L 262.660156 265.382812 L 259.167969 264.820312 L 255.964844 264.769531 L 255.253906 263.988281 L 255.644531 262.273438 L 260.632812 257.3125 L 255.867188 258.523438 L 250.734375 256.511719 L 249.378906 244.351562 L 237.4375 225.050781 L 233.011719 218.644531 L 221.65625 216.097656 L 196.417969 208.792969 L 168.335938 205.601562 L 133.828125 204.730469 L 103.167969 208.003906 L 86.226562 211.125 L 70.238281 215.753906 L 54.652344 221.460938 L 51 226.429688 L 46.671875 225.703125 L 42.757812 228.5 L 40.921875 227.585938 L 42.082031 229.558594 L 50.632812 227.53125 L 41.0625 242.984375 L 28.9375 258.222656 L 27.332031 259.898438 L 24.417969 262.527344 L 22.988281 263.269531 L 29.054688 258.914062 L 25.527344 253.945312 L 24.988281 253.652344 L 25.382812 252.191406 L 32.226562 252.566406 L 43.878906 254.261719 L 55.558594 223.28125 L 68.527344 195.597656 L 77.199219 183.558594 L 78.375 182.363281 L 83.289062 176.808594 L 88.628906 168.585938 L 88.175781 159.796875 L 87.957031 156.242188 L 88.941406 160.710938 L 95.207031 159.757812 L 99.585938 156.789062 L 111.710938 154.242188 L 125.507812 151.742188 L 145.109375 140.882812 L 160.894531 134.703125 L 165.308594 134.296875 L 176.738281 130.027344 L 192.171875 121.527344 L 216.210938 109.914062 L 224.121094 106.804688 L 218.539062 109.019531 L 222.019531 100.410156 L 222.488281 91.023438 L 225.660156 77.039062 L 228.789062 61.085938 L 233.90625 54.269531 L 233.769531 56.683594 L 239.214844 51.429688 L 252.679688 38.328125 L 253.214844 36.828125 L 252.601562 38.765625 L 250.023438 41.316406 L 247.078125 40.746094 L 244.167969 44.21875 L 227.070312 52.726562 L 200.765625 64.332031 L 167.871094 77.414062 L 144.363281 83.875 L 122.195312 84.375 L 108.734375 86.644531 L 88.109375 91.953125 L 72.742188 97.535156 L 71 97.949219 L 69.640625 99.714844 L 69.554688 99.347656 L 69.808594 99.378906 L 71.390625 98.050781 L 70.65625 96.101562 L 70.613281 95.867188 L 64.761719 98.007812 L 59.769531 94.429688 L 56.015625 97.050781 L 56.476562 96.792969 L 55.664062 98.367188 L 62.539062 97.128906 L 74.519531 101.800781 L 73.113281 128.46875 L 77.898438 163.539062 L 81.8125 189.5 L 85.300781 204.472656 L 82.59375 209.230469 L 80.96875 221.40625 L 75.445312 227.574219 L 62.890625 237.542969 L 51.894531 242.496094 L 48.527344 245.40625 L 43.503906 246.976562 L 38.652344 249.722656 L 37.140625 250.929688 L 41.242188 249.65625 L 44.75 254.570312 L 35.359375 252.117188 L 31.648438 254.109375 L 31.46875 255.410156 L 32.265625 254.96875 L 33.074219 254.476562 L 30.214844 256.828125 L 28.5 260.195312 L 27.738281 260.308594 L 27.738281 260.8125 L 33.992188 261.785156 L 38.3125 257.34375 L 37.898438 253.410156 L 38.410156 244.617188 L 50.3125 234.609375 L 63.558594 221.730469 L 66.148438 211.945312 L 71.539062 204.292969 L 71.949219 200.257812 L 71.398438 200.304688 L 70.628906 196.8125 L 70.140625 190.15625 L 74.859375 181.628906 L 83.121094 177.210938 L 85.074219 175.304688 L 87.511719 172.496094 L 104.757812 163.757812 L 119.375 155.140625 L 122.878906 153.15625 L 127.707031 150.574219 L 128.808594 149.933594 L 128.535156 150.320312 L 127.433594 150.851562 L 126.328125 150.4375 L 125.5625 150.015625 L 126.207031 149.835938 L 126.023438 150.398438 L 125.917969 150.425781 L 126.121094 150.265625 L 127.019531 150.398438 L 131.378906 150.769531 L 152.15625 159.285156 L 170.523438 163.007812 L 174.425781 163.941406 L 181.753906 162.96875 L 201.78125 165.101562 L 214.636719 168.644531 L 214.820312 169.613281 L 214.597656 169.890625 L 209.917969 169.394531 L 214.902344 172.113281 L 222.789062 178.890625 L 229.117188 193.460938 L 236.035156 212.1875 L 241.96875 231.480469 L 251.230469 246.261719 L 252.425781 250.972656 L 254.289062 251.828125 L 251.867188 248.359375 L 250.265625 247.042969 L 243.457031 244.828125 L 227.621094 240.722656 L 210.25 231.539062 L 194.613281 224.894531 L 166.558594 209.246094 L 165.265625 208.484375 L 165.914062 208.496094 L 166.585938 208.273438 L 167.84375 210.121094 L 151.855469 195.386719 L 133.53125 181.367188 L 121.347656 168.308594 L 116.230469 157.539062 L 111.222656 144.121094 L 105.949219 122.882812 L 103.355469 100.207031 L 99.855469 78.023438 L 95.816406 60.8125 L 93.621094 63.285156 L 93.734375 65.265625 L 93.941406 65.402344 L 94.597656 67.0625 L 95.847656 71.726562 L 83.980469 64.066406 L 61.710938 52.148438 L 54.636719 47.628906 L 60.730469 49.382812 L 58.566406 48.160156 L 44.046875 36.992188 L 36.972656 30.917969 L 39.046875 30.734375 L 38.894531 29.679688 L 33.890625 22.679688 L 31.867188 23.503906 L 31.878906 24.710938 L 30.808594 24.425781 L 30.925781 24.367188 L 32.136719 26.179688 L 38.820312 32.292969 L 39.792969 33.222656 L 39.023438 36.78125 L 50.773438 42.160156 L 71.945312 53.554688 L 94.90625 68.878906 L 115.164062 84.527344 L 122.128906 92.707031 L 121.632812 97.132812 L 119.238281 91.324219 L 123.945312 88.707031 L 155.148438 94.878906 L 181.089844 95.894531 L 207.460938 96.695312 L 223.59375 94.984375 L 229.53125 94.972656 L 237.410156 94.800781 L 241.023438 94.3125 L 241.363281 94.285156 L 228.066406 95.914062 L 233.785156 84.964844 L 240.777344 60.886719 L 250.726562 42.519531 L 252.933594 36.28125 L 255.292969 33.441406 L 252.664062 34.949219 L 249.4375 38.25 L 238.910156 55.886719 L 235.90625 63.796875 L 229.320312 66.035156 L 215.242188 91.203125 L 204.105469 121.773438 L 200.371094 124.039062 L 199.273438 118.144531 L 180.628906 136.957031 L 165.582031 146.15625 L 144.355469 164.757812 L 150.324219 161.605469 L 143.015625 161.042969 L 135.273438 158.464844 L 118.785156 156.835938 L 99.703125 153.183594 L 77.808594 152.972656 L 76.226562 155.964844 L 69.65625 165.84375 L 63.285156 191.171875 L 59.59375 219.734375 L 55.160156 234.519531 L 42.855469 245.25 L 33.800781 251.25 L 31.320312 253.851562 L 32.449219 251.46875 L 32.097656 251.234375 L 30.613281 256.867188 L 29.246094 258.199219 L 31.425781 262.445312 L 30.597656 254.921875 L 30.003906 241.871094 L 30.453125 242.519531 L 35.546875 241.742188 L 40.429688 236.972656 L 39.386719 238.605469 L 45.375 237.355469 L 60.273438 236.433594 L 93.089844 228.378906 L 125.507812 221.046875 L 140.722656 221.5 L 152.1875 219.796875 L 152.0625 220.417969 L 152.480469 220.117188 L 156.976562 214.082031 L 151.035156 219.714844 L 155.054688 207.128906 L 163.007812 179.546875 L 171.523438 157.800781 L 179.894531 141.800781 L 184.941406 128.839844 L 195.929688 128.640625 L 210.691406 131.699219 L 220.445312 134.980469 L 226.824219 137.613281 L 233.753906 141.792969 L 234.824219 143.515625 L 228.144531 143.570312 L 221.0625 158.925781 L 223.476562 196.050781 L 224.3125 220.3125 L 229.605469 237.28125 L 236.023438 240.675781 L 247.996094 252.050781 L 257.921875 260.425781 L 259.609375 260.464844 L 262.136719 264.527344 L 260.78125 262.460938 L 256.367188 264.644531 L 253.871094 264.203125 L 252.082031 263.648438 L 252.585938 251.234375 L 233.992188 241.355469 L 198.675781 227.816406 L 164.027344 218.203125 L 144.109375 214.054688 L 115.992188 206.847656 L 99.816406 199.386719 L 94.671875 193.988281 L 101.726562 196.957031 L 97.066406 199.859375 L 73.765625 207.429688 L 61.410156 209.320312 L 61.757812 208.195312 L 67.296875 208.3125 L 79.929688 217.660156 L 88.71875 228.621094 L 91.570312 232.925781 L 89.851562 237.128906 L 87.972656 233.917969 L 90.4375 221.355469 L 126.851562 213.269531 L 155.449219 203.988281 L 169.238281 197.992188 L 162.871094 201.121094 L 163.808594 192.675781 L 169.066406 179.304688 L 167.960938 184.242188 L 167.988281 186.117188 L 166.652344 184.992188 L 165.113281 184.796875 L 151.5625 166.734375 L 148.257812 164.84375 L 148.960938 165.429688 L 149.492188 165.695312 L 149.132812 164.566406 L 148.867188 163.226562 L 148.953125 163.242188 L 148.914062 163.230469 L 152.851562 141.035156 L 151.265625 132.601562 L 150.855469 121.652344 L 153.496094 113.726562 L 153.179688 115.441406 L 152.808594 114.796875 L 153.328125 103.503906 L 154.992188 85.4375 L 156.148438 71.230469 L 158.4375 71.171875 L 157.855469 71.308594 L 157.328125 71.605469 L 157.007812 72.902344 L 157.707031 75.53125 L 155.839844 76.058594 L 157.128906 76.835938 L 156.691406 76.996094 L 156.464844 77.378906 L 157.238281 73.3125 L 155.089844 70.410156 L 150.125 66.140625 L 142.207031 65.855469 L 120.519531 62.71875 L 92.828125 58.5 L 72.785156 48.015625 L 54.257812 40.507812 L 43.015625 34.546875 L 41.6875 31.074219 L 39.003906 29.210938 L 39.492188 29.210938 L 36.796875 28.535156 L 33.074219 27.914062 L 32.160156 27.011719 L 30.492188 25.328125 L 32.421875 25.371094 L 41.894531 31.6875 L 50.769531 38.167969 L 52.605469 36.660156 L 53.125 34.578125 L 56.261719 44.214844 L 68.160156 51.875 L 99.859375 64.644531 L 124.957031 75.621094 L 148.738281 82.5 L 151.167969 82.722656 L 145.753906 81.070312 L 170.230469 81.15625 L 195.9375 79.269531 L 218.914062 72.945312 L 230.261719 70.648438 L 231.46875 71.308594 L 231.46875 70.480469 L 244.28125 54.800781 L 247.496094 45.871094 L 249.179688 42.175781 L 251.335938 37.597656 L 253.285156 36.496094 L 253.40625 37.886719 L 253.1875 37.164062 L 245.738281 49.433594 L 239.175781 61.953125 L 240.234375 63.914062 L 242.15625 61.191406 L 247.601562 47.710938 L 253.554688 40.769531 L 258.777344 33.574219 L 260.066406 33.949219 L 262.980469 29.878906 L 264.691406 28.875 L 264.339844 28.191406 L 264.324219 28.484375 L 268.660156 24.820312 L 269.042969 23.988281 L 270.050781 23.617188 L 262.941406 26.921875 L 255.945312 32.652344 L 257.054688 36.207031 L 250.222656 37.90625 L 236.265625 63.511719 L 217.984375 98.523438 L 200.101562 130.519531 L 194.339844 137.515625 L 197.066406 132.925781 L 199.394531 140.003906 L 207.683594 169.6875 L 221.78125 198.433594 L 231.21875 222.425781 L 239.375 240.265625 L 248.582031 246.265625 L 258.039062 257.886719 L 260.695312 258.714844 L 261.085938 261.804688 L 263.226562 265.113281 L 261.921875 262.175781 L 258.359375 261.859375 L 257.683594 264.910156 L 255.859375 254.289062 L 244.921875 248.589844 L 205.9375 230.769531 L 192.152344 225.308594 L 173.863281 213.597656 L 160.835938 210.851562 L 133.671875 207.203125 L 109.96875 207.757812 L 97.722656 208.027344 L 92.117188 208.03125 L 85.382812 216.242188 L 72.242188 230.996094 L 50.800781 244.777344 L 36.261719 251.679688 L 32.695312 254.671875 L 29.4375 257.621094 L 28.125 259.722656 L 25.964844 261.25 L 25.070312 261.058594 L 24.414062 260.96875 L 24.265625 260.835938 L 22.699219 259.453125 L 29.71875 258.183594 L 35.382812 249.996094 L 33.304688 249.808594 L 29.773438 245.089844 L 42.285156 244.863281 L 47.800781 239.867188 L 55.59375 220.398438 L 79.207031 192.722656 L 97.347656 172.980469 L 106.707031 163.835938 L 110.421875 155.976562 L 114.070312 144.957031 L 116.035156 145.347656 L 121.511719 139.722656 L 137.414062 125.332031 L 141.578125 125.035156 L 150.878906 120.402344 L 155.015625 120.773438 L 166.320312 114.738281 L 170.109375 113.679688 L 168.296875 113.113281 L 168.613281 112.671875 L 167.828125 112.9375 L 169.886719 114.140625 L 170.328125 113.871094 L 170.226562 114.007812 L 169.234375 114.5 L 169.671875 112.964844 L 167.554688 114.730469 L 162.210938 126.429688 L 157.304688 128.582031 L 157.699219 127.34375 L 157.378906 129.476562 L 161.300781 126.4375 L 164.964844 112.199219 L 162.261719 105.058594 L 161.367188 77.566406 L 161.40625 65.839844 L 162.082031 59.601562 L 163.492188 60.972656 L 164.613281 57.414062 L 166.90625 53.800781 L 166.839844 55.328125 L 166.136719 68.222656 L 160.800781 79.238281 L 140.378906 68.078125 L 120.050781 67.058594 L 97.605469 64.71875 L 77.820312 59.40625 L 70.730469 54.472656 L 60.21875 47.765625 L 48.148438 40.550781 L 46.386719 41.546875 L 41.171875 40.195312 L 44.515625 41.289062 L 45.042969 44.371094 L 44.675781 43.890625 L 45.453125 43.070312 L 42.132812 40.648438 L 37.429688 37.113281 L 37.507812 37.222656 L 40.019531 37.851562 L 54.125 46.410156 L 54.53125 45.757812 L 55.644531 47.296875 L 54.980469 45.496094 L 47.132812 42.0625 L 38.761719 39.363281 L 37.230469 41.589844 L 38.03125 41.679688 L 55.15625 44.386719 L 61.808594 51.324219 L 74.183594 55.871094 L 87.457031 61.09375 L 110.3125 61.574219 L 122.078125 64.480469 L 131.375 67.21875 L 151.042969 74.078125 L 165.722656 84.464844 L 181.222656 104.796875 L 198.414062 132.394531 L 215.722656 155.328125 L 226.523438 169.140625 L 234.136719 171.257812 L 236.136719 171.757812 L 236.152344 170.269531 L 237.710938 164.828125 L 236.980469 159.035156 L 235.609375 156.664062 L 238.09375 153.253906 L 235.765625 153.871094 L 228.421875 161.128906 L 226.1875 151.773438 L 224.902344 122.6875 L 217.503906 98.292969 L 208.5 74.710938 L 206.035156 63.410156 L 205.902344 57.738281 L 204.847656 52.570312 L 207.875 66.914062 L 209.3125 66.585938 L 230.15625 53.222656 L 248.921875 41.234375 L 249.773438 38.554688 L 253.09375 40.664062 L 256.839844 39.585938 L 260.832031 36.171875 L 260.007812 34.617188 L 258.832031 31.652344 L 261.046875 28.292969 L 262.71875 24.910156 L 265.539062 21.628906 L 266.671875 22.628906 L 267.21875 24.808594 L 268.117188 24.070312 L 268.464844 24.195312 L 266.058594 23.691406 L 259.355469 26.246094 L 254.066406 31.933594 L 243.667969 54.949219 L 223.550781 90.4375 L 209.628906 125.191406 L 199.316406 144.652344 L 185.058594 161.71875 L 166.820312 167.941406 L 167.589844 168.207031 L 147.417969 183.460938 L 118.816406 199.917969 L 93.988281 215.671875 L 76.722656 227.242188 L 70.589844 230.378906 L 68.089844 232.992188 L 72.496094 225.628906 L 64.582031 221.855469 L 64.242188 214.484375 L 62.011719 194.695312 L 71.335938 163.996094 L 75.144531 132.949219 L 78.910156 114.769531 L 83.09375 101.207031 L 89.429688 87.523438 L 89.722656 87.308594 L 90.460938 86.894531 L 98.132812 79.792969 L 107.523438 67.835938 L 113.398438 65.007812 L 116.691406 62.773438 L 116.417969 64.597656 L 115.859375 64.167969 L 116.257812 62.789062 L 115.875 63.429688 L 115.566406 65.246094 L 115.695312 67.105469 L 115.71875 68.09375 L 114.503906 71.191406 L 115.957031 77.089844 L 132.0625 80.980469 L 141.8125 83.703125 L 168.890625 90.15625 L 190.40625 96.234375 L 212.890625 110.179688 L 225.367188 122.367188 L 230.796875 124.226562 L 236.089844 120.488281 L 237.957031 116.222656 L 234.058594 115.097656 L 226.941406 119.160156 L 224.566406 108.835938 L 231.097656 81.292969 L 236.714844 60.15625 L 242.007812 48.195312 L 254.367188 35.132812 L 254.699219 34.625 L 257.980469 33.269531 L 264.675781 27.714844 L 263.957031 27.851562 L 265.507812 26.003906 L 268.175781 24.148438 L 259.433594 30.496094 L 258.246094 35.953125 L 261.15625 33 L 265.625 27.074219 L 266.699219 21.789062 L 266.730469 21.6875 L 265.824219 22.113281 L 266.511719 23.195312 L 265.453125 25.007812 L 260.949219 27.34375 L 254.0625 38.90625 L 234.765625 60.425781 L 208.476562 94.953125 L 189.175781 120.894531 L 178.742188 132.046875 L 170.542969 139.359375 L 165.957031 140.054688 L 166.183594 139.71875 L 164.261719 138.910156 L 161.515625 137.46875 L 161.085938 137.273438 L 159.777344 137.085938 L 150.535156 133.042969 L 129.421875 121.464844 L 116.640625 110 L 114.628906 102.488281 L 110.351562 95.34375 L 108.386719 93.855469 L 108.636719 95.128906 L 110.847656 95.230469 L 108.367188 90.574219 L 95.71875 72.53125 L 84.460938 59.035156 L 74.378906 52.046875 L 58.378906 45.851562 L 50.179688 41.167969 L 38.085938 31.851562 L 36.390625 30.070312 L 39.539062 31.871094 L 37.277344 29.515625 L 29.855469 25.894531 L 27.160156 21.304688 L 28.113281 20.542969 L 27.625 20.464844 L 26.785156 19.542969 L 26.882812 19.332031 L 26.746094 18.757812 L 26.632812 18.714844 L 26.574219 18.992188 L 29.617188 22.742188 L 30.9375 32.691406 L 37.664062 33.34375 L 43.59375 38.238281 L 54.941406 51.558594 L 71.136719 62.214844 L 77.933594 72.117188 L 75.265625 75.625 L 82.160156 111.417969 L 88.820312 134.617188 L 89.527344 150.621094 L 85.140625 166.964844 L 72.570312 191.894531 L 65.246094 208.074219 L 52.390625 228.902344 L 44.890625 239.425781 L 33.789062 251.585938 L 35.691406 252.679688 L 33.46875 250.738281 L 28.542969 257.535156 L 26.570312 259.511719 L 23.089844 263.636719 L 29.457031 258.210938 L 30.785156 255.910156 L 29.96875 251.554688 L 27.5 251.058594 L 27.179688 253.308594 L 36.390625 250.257812 L 45.578125 251.9375 L 46.488281 234.078125 L 62.316406 200.648438 L 76.734375 171.671875 L 84.933594 160.820312 L 92.601562 158.84375 L 105.199219 153.289062 L 107.191406 152.847656 L 104.398438 154.859375 L 110.222656 156.742188 L 110.117188 156.460938 L 125.464844 155.507812 L 123.144531 157.199219 L 118.582031 158 L 121.433594 156.082031 L 120.484375 155.734375 L 116.765625 157.125 L 116.628906 158.253906 L 116.601562 157.550781 L 116.628906 157.390625 L 116.226562 158.230469 L 116.046875 158.578125 L 119.539062 159.621094 L 134.695312 165.273438 L 152.902344 178.023438 L 173.890625 193.660156 L 196.96875 211.890625 L 217.085938 226.800781 L 227.691406 234.382812 L 236.84375 239.773438 L 245.253906 248.292969 L 254.339844 255.292969 L 256.28125 257.777344 L 257.304688 258.582031 L 257.695312 259.605469 L 257.695312 259.925781 L 257.625 260.242188 L 258.046875 259.859375 L 257.777344 260.179688 L 257.589844 260.070312 L 257.910156 260.089844 L 256.828125 258.914062 L 256.3125 259.074219 L 255.589844 258.734375 L 253.519531 258.5 L 248.753906 258.304688 L 246.003906 251.945312 "/>
<g clip-path="url(#clip-0)">
<path fill="none" stroke-width="1.066978" stroke-linecap="butt" stroke-linejoin="round" stroke="rgb(0%, 71.764706%, 100%)" stroke-opacity="1" stroke-dasharray="4.267913 4.267913" stroke-miterlimit="10" d="M 8.21875 142.878906 L 282.519531 142.878906 "/>
</g>
<g clip-path="url(#clip-1)">
<path fill="none" stroke-width="1.066978" stroke-linecap="butt" stroke-linejoin="round" stroke="rgb(0%, 71.764706%, 100%)" stroke-opacity="1" stroke-dasharray="4.267913 4.267913" stroke-miterlimit="10" d="M 148.28125 279.78125 L 148.28125 5.480469 "/>
</g>
</svg>
