<?xml version="1.0" encoding="UTF-8"?>
<svg xmlns="http://www.w3.org/2000/svg" xmlns:xlink="http://www.w3.org/1999/xlink" width="288" height="288" viewBox="0 0 288 288">
<defs>
<clipPath id="clip-0">
<path clip-rule="nonzero" d="M 8.21875 149 L 282.519531 149 L 282.519531 151 L 8.21875 151 Z M 8.21875 149 "/>
</clipPath>
<clipPath id="clip-1">
<path clip-rule="nonzero" d="M 149 5.480469 L 152 5.480469 L 152 279.78125 L 149 279.78125 Z M 149 5.480469 "/>
</clipPath>
</defs>
<rect x="-28.8" y="-28.8" width="345.6" height="345.6" fill="rgb(100%, 100%, 100%)" fill-opacity="1"/>
<rect x="-28.8" y="-28.8" width="345.6" height="345.6" fill="rgb(100%, 100%, 100%)" fill-opacity="1"/>
<path fill="none" stroke-width="1.066978" stroke-linecap="round" stroke-linejoin="round" stroke="rgb(100%, 100%, 100%)" stroke-opacity="1" stroke-miterlimit="10" d="M 0 288 L 288 288 L 288 0 L 0 0 Z M 0 288 "/>
<path fill="none" stroke-width="1.066978" stroke-linecap="butt" stroke-linejoin="round" stroke="rgb(41.176471%, 41.176471%, 41.176471%)" stroke-opacity="1" stroke-miterlimit="10" d="M 236.46875 80.859375 L 241.902344 58.296875 L 242.292969 58.972656 L 241.230469 51.515625 L 249.414062 35.886719 L 256 31.859375 L 258.878906 29.679688 L 261.234375 28.339844 L 259.902344 29.21875 L 254.054688 30.558594 L 253.878906 31.632812 L 252.445312 30.390625 L 251.417969 30.253906 L 248.621094 36.226562 L 245.980469 46.882812 L 243.101562 65.6875 L 245.378906 68.4375 L 246.171875 67.8125 L 250.769531 62.890625 L 250.082031 58.335938 L 256.316406 51.773438 L 259.296875 47.152344 L 258.46875 44.820312 L 262.851562 40.417969 L 264.050781 39.429688 L 262.390625 38.824219 L 258.523438 41.683594 L 259.777344 40.238281 L 263.585938 38.804688 L 265.230469 35.832031 L 266.59375 34.304688 L 264.960938 33.230469 L 260.324219 34.640625 L 247.5 37.734375 L 245.1875 38.097656 L 250.195312 38.210938 L 246.398438 43.859375 L 235.609375 56.644531 L 226.679688 73.078125 L 218.621094 108.847656 L 215.363281 146.246094 L 218.019531 165.972656 L 226.105469 177.851562 L 234.523438 201.328125 L 247.582031 231.503906 L 257.433594 247.992188 L 262.210938 252.933594 L 261.6875 244.746094 L 260.960938 241.933594 L 253.726562 245.628906 L 250.980469 242.988281 L 249.09375 239.648438 L 238.425781 235.777344 L 216.632812 231.023438 L 206.019531 226.273438 L 209.976562 224.398438 L 210.496094 224.519531 L 212.566406 226.425781 L 220.09375 232.867188 L 230.648438 235.585938 L 238.570312 237.59375 L 242.90625 239.574219 L 248.671875 246.425781 L 256.96875 253.21875 L 250.507812 254.574219 L 248.542969 251.011719 L 253.023438 246.597656 L 259.089844 245.53125 L 264.449219 242.355469 L 258.660156 244.058594 L 248.261719 244.679688 L 245.214844 244.320312 L 244.742188 244.746094 L 247.253906 247.761719 L 255.917969 258.5625 L 258.132812 254.753906 L 258.195312 256.050781 L 262.316406 257.433594 L 264.492188 257.867188 L 264.386719 258.230469 L 264.28125 258.417969 L 264.222656 258.234375 L 265.855469 258.003906 L 267.957031 261.5625 L 267.144531 261.496094 L 264.414062 260.632812 L 260.335938 262.285156 L 260.941406 262.117188 L 260.949219 262.765625 L 261.21875 262.332031 L 262.894531 262.195312 L 256.703125 259.871094 L 252.800781 255.054688 L 252.546875 254.898438 L 251.492188 244.992188 L 246.34375 231.960938 L 233.046875 204.605469 L 224.078125 177.855469 L 218.316406 159.839844 L 212.632812 119.363281 L 214.351562 83.820312 L 214.351562 61.261719 L 216.964844 65.132812 L 221.5625 62.519531 L 215.277344 65.027344 L 213.839844 77.941406 L 221.046875 80.535156 L 226.679688 93.480469 L 226.601562 125.382812 L 228.375 131.03125 L 226.632812 128.417969 L 227.015625 126.148438 L 227.054688 128.804688 L 227.570312 141.320312 L 230.675781 167.261719 L 232.03125 174.785156 L 232.070312 174.148438 L 232.011719 174.152344 L 231.566406 187.289062 L 233.875 194.441406 L 232.257812 193.546875 L 233.039062 193.480469 L 232.851562 193.355469 L 232.976562 193.59375 L 232.671875 193.375 L 231.929688 193.046875 L 232.257812 191.089844 L 232.46875 190.679688 L 240.066406 188.867188 L 246.316406 186.070312 L 245.535156 183.695312 L 236.949219 182.429688 L 235.132812 183.214844 L 216.96875 182.855469 L 213.824219 198.5 L 215.992188 222.453125 L 226.207031 231.71875 L 245.613281 243.675781 L 251.890625 252.605469 L 242.214844 251.394531 L 244.644531 245.425781 L 241.996094 249.675781 L 243.582031 249.890625 L 245.175781 251.171875 L 243.398438 252.113281 L 240.84375 251.285156 L 240.933594 248.414062 L 243.972656 242.523438 L 245.480469 239.367188 L 245.320312 238.339844 L 237.757812 224.875 L 225.28125 204.734375 L 206.894531 172.945312 L 184.996094 145.714844 L 156.582031 133.636719 L 143.054688 131.675781 L 118.425781 120.328125 L 100.96875 105.464844 L 76.441406 82.320312 L 54.148438 62.9375 L 54.089844 61.898438 L 50.394531 58.402344 L 50.527344 56.980469 L 51.210938 56.746094 L 51.480469 53.996094 L 56.308594 59.351562 L 49.351562 49.867188 L 43.019531 40.335938 L 46.46875 47.4375 L 45.792969 45.796875 L 46.007812 47.496094 L 45.949219 47.640625 L 45.835938 47.46875 L 46.046875 47.796875 L 46.070312 48.503906 L 46.59375 48.949219 L 46.105469 49.390625 L 46.414062 49.292969 L 46.464844 49.183594 L 45.914062 49.226562 L 46.246094 48.980469 L 46.1875 49.285156 L 45.945312 48.953125 L 46.527344 48.957031 L 45.859375 48.957031 L 47.171875 48.601562 L 46.472656 48.542969 L 47.851562 48.410156 L 46.417969 48.585938 L 46.007812 48.90625 L 46.441406 48.675781 L 45.949219 49.085938 L 46.351562 48.222656 L 45.796875 48.195312 L 46.390625 47.316406 L 46.089844 48.125 L 46.179688 45.929688 L 45.34375 43.707031 L 45.488281 43.710938 L 43.558594 40.910156 L 41.476562 38.871094 L 41.082031 38.53125 L 41.078125 36.34375 L 38.308594 35.554688 L 39.015625 34.078125 L 25.769531 21.25 L 37.628906 35.410156 L 37.316406 34.367188 L 25.992188 22.335938 L 25.621094 21.722656 L 38.351562 34.414062 L 38.824219 33.554688 L 38.566406 33.722656 L 38.746094 33.078125 L 38.679688 32.945312 L 38.730469 32.347656 L 25.988281 21.289062 L 24.964844 21.519531 L 25.339844 20.894531 L 25.042969 21.21875 L 24.964844 21.320312 L 26.011719 20.824219 L 39.675781 31.914062 L 40.449219 31.191406 L 40.234375 30.785156 L 42.636719 29.121094 L 40.175781 31.234375 L 38.804688 32.039062 L 37.46875 39.253906 L 38.109375 43.859375 L 37.433594 46.699219 L 36.003906 43.410156 L 35.035156 41.953125 L 33.632812 42.054688 L 34.945312 40.910156 L 22.34375 28.609375 L 37.320312 37.730469 L 37.390625 39.625 L 23.792969 29.308594 L 24.613281 24.5 L 25.03125 21.285156 L 25.804688 19.652344 L 22.96875 19.347656 L 24.378906 19.230469 L 39.285156 27.921875 L 39.570312 38.804688 L 40.230469 41.417969 L 41.75 44.730469 L 43.824219 46.972656 L 48.5 52.945312 L 49.660156 56.570312 L 61.847656 65.304688 L 74.316406 73.238281 L 81.070312 76.148438 L 87.261719 83.0625 L 112.902344 91.46875 L 150.3125 99.703125 L 185.425781 96.441406 L 212.714844 87.875 L 229.132812 77.328125 L 236.339844 66.691406 L 243.398438 49.273438 L 246.277344 41.371094 L 245.480469 41.335938 L 246.019531 38.40625 L 242.859375 38.019531 L 239.910156 40.28125 L 238.367188 44.320312 L 228.917969 47.035156 L 212.039062 53.171875 L 180.367188 62.421875 L 158.890625 65.027344 L 157.773438 60.546875 L 156.222656 60.851562 L 154.449219 65.792969 L 154.128906 65.511719 L 152.226562 63.679688 L 146.179688 59.75 L 134.394531 57.3125 L 119.101562 54.898438 L 120.699219 57.4375 L 122.207031 59.851562 L 123.65625 60.253906 L 119.007812 60.230469 L 89.886719 53.644531 L 68.152344 50.183594 L 51.878906 48.199219 L 56.589844 51 L 53.777344 52.175781 L 54.726562 52.332031 L 58.417969 56.347656 L 61.457031 78.261719 L 68.535156 122.96875 L 70.007812 149.621094 L 65.421875 174.554688 L 60.628906 200.9375 L 52.15625 230.632812 L 48.144531 236.945312 L 40.992188 250.734375 L 37.785156 253.03125 L 36.757812 258.140625 L 33.582031 261.378906 L 43.707031 260.042969 L 46.6875 258.296875 L 43.625 254.363281 L 39.058594 247.589844 L 47.910156 237.082031 L 62.824219 213.890625 L 72.628906 196.648438 L 79.757812 168.75 L 84.007812 144.769531 L 85.160156 137.292969 L 85.167969 136.609375 L 84.105469 136.757812 L 81.355469 143.890625 L 79.636719 143.171875 L 82.160156 142.175781 L 83.9375 138.441406 L 88.449219 141.945312 L 103.53125 118.042969 L 109.953125 106.652344 L 109.058594 110.804688 L 108.972656 124.785156 L 115.582031 110.597656 L 127.125 91.972656 L 138.859375 76.636719 L 144.703125 71.3125 L 142.273438 79.144531 L 142.054688 81.984375 L 142.105469 82.820312 L 142.347656 81.695312 L 142.429688 81.515625 L 142.578125 81.628906 L 142.476562 81.285156 L 142.839844 81.300781 L 143.15625 81.046875 L 140.964844 81.238281 L 130.683594 84.628906 L 126.289062 87.011719 L 109.386719 104.925781 L 96.746094 111.28125 L 94.933594 110.730469 L 100.097656 110.542969 L 90.34375 108.914062 L 69.964844 103.394531 L 67.570312 98.972656 L 60.4375 90.296875 L 50.371094 71.242188 L 51.628906 65.964844 L 48.722656 54.953125 L 44.527344 42.613281 L 38.84375 35.910156 L 42.203125 36.867188 L 43.359375 37.515625 L 41.53125 39.316406 L 39.023438 41.609375 L 36.546875 47.808594 L 38.296875 48.5 L 43.644531 48.140625 L 58.265625 80.949219 L 67.457031 127.71875 L 71.851562 173.023438 L 83.3125 204.324219 L 97.152344 224.625 L 95.511719 221.726562 L 91.777344 223.824219 L 88.335938 228.605469 L 80.78125 236.527344 L 79.945312 239.945312 L 83.066406 236.078125 L 89.535156 227.003906 L 145.628906 223.148438 L 196.789062 224.101562 L 218.246094 222.226562 L 227.617188 222.308594 L 227.5625 222.476562 L 222.871094 222.179688 L 227.496094 218.660156 L 234.273438 212.070312 L 231.046875 210.757812 L 227.585938 199.5625 L 216.273438 178.242188 L 204.957031 154.464844 L 192.886719 121.136719 L 179.882812 94.132812 L 172.238281 77.871094 L 173.585938 77.71875 L 176.574219 72.359375 L 180.9375 61.292969 L 179.453125 56.777344 L 176.3125 52.535156 L 174.59375 52.703125 L 174.824219 57.101562 L 171.433594 65.890625 L 135.75 61.730469 L 111.164062 62.53125 L 107.347656 55.058594 L 102.503906 50 L 98.507812 50.722656 L 93.148438 46.953125 L 89.007812 45.65625 L 87.191406 43.75 L 87.488281 44.710938 L 94.707031 50.492188 L 100.113281 50.046875 L 102.820312 50.691406 L 104.699219 51.441406 L 104.441406 52.703125 L 101.433594 49.789062 L 98.058594 53.101562 L 99.679688 64.546875 L 100.410156 64.597656 L 99.34375 67.722656 L 118.164062 69.859375 L 153.53125 63.59375 L 158.585938 57.835938 L 159.378906 58.21875 L 158.390625 56.070312 L 155.730469 56.9375 L 154.824219 53.460938 L 151.125 52.652344 L 152.992188 61.285156 L 160.035156 72.777344 L 157.351562 78.964844 L 154.179688 76.828125 L 150.574219 64.085938 L 148.109375 60.890625 L 147.675781 59.492188 L 150.21875 64.660156 L 153.664062 73.902344 L 178.414062 82.335938 L 207.449219 102.089844 L 224.367188 111.632812 L 229.179688 111.511719 L 228.234375 113.1875 L 224.730469 114.957031 L 223.921875 115.019531 L 218.941406 126.558594 L 215.289062 161.304688 L 221.527344 199.695312 L 226.007812 218.46875 L 225.765625 219.683594 L 227.933594 219.851562 L 229.261719 219.648438 L 228.722656 209.34375 L 227.976562 203.25 L 243.351562 226.359375 L 255.976562 245.257812 L 262.351562 252.234375 L 263.199219 245.046875 L 261.867188 244.535156 L 261.945312 244.109375 L 262.070312 244.363281 L 261.027344 243.71875 L 259.71875 242.335938 L 257.105469 243.0625 L 251.078125 246.835938 L 249.046875 245.101562 L 239.121094 240.601562 L 221.316406 236.074219 L 212.917969 234.234375 L 202.554688 232.121094 L 204.363281 232.167969 L 195.507812 231.527344 L 180.65625 229.980469 L 159.476562 225.308594 L 139.425781 224.289062 L 120.671875 220.835938 L 90.914062 217.238281 L 89.347656 211.242188 L 81.902344 193.0625 L 72.859375 179.148438 L 70.992188 176.082031 L 66.835938 169.730469 L 69.757812 171.089844 L 64.566406 168.65625 L 62.1875 166.8125 L 56.957031 171.769531 L 55.515625 173.925781 L 55.5625 173.304688 L 62.910156 172.347656 L 77.878906 171.335938 L 75.734375 189.894531 L 80.910156 197.914062 L 82.316406 197.464844 L 82.949219 194.902344 L 86.480469 187.570312 L 126.78125 189.679688 L 165.152344 189.3125 L 191.835938 191.914062 L 209.164062 197.636719 L 211.308594 198.175781 L 207.164062 194.023438 L 196.578125 189.703125 L 199.289062 183.84375 L 220.460938 177.007812 L 222.300781 183.972656 L 229.71875 195.449219 L 230.855469 195.035156 L 239.820312 196.265625 L 231.910156 197.628906 L 219.527344 193.714844 L 220.496094 216.671875 L 222.34375 226.582031 L 220.6875 234.472656 L 224.476562 237.746094 L 223.101562 231.609375 L 218.761719 226.058594 L 228.089844 233.09375 L 248.832031 247.242188 L 260.070312 253.074219 L 262.425781 255.34375 L 266.863281 259.453125 L 268.320312 258.519531 L 267.511719 260.683594 L 268.957031 255.246094 L 268.464844 254.554688 L 266.242188 259.917969 L 266.042969 262.914062 L 266.035156 261.050781 L 268.171875 254.457031 L 265.640625 251.949219 L 255.445312 257.113281 L 248.34375 251.59375 L 232.292969 231.300781 L 216.226562 217.027344 L 199.808594 206.074219 L 182.160156 190.09375 L 162.941406 172.402344 L 150.253906 155.921875 L 149.417969 157.511719 L 150.476562 158.636719 L 150.6875 158.929688 L 150.878906 159.234375 L 150.828125 157.265625 L 146.488281 123.816406 L 141.519531 96.269531 L 142.734375 97.378906 L 140.136719 79.203125 L 139.203125 70.171875 L 133.675781 74.394531 L 114.171875 64.820312 L 89.671875 60.855469 L 71.480469 60.226562 L 55.320312 53.328125 L 43.332031 41.882812 L 35.414062 41.613281 L 38.585938 40.480469 L 39.125 42.316406 L 38.792969 42.269531 L 38.484375 41.699219 L 38.1875 41.019531 L 37.820312 41.542969 L 37.796875 40.898438 L 37.949219 41.125 L 37.765625 41.03125 L 39.726562 41.078125 L 45.285156 42.453125 L 46.285156 40.863281 L 53.765625 53.308594 L 56.476562 71.570312 L 52.679688 72.480469 L 49.523438 72.238281 L 50.496094 68.789062 L 54.628906 67 L 62.625 73.59375 L 75.183594 115.253906 L 79.789062 149.847656 L 76.246094 180.863281 L 63.433594 206.4375 L 53.722656 228.09375 L 45.40625 244.691406 L 36.128906 257.066406 L 35.480469 257.046875 L 36.171875 256.90625 L 40.832031 255.871094 L 39.695312 257.800781 L 37.820312 262.058594 L 36.441406 265.410156 L 33.300781 260.003906 L 34.859375 247.625 L 53.597656 243.796875 L 86.167969 231.890625 L 134.476562 223.832031 L 172.296875 221.507812 L 203.421875 219.15625 L 218.496094 211.351562 L 223.671875 208.710938 L 228.4375 218.28125 L 240.460938 228.402344 L 244.207031 229.339844 L 243.605469 229.136719 L 238.808594 228.125 L 239.492188 233.140625 L 249.566406 239.179688 L 259.808594 251.921875 L 261.742188 256.148438 L 264.523438 256.550781 L 263.835938 257.09375 L 265.441406 259.523438 L 267.535156 261.683594 L 267.210938 260.800781 L 263.597656 256.84375 L 259.605469 258.625 L 258.351562 260.019531 L 259.578125 252.050781 L 260.683594 244.691406 L 259.15625 246.121094 L 245.296875 243.660156 L 223.527344 232.398438 L 200.949219 224.984375 L 160.027344 221.632812 L 123.21875 219.21875 L 87.882812 219.167969 L 67.988281 215.679688 L 62.285156 216.996094 L 54.808594 219.441406 L 46.300781 223.285156 L 45.707031 224.9375 L 63.164062 219.882812 L 57.136719 225.40625 L 36.984375 254.535156 L 38.367188 263.246094 L 36.734375 264.410156 L 39.664062 263.011719 L 36.117188 260.550781 L 29.921875 263.234375 L 28.449219 264.109375 L 29.5625 264.160156 L 27.246094 262.582031 L 26.777344 263.300781 L 26.828125 262.683594 L 28.660156 261.605469 L 33.511719 257.414062 L 43.316406 242.71875 L 56.085938 221.589844 L 69.601562 207.125 L 73.519531 191.355469 L 88.859375 151.757812 L 108.335938 129.9375 L 134.785156 106.933594 L 164.472656 96.078125 L 209.574219 83.902344 L 233.578125 70.953125 L 242.789062 53.785156 L 252.222656 36.878906 L 257.777344 33.214844 L 260.828125 30.722656 L 255.085938 33.632812 L 258.011719 33.789062 L 259.519531 31.003906 L 253.140625 35.136719 L 237.445312 41.273438 L 244.136719 36.253906 L 255.320312 29.394531 L 254.792969 28.851562 L 260.035156 26.378906 L 260.460938 25.90625 L 253.738281 28.886719 L 256.144531 33.710938 L 259.984375 38.386719 L 253.894531 38.183594 L 236.066406 48.285156 L 217.476562 58.265625 L 197.359375 73.53125 L 166.707031 99.972656 L 146.375 119.050781 L 118.320312 131.980469 L 88.285156 144.96875 L 68.03125 157.234375 L 60.707031 163.378906 L 66.445312 161.738281 L 71.597656 159.121094 L 71.085938 158.40625 L 70.773438 158.09375 L 71.546875 156.332031 L 69.96875 145.480469 L 72.417969 116.878906 L 69.6875 85.871094 L 70.816406 64.179688 L 72.285156 61.582031 L 70.890625 62.863281 L 59.164062 48.519531 L 45.125 37.03125 L 40.921875 34.300781 L 40.523438 36.257812 L 41.113281 36.617188 L 40.925781 36.847656 L 41.023438 36.878906 L 41.015625 36.394531 L 39.84375 35.175781 L 28.363281 21.410156 L 25.535156 22.585938 L 25.175781 22.105469 L 27.097656 20.921875 L 27.699219 20.867188 L 34.21875 36.761719 L 36.792969 34.207031 L 41.144531 30.628906 L 46.382812 33.941406 L 50.605469 35.894531 L 49.363281 34.621094 L 50.003906 35.167969 L 49.644531 35.21875 L 48.289062 33.070312 L 46.875 32.417969 L 44.519531 32.921875 L 43.058594 30.890625 L 41.503906 30.816406 L 41.390625 31.007812 L 44.046875 36.988281 L 60.128906 50.265625 L 79.949219 60.867188 L 116.09375 69.246094 L 148.121094 76.203125 L 175.746094 80.164062 L 171.117188 77.898438 L 175.644531 79.582031 L 196.957031 86.316406 L 219.492188 94.679688 L 222.597656 95.449219 L 226.558594 98.804688 L 225.515625 96.589844 L 225.644531 95.816406 L 234.75 94.332031 L 239.925781 93.339844 L 244.359375 93.039062 L 244.15625 93.6875 L 236.925781 96.042969 L 225.144531 96.015625 L 231.195312 85.597656 L 242.285156 58.683594 L 249.660156 39.460938 L 255.847656 34.253906 L 258.300781 30.679688 L 259.960938 31.988281 L 258.824219 30.082031 L 260.035156 29.054688 L 263.832031 26.488281 L 268.09375 23.914062 L 269.261719 25.820312 L 269.15625 25.796875 L 268.933594 25.75 L 269.035156 24.503906 L 268.585938 23.210938 L 268.507812 25.101562 L 267.546875 29.03125 L 263.261719 34.359375 L 263.871094 33.175781 L 263.402344 34.050781 L 259.960938 37.558594 L 257.710938 39.523438 L 258.269531 39.703125 L 258.507812 39.714844 L 258.503906 39.609375 L 256.054688 38.125 L 252.132812 32.5625 L 252.980469 33.445312 L 252.523438 33.957031 L 250.507812 33.835938 L 250.210938 33.464844 L 250.683594 33.527344 L 250.144531 34.011719 L 244.179688 43.472656 L 242.894531 60.316406 L 241.5625 65.054688 L 238.484375 71.476562 L 235.578125 89.246094 L 232.242188 94.617188 L 224.4375 119.5 L 216.882812 127.496094 L 205.976562 138.144531 L 197.9375 158.890625 L 190.257812 184.523438 L 179.453125 209.542969 L 173.773438 214.90625 L 173.429688 216.109375 L 174.546875 216.976562 L 171.496094 219.457031 L 171.785156 216.769531 L 162.128906 207.339844 L 124.605469 205.753906 L 90.117188 204.039062 L 70.050781 209.5 L 72.804688 209.804688 L 81.140625 207.132812 L 71.566406 211.769531 L 53.8125 227.710938 L 39.863281 252.0625 L 34.277344 258.316406 L 38.570312 260.792969 L 34.9375 258.59375 L 39.171875 261.53125 L 43.921875 259.351562 L 40.425781 260.027344 L 33.125 258.957031 L 31.738281 258.472656 L 27.117188 262.085938 L 25.664062 265.703125 L 27.972656 266.964844 L 31.777344 267.3125 L 32.175781 266.558594 L 33.132812 266.839844 L 31.320312 266.816406 L 27.03125 266.765625 L 24.597656 266.066406 L 28.847656 267.226562 L 32.179688 265.128906 L 30.734375 261.9375 L 26.257812 259.273438 L 36.417969 255.734375 L 48.425781 247.175781 L 64.878906 239.777344 L 97.523438 225.464844 L 140.804688 213.953125 L 163.511719 208.707031 L 192.253906 202.539062 L 209.308594 207.824219 L 231.359375 224.785156 L 250.503906 246.625 L 260.058594 253.457031 L 256.925781 248.984375 L 256.28125 252.414062 L 255.957031 249.804688 L 251.222656 247.710938 L 245.75 245.476562 L 241.941406 244.042969 L 235.144531 241.46875 L 216.613281 232.097656 L 188.171875 228.007812 L 164.800781 224.117188 L 146.976562 224.039062 L 124.257812 220.929688 L 89.742188 220.546875 L 68.5 219.957031 L 70.222656 218.691406 L 69.945312 219.511719 L 67.652344 222.949219 L 57.570312 236.609375 L 53.214844 238.050781 L 44.503906 248.347656 L 37.363281 254.234375 L 39.550781 252.464844 L 42.582031 251.964844 L 43.695312 250.265625 L 44.265625 257.425781 L 36.71875 254.761719 L 31.488281 258.449219 L 30.28125 259.363281 L 28.3125 262.507812 L 25.453125 263.480469 L 23.535156 262.699219 L 24.144531 262.265625 L 27.59375 261.128906 L 37.160156 263.625 L 39.664062 263.195312 L 47.203125 260.3125 L 66.410156 243.773438 L 101.742188 229.878906 L 138.148438 215.882812 L 174.789062 192.617188 L 198.351562 176.121094 L 220.484375 164.890625 L 222.457031 162.6875 L 223.210938 159.890625 L 227.546875 144.84375 L 231.035156 130.3125 L 233.855469 117.675781 L 236.804688 100.257812 L 233.695312 84.316406 L 230.9375 61.597656 L 229.496094 56.695312 L 228.761719 60.511719 L 225.617188 66.730469 L 224.675781 58.0625 L 225.507812 59.503906 L 225.359375 59.5 L 219.355469 59.398438 L 208.324219 58.683594 L 211.441406 53.507812 L 208.859375 47.242188 L 210.417969 42.683594 L 211.675781 45.636719 L 214.199219 53.90625 L 218.230469 53.484375 L 218.140625 52.359375 L 235.347656 47.515625 L 256.625 35.464844 L 258.960938 32.984375 L 259.773438 29.855469 L 257.859375 27.90625 L 257.1875 28.855469 L 258.597656 32.3125 L 257.332031 38.71875 L 242.710938 40.601562 L 217.390625 54.925781 L 187.351562 66.230469 L 160.234375 73.238281 L 122.871094 79.011719 L 94.902344 85.558594 L 76.941406 91.769531 L 74.828125 91.5625 L 72.136719 92.695312 L 64.390625 96.085938 L 58.019531 96.84375 L 63.785156 94.121094 L 59.3125 100.628906 L 56.933594 104.128906 L 64.0625 98.238281 L 71.140625 91.839844 L 65.273438 75.996094 L 57.710938 59.738281 L 45.058594 36.644531 L 26.503906 20.28125 L 26.078125 21.566406 L 38.503906 31.328125 L 38.402344 32.855469 L 37.941406 33.085938 L 25.1875 21.574219 L 24.695312 21.796875 L 23.6875 21.652344 L 23.863281 21.316406 L 22.925781 20.515625 L 20.6875 20.558594 L 21.980469 19.460938 L 21.957031 19.179688 L 22.425781 20.542969 L 28.148438 24.050781 L 35.046875 37.441406 L 34.84375 38.316406 L 36.015625 38.308594 L 41.351562 32.46875 L 40.765625 35.601562 L 42.777344 36.703125 L 42.210938 35.894531 L 42.269531 34.558594 L 41.828125 35.523438 L 43.128906 33.835938 L 40.9375 36.46875 L 40.410156 36.839844 L 40.21875 37.640625 L 42.84375 41.667969 L 43.140625 44.21875 L 44.75 42.480469 L 44.773438 42.027344 L 43.628906 43.042969 L 43.585938 43.386719 L 42.828125 43.800781 L 44.300781 44.664062 L 48.09375 48.714844 L 63.320312 62.554688 L 78.539062 74.207031 L 103.207031 81.3125 L 142.511719 94.171875 L 158.757812 106.230469 L 169.929688 124.625 L 194.65625 154.523438 L 218.894531 176.265625 L 224.234375 180.777344 L 224.566406 181.097656 L 224.050781 180.28125 L 235.867188 174.703125 L 240.664062 172.082031 L 237.367188 174.601562 L 226.0625 172.917969 L 220.328125 169.15625 L 226.359375 142.46875 L 228.734375 122.488281 L 233.984375 119.839844 L 235.101562 118.570312 L 234.671875 118.398438 L 239.816406 115.835938 L 241.160156 112.5625 L 241.164062 112.554688 L 243.4375 111.164062 L 241.179688 108.726562 L 240.316406 105.457031 L 237.851562 104.847656 L 240.09375 84.988281 L 243.242188 55.550781 L 245.871094 41.871094 L 250.992188 44.53125 L 253.402344 47.457031 L 254.558594 54.058594 L 254.34375 55.824219 L 251.238281 50.761719 L 245 59.527344 L 232.445312 91.371094 L 228.867188 128.898438 L 230.710938 134.328125 L 233.890625 133.863281 L 237.621094 130.652344 L 241 127.300781 L 241.625 126.476562 L 244.027344 124.03125 L 244.28125 122.820312 L 242.082031 122.492188 L 234.8125 125.75 L 238.011719 127.714844 L 241.382812 127.691406 L 235.644531 127.199219 L 220.011719 128.960938 L 213.050781 137.59375 L 202.996094 173.902344 L 202.5 214.9375 L 204.707031 220.546875 L 204.40625 220.792969 L 204.191406 220.363281 L 201.453125 217.855469 L 197.894531 220.601562 L 199.601562 217.496094 L 195.019531 210.601562 L 183.007812 200.125 L 168.902344 178.3125 L 165.347656 168.898438 L 165.390625 172.042969 L 173.929688 179.585938 L 181.644531 184.421875 L 185.195312 189.566406 L 188.917969 194.171875 L 189.199219 188.878906 L 188.648438 170.421875 L 188.324219 145.78125 L 185.789062 133.851562 L 187.835938 137.386719 L 188.878906 145.992188 L 187.984375 151.878906 L 179.585938 129.992188 L 171.363281 105.925781 L 164.628906 80.691406 L 161.53125 72.816406 L 161.558594 66.957031 L 162.066406 67.410156 L 165.34375 61.078125 L 164.382812 62.382812 L 162.640625 72.785156 L 169.929688 80.550781 L 193.871094 96.828125 L 212.257812 115.515625 L 220.910156 134.851562 L 228.289062 156.253906 L 230.242188 164.929688 L 224.769531 164.90625 L 210.972656 182.269531 L 197.34375 200.59375 L 188.910156 211.78125 L 187.015625 212.5625 L 183.710938 227.75 L 184.675781 215.816406 L 188.785156 210.890625 L 184.550781 202.375 L 157.546875 189.246094 L 147.910156 182.9375 L 142.503906 176.054688 L 137.183594 167.089844 L 136.109375 164.585938 L 123.261719 142.132812 L 104.589844 116.226562 L 79.863281 84.714844 L 59.066406 56.125 L 45.0625 38.328125 L 42.878906 34.84375 L 38.816406 36.71875 L 35.710938 40.503906 L 42.335938 39.894531 L 55.859375 45.128906 L 76.796875 69.386719 L 102.535156 95.429688 L 117.382812 105.519531 L 146.394531 114.78125 L 171.367188 124.296875 L 197.089844 131.660156 L 217.859375 139.675781 L 215.582031 138.703125 L 218.878906 135.453125 L 211.195312 132.671875 L 202.621094 133.113281 L 214.621094 109.417969 L 222.585938 89.84375 L 226.0625 85.863281 L 225.847656 88.871094 L 221.277344 95.722656 L 222.292969 95.351562 L 223.847656 95.265625 L 224.324219 95.886719 L 221.003906 92.824219 L 223.324219 90.152344 L 235.289062 81.761719 L 239.804688 71.457031 L 248.027344 54.921875 L 248.398438 48.515625 L 250.769531 46.15625 L 260.164062 30.800781 L 263.9375 25.808594 L 266.261719 24.023438 L 266.207031 23.65625 L 267.890625 23.492188 L 267.695312 23.574219 L 265.773438 25.015625 L 266.167969 24.289062 L 266.726562 23.929688 L 266.695312 23.707031 L 266.910156 23.640625 L 266.871094 23.675781 L 266.875 23.589844 L 266.761719 23.859375 L 265.082031 24.515625 L 264.96875 24.742188 L 266.71875 23.226562 L 267.792969 23.050781 L 260.941406 27.28125 L 258.554688 30.054688 L 258.242188 29.992188 L 257.429688 30.378906 L 257.953125 28.839844 L 264.769531 25.128906 L 266.851562 24.941406 L 267.742188 23.226562 L 269.441406 23.316406 L 263.46875 24.351562 L 259.351562 29.300781 L 262.941406 31.695312 L 257.859375 32.714844 L 243.757812 41.074219 L 228.164062 47.703125 L 206.757812 59.441406 L 175.316406 79.859375 L 158.800781 101.851562 L 134.371094 132.394531 L 115.449219 151.90625 L 93.367188 173.078125 L 71.859375 190.226562 L 62.453125 207.035156 L 51.003906 232.589844 L 44.8125 246.351562 L 45.910156 245.972656 L 44.449219 255.441406 L 41.164062 255.164062 L 42.886719 252.734375 L 52.84375 243.660156 L 88.269531 234.578125 L 137.210938 222.25 L 173.910156 220.484375 L 215.761719 229.550781 L 246.574219 242.109375 L 261.253906 253.6875 L 260.71875 252.101562 L 263.328125 254.324219 L 264.3125 255.132812 L 264.535156 255.832031 L 264.480469 255.921875 L 264.171875 256.882812 L 264.035156 256.917969 L 264.074219 256.414062 L 266.359375 253.71875 L 266.621094 253.636719 L 264.746094 251.324219 L 263.179688 249.367188 L 258.210938 250.824219 L 257.171875 247.488281 L 252.011719 248.335938 L 241.042969 239.570312 L 220.160156 225.65625 L 204.789062 221.054688 L 175.921875 220.40625 L 165.640625 223.140625 L 155.132812 223.1875 L 110.980469 227.707031 L 88.917969 227.550781 L 70.941406 226.253906 L 60.382812 227.210938 L 50.921875 230.035156 L 43.9375 232.59375 L 39.089844 229.488281 L 44.003906 232.859375 L 67.167969 228.730469 L 69.492188 230.59375 L 57.445312 238.683594 L 62.601562 242.375 L 62.710938 246.171875 L 67.0625 236.070312 L 112.121094 228.117188 L 153.699219 224.390625 L 183.625 230.082031 L 209.25 231.886719 L 233.742188 239.246094 L 251.390625 247.917969 L 252.765625 251.636719 L 251.488281 250.007812 L 250.886719 255.234375 L 257.007812 259.484375 L 261.824219 256.109375 L 260.832031 255.90625 L 261.035156 256.957031 L 258.378906 250.941406 L 255.429688 249.511719 L 254.609375 248.835938 L 252.050781 245.109375 L 231.5625 234.925781 L 201.472656 225.511719 L 164.761719 218.75 L 144.34375 205.148438 L 119.191406 186.992188 L 103.402344 175.214844 L 88.535156 163.402344 L 80.539062 160.679688 L 84.34375 158.714844 L 87.003906 146.265625 L 98.113281 123.96875 L 99.207031 119.777344 L 97.542969 120.75 L 95.3125 130.554688 L 100.109375 136.910156 L 114.746094 110.5 L 129.457031 90.554688 L 141.28125 75.820312 L 141.960938 75.875 L 139.332031 64.035156 L 137.9375 58.621094 L 136.265625 55.277344 L 138.226562 62.238281 L 133.480469 66.652344 L 97.613281 57.019531 L 63.8125 48.476562 L 39.546875 38.007812 L 33.941406 41.007812 L 34.542969 38.867188 L 34.886719 38.238281 L 35.054688 37.027344 L 35.570312 34.957031 L 27.011719 21.664062 L 27.535156 20.40625 L 27.863281 20.910156 L 28.464844 22.515625 L 29.804688 20.589844 L 29.957031 20.976562 L 36.757812 36.535156 L 38.15625 39.488281 L 43.316406 41.867188 L 67.210938 60.460938 L 99.097656 91.121094 L 110.574219 97.816406 L 142.71875 101.28125 L 184.484375 107.53125 L 210.683594 117.597656 L 217.039062 121.542969 L 216.75 122.054688 L 216.417969 117.910156 L 224.140625 111.121094 L 238.8125 80.164062 L 249.828125 47.4375 L 256.457031 37.597656 L 254.171875 38.882812 L 250.832031 39.980469 L 251.449219 39.367188 L 252.742188 38.09375 L 249.238281 42.4375 L 237.296875 43.257812 L 222.023438 49.730469 L 187.554688 59.167969 L 146.570312 69.367188 L 104.542969 82.695312 L 74.4375 95.242188 L 65.988281 100.410156 L 59.757812 97.5 L 69.109375 98.019531 L 73.714844 108.050781 L 74.070312 149.738281 L 71.839844 182.644531 L 60.59375 208.953125 L 46.867188 241.273438 L 42.125 260.128906 L 41.328125 254.863281 L 45.882812 258.289062 L 45.863281 256.542969 L 37.714844 252.789062 L 31.617188 253.582031 L 34.09375 252.75 L 36.015625 251.925781 L 34.183594 253.375 L 27.601562 255.355469 L 28.621094 256.253906 L 40.816406 253.445312 L 49.652344 255.394531 L 45.03125 244.386719 L 50.71875 234.007812 L 87.953125 212.40625 L 121.417969 192.5 L 145.171875 174.128906 L 147.644531 173.917969 L 147.734375 175.46875 L 147.058594 175.453125 L 146.171875 175.648438 L 146.347656 175.535156 L 141.882812 185.84375 L 163.476562 180.734375 L 194.414062 177.488281 L 205.265625 174.648438 L 202.902344 175.425781 L 194.570312 177.925781 L 195.105469 162.953125 L 197.253906 129.871094 L 203.40625 102.824219 L 210.933594 76.96875 L 220.386719 66.972656 L 225.605469 66.433594 L 225.808594 66.984375 L 226.132812 69.515625 L 225.242188 68.550781 L 226.980469 64.707031 L 246.703125 47.820312 L 259.199219 32.265625 L 261.007812 31.035156 L 264.664062 29.710938 L 261.511719 31.289062 L 247.375 33.605469 L 243.300781 48.59375 L 214.75 73.578125 L 181.578125 97.730469 L 152.914062 116.632812 L 132.871094 122.609375 L 113.058594 122.113281 L 91.734375 117.597656 L 90.375 117.3125 L 99.621094 122.265625 L 88.921875 126.992188 L 72.066406 134.582031 L 75.476562 133.820312 L 79.789062 133.515625 L 73.738281 115.816406 L 65.214844 78.445312 L 63.066406 67.046875 L 65.15625 72.945312 L 63.429688 75.472656 L 52.546875 48.058594 L 40.6875 37.171875 L 26.121094 23.25 L 37.675781 36.71875 L 37.179688 38.1875 L 37.972656 38.386719 L 35.839844 41.828125 L 43.683594 39.929688 L 55.363281 46.675781 L 82.5 60.625 L 96.652344 75.257812 L 108.90625 98.652344 L 122.222656 112.273438 L 124.328125 112.222656 L 120.910156 109.601562 L 114.898438 105.53125 L 121.683594 106.636719 L 124.367188 107.550781 L 124.214844 107.488281 L 130.125 115.054688 L 136.304688 128.539062 L 137.863281 132.332031 L 137.160156 130.980469 L 142.125 131.125 L 151.621094 130.152344 L 178.738281 131.804688 L 209.339844 131.445312 L 222.894531 132.707031 L 223.09375 125.6875 L 231.058594 117.433594 L 230.164062 115.503906 L 231.097656 114.226562 L 233.398438 104.402344 L 234.921875 93.179688 L 238.183594 88.703125 L 238.886719 90.980469 L 239.367188 95.289062 L 240.335938 100.519531 L 241.003906 102.894531 L 241.46875 104.15625 L 242.480469 109.460938 L 241.875 115.367188 L 243.355469 116.65625 L 238.433594 111.691406 L 229.671875 112.15625 L 226.480469 148.015625 L 222.359375 189.949219 L 224.457031 218.023438 L 226.980469 229.304688 L 226.605469 226.242188 L 227.074219 225.960938 L 234.019531 231.4375 L 248.46875 242.53125 L 248.78125 247.804688 L 251.960938 249.222656 L 252.933594 254.613281 L 254.175781 251.96875 L 255.964844 253.402344 L 256.109375 258.371094 L 257.242188 259.683594 L 260.90625 258.386719 L 259.542969 261.246094 L 259.40625 261.3125 L 260.960938 261.863281 L 265.976562 262.753906 L 264.875 262.367188 L 260.746094 261.082031 L 261.914062 253.097656 L 256.980469 249.84375 L 253.03125 251.539062 L 254.59375 245.453125 L 253.050781 239.308594 L 244.332031 224.199219 L 233.085938 209.890625 L 229.699219 192.335938 L 235.316406 191.914062 L 243.214844 189.824219 L 242.640625 193.246094 L 241.339844 197.675781 L 238.789062 200.246094 L 237.453125 203.035156 L 230.632812 206.300781 L 232.222656 227.285156 L 230.742188 231.113281 L 228.804688 235.03125 L 229.082031 235.265625 L 230.539062 227.546875 L 241.882812 241.386719 L 252.195312 251.171875 L 250.683594 250.707031 L 254.769531 247.441406 L 260.34375 246.414062 L 262.023438 247.53125 L 252.570312 248.398438 L 249.992188 238.480469 L 245.273438 218.363281 L 243.910156 210.316406 L 243.714844 211.007812 L 240.539062 215.058594 L 243.664062 214.355469 L 237.808594 214.8125 L 232.472656 183.058594 L 228.179688 143.496094 L 235.207031 98.152344 L 243.300781 57.558594 L 250.933594 34.964844 L 245.699219 34.1875 L 247.640625 41.0625 L 248.613281 42.199219 L 250.289062 40.550781 L 251.371094 39.625 L 252.859375 37.714844 L 252.761719 39.285156 L 250.214844 44.667969 L 244.046875 60.015625 L 231.382812 82.691406 L 222.648438 109.839844 L 212.964844 128.574219 L 208.234375 132.300781 L 210.449219 132.242188 L 214.796875 127.339844 L 207.738281 129.796875 L 191.863281 140.4375 L 172.78125 153.039062 L 155.136719 165.269531 L 136.285156 184.03125 L 116.058594 201.984375 L 89.480469 225.824219 L 78.597656 231.640625 L 67.742188 234.339844 L 56.183594 240.074219 L 44.878906 247.335938 L 30.433594 258.914062 L 32.960938 259.269531 L 37.074219 257.089844 L 36.65625 257.433594 L 36.296875 257.203125 L 34.839844 258.480469 L 34.160156 264.511719 L 34.40625 264.765625 L 36.003906 264.183594 L 38.253906 263.820312 L 36.054688 261.417969 L 29.488281 255.609375 L 40.09375 252.234375 L 61.734375 239.402344 L 69.511719 234.652344 L 82.359375 226.699219 L 94.503906 221.132812 L 129.039062 215.605469 L 139.761719 217.519531 L 160.902344 216.789062 L 167.382812 220.515625 L 191.59375 228.355469 L 219.796875 232.410156 L 233.9375 232.191406 L 236.425781 233.066406 L 227.804688 233.320312 L 228.859375 222.511719 L 229.828125 200.078125 L 230.1875 185.800781 L 228.191406 189.253906 L 233.648438 187.941406 L 229.878906 185.683594 L 224.402344 186.972656 L 220.75 154.777344 L 223.25 115.867188 L 233.847656 79.980469 L 242.097656 52.292969 L 254.3125 31.3125 L 251.554688 29.167969 L 249.761719 31.871094 L 257.359375 33.191406 L 257.890625 33.199219 L 252.070312 37.355469 L 237.476562 57.597656 L 229.460938 87.871094 L 230.425781 117.074219 L 231.367188 122.632812 L 230.078125 130.125 L 230.222656 125.363281 L 230.296875 127.0625 L 230.277344 127.195312 L 230.613281 128.769531 L 225.753906 132.957031 L 225.519531 141.320312 L 228.109375 169.433594 L 229.550781 196.941406 L 231.597656 217.699219 L 231.429688 219.789062 L 233.425781 220.152344 L 228.15625 212.882812 L 225.582031 216.542969 L 225.816406 222.5625 L 224.925781 232.007812 L 224.167969 241.265625 L 225 234.972656 L 230.570312 238.292969 L 259.429688 252.765625 L 260.679688 255.527344 L 258.863281 254.328125 L 258.148438 254.277344 L 258.992188 254.167969 L 260.480469 254.476562 L 263.140625 256.34375 L 264.746094 258.136719 L 267.589844 258.566406 L 268.007812 259.246094 L 266.972656 258.566406 L 267.632812 258.039062 L 263.917969 255.796875 L 255.820312 249.796875 L 248.5625 245.878906 L 249.164062 246.964844 L 248.441406 244.992188 L 254.558594 243.105469 L 248.941406 243.21875 L 247.289062 233.144531 L 238.328125 214.792969 L 231.242188 184.847656 L 230.96875 178.921875 L 232.582031 177.078125 L 227.769531 176.789062 L 225.890625 149.519531 L 229.183594 100.472656 L 240.128906 61.601562 L 250.835938 35.21875 L 253.203125 28.65625 L 249.214844 31.601562 L 249.519531 32.175781 L 248.628906 33.457031 L 254.746094 37.492188 L 247.136719 48.441406 L 231.613281 86.667969 L 226.964844 138.730469 L 232.828125 167.246094 L 231.730469 171 L 232.054688 172.5625 L 238.292969 169.691406 L 241.445312 171.09375 L 234.796875 165.898438 L 230.410156 162.820312 L 231.476562 147.136719 L 231.859375 118.476562 L 236.46875 107.960938 L 239.332031 106.445312 L 232.289062 109.851562 L 237.183594 76.644531 L 250.644531 39.382812 L 252.410156 32.835938 L 246.121094 33.375 L 246.199219 33.082031 L 245.632812 33.433594 L 246.636719 32.382812 L 250.445312 34.535156 L 254.132812 32.8125 L 247.839844 34.539062 L 248.375 42.980469 L 251.832031 41.410156 L 251.472656 40.136719 L 252.207031 39.59375 L 251.382812 38.214844 L 252.511719 38.898438 L 252.835938 38.929688 L 252.136719 39.113281 L 252.800781 38.867188 L 251.394531 37.964844 L 250.230469 37.921875 L 248.644531 37.589844 L 247.070312 38.316406 L 241.476562 39.53125 L 226.691406 48.109375 L 209.328125 59.652344 L 204.1875 62.480469 L 208.304688 60.140625 L 210.382812 60.308594 L 212.300781 60.21875 L 212.328125 59.980469 L 210.84375 59.582031 L 213.300781 60.414062 L 213.214844 59.3125 L 211.207031 57.925781 L 211.8125 57.984375 L 212.5 57.382812 L 212.316406 56.808594 L 211.867188 57.289062 L 211.628906 57.121094 L 212.070312 56.550781 L 211.914062 56.949219 L 211.835938 56.847656 L 212.320312 56.511719 L 212.808594 56.480469 L 212.75 56.085938 L 214.21875 54.125 L 214.453125 53.984375 L 209.773438 55.53125 L 204.019531 60.160156 L 194.421875 65.578125 L 190.113281 66.878906 L 188.132812 72.214844 L 176.234375 89.714844 L 164.609375 106.097656 L 162.800781 110.996094 L 167.660156 109.066406 L 166.132812 104.785156 L 162.246094 106.214844 L 145.761719 116.253906 L 117.648438 132.640625 L 90.707031 145.667969 L 75.121094 153.890625 L 74.273438 157.113281 L 73.050781 159.21875 L 74.191406 160.269531 L 76.328125 162.53125 L 82.664062 158.382812 L 96.972656 172.042969 L 115.460938 197.089844 L 122.601562 207.859375 L 123.800781 208.78125 L 121.6875 205.207031 L 123.113281 202.5625 L 126.9375 205.503906 L 138.832031 216.636719 L 137.1875 215.058594 L 138.742188 221.210938 L 149.035156 224.675781 L 174.660156 220.335938 L 212.121094 224.625 L 233.15625 233.03125 L 234.34375 232.976562 L 230.429688 233.464844 L 228.683594 237.765625 L 225.695312 227.847656 L 221.042969 227.523438 L 209.75 225.742188 L 187.324219 226.164062 L 156.660156 223.121094 L 129.6875 221.171875 L 133.628906 219.859375 L 135.238281 219.5625 L 134.832031 219.535156 L 120.441406 218.667969 L 91.214844 213.179688 L 71.390625 211.429688 L 71.863281 215.09375 L 59.980469 219.191406 L 52.828125 220.785156 L 55.222656 220.835938 L 56.398438 220.824219 L 50.640625 230.1875 L 52.40625 232.644531 L 52.515625 233.011719 L 45.027344 246.710938 L 40.050781 255.078125 L 46.867188 257.644531 L 46.039062 257.003906 L 36.664062 253.796875 L 38.128906 252.117188 L 38.222656 249.34375 L 38.007812 247.488281 L 43.394531 249.980469 L 44.855469 240.761719 L 55.59375 216.316406 L 68.054688 174.632812 L 67.976562 143.542969 L 63.371094 130.308594 L 64.914062 121.707031 L 64.453125 95.183594 L 63.484375 70.164062 L 62.085938 57.746094 L 62.449219 57.597656 L 59.519531 57.539062 L 48.90625 47.246094 L 36.933594 36.230469 L 25.746094 23.421875 L 24.933594 21.398438 L 26.257812 23.964844 L 26.207031 25.644531 L 24.675781 28.398438 L 35.371094 37.445312 L 36.53125 38.460938 L 41.464844 36.855469 L 43.800781 33.746094 L 45.816406 35.09375 L 48.207031 35.503906 L 48.097656 35.410156 L 50.328125 36.296875 L 62.625 40.816406 L 69.398438 44.644531 L 73.628906 46.046875 L 70.644531 42.40625 L 68.164062 39.050781 L 68.558594 41.175781 L 67.964844 51.609375 L 92.316406 62.179688 L 132.21875 80.464844 L 170.761719 84.023438 L 206.179688 83.652344 L 225.574219 82.707031 L 228.082031 83.183594 L 228.015625 83.128906 L 228.066406 83.863281 L 227.804688 85.773438 L 225.800781 84.597656 L 228.902344 86.816406 L 228.632812 88.277344 L 234.289062 77.742188 L 243.269531 49.476562 L 246.058594 44.394531 L 249.257812 45.21875 L 257.570312 33.359375 L 259.640625 31.769531 L 260.546875 30.960938 L 260.804688 30.8125 L 260.792969 31.324219 L 261.316406 30.785156 L 261.355469 30.757812 L 260.8125 31.253906 L 260.214844 30.355469 L 257.339844 32.449219 L 256.234375 31.519531 L 256.117188 30.9375 L 258.277344 29.902344 L 258.523438 30.628906 L 259.339844 29.898438 L 259.9375 29.53125 L 263.175781 27.492188 L 265.007812 26.355469 L 265.683594 26.417969 L 265.246094 26.207031 L 265.894531 25.945312 L 267.6875 24.230469 L 269.101562 21.730469 L 267.09375 21.585938 L 267.917969 21.535156 L 267.175781 22.890625 L 266.398438 23.832031 L 265.996094 25.730469 L 260.773438 35.8125 L 257.707031 34.894531 L 257.25 31.03125 L 259.199219 28.578125 L 261.550781 28.472656 L 263.84375 28.792969 L 264.105469 29.488281 L 265.980469 28.289062 L 265.769531 26.40625 L 265.535156 26.332031 L 264.523438 27.316406 L 262.976562 29.113281 L 261.8125 29.855469 L 262.527344 29.398438 L 262.667969 29.269531 L 260.46875 35.652344 L 258.300781 37.429688 L 255.09375 38.578125 L 249.417969 38.230469 L 245.203125 38.710938 L 220.109375 52.296875 L 199.984375 73.253906 L 191.066406 93.621094 L 187.074219 107.253906 L 186.707031 124.449219 L 191.835938 156.628906 L 199.148438 186.253906 L 211.695312 217.128906 L 216.945312 227.59375 L 218.640625 234.601562 L 223.222656 240.238281 L 223.449219 238.910156 L 220.011719 238.664062 L 220.753906 241.976562 L 220.789062 238.863281 L 220.140625 236.636719 L 215.539062 220.144531 L 225.019531 223.480469 L 244.402344 236.378906 L 256.5 245.335938 L 258.148438 249.207031 L 260.808594 253.652344 L 258.214844 249.257812 L 258.84375 250.195312 L 263.621094 249.050781 L 259.589844 252.800781 L 260.074219 250.585938 L 259.710938 253.421875 L 260.59375 251.707031 L 260.035156 253.265625 L 261.488281 253.898438 L 263.3125 256.324219 L 264.183594 257.34375 L 263.429688 258.203125 L 265.796875 261.628906 L 267.703125 262.5 L 263.921875 258.890625 L 264.570312 258.078125 L 263.0625 258.222656 L 256.496094 258.425781 L 253.238281 257.382812 L 253.3125 257.707031 L 253.074219 256.664062 L 254.558594 254.851562 L 255.585938 247.980469 L 248.417969 238.496094 L 229.402344 215.839844 L 207.597656 192.050781 L 191.558594 173.167969 L 184.519531 165.390625 L 185.386719 164.6875 L 187.507812 168.386719 L 181.964844 167.777344 L 162.109375 157.800781 L 132.515625 145.84375 L 128.402344 143.453125 L 120.320312 138.644531 L 95.160156 123.953125 L 84.953125 117.730469 L 84.492188 119.378906 L 89.945312 122.886719 L 85.296875 128.207031 L 73.003906 134.929688 L 77.628906 133.058594 L 65.265625 136.078125 L 63.40625 137.414062 L 63.628906 142.164062 L 56.707031 150.007812 L 62.089844 148.273438 L 71.566406 139.867188 L 75.796875 138.375 L 71.4375 136.050781 L 71.136719 136.257812 L 71.921875 134.273438 L 63.773438 124.488281 L 60.296875 121.902344 L 65.050781 124.203125 L 61.351562 127.3125 L 65.429688 126.394531 L 69.890625 133.101562 L 72.875 159.097656 L 75.207031 155.9375 L 80.960938 160.101562 L 81.851562 174.878906 L 73.199219 189.613281 L 60.679688 206.433594 L 60.128906 209.523438 L 60.324219 210.632812 L 59.722656 209.351562 L 63.257812 200.316406 L 62.070312 197.601562 L 67.582031 196.28125 L 61.351562 208.910156 L 44.5625 241.429688 L 33.386719 256.457031 L 32.136719 259.984375 L 27.996094 264.230469 L 34.308594 257.40625 L 39.71875 254.558594 L 43.476562 259.609375 L 47.765625 257.84375 L 50.511719 257.554688 L 50.09375 256.6875 L 50.675781 256.863281 L 48.027344 244.703125 L 56.015625 227.191406 L 68.835938 194.980469 L 74.828125 160.683594 L 82.472656 128.398438 L 85.074219 95.320312 L 85.410156 91.976562 L 84.71875 94.585938 L 86.457031 95.773438 L 87.0625 94.921875 L 91.71875 85.488281 L 102.300781 69.339844 L 103.628906 62.714844 L 100.527344 67.871094 L 82.828125 55.707031 L 55.292969 44.683594 L 42.441406 35.910156 L 37.976562 34.058594 L 37.882812 35.324219 L 24.886719 23.722656 L 25.53125 21.910156 L 24.953125 22.460938 L 24.519531 22.0625 L 24.363281 21.972656 L 23.8125 22.582031 L 24.714844 21.605469 L 23.949219 20.925781 L 24.136719 20.308594 L 23.8125 22.226562 L 34.703125 39.808594 L 35.238281 40.886719 L 34.902344 40.453125 L 35.105469 39.371094 L 34.570312 37.886719 L 35.671875 37.738281 L 36.554688 36.121094 L 34.683594 39.730469 L 37.292969 39.089844 L 39.871094 35.871094 L 54.738281 43.015625 L 82.683594 58.6875 L 123.230469 73.886719 L 156.476562 87.363281 L 192.699219 88.867188 L 225.222656 84.136719 L 230.210938 78.425781 L 223.574219 83.515625 L 226.523438 83.277344 L 230.824219 79.488281 L 242.113281 77.3125 L 246.972656 74.5625 L 239.117188 77.949219 L 224.324219 84.0625 L 218.902344 111.972656 L 211.726562 161.636719 L 213.464844 198.082031 L 213.164062 224.894531 L 213.816406 224.460938 L 216.695312 233.316406 L 220.410156 241.304688 L 223.546875 243.070312 L 221.234375 226.242188 L 231.945312 235.9375 L 251.742188 247.375 L 258.511719 253.851562 L 256.140625 252.476562 L 257.433594 251.644531 L 257.03125 250.695312 L 258.925781 249.847656 L 259.652344 248.964844 L 263.285156 246.101562 L 260.066406 249.742188 L 256.972656 253.667969 L 256.007812 253.316406 L 253.976562 249.214844 L 252.449219 247.992188 L 250.953125 248.425781 L 244.917969 248.195312 L 243.683594 236.390625 L 230.109375 204.785156 L 227.609375 182.523438 L 234.632812 181.976562 L 226.898438 183.417969 L 222.921875 184.851562 L 226.164062 186.152344 L 222.695312 188.246094 L 232.644531 212.882812 L 243.8125 233.230469 L 252.964844 246.113281 L 255.742188 251.785156 L 255.132812 251.695312 L 253.839844 255.882812 L 254.894531 251.449219 L 258.226562 259.515625 L 262.3125 258.820312 L 263.019531 258.613281 L 266.5625 262.230469 L 267.675781 262.605469 L 261.875 263.074219 L 261.03125 260.675781 L 267.453125 253.277344 L 263.960938 251.753906 L 256.898438 256.679688 L 257.167969 256.519531 L 256.871094 256.25 L 255.972656 255.355469 L 252.480469 235.941406 L 237.855469 209.984375 L 228.082031 171.941406 L 224.402344 140.839844 L 223.804688 105.820312 L 225.011719 89.632812 L 223.324219 91.152344 L 220.015625 98.882812 L 212.210938 85.992188 L 200.101562 67.40625 L 203.917969 65.316406 L 224.105469 50.921875 L 248.320312 38.042969 L 254.867188 33.140625 L 254.734375 32.65625 L 261.371094 29.964844 L 259.433594 30.710938 L 260.09375 29.300781 L 256.222656 33.097656 L 250.082031 37.144531 L 249.613281 38.316406 L 254.714844 39.394531 L 253.320312 39.621094 L 248.621094 41.882812 L 236.441406 49.625 L 229.214844 60.070312 L 231.476562 56.34375 L 231.785156 57.144531 L 232.769531 59.917969 L 234.886719 66.4375 L 234.316406 67.496094 L 234.839844 70.164062 L 234.570312 72.839844 L 235.5 79.695312 L 235.554688 81.511719 L 236.027344 82.78125 L 236.460938 86.65625 L 236.324219 85.664062 L 236.304688 85.773438 L 236.226562 88.679688 L 233.617188 101.953125 L 227.5 119.027344 L 219.890625 145.761719 L 211.914062 147.609375 L 199.222656 146.355469 L 176.851562 154.332031 L 145.773438 169.390625 L 132.195312 178.910156 L 125.761719 191.949219 L 119.410156 204.503906 L 116.128906 212.582031 L 108.4375 229.007812 L 100.40625 230.511719 L 71.773438 236.644531 L 49.902344 244.488281 L 40.257812 253.355469 L 37.074219 256.921875 L 34.875 256.394531 L 34.8125 257.433594 L 35.023438 257.027344 L 43.339844 249.828125 L 41.976562 252.425781 L 37.816406 257.054688 L 37.480469 257.15625 L 39.179688 259.929688 L 37.699219 255.730469 L 34.308594 254.851562 L 37.292969 256.4375 L 46.867188 258.335938 L 42.644531 256.667969 L 34.304688 253.84375 L 38.453125 252.671875 L 46.46875 248.738281 L 47.898438 248.050781 L 44.332031 247.4375 L 45.011719 248.242188 L 46.023438 247.695312 L 53.238281 247.332031 L 51.144531 248.179688 L 53.324219 245.65625 L 74.027344 226.523438 L 95.175781 209.164062 L 118.917969 202.796875 L 156.792969 193.878906 L 191.734375 186.679688 L 214.195312 181.238281 L 215.339844 183.332031 L 209.84375 184.550781 L 197.90625 188.0625 L 203.378906 170.375 L 212.808594 136.222656 L 217.046875 122.09375 L 216.898438 121.933594 L 213.019531 131.253906 L 207.046875 131.742188 L 196.113281 100.929688 L 188.582031 75.023438 L 188.851562 65.84375 L 190.953125 57.460938 L 194.28125 63.964844 L 194.8125 67.917969 L 204.445312 64.320312 L 230.390625 59.8125 L 252.882812 40.496094 L 261.03125 30.515625 L 259.285156 30.378906 L 261.5 29 L 266.136719 24.796875 L 268.539062 26.101562 L 264.386719 26.835938 L 251.691406 30.871094 L 250.859375 41.335938 L 233.9375 67.710938 L 222.175781 109.402344 L 220.675781 150.824219 L 227.628906 181.171875 L 228.730469 190.109375 L 228.835938 189.265625 L 222.703125 217.132812 L 223.226562 225.222656 L 226.875 222.953125 L 238.695312 235.910156 L 247.242188 240.882812 L 248.621094 244.828125 L 257.324219 251.332031 L 253.402344 250.078125 L 255.160156 250.875 L 254.433594 252.867188 L 261.640625 255.011719 L 261.175781 256.933594 L 258.917969 251.707031 L 258.238281 245.597656 L 262.339844 240.65625 L 253.011719 242.683594 L 243.417969 223.460938 L 232.660156 194.167969 L 226.121094 160.125 L 220.613281 143.675781 L 210.640625 126.46875 L 201.257812 93.476562 L 194.441406 69.960938 L 192.8125 64.179688 L 191.347656 66.203125 L 188.378906 72.429688 L 188.085938 73.566406 L 188.386719 72.765625 L 188.472656 72.050781 L 188.25 72.453125 L 188.507812 72.414062 L 188.484375 72.683594 L 188.796875 72.117188 L 188.550781 70.945312 L 185.980469 73.242188 L 185.714844 72.902344 L 186.769531 68.824219 L 185.960938 66.851562 L 186.367188 61.074219 L 191.804688 78.695312 L 192.027344 80.289062 L 192.863281 82.386719 L 198.773438 83.707031 L 221.894531 82.78125 L 224.777344 81.261719 L 222.300781 83.890625 L 240.671875 61.773438 L 257.230469 36.191406 L 258.800781 38.480469 L 256.871094 39.761719 L 253.933594 41.683594 L 243.65625 38.445312 L 234.792969 45.492188 L 211.757812 61.488281 L 192.074219 76.6875 L 193.675781 75.199219 L 191.222656 83.707031 L 192.742188 94.222656 L 194.175781 115.476562 L 184.082031 140.25 L 162.488281 159.382812 L 144.753906 172.378906 L 121.394531 201.652344 L 101.898438 227.558594 L 101.042969 229.03125 L 103.9375 227.667969 L 107.179688 229.914062 L 106.851562 237.277344 L 107.042969 237.207031 L 111.1875 233.464844 L 132.339844 224.394531 L 159.648438 224.722656 L 193.234375 229.417969 L 192.0625 230.058594 L 193.238281 233.429688 L 196.691406 235.953125 L 196.976562 232.671875 L 193.101562 217.378906 L 178.535156 217.964844 L 142.152344 221.316406 L 106.453125 227.523438 L 83.992188 229.605469 L 62.472656 232.535156 L 51.121094 237.382812 L 56.8125 243.792969 L 56.113281 247.238281 L 62.132812 243.546875 L 71.359375 245.972656 L 75.070312 236.949219 L 111.714844 228.460938 L 163.917969 221.886719 L 205.019531 231.136719 L 234.140625 239.4375 L 243.320312 241.46875 L 246.746094 241.867188 L 245.738281 242.28125 L 247.925781 244.546875 L 248.878906 247.738281 L 251.039062 250.675781 L 240.417969 236.070312 L 235.058594 242.34375 L 234.796875 234.632812 L 229.023438 231.757812 L 221.957031 232.34375 L 219.335938 229.421875 L 215.03125 224.074219 L 195.933594 214.902344 L 166.320312 202.675781 L 132.484375 193.386719 L 110.566406 185.644531 L 108.984375 185 L 110.25 188.574219 L 86.792969 184.324219 L 66.582031 180.324219 L 63.296875 180.816406 L 75.03125 178.386719 L 78.433594 181.542969 L 69.90625 195.128906 L 53.796875 227.257812 L 38.527344 256.421875 L 43.164062 260.402344 L 38.285156 262.453125 L 42.148438 260.949219 L 41.984375 261.046875 L 43.242188 260.894531 L 39.496094 260.144531 L 32.582031 258.207031 L 31.816406 258.675781 L 31.441406 260.050781 L 32.515625 258.359375 L 51.597656 241.910156 L 73.089844 223.714844 L 78.261719 218.394531 L 88.523438 209.632812 L 103.296875 176.257812 L 114.820312 141.484375 L 129.042969 109.734375 L 134.964844 87.429688 L 138.527344 73.140625 L 135.246094 73.816406 L 132.359375 69.949219 L 129 74.367188 L 105.011719 64.875 L 72.195312 51.992188 L 48.050781 41.03125 L 41.164062 37.125 L 40.257812 35.578125 L 37.425781 32.628906 L 27.800781 23.71875 L 28.894531 22.453125 L 37.875 29.855469 L 37.675781 30.832031 L 37.761719 39.117188 L 41.03125 54.03125 L 45.75 53.363281 L 50.0625 50.644531 L 58.757812 49.792969 L 54.738281 42.726562 L 49.792969 35.265625 L 44.546875 32.957031 L 42.375 34.277344 L 27.21875 20.726562 L 27.011719 20.144531 L 26.660156 18.972656 L 27.144531 18.441406 L 28 17.949219 L 26.878906 18.464844 L 26.945312 21.492188 L 25.390625 27.597656 L 35.503906 34.277344 L 25.589844 30.128906 L 41.773438 31.488281 L 44.339844 43.546875 L 57.375 67.136719 L 58.050781 67.234375 L 59.878906 68.246094 L 86.105469 87.683594 L 121.855469 105.949219 L 137.628906 124.097656 L 140.804688 128.972656 L 140.941406 127.902344 L 140.558594 130.175781 L 140.566406 131.304688 L 139.621094 138.375 L 139.914062 142.382812 L 139.847656 141.933594 L 140.015625 141.164062 L 140.1875 140.378906 L 140.226562 140.417969 L 140.308594 140.363281 L 140.109375 140.84375 L 139.691406 141.472656 L 138.746094 143.253906 L 138.707031 143.351562 L 140.699219 138.460938 L 140.117188 139.867188 L 140.0625 140.160156 L 140.316406 139.878906 L 142.457031 145.691406 L 152.769531 156.558594 L 173.503906 172.859375 L 193.652344 184.800781 L 198.195312 185.828125 L 194.667969 181.929688 L 186.542969 179.058594 L 186.125 170.3125 L 205.609375 147.949219 L 220.667969 132.964844 L 225.234375 127.804688 L 225.832031 120.320312 L 230.488281 115.054688 L 233.226562 115.417969 L 236.523438 111.269531 L 236.210938 112.171875 L 239.007812 113.433594 L 242.070312 113.15625 L 242.476562 114.09375 L 238.121094 111.429688 L 224.96875 117.425781 L 230.648438 87.953125 L 241.269531 57.246094 L 249.964844 33.550781 L 245.265625 34.714844 L 245.160156 43.070312 L 244.15625 59.660156 L 241.144531 72.34375 L 245.636719 70.15625 L 239.914062 71.335938 L 228.535156 92.46875 L 218.285156 127.902344 L 221.003906 162.453125 L 223.839844 198.074219 L 226.65625 226.6875 L 232.890625 230.214844 L 253.992188 249.796875 L 258.691406 256.148438 L 259.496094 257.847656 L 260.707031 256.632812 L 258.859375 255.625 L 257.792969 258.382812 L 260.023438 256.570312 L 260.511719 260.589844 L 263.703125 259.074219 L 263.859375 259.496094 L 266.753906 262.117188 L 268.742188 262.414062 L 267.855469 262.402344 L 268.203125 262.207031 L 262.421875 262.976562 L 257.640625 259.371094 L 253.726562 257.734375 L 255.195312 258.488281 L 256.144531 258.257812 L 255.777344 258.019531 L 257.292969 259.089844 L 259.25 261.050781 L 260.601562 261.066406 L 263.042969 262.308594 L 266.515625 262.484375 L 268.339844 262.070312 L 263.210938 263.628906 L 257.070312 258.441406 L 254.039062 254.5 L 247.324219 236.335938 L 232.238281 208.28125 L 221.984375 191.886719 L 219.445312 175.21875 L 219.011719 148.273438 L 222.003906 114.371094 L 226.074219 89.820312 L 235.992188 69.832031 L 245.027344 50.898438 L 248.308594 51.175781 L 255.203125 49.851562 L 251.417969 51.066406 L 238.351562 53.917969 L 231.769531 80.921875 L 225.863281 129.015625 L 229.023438 167.074219 L 234.125 189.21875 L 236.390625 194.222656 L 235.308594 197.46875 L 235.164062 197.410156 L 233.847656 196.375 L 233.9375 195.34375 L 235.21875 198.066406 L 238.976562 218.320312 L 243.371094 239.597656 L 252.007812 250.785156 L 253.417969 256.667969 L 248.582031 253.738281 L 248.941406 253.195312 L 248.589844 253.402344 L 248.246094 253.582031 L 248.253906 253.605469 L 261.277344 244.226562 L 261.976562 237.480469 L 254.84375 236.703125 L 249.699219 233.546875 L 239.480469 212.871094 L 232.152344 180.125 L 233.605469 171.234375 L 236.390625 168.714844 L 233.691406 166.664062 L 237.289062 164.28125 L 236.917969 166.542969 L 238.183594 167.929688 L 237.847656 171.449219 L 235.757812 177.910156 L 228.558594 179.886719 L 221.792969 196.425781 L 218.269531 209.476562 L 217.972656 205.339844 L 214.695312 215.183594 L 212.765625 225.570312 L 213.195312 219.613281 L 209.394531 227.257812 L 209.75 222.113281 L 205.75 211.15625 L 186.777344 193.273438 L 166.179688 178.285156 L 162.160156 172.71875 L 144.175781 156.117188 L 135.820312 151.066406 L 129.335938 144.277344 L 113.171875 120.632812 L 92.667969 92.703125 L 75.890625 65.214844 L 61.777344 47.75 L 46.824219 41.664062 L 40.398438 35.527344 L 39.234375 36.46875 L 25.316406 28.410156 L 34.910156 37.828125 L 41.015625 31.140625 L 41.164062 29.429688 L 39.800781 32.015625 L 45.628906 41.226562 L 80.128906 61.398438 L 113.628906 65.746094 L 131.796875 60.457031 L 129.589844 61.179688 L 130.382812 61.011719 L 139.582031 61.011719 L 168.597656 56.824219 L 181.289062 55.027344 L 189.90625 54.695312 L 207.707031 52.148438 L 229.863281 50.21875 L 243.023438 46.820312 L 253.582031 38.28125 L 257.769531 34.699219 L 257.136719 34.78125 L 257.507812 32.007812 L 258.304688 34.238281 L 257.867188 33.84375 L 258.425781 32.144531 L 258.550781 31.867188 L 260.035156 32.519531 L 260.359375 32.710938 L 261.34375 31.203125 L 263.46875 29.515625 L 263.285156 30.042969 L 260.894531 34.328125 L 259.214844 32.597656 L 257.773438 31.902344 L 258.480469 32.917969 L 261.394531 31.84375 L 264.910156 26.191406 L 266.609375 25.941406 L 266.800781 24.457031 L 266.359375 23.8125 L 266.660156 23.8125 L 270.050781 21.636719 L 269.535156 20.726562 L 269.613281 20.273438 L 268.953125 21.558594 L 268.394531 26.660156 L 265.300781 29.742188 L 264 31.46875 L 264.160156 32.179688 L 264.195312 32.003906 L 263.761719 31.171875 L 266.339844 27.582031 L 264.652344 26.582031 L 265.144531 26.804688 L 265.246094 26.71875 L 264.851562 26.496094 L 265.195312 26.789062 L 264.65625 26.175781 L 265.035156 26.417969 L 265.015625 26.386719 L 264.902344 26.316406 L 265.34375 26.507812 L 265.238281 26.351562 L 265.308594 26.355469 L 265.492188 26.433594 L 265.453125 26.363281 L 264.855469 26.191406 L 264.632812 26.03125 L 264.679688 26.167969 L 265 26.183594 L 264.953125 26.285156 L 264.839844 25.976562 L 264.785156 26.054688 L 265 26.089844 L 264.835938 25.867188 L 264.90625 26.054688 L 264.992188 26.113281 L 265.121094 26.136719 L 264.917969 26.0625 L 264.96875 25.949219 L 264.816406 25.773438 L 264.960938 25.898438 L 265.140625 26.066406 L 264.964844 26.101562 L 265.035156 25.929688 L 264.84375 25.90625 L 264.929688 25.957031 L 264.808594 25.675781 L 264.921875 25.953125 L 264.878906 25.625 L 264.960938 25.789062 L 264.820312 25.578125 L 264.761719 25.761719 L 265.085938 25.867188 L 264.988281 25.957031 L 265.058594 26.03125 L 265.125 26.0625 L 265.066406 25.992188 L 264.992188 25.726562 L 264.976562 25.742188 L 264.964844 25.761719 L 265.082031 25.992188 L 265.132812 25.992188 L 264.949219 25.996094 L 265.058594 26.199219 L 264.960938 26.183594 L 265.089844 26.085938 L 264.992188 26.0625 L 265.011719 26.183594 L 264.695312 26.613281 L 264.820312 26.433594 L 264.949219 26.066406 L 265.101562 26.191406 L 264.792969 26.734375 L 264.675781 27.046875 L 264.910156 26.8125 L 264.730469 27.175781 L 265.246094 27.847656 L 263.582031 27.484375 L 261.875 28.601562 L 261.65625 29.398438 L 261.785156 30.007812 L 261.257812 29.964844 L 261.683594 29.972656 L 260.515625 30.445312 L 259.730469 33.710938 L 252.402344 37.296875 L 245.949219 39.761719 L 247.109375 38.421875 L 246.140625 38.441406 L 245.398438 38.550781 L 245.535156 39.308594 L 245.316406 39.222656 L 245.453125 39.324219 L 245.832031 39.613281 L 246.050781 39.816406 L 246.148438 39.921875 L 246.417969 39.957031 L 247.0625 39.347656 L 245.980469 39.285156 L 245.316406 41.273438 L 238.105469 46.8125 L 231.90625 55.039062 L 230.492188 54.679688 L 224.308594 58.128906 L 205.566406 73.09375 L 200.890625 78.347656 L 201.523438 74.328125 L 201.636719 74.136719 L 203.398438 74.964844 L 203.113281 74.265625 L 204.71875 76.691406 L 205.285156 78.097656 L 211.882812 84.667969 L 217.929688 82.4375 L 219.683594 79.855469 L 220.285156 76.28125 L 224.054688 61.21875 L 234.5 48.40625 L 238.347656 46.660156 L 242.121094 43.746094 L 239.535156 44.855469 L 240.351562 43.539062 L 250.742188 35.605469 L 248.890625 36.140625 L 247.28125 36.394531 L 244.347656 36.824219 L 245.558594 37.007812 L 244.671875 38.148438 L 242.441406 37.691406 L 242.25 38.25 L 241.734375 38.308594 L 241.042969 38.386719 L 240.660156 38.632812 L 240.625 38.613281 L 240.328125 38.820312 L 240.535156 39.019531 L 240.214844 38.964844 L 240.238281 38.390625 L 240.371094 38.851562 L 240.609375 39.140625 L 240.777344 39.046875 L 240.738281 38.4375 L 240.609375 38.558594 L 240.574219 38.296875 L 240.558594 38.113281 L 240.492188 37.96875 L 240.527344 37.980469 L 240.898438 37.96875 L 240.257812 38.121094 L 240.816406 38.664062 L 240.585938 38.769531 L 239.921875 38.347656 L 240.625 38.316406 L 240.214844 38.546875 L 240.628906 38.753906 L 239.675781 38.238281 L 239.957031 37.40625 L 240.328125 38.253906 L 242.074219 38.945312 L 240.996094 38.121094 L 241.375 38.429688 L 241.496094 39.527344 L 241.988281 38.863281 L 243.011719 38.164062 L 244.40625 38.371094 L 245.902344 36.59375 L 255.542969 30.191406 L 256.050781 30.882812 L 252.808594 32.683594 L 251.480469 33.300781 L 247.71875 40.4375 L 243.085938 50.761719 L 235.78125 58.398438 L 230.691406 61.761719 L 222.5625 64.363281 L 213.984375 72.753906 L 198.105469 93.6875 L 184.402344 113.003906 L 169.082031 127.90625 L 160.039062 138.160156 L 148.375 143.21875 L 158.480469 136.722656 L 161.234375 137.5625 L 161.96875 137.117188 L 161.324219 136.300781 L 161.609375 136.4375 L 161.402344 137.109375 L 161.082031 136.734375 L 161.726562 136.671875 L 161.175781 138.289062 L 153.84375 152.585938 L 141.976562 172.648438 L 122.554688 195.441406 L 95.796875 212.386719 L 74.410156 221.007812 L 59.226562 224.480469 L 51.546875 233 L 51.226562 234.664062 L 50.136719 234.507812 L 50.800781 232.957031 L 54.597656 229.460938 L 58.253906 231.875 L 45.910156 246.792969 L 37.585938 256.921875 L 42.507812 260.289062 L 46.382812 259.226562 L 48.199219 255.035156 L 39.910156 247.394531 L 42.5 252.441406 L 41.40625 250.171875 L 46.128906 243.785156 L 63.996094 218.539062 L 75.265625 182.355469 L 80.652344 154.546875 L 84.023438 136.738281 L 89.070312 117.542969 L 96.25 109.933594 L 106.011719 111.75 L 134.226562 111.320312 L 171.625 109.21875 L 206.570312 105.785156 L 224.453125 104.921875 L 225.039062 103.214844 L 230.746094 103.734375 L 234.960938 102.339844 L 235.289062 102.144531 L 239.5 98.632812 L 242.105469 98.058594 L 242.417969 98.308594 L 243.691406 99.546875 L 244.222656 99.703125 L 241.921875 100.019531 L 227.039062 101.058594 L 220.390625 101.453125 L 219.582031 100.363281 L 219.78125 100.464844 L 221.121094 101.375 L 228.035156 96.675781 L 236.726562 88.898438 L 243.355469 85.640625 L 244.757812 84.453125 L 244.582031 83.3125 L 245.332031 85.378906 L 241.5 84.707031 L 225.324219 83.605469 L 219.386719 86.203125 L 220.65625 86.183594 L 224.214844 88.550781 L 227.03125 90.117188 L 228.144531 91.554688 L 235.390625 95.414062 L 242.269531 94.484375 L 244.917969 91.417969 L 245.203125 90.839844 L 242.957031 92.085938 L 228.863281 94.484375 L 219.503906 94.570312 L 212.671875 111.601562 L 198.367188 154.644531 L 188.738281 187.902344 L 182.015625 208.480469 L 181.113281 211.078125 L 178.917969 213.28125 L 178.269531 213.5 L 179.277344 213.824219 L 180.707031 216.273438 L 188.652344 229.46875 L 194.308594 228.164062 L 205.039062 231.660156 L 209.300781 231.863281 L 219.191406 234.507812 L 239.613281 241.605469 L 247.882812 244.058594 L 248.574219 245.410156 L 251.703125 246.855469 L 250.324219 247.941406 L 249.5 248.457031 L 249.125 248.550781 L 249.203125 248.625 L 255.804688 250.808594 L 255.109375 253.640625 L 249.273438 249.84375 L 249.054688 244.917969 L 247.503906 243.996094 L 243.914062 249.234375 L 246.464844 245.542969 L 246.097656 245.589844 L 246.664062 243.875 L 244.640625 230.488281 L 233.804688 213.644531 L 220.257812 194.21875 L 205.902344 165.039062 L 196.320312 130.308594 L 196.296875 91.953125 L 197.183594 70.015625 L 198.636719 72.140625 L 208.789062 64.132812 L 224.835938 58.6875 L 239.261719 48.925781 L 245.203125 44.492188 L 248.542969 41.15625 L 249.792969 39.796875 L 252.875 35.25 L 251.71875 35.46875 L 256.980469 30.476562 L 257.121094 29.71875 L 257.699219 30.050781 L 258.492188 29.152344 L 261.417969 26.949219 L 261.722656 26.851562 L 261.703125 27.085938 L 261.597656 26.945312 L 260.027344 27.875 L 256.257812 30.175781 L 255.082031 30.90625 L 255.507812 30.714844 L 256.332031 30.261719 L 250.578125 31.785156 L 253.292969 35.511719 L 256.851562 32.761719 L 255.929688 33.152344 L 257.8125 31.828125 L 255.414062 30.953125 L 254.609375 34.152344 L 248.136719 43.265625 L 240.671875 51.484375 L 241.894531 54.121094 L 241.746094 53.699219 L 242.070312 53.03125 L 242.195312 52.9375 L 242.292969 52.53125 L 242.34375 52.46875 L 241.804688 53.246094 L 240.578125 61.875 L 240.40625 60.320312 L 241.167969 56.941406 L 241.734375 56.769531 L 241.441406 56.210938 L 241.34375 55.800781 L 241.875 59.3125 L 240.234375 57.320312 L 237 61.984375 L 240.195312 61.980469 L 240.113281 61.058594 L 240.601562 60.121094 L 240.324219 60.394531 L 240.359375 60.378906 L 239.8125 60.0625 L 239.800781 60.285156 L 240.171875 59.925781 L 240.328125 60.765625 L 240.242188 60.457031 L 239.667969 60.578125 L 240.351562 60.839844 L 239.773438 60.652344 L 240.25 61.273438 L 239.089844 60.171875 L 240.132812 61.304688 L 239.238281 60.570312 L 235.6875 65.003906 L 227.078125 70.882812 L 224.527344 78.082031 L 217.300781 78.621094 L 191.566406 91.078125 L 158.917969 111.457031 L 149.554688 123.445312 L 142.800781 129.777344 L 144.132812 125.28125 L 146.589844 129.375 L 148.621094 137.894531 "/>
<g clip-path="url(#clip-0)">
<path fill="none" stroke-width="1.066978" stroke-linecap="butt" stroke-linejoin="round" stroke="rgb(0%, 71.764706%, 100%)" stroke-opacity="1" stroke-dasharray="4.267913 4.267913" stroke-miterlimit="10" d="M 8.21875 149.792969 L 282.519531 149.792969 "/>
</g>
<g clip-path="url(#clip-1)">
<path fill="none" stroke-width="1.066978" stroke-linecap="butt" stroke-linejoin="round" stroke="rgb(0%, 71.764706%, 100%)" stroke-opacity="1" stroke-dasharray="4.267913 4.267913" stroke-miterlimit="10" d="M 150.476562 279.78125 L 150.476562 5.480469 "/>
</g>
</svg>
