<?xml version="1.0" encoding="UTF-8"?>
<svg xmlns="http://www.w3.org/2000/svg" xmlns:xlink="http://www.w3.org/1999/xlink" width="288" height="288" viewBox="0 0 288 288">
<defs>
<clipPath id="clip-0">
<path clip-rule="nonzero" d="M 8.21875 137 L 282.519531 137 L 282.519531 139 L 8.21875 139 Z M 8.21875 137 "/>
</clipPath>
<clipPath id="clip-1">
<path clip-rule="nonzero" d="M 144 5.480469 L 146 5.480469 L 146 279.78125 L 144 279.78125 Z M 144 5.480469 "/>
</clipPath>
</defs>
<rect x="-28.8" y="-28.8" width="345.6" height="345.6" fill="rgb(100%, 100%, 100%)" fill-opacity="1"/>
<rect x="-28.8" y="-28.8" width="345.6" height="345.6" fill="rgb(100%, 100%, 100%)" fill-opacity="1"/>
<path fill="none" stroke-width="1.066978" stroke-linecap="round" stroke-linejoin="round" stroke="rgb(100%, 100%, 100%)" stroke-opacity="1" stroke-miterlimit="10" d="M 0 288 L 288 288 L 288 0 L 0 0 Z M 0 288 "/>
<path fill="none" stroke-width="1.066978" stroke-linecap="butt" stroke-linejoin="round" stroke="rgb(90.980392%, 49.019608%, 44.705882%)" stroke-opacity="1" stroke-miterlimit="10" d="M 72.03125 144.160156 L 67.722656 140.53125 L 63.4375 133.511719 L 60.558594 110.777344 L 61.953125 93.257812 L 65.457031 75.769531 L 67.117188 68.871094 L 68.003906 62.902344 L 61.832031 45.03125 L 61.609375 42.582031 L 56.925781 34.191406 L 52.242188 35.433594 L 50.949219 35.601562 L 46.476562 31.921875 L 43.53125 30.21875 L 42.667969 30.410156 L 44.976562 29.867188 L 40.617188 28.917969 L 33.484375 21.878906 L 28.902344 20.078125 L 26.011719 19.914062 L 25.429688 20.429688 L 25.488281 24.257812 L 25.613281 21.585938 L 25.257812 21.484375 L 27.964844 25.804688 L 32.839844 35.445312 L 29.742188 26.433594 L 46.121094 34.347656 L 65.019531 49.71875 L 80.765625 56.5 L 97.941406 67.714844 L 110.949219 77.347656 L 130.503906 92.144531 L 143.355469 99.769531 L 162.152344 120.628906 L 170.695312 151.515625 L 175.71875 173.816406 L 174.363281 189.242188 L 170.394531 207.113281 L 171.964844 206.578125 L 173.042969 203.855469 L 168.765625 202.347656 L 160.207031 202.539062 L 137.621094 199.894531 L 112.890625 200.363281 L 107.097656 201.464844 L 108.957031 201.710938 L 110.15625 202.808594 L 108.253906 200.269531 L 108.609375 198.160156 L 108.617188 197.125 L 98.066406 185.566406 L 87.3125 167.164062 L 83.421875 145.300781 L 84.308594 116.851562 L 82.195312 103.421875 L 86.328125 94.613281 L 86.199219 100.265625 L 94.070312 101.628906 L 117.4375 103.378906 L 130.253906 99.675781 L 142.253906 97.472656 L 163.777344 91.332031 L 164.671875 88.839844 L 165.621094 88.457031 L 173.183594 86.824219 L 189.179688 80.296875 L 221.558594 75.789062 L 216.757812 72.957031 L 214.542969 76.515625 L 216.46875 76.796875 L 217.144531 75.589844 L 217.550781 76.105469 L 217.628906 75.738281 L 217.878906 75.953125 L 217.988281 75.429688 L 218.304688 76.015625 L 218.183594 75.9375 L 216.1875 72.757812 L 215.898438 72.769531 L 215.8125 72.417969 L 215.96875 72.492188 L 215.847656 72.421875 L 215.757812 72.097656 L 215.804688 72.015625 L 215.710938 71.957031 L 215.570312 71.949219 L 215.871094 72.011719 L 215.535156 71.847656 L 215.710938 71.851562 L 215.65625 71.832031 L 215.570312 71.878906 L 215.359375 71.871094 L 215.539062 71.945312 L 215.453125 71.921875 L 215.335938 71.886719 L 215.484375 71.929688 L 215.5625 72.097656 L 215.640625 72.109375 L 215.523438 71.929688 L 215.53125 71.941406 L 215.515625 71.957031 L 215.632812 71.957031 L 215.324219 71.785156 L 215.015625 71.777344 L 215.164062 71.804688 L 215.179688 71.871094 L 215.253906 71.867188 L 215.089844 71.792969 L 214.96875 71.738281 L 215.339844 71.925781 L 215.09375 71.761719 L 215.1875 71.871094 L 215.144531 71.632812 L 215.03125 71.71875 L 215.15625 71.710938 L 215.203125 71.722656 L 215.246094 71.703125 L 215.238281 71.761719 L 215.195312 71.648438 L 215.035156 71.601562 L 214.972656 71.621094 L 214.988281 71.667969 L 214.878906 71.695312 L 214.945312 71.652344 L 215.132812 71.765625 L 214.753906 72.492188 L 213.714844 77.496094 L 210.351562 88.539062 L 205 98.09375 L 198.046875 110.351562 L 188.285156 119.296875 L 171.847656 130.828125 L 165.515625 140.863281 L 157.34375 145.796875 L 145.621094 155.277344 L 134.722656 159.710938 L 130.722656 161.796875 L 122.589844 162.492188 L 109.773438 164.671875 L 85.5625 169.6875 L 75.40625 171.378906 L 77.683594 171.523438 L 81.847656 175.3125 L 82.273438 176.609375 L 76.089844 185.085938 L 68.863281 206.570312 L 63.78125 225.863281 L 55.128906 238.886719 L 49.4375 239.71875 L 47.8125 245.921875 L 45.300781 249.351562 L 50.628906 247.6875 L 45.886719 244.3125 L 47.945312 249.753906 L 44.351562 251.726562 L 40.652344 248.453125 L 50.601562 242.046875 L 54.035156 202.542969 L 67.953125 176.976562 L 70.902344 171.675781 L 75.660156 171.480469 L 90.472656 168.808594 L 100.726562 165.503906 L 116.53125 167.421875 L 129.777344 166.738281 L 144.738281 173.542969 L 157.65625 182.410156 L 174.484375 189.800781 L 194.152344 196.625 L 210.339844 206.308594 L 215.558594 206.414062 L 221.269531 208.671875 L 219.769531 207.101562 L 220.488281 207.328125 L 220.429688 208.46875 L 220.144531 210.023438 L 217.445312 210.8125 L 218.910156 213.335938 L 224.863281 211.6875 L 234.761719 221.25 L 243.589844 225.746094 L 252.535156 238.984375 L 257.464844 239.429688 L 260.496094 245.867188 L 259.769531 244.683594 L 256.886719 240.570312 L 256.71875 240.113281 L 256.308594 239.488281 L 256.261719 238.957031 L 260.773438 244.433594 L 257.808594 245.898438 L 254.617188 242.089844 L 248.890625 246.042969 L 237.539062 244.59375 L 222.769531 235.929688 L 210.960938 231.742188 L 202.40625 228.097656 L 187.558594 222.03125 L 177.707031 219.460938 L 179.601562 219.78125 L 178.238281 218.011719 L 176.132812 203.988281 L 175.554688 189.480469 L 175.386719 178.46875 L 179.210938 171.949219 L 176.648438 169.082031 L 171.917969 163.96875 L 160.332031 149.148438 L 150.203125 143.914062 L 135.953125 133.996094 L 121.570312 119.179688 L 109.953125 101.546875 L 95.257812 88.171875 L 74.980469 75.355469 L 65.121094 75.546875 L 66.316406 76.691406 L 61.863281 68.425781 L 48.8125 52.417969 L 48.554688 50.007812 L 45.113281 49.757812 L 43.949219 49.382812 L 44.628906 47.644531 L 43.472656 41.066406 L 34.09375 23.03125 L 31.339844 21.769531 L 33.925781 29.945312 L 35.890625 33.96875 L 37.089844 32.914062 L 36.625 32.945312 L 33.855469 40.523438 L 45.21875 41.003906 L 63.214844 47.339844 L 85.296875 46.4375 L 92.132812 48.164062 L 90.621094 48.054688 L 97.125 48.207031 L 108.792969 50.761719 L 133.15625 55.40625 L 154.703125 58.574219 L 177.210938 62.53125 L 187.3125 64.546875 L 192.160156 76.253906 L 207.359375 104.0625 L 223.59375 139.503906 L 231.136719 161.613281 L 238.0625 187.78125 L 240.308594 205.097656 L 240.203125 203.597656 L 241.347656 204.097656 L 241.285156 221.691406 L 246.378906 226.558594 L 246.234375 224.636719 L 244.617188 223.699219 L 249.03125 232.519531 L 255.480469 236.738281 L 259.769531 240.394531 L 260.398438 242.503906 L 255.574219 235.65625 L 249.964844 238.660156 L 238.113281 241.179688 L 220.738281 232.328125 L 196.089844 219.695312 L 175.828125 213.082031 L 170.882812 211.769531 L 167.515625 205.222656 L 154.363281 193.363281 L 148.238281 182.054688 L 141.855469 168.261719 L 143.253906 161.632812 L 141.386719 158.757812 L 141.402344 158.011719 L 140.964844 157.375 L 140.890625 156.351562 L 140.726562 155.507812 L 140.28125 153.765625 L 140.171875 154.425781 L 140.261719 154.234375 L 140.296875 157.316406 L 140.472656 157.484375 L 140.804688 157.609375 L 140.671875 157.558594 L 140.566406 158.246094 L 140.640625 157.828125 L 140.699219 157.890625 L 140.765625 157.578125 L 140.664062 156.914062 L 140.789062 157.382812 L 140.820312 157.667969 L 141.277344 156.898438 L 141.527344 156.371094 L 141.945312 155.035156 L 143.707031 154.019531 L 143.769531 153.695312 L 143.65625 153.714844 L 143.34375 152.824219 L 143.296875 152.550781 L 143.179688 152.28125 L 143.105469 152.523438 L 143.03125 153.285156 L 142.582031 153.140625 L 142.851562 153.375 L 142.734375 155.269531 L 142.1875 156.566406 L 142.34375 157.046875 L 142.449219 157.058594 L 142.433594 157.140625 L 143.082031 152.925781 L 145.679688 146.902344 L 151.648438 137.960938 L 165.707031 124.324219 L 178.351562 115.316406 L 177.234375 116.089844 L 175.648438 116.414062 L 176.199219 114.84375 L 175.324219 115.667969 L 175.429688 115.882812 L 179.183594 116.042969 L 190.21875 115.679688 L 212.039062 115.632812 L 225.871094 110.351562 L 226.84375 109.316406 L 228.347656 108.832031 L 227.996094 109.214844 L 230.476562 106.121094 L 233.253906 93.476562 L 233.058594 88.089844 L 233.59375 87.996094 L 228.445312 75.007812 L 223.746094 61.234375 L 226.660156 59.191406 L 231.921875 53.871094 L 239.765625 47.984375 L 252.582031 33.769531 L 261.878906 33.960938 L 266.449219 27.660156 L 266.539062 27.714844 L 268.171875 23.105469 L 267.363281 24.851562 L 261.308594 34.21875 L 260.699219 35.492188 L 252.25 32.707031 L 242.886719 39.449219 L 244.21875 39.261719 L 244.238281 39.742188 L 244.296875 40.878906 L 245.96875 40.835938 L 246.152344 40.570312 L 246.441406 39.960938 L 246.492188 39.410156 L 247.226562 39.570312 L 247.84375 39.597656 L 246.890625 38.023438 L 249.363281 38.082031 L 249.5625 37.898438 L 249.707031 36.816406 L 249.835938 36.871094 L 249.847656 36.359375 L 249.613281 36.378906 L 249.425781 36.519531 L 249.078125 36.605469 L 249.757812 36.402344 L 250.125 37.007812 L 250.363281 35.769531 L 250.585938 35.84375 L 250.507812 36.769531 L 250.6875 36.210938 L 250.667969 36.191406 L 250.761719 36.15625 L 250.78125 36.152344 L 250.996094 36.171875 L 250.679688 36.1875 L 250.625 35.902344 L 250.597656 36.191406 L 248.847656 37.085938 L 249.75 36.023438 L 249.148438 36.3125 L 249.007812 38.125 L 246.992188 38.371094 L 249.707031 36.507812 L 250.242188 35.378906 L 250.285156 36.113281 L 250.085938 36.171875 L 250.710938 35.84375 L 250.679688 35.875 L 250.726562 35.8125 L 250.796875 35.867188 L 250.875 35.8125 L 250.746094 35.949219 L 250.28125 36.191406 L 248.78125 36.734375 L 245.726562 39.261719 L 238.238281 46.605469 L 232.820312 51.195312 L 226.21875 64.050781 L 220.773438 75.113281 L 212.613281 81.5625 L 203.421875 90.601562 L 185.6875 104.65625 L 181.8125 105.144531 L 183.417969 104.925781 L 173.195312 118.683594 L 172.8125 125.988281 L 173.804688 120.566406 L 167.25 115.316406 L 147.648438 113.777344 L 134.722656 106.890625 L 121.273438 96.644531 L 104.484375 87.304688 L 88.5625 80.867188 L 69.191406 73.789062 L 62.0625 66.5625 L 62.457031 68.355469 L 63.082031 69.671875 L 61.578125 68.007812 L 59.097656 66.324219 L 50.707031 54.917969 L 41.441406 44.882812 L 37.609375 34.871094 L 38.863281 37.285156 L 37.015625 37.582031 L 33.480469 33.894531 L 35.96875 33.5 L 30.332031 26.15625 L 22.828125 23.671875 L 23.777344 20.226562 L 24.300781 22.726562 L 23.714844 19.601562 L 23.960938 19.347656 L 24.113281 19.398438 L 25.113281 19.589844 L 25.820312 20.386719 L 25.972656 22.679688 L 27.636719 27.570312 L 26.519531 23.148438 L 25.597656 22.019531 L 27.035156 28.742188 L 33.710938 32.582031 L 46.980469 34.59375 L 79.667969 44.808594 L 103.890625 51.328125 L 118.707031 50.886719 L 136.015625 52.390625 L 167.765625 57.945312 L 177.769531 56.992188 L 199.402344 50.339844 L 206.957031 47.484375 L 208.121094 47.589844 L 207.019531 48.328125 L 209.394531 45.785156 L 214.859375 42.617188 L 237.574219 33.871094 L 247.121094 32.964844 L 256.617188 28.175781 L 260.363281 24.652344 L 262.769531 22.699219 L 265.183594 21.25 L 266.414062 20.792969 L 260.066406 22.859375 L 261.003906 22.65625 L 262.390625 23.03125 L 262.519531 21.457031 L 264.464844 21.507812 L 264.867188 21.652344 L 267.597656 19.808594 L 267.386719 20.007812 L 266.691406 20.753906 L 266.128906 22.332031 L 267.113281 24.753906 L 264.320312 28.863281 L 259.679688 29.984375 L 262.378906 31.410156 L 261.621094 31.980469 L 263.164062 31.757812 L 262.507812 27.453125 L 261.589844 25.222656 L 256.367188 29.464844 L 236.304688 41.804688 L 213.230469 55.59375 L 197.953125 63.273438 L 191.714844 68.722656 L 181.832031 78.285156 L 175.984375 89.699219 L 172.238281 99.347656 L 175.308594 106.621094 L 177.136719 108.914062 L 185.171875 120.628906 L 208.527344 139.015625 L 225.59375 149.804688 L 226.8125 153.195312 L 227.105469 153.90625 L 230.445312 160.445312 L 233.996094 179.722656 L 234.46875 190.308594 L 235.261719 188.441406 L 229.78125 195.101562 L 220.574219 207.9375 L 208.78125 220.492188 L 201.574219 221.792969 L 192.03125 225.582031 L 176.402344 225.769531 L 175.832031 227.308594 L 174.84375 226.539062 L 157.503906 221.554688 L 139.160156 217.378906 L 109.101562 210.941406 L 91.730469 211.441406 L 74.527344 221.355469 L 69.5 224.164062 L 68.160156 228.867188 L 64.710938 231.121094 L 61.546875 234.230469 L 59.628906 240.230469 L 58.820312 241.347656 L 58.269531 241.960938 L 58.359375 241.894531 L 58.257812 242.023438 L 58.195312 242.046875 L 58.074219 241.972656 L 58.265625 241.882812 L 58.1875 241.988281 L 58.292969 241.605469 L 54.425781 245.050781 L 49.296875 247.070312 L 39.859375 253.730469 L 37.039062 253.980469 L 28.355469 260.851562 L 23.015625 262.535156 L 22.078125 260.972656 L 24.839844 262.703125 L 23.636719 263.578125 L 22.335938 264.316406 L 22.382812 264.34375 L 21.632812 263.191406 L 22.386719 264.238281 L 21.558594 263.351562 L 21.457031 263.234375 L 21.527344 263.289062 L 21.632812 263.214844 L 21.335938 263.152344 L 21.316406 263.1875 L 21.558594 263.222656 L 21.40625 263.277344 L 21.628906 263.984375 L 20.835938 264.46875 L 21.433594 264.113281 L 34.320312 256.9375 L 39.222656 254.1875 L 38.804688 252.933594 L 32.949219 246.789062 L 49.066406 224.75 L 58.167969 212.007812 L 63.074219 196.40625 L 63.484375 182.085938 L 63.082031 181.167969 L 67.183594 179.226562 L 68.617188 180.675781 L 70.050781 177.929688 L 71.152344 175.300781 L 69.992188 175.292969 L 69.847656 175.527344 L 69.398438 175.417969 L 69.363281 175.609375 L 68.917969 176.214844 L 68.542969 176.957031 L 65.664062 177.820312 L 66.277344 176.992188 L 73.726562 178.40625 L 97.886719 179.691406 L 113.300781 176.882812 L 123.449219 171.027344 L 130.058594 170.019531 L 129.023438 169.304688 L 135.902344 163.519531 L 137.445312 158.949219 L 138.496094 160.921875 L 138.242188 161.121094 L 138.285156 161.085938 L 138.859375 160.609375 L 138.691406 160.296875 L 139.519531 157.933594 L 144.675781 151.609375 L 144.824219 150.609375 L 145.039062 148.820312 L 144.578125 149.957031 L 144.511719 148.441406 L 145.046875 148.503906 L 144.785156 148.523438 L 143.710938 149.613281 L 144.230469 151.929688 L 139.03125 145.964844 L 133.550781 138.34375 L 121.683594 130.820312 L 102.042969 122.410156 L 100.304688 123.574219 L 99.804688 127.65625 L 81.8125 139.664062 L 69.125 148.875 L 68.640625 147.957031 L 65.257812 147.433594 L 62.679688 146.226562 L 62.464844 145.585938 L 62.191406 145.878906 L 63.164062 145.308594 L 68.453125 146.746094 L 64.15625 145.960938 L 62.574219 146.625 L 62.152344 146.203125 L 62.019531 145.875 L 62.074219 145.933594 L 62.164062 145.941406 L 62.21875 145.929688 L 62.152344 146.003906 L 62.132812 146.042969 L 62.226562 146.09375 L 62.3125 146.097656 L 63.949219 146.769531 L 67.046875 146.429688 L 75.941406 144.988281 L 79.828125 133.554688 L 83.582031 127.234375 L 82.144531 129.273438 L 80.4375 130.078125 L 81.027344 129.875 L 82.542969 131.746094 L 84.808594 130.859375 L 101.519531 125.203125 L 110.585938 125.210938 L 118.289062 124.539062 L 131.128906 125.460938 L 138.769531 127.753906 L 139.976562 129.285156 L 148.050781 133.367188 L 162.835938 132.980469 L 186.425781 131.210938 L 192.753906 132.246094 L 189.066406 131.152344 L 193.519531 132.839844 L 194.453125 132.175781 L 208.492188 130.949219 L 214.03125 132.582031 L 224.308594 126.558594 L 230.292969 117.109375 L 231.6875 114.902344 L 229.632812 92.683594 L 226.183594 71.667969 L 225.210938 58.488281 L 232.855469 47.578125 L 238.238281 43.28125 L 237.507812 40.882812 L 238.738281 43.820312 L 237.15625 51.988281 L 236.804688 51.023438 L 244.71875 42.65625 L 254.730469 37.558594 L 257.773438 31.808594 L 259.898438 32.691406 L 254.539062 37.339844 L 252.917969 40.679688 L 252.765625 41.699219 L 253.664062 42.097656 L 251.496094 41.53125 L 248.738281 40.6875 L 254.082031 34.875 L 263.394531 30.316406 L 265.046875 26.742188 L 266.617188 24.324219 L 266.199219 24.511719 L 266.667969 23.902344 L 268.324219 22.660156 L 267.738281 22.710938 L 267.996094 22.863281 L 265.375 26.300781 L 263.988281 31.070312 L 259.890625 27.488281 L 260.214844 23.898438 L 258.460938 31.070312 L 246.019531 41.789062 L 231.140625 54.015625 L 215.003906 55.722656 L 200.617188 56.617188 L 193.722656 54.492188 L 185.882812 55.335938 L 182.941406 53.539062 L 178.484375 53.714844 L 178.851562 52.660156 L 177.949219 53.175781 L 179.03125 54.21875 L 183.160156 52.582031 L 185.027344 52.882812 L 186.367188 53.726562 L 185.992188 54.101562 L 190.703125 51.445312 L 189.164062 53.925781 L 190.433594 52.679688 L 184.195312 60.5 L 162.222656 54.339844 L 136.105469 53.78125 L 131.40625 53.144531 L 132.34375 53.597656 L 133.71875 53.363281 L 131.019531 58.28125 L 118.628906 71.878906 L 110.414062 80.804688 L 94.78125 89.507812 L 79.324219 88.003906 L 60.296875 84.285156 L 63.28125 84.773438 L 61.671875 88.425781 L 57.574219 93.214844 L 56.945312 93.074219 L 56.167969 92.988281 L 56.09375 98.5625 L 57.59375 97.210938 L 65.347656 90.585938 L 69.160156 80.847656 L 69.773438 64.039062 L 64.746094 54.609375 L 66.21875 49.84375 L 64.699219 48.902344 L 58.214844 38.058594 L 47.375 32.851562 L 34.167969 25.253906 L 33.925781 26.160156 L 35.253906 25.53125 L 30.914062 24.3125 L 28.015625 22.152344 L 28.027344 24.3125 L 32.40625 27.207031 L 34.019531 28.03125 L 35.578125 28.695312 L 36.144531 26.621094 L 33.519531 26.25 L 35.589844 28.023438 L 34.324219 28.117188 L 34.738281 36.503906 L 40.917969 44.664062 L 63.804688 64.699219 L 82.804688 79.988281 L 87.757812 88.808594 L 94.617188 92.523438 L 107.398438 106.214844 L 118.753906 127.609375 L 126.503906 144.996094 L 132.164062 165.429688 L 135.433594 169.472656 L 128.976562 176.199219 L 125.394531 181.507812 L 126.859375 183.242188 L 124.609375 180.601562 L 116.527344 186.101562 L 104.789062 190.15625 L 107.714844 188.269531 L 109.363281 186.15625 L 110.90625 184.230469 L 111.527344 183.917969 L 111.296875 184.1875 L 111.621094 185.101562 L 116.167969 192.484375 L 122.101562 199.832031 L 131.699219 197.921875 L 140.136719 198.113281 L 138.578125 199.5 L 144.511719 200.46875 L 139.835938 202.394531 L 136.710938 200.757812 L 150.667969 190.890625 L 163.425781 173.398438 L 171.183594 157.835938 L 170.371094 151.972656 L 172.554688 149.738281 L 172.304688 150.960938 L 169.550781 149 L 167.359375 147.683594 L 164.949219 145.289062 L 162.867188 143.214844 L 155.046875 137.054688 L 154.941406 138.933594 L 148.152344 137.714844 L 138.082031 135.601562 L 133.148438 141.265625 L 120.878906 148.199219 L 110.9375 154.664062 L 107.269531 152.496094 L 94.332031 153.109375 L 93.386719 156.144531 L 92.023438 157.351562 L 94.980469 157.089844 L 98.765625 147.765625 L 103.699219 145.203125 L 113.847656 143.824219 L 115.992188 137.34375 L 119.289062 131.160156 L 124.121094 126.578125 L 122.667969 131.789062 L 136.3125 126.101562 L 147.605469 120.496094 L 156.730469 117.015625 L 181.050781 105.699219 L 194.714844 99.734375 L 212.300781 84.539062 L 230.160156 67.917969 L 241.363281 55.777344 L 241.582031 57.503906 L 240.503906 58.75 L 239.945312 58.3125 L 245.703125 52.726562 L 244.503906 50.683594 L 239.695312 58.164062 L 235.808594 68.597656 L 238.035156 68.617188 L 239.328125 67.34375 L 238.875 68.390625 L 238.3125 69.742188 L 238.4375 69.085938 L 238.785156 68.6875 L 230.789062 84.28125 L 218.558594 105.136719 L 214.472656 119.84375 L 212.125 137.75 L 218.285156 162.089844 L 224.417969 167.519531 L 234.945312 194.625 L 241.683594 203.230469 L 241.324219 207.554688 L 242.433594 206.796875 L 245.121094 210.769531 L 248.167969 221.269531 L 251.765625 234.765625 L 259.363281 247.6875 L 257.773438 246.292969 L 262.320312 250.050781 L 262.273438 257.261719 L 263.25 256.523438 L 266.613281 264.058594 L 269.0625 264.347656 L 268.753906 264.742188 L 268.832031 265.226562 L 269.164062 266.539062 L 268.628906 267.3125 L 267.804688 266.710938 L 260.785156 256.679688 L 261.464844 256.308594 L 266.992188 258.316406 L 265.816406 264.277344 L 266.304688 264.988281 L 261.988281 264.023438 L 258.917969 261.089844 L 253.996094 254.59375 L 254.375 252.53125 L 258.949219 245.117188 L 254.96875 247.105469 L 249.5 232.492188 L 238.414062 215 L 234.753906 200.1875 L 234.820312 185.21875 L 234.082031 167.765625 L 232.675781 139.996094 L 232.136719 123.429688 L 232.226562 121.414062 L 231.289062 125.183594 L 227.707031 125.207031 L 224.914062 118.765625 L 222.011719 112.09375 L 221.09375 108.960938 L 219.707031 107.496094 L 219.671875 107.589844 L 220.074219 108.054688 L 220.804688 108.890625 L 216.890625 108.652344 L 203.515625 102.863281 L 184.1875 99.757812 L 165.164062 97.554688 L 148.519531 96 L 147.339844 96.746094 L 149.449219 97.398438 L 159.011719 91.332031 L 164.699219 82.667969 L 166.457031 82.074219 L 170.28125 88.609375 L 174.113281 92.871094 L 168.71875 88.757812 L 175.164062 83.933594 L 198.511719 72.171875 L 201.609375 74.910156 L 199.417969 69.351562 L 201.542969 63.726562 L 198.523438 64.070312 L 199.511719 72.070312 L 221.917969 82.429688 L 223.878906 82.675781 L 232.429688 77.183594 L 235.816406 69.367188 L 245.238281 57.148438 L 247.523438 51.800781 L 255.269531 44.449219 L 263.753906 32.785156 L 265.898438 25.902344 L 266.582031 25.609375 L 267.929688 24.40625 L 268.308594 22.085938 L 269.109375 23.78125 L 266.257812 28.585938 L 260.480469 30.589844 L 258.84375 30.902344 L 259.515625 31.910156 L 245.824219 34.832031 L 217.023438 45.148438 L 187.105469 53.4375 L 158.46875 56.472656 L 138.832031 55.71875 L 114.507812 53.875 L 90.648438 50.722656 L 68.257812 49.207031 L 55.179688 47.160156 L 48.441406 43.640625 L 33.996094 32.523438 L 29.03125 23.179688 L 30.230469 21.667969 L 34.410156 22.753906 L 38.09375 32.242188 L 42.460938 34.082031 L 47.226562 48.476562 L 53.136719 64.351562 L 58.128906 85.945312 L 59.394531 105.710938 L 61.011719 109.355469 L 61.933594 119.289062 L 62.226562 130.585938 L 60.257812 129.191406 L 59.253906 128.703125 L 58.617188 130.300781 L 58.210938 130.238281 L 58.652344 130.109375 L 58.835938 129.453125 L 59.179688 129.902344 L 58.878906 129.929688 L 58.382812 129.878906 L 58.121094 130.34375 L 57.183594 129.949219 L 58.289062 129.253906 L 58.160156 129.617188 L 58.183594 130.773438 L 58.039062 129.511719 L 58.378906 129.089844 L 59.117188 128.53125 L 59.183594 129.457031 L 61.089844 128.265625 L 64.152344 128.445312 L 61.144531 131.101562 L 60.4375 131.285156 L 60.46875 127.78125 L 58.273438 128.945312 L 57.320312 129.910156 L 56.953125 130.3125 L 56.605469 129.820312 L 56.804688 129.53125 L 57.464844 129.820312 L 58.273438 129.394531 L 60.804688 129.089844 L 61.070312 130.382812 L 61.542969 131.121094 L 63.078125 141.710938 L 73.128906 160.324219 L 76.550781 189.855469 L 81.054688 203.449219 L 81.707031 212.972656 L 83.507812 215.140625 L 85.628906 214.710938 L 81.664062 222.46875 L 71.796875 236.4375 L 53.808594 247.207031 L 49.765625 247.117188 L 43.621094 251.160156 L 48.015625 248.859375 L 51.039062 246.769531 L 49.746094 244.535156 L 45.941406 240.40625 L 46.105469 241.546875 L 40.996094 241.183594 L 38.164062 243.167969 L 41.335938 244 L 40.84375 246.855469 L 24.386719 257.511719 L 21.992188 263.222656 L 21.136719 263.777344 L 20.6875 263.773438 L 20.917969 263.351562 L 26.734375 245.640625 L 29.179688 257.007812 L 29.707031 257.71875 L 30.171875 257.675781 L 29.609375 256.085938 L 28.445312 246.054688 L 35.792969 242.828125 L 66.542969 230.4375 L 86.503906 215.5 L 112.328125 205.234375 L 131.449219 196.71875 L 153.097656 186.863281 L 173.039062 181.484375 L 195.757812 178.128906 L 217.660156 176.230469 L 216.257812 177.15625 L 213.59375 172.234375 L 218.046875 165.855469 L 214.640625 169.910156 L 207.671875 162.996094 L 202.046875 152.890625 L 205.5625 158.226562 L 205.207031 159 L 206.210938 163.554688 L 207.4375 166.085938 L 207.019531 161.386719 L 205.488281 159.132812 L 203.367188 158.554688 L 205.453125 156.3125 L 216.777344 132.546875 L 224.167969 114.066406 L 228.101562 86.523438 L 224.511719 61.808594 L 225.105469 56.765625 L 226.308594 59.058594 L 221.261719 57.1875 L 220.296875 55.597656 L 220.492188 55.472656 L 221.046875 55.457031 L 222.769531 55.230469 L 226.953125 57.367188 L 235.210938 48.121094 L 246.585938 36.542969 L 257.511719 30.867188 L 263.632812 26.617188 L 263.019531 27.933594 L 263.699219 31.867188 L 256.949219 32.679688 L 237.324219 39.46875 L 213.691406 49.207031 L 195.089844 55.085938 L 166.285156 57.734375 L 136.511719 57.394531 L 109.246094 54.167969 L 89.476562 54.203125 L 69.855469 54.070312 L 55.816406 64.855469 L 58.085938 63.921875 L 61.273438 70.796875 L 64.683594 95.78125 L 64.488281 116.234375 L 60.484375 121.949219 L 62.53125 130.269531 L 59.089844 127.460938 L 58.5 130.242188 L 57.738281 130.292969 L 57.554688 130.472656 L 57.703125 130.453125 L 57.9375 130.472656 L 58.050781 130.347656 L 58.019531 130.324219 L 58.3125 130.070312 L 58.679688 129.90625 L 57.703125 130.824219 L 57.574219 130.957031 L 57.875 129.984375 L 57.820312 130.445312 L 60.886719 130.195312 L 64.953125 129.601562 L 67.40625 144.597656 L 80.359375 169.515625 L 87.082031 192.378906 L 89.5625 210.371094 L 86.289062 226.964844 L 82.203125 228.347656 L 81.070312 230.203125 L 82.164062 228.464844 L 82.292969 228.882812 L 83.734375 228.863281 L 81.4375 226.625 L 82.414062 220.902344 L 90.9375 220.039062 L 110.578125 217.679688 L 135.867188 206.039062 L 153.523438 201.550781 L 185.296875 195.871094 L 215.175781 193.382812 L 227.433594 194.113281 L 222.917969 195.757812 L 224.425781 195.449219 L 233.941406 202.421875 L 238.773438 211.734375 L 249.691406 226.671875 L 251.296875 236.503906 L 255.195312 236.332031 L 255.019531 236.75 L 253.570312 235 L 248.730469 234.449219 L 247.59375 238.65625 L 247.972656 241.308594 L 248.015625 239.480469 L 250.101562 243.109375 L 254.164062 249.976562 L 256.199219 249.457031 L 254.441406 252.066406 L 255.933594 255.578125 L 263.285156 259.488281 L 263.972656 263.851562 L 262.359375 257.832031 L 267.121094 261.820312 L 266.957031 264.824219 L 264.992188 264.957031 L 266.949219 265.5 L 267.722656 266.269531 L 253.152344 258.925781 L 254.269531 252.082031 L 253.171875 243.472656 L 237.019531 221.109375 L 232.933594 196.015625 L 230.019531 169.496094 L 229.125 148.195312 L 230.300781 121.492188 L 231.429688 93.164062 L 230.265625 70.078125 L 233.574219 55.699219 L 234.25 49.789062 L 233.378906 49.441406 L 232.769531 49.089844 L 232.21875 49.714844 L 231.859375 49.890625 L 232.285156 50.703125 L 232.746094 52.15625 L 235.84375 52.644531 L 244.457031 42.390625 L 250.292969 42.640625 L 251.929688 35.726562 L 258.75 27.726562 L 260.039062 25.730469 L 260.328125 26.394531 L 260.640625 27.523438 L 259.109375 30.234375 L 256.65625 30.773438 L 256.015625 32.367188 L 255.964844 30.628906 L 254.105469 33.53125 L 251.066406 35.070312 L 254.226562 30.527344 L 255.53125 34.445312 L 257.660156 34.519531 L 253.996094 38.328125 L 244.3125 57.441406 L 233.445312 76.050781 L 222.632812 101.207031 L 219.332031 123.890625 L 220.238281 143.457031 L 221.039062 158.335938 L 226.707031 186.644531 L 233.503906 209.617188 L 238.898438 228.144531 L 240.796875 227.113281 L 238.488281 223.957031 L 241.617188 224.347656 L 242.039062 222.28125 L 240.074219 220.609375 L 235.414062 218.808594 L 226.257812 220.40625 L 210.003906 215.726562 L 188.554688 204.683594 L 157.546875 189.046875 L 143.261719 175.402344 L 139.070312 171.722656 L 137.953125 168.535156 L 139.671875 161.722656 L 138.804688 158.636719 L 139.976562 157.113281 L 139.445312 157.011719 L 139.464844 157.585938 L 139.347656 156.726562 L 139.894531 155.191406 L 139.644531 149.816406 L 139.585938 151.09375 L 140.242188 149.503906 L 140.199219 149.53125 L 139.804688 150.246094 L 139.089844 152.667969 L 138.617188 154 L 139.320312 153.816406 L 139.457031 153.285156 L 140.109375 153.839844 L 140.011719 153.746094 L 140.386719 151.566406 L 141.082031 150.164062 L 141.253906 149.996094 L 141.242188 150.601562 L 139.632812 153.625 L 139.644531 154.089844 L 138.941406 155.28125 L 139.132812 155.0625 L 143.871094 149.832031 L 145.660156 148.078125 L 145.386719 149.980469 L 156.871094 144.242188 L 158.621094 141.015625 L 157.40625 140.40625 L 152.558594 135.523438 L 148.714844 124.816406 L 141.855469 108.101562 L 136.621094 102.902344 L 137.40625 104.628906 L 138.9375 105.117188 L 140.304688 100.078125 L 140.152344 88.429688 L 142.027344 76.417969 L 144.046875 79.285156 L 145.574219 82.839844 L 145.851562 86.195312 L 143.246094 88.582031 L 151.25 85.324219 L 152.367188 84.328125 L 157.253906 83.015625 L 152.089844 77.691406 L 134.101562 62.054688 L 122.625 56.203125 L 117.476562 55.566406 L 101.765625 50.214844 L 80.378906 50.898438 L 65.828125 52.527344 L 59.179688 51.441406 L 54.976562 56.988281 L 54.300781 49.300781 L 48.679688 46.554688 L 41.441406 43.640625 L 38.0625 40.835938 L 33.429688 32.851562 L 30.960938 30.246094 L 25.445312 27.546875 L 26.015625 25.421875 L 26.132812 25.902344 L 26.796875 26.082031 L 26.078125 26.574219 L 25.714844 27.566406 L 26.210938 26.738281 L 26.582031 25.695312 L 25.097656 24.984375 L 21.671875 20.285156 L 24.425781 27.179688 L 23.46875 25.621094 L 26.621094 30.238281 L 26.292969 29.15625 L 24.960938 27.421875 L 28.394531 30.109375 L 29.035156 30.261719 L 30.265625 27.378906 L 29.265625 27.25 L 29.21875 27.988281 L 28.570312 26.304688 L 29.402344 27.269531 L 30.664062 27.480469 L 30.761719 27.660156 L 29.699219 26.519531 L 31.164062 28.695312 L 29.957031 26.480469 L 34.964844 28.222656 L 43.453125 32.890625 L 58.445312 44.582031 L 75.421875 56.863281 L 87.21875 72.078125 L 93.125 84.070312 L 95.847656 96.28125 L 101.015625 106.589844 L 102.417969 111.832031 L 103.46875 120.042969 L 106.394531 129.980469 L 112.472656 143.21875 L 112.867188 149.9375 L 113.03125 157.78125 L 115.085938 171.601562 L 110.496094 182.222656 L 111.675781 181.851562 L 112.046875 181.339844 L 112.085938 181.378906 L 108.96875 183.960938 L 107.699219 182.347656 L 100.089844 181.734375 L 85.582031 180.773438 L 75.628906 182.066406 L 78.769531 187.25 L 77.199219 191.941406 L 74.976562 200.632812 L 77.664062 207.304688 L 76.234375 208.183594 L 76.753906 207.859375 L 75.378906 209.015625 L 75.804688 211.25 L 75.707031 219.84375 L 73.589844 232.511719 L 71.015625 233.640625 L 71.507812 235.839844 L 72.089844 235.039062 L 72.75 234.269531 L 73.515625 234.308594 L 73.210938 234.753906 L 73.070312 234.964844 L 73.171875 234.8125 L 73.101562 234.675781 L 73.332031 234.355469 L 73.261719 234.082031 L 73.359375 234.175781 L 73.585938 233.921875 L 73.640625 231.578125 L 73.816406 231.53125 L 73.730469 231.488281 L 73.84375 231.445312 L 73.976562 231.207031 L 73.875 231.429688 L 73.941406 231.34375 L 73.945312 231.132812 L 73.980469 231.238281 L 73.960938 231.128906 L 74 231.101562 L 73.980469 231.136719 L 74.105469 230.976562 L 74.011719 231.082031 L 74.101562 231.007812 L 74.121094 231.074219 L 74.28125 230.707031 L 74.425781 230.308594 L 73.921875 233.738281 L 73.734375 234.726562 L 73.925781 234.265625 L 73.894531 234.589844 L 73.726562 234.945312 L 73.921875 234.558594 L 73.835938 234.652344 L 74.726562 233.738281 L 74.800781 233.402344 L 74.902344 231.449219 L 74.589844 234.355469 L 74.480469 234.425781 L 74.609375 234.097656 L 74.140625 234.675781 L 72.75 235.820312 L 70.285156 237.78125 L 67.34375 239.855469 L 62.886719 243.054688 L 61.851562 243.078125 L 60.632812 242.214844 L 57.234375 244.375 L 50.386719 247.578125 L 43.34375 251.71875 L 34.128906 250.71875 L 28.726562 255.449219 L 30.121094 254.507812 L 34.910156 251.636719 L 41.488281 251.902344 L 43.167969 250.070312 L 43.917969 249.847656 L 43.957031 248.535156 L 42.449219 248.402344 L 38.523438 245.273438 L 39.921875 252.390625 L 33.304688 247.046875 L 30.90625 248.457031 L 30.816406 249.394531 L 33.003906 255.320312 L 32.234375 253.046875 L 32.46875 255.632812 L 32.089844 253.925781 L 32.667969 255.664062 L 32.726562 255.941406 L 32.09375 253.890625 L 32.308594 253.433594 L 31.90625 252.550781 L 31.683594 253.109375 L 31.445312 252.476562 L 30.558594 252.425781 L 31.121094 252.871094 L 31.414062 256.183594 L 31.234375 254.253906 L 31.691406 256.277344 L 31.789062 254.585938 L 35.375 256.46875 L 35.558594 256.386719 L 33.960938 253.320312 L 36.128906 256.1875 L 36.125 256.210938 L 31.980469 259.003906 L 26.699219 261.054688 L 23.28125 264.3125 L 23.425781 264.417969 L 22.003906 265.320312 L 22.183594 265.328125 L 23.621094 264.222656 L 26.390625 261.109375 L 30.898438 257.476562 L 31.59375 256.285156 L 30.539062 247.503906 L 34.632812 236.78125 L 43.082031 228.460938 L 45.007812 220.664062 L 42.941406 215.890625 L 43.730469 217.09375 L 43.316406 216.519531 L 43.183594 216.582031 L 43.726562 217.4375 L 49.960938 209.730469 L 53.433594 195.074219 L 54.578125 186.046875 L 55.515625 183.261719 L 55.820312 178.355469 L 55.917969 176.113281 L 56.089844 176.359375 L 55.179688 173.25 L 63.671875 160.707031 L 62.679688 155.875 L 65.09375 143.164062 L 63.292969 136.5 L 65.859375 126.964844 L 66.191406 112.320312 L 68.742188 100.03125 L 74.160156 99.0625 L 74.21875 97.578125 L 75.140625 97.667969 L 75.109375 98.492188 L 79.585938 95.558594 L 90.953125 97.625 L 105.015625 102.742188 L 130.601562 108.820312 L 140.960938 110.945312 L 159.183594 113.394531 L 168.191406 117.460938 L 165.550781 121.085938 L 166.375 120.144531 L 165.65625 119.320312 L 166.300781 118.152344 L 162.421875 122.714844 L 160.101562 127.753906 L 155.046875 133.253906 L 153.5 135.542969 L 154.683594 135.203125 L 155.457031 134.25 L 158.28125 134.152344 L 159.816406 132.824219 L 160.5 132.230469 L 159.855469 132.363281 L 154.597656 133.207031 L 156.933594 132.894531 L 157.511719 132.277344 L 156.558594 131.375 L 156.863281 131.972656 L 152.097656 130.617188 L 144.746094 133.28125 L 147.214844 134.199219 L 148.464844 133.203125 L 150 132.128906 L 150.757812 131.921875 L 151.429688 132.417969 L 151.824219 130.769531 L 150.652344 132.238281 L 150.589844 132.03125 L 151.859375 131.050781 L 150.558594 131.515625 L 150.910156 131.761719 L 152.628906 130.691406 L 151.171875 131.203125 L 151.207031 131.570312 L 150.84375 131.464844 L 152.679688 131.9375 L 152.636719 130.519531 L 154.4375 133.132812 L 154.832031 132.851562 L 154.824219 131.847656 L 155.71875 132.992188 L 155.234375 133.535156 L 155.84375 130.976562 L 154.835938 131.40625 L 156.378906 134.851562 L 156.308594 134.414062 L 156.664062 135.78125 L 156.28125 135.257812 L 152.25 136.386719 L 134.488281 141.0625 L 116.550781 149.082031 L 93.589844 160.214844 L 90.503906 157.996094 L 81 153.230469 L 75.554688 152.625 L 69.863281 146.757812 L 67.042969 145.539062 L 68.40625 143.820312 L 68.328125 144.171875 L 73.605469 145.363281 L 64.609375 161.304688 L 61.882812 184.984375 L 66.132812 192.101562 L 66.710938 205.65625 L 71.636719 213.445312 L 71.207031 217.765625 L 70.5 217.351562 L 70.082031 216.746094 L 73.296875 218.890625 L 73.101562 214.871094 L 73.0625 214.492188 L 73.261719 211.839844 L 76.125 214.125 L 79.523438 218.34375 L 81.898438 218.03125 L 97.371094 223.128906 L 129.691406 220.664062 L 152.441406 221.285156 L 171 222.011719 L 188.492188 223.683594 L 187.464844 223.882812 L 189.308594 220.480469 L 205.511719 214.433594 L 226.140625 204.453125 L 230.664062 203.277344 L 232.949219 206.011719 L 226.433594 209.347656 L 228.261719 208.855469 L 231.277344 206.472656 L 238.890625 210.101562 L 245.101562 214.371094 L 246.085938 220.285156 L 243.507812 216.8125 L 242.089844 210.171875 L 238.644531 209.808594 L 234.074219 215.535156 L 226.035156 220.589844 L 213.335938 229.324219 L 206.535156 229.4375 L 188.628906 223.847656 L 164.125 218.65625 L 140.785156 216.121094 L 132.222656 216.367188 L 135.578125 214.105469 L 129.074219 195.585938 L 119.5 166.117188 L 115.246094 161.304688 L 114.601562 163.035156 L 110.847656 162.933594 L 103.613281 158.867188 L 91.945312 156.910156 L 82.820312 155.28125 L 71.65625 157.132812 L 65.851562 153.191406 L 64.738281 149.515625 L 58 124.675781 L 59.699219 97.28125 L 60.820312 79.910156 L 58.652344 61.273438 L 56.070312 46.183594 L 56.695312 44.460938 L 55.125 42.472656 L 54.820312 44.800781 L 49.097656 44.191406 L 48.144531 42.292969 L 47.265625 40.058594 L 48.339844 46.167969 L 55.90625 46.972656 L 68.726562 47.617188 L 93.941406 58.335938 L 112.03125 61.015625 L 138.910156 64.25 L 167.496094 65.097656 L 180.90625 64.433594 L 188.976562 59.019531 L 197.21875 52.867188 L 200.472656 49.207031 L 221.5625 45.457031 L 239.453125 47.542969 L 243.546875 42.65625 L 254.75 32.570312 L 261.539062 30.207031 L 262.765625 27.273438 L 264.0625 24.746094 L 266.078125 21.464844 L 265.5 21.777344 L 265.453125 20.625 L 263.457031 25.027344 L 263.269531 24.179688 L 263.117188 25.386719 L 261.140625 27.296875 L 257.738281 29.867188 L 254.742188 35.972656 L 250.597656 40.15625 L 252.070312 40.230469 L 256.75 38.699219 L 261.699219 33.363281 L 261.527344 34.921875 L 261.25 34.121094 L 260.015625 35.640625 L 248.558594 43.714844 L 245.722656 43.933594 L 246.210938 45.566406 L 245.941406 51.007812 L 246.433594 50.402344 L 246.050781 49.878906 L 246.316406 48.128906 L 246.976562 48.046875 L 246.019531 49.410156 L 245.898438 50.855469 L 245.144531 52.167969 L 238.132812 60.921875 L 219.402344 74.492188 L 196.734375 91.886719 L 187.191406 101.148438 L 176.398438 108.667969 L 166.171875 116 L 159.203125 125.808594 L 153.078125 128.578125 L 153.726562 126.699219 L 156.882812 125.425781 L 156.300781 125.84375 L 151.644531 136.644531 L 147.371094 148.851562 L 144.050781 152.453125 L 142.75 159.480469 L 139.804688 170.898438 L 134.421875 194.046875 L 128.234375 210.835938 L 122.75 219.210938 L 121.546875 220.007812 L 121.601562 216.5625 L 98.085938 223.410156 L 92.296875 227.972656 L 92.65625 227.285156 L 92.386719 227.167969 L 85.574219 230.371094 L 70.894531 236.410156 L 54.800781 245.652344 L 35.222656 252.53125 L 33.75 255.8125 L 38.558594 253.660156 L 36.9375 252.160156 L 41.398438 247.496094 L 41.566406 233.796875 L 43.617188 232.421875 L 48.355469 221.210938 L 55.496094 201.5625 L 64.636719 170.292969 L 70.347656 142.675781 L 68.210938 135.242188 L 67.152344 115.902344 L 74.425781 91.546875 L 84.429688 80.457031 L 94.980469 63.847656 L 93.730469 60.8125 L 94.265625 60.375 L 94.371094 59.214844 L 93.9375 60.390625 L 98.601562 65.652344 L 100.894531 68.785156 L 119.546875 73.121094 L 134.953125 77.820312 L 161.769531 86.628906 L 185.464844 88.691406 L 211.601562 88.769531 L 222.132812 86.714844 L 214.878906 88.972656 L 213.964844 88.847656 L 214.507812 88.902344 L 224.996094 90.550781 L 223.921875 89.300781 L 224.308594 86.191406 L 238.609375 65.578125 L 243.164062 52.722656 L 250.460938 41.09375 L 254.25 38.109375 L 263.058594 31.410156 L 264.511719 27.492188 L 260.847656 34.253906 L 255.226562 36.484375 L 242.296875 37.746094 L 230.367188 37.160156 L 229.160156 42.375 L 228.105469 42.53125 L 227.3125 42.757812 L 224.722656 44.480469 L 192.84375 49.914062 L 160.085938 57.570312 L 145.910156 68.472656 L 135.550781 82.257812 L 126.769531 98.210938 L 123.503906 97.957031 L 123.089844 97.886719 L 123.65625 97.363281 L 125.75 98.769531 L 128.402344 98.773438 L 124.664062 96.144531 L 125.878906 96.929688 L 126.304688 97.195312 L 126.433594 97.167969 L 124.304688 95.375 L 111.898438 90.222656 L 96.804688 82.859375 L 78.570312 70.285156 L 70.105469 63.707031 L 62.144531 65.082031 L 55.328125 65.207031 L 57.6875 63.429688 L 54.84375 57.964844 L 39.691406 38.527344 L 31.894531 25.851562 L 27.796875 19.617188 L 26.671875 18.546875 L 28.222656 21.179688 L 27.746094 24.734375 L 28.617188 24.929688 L 29.515625 25.449219 L 34.4375 30.539062 L 39.128906 37.765625 L 49.390625 47.046875 L 58.820312 62.515625 L 71.265625 86.074219 L 75.621094 111.210938 L 74.554688 129.707031 L 67.726562 135.460938 L 66.199219 141.925781 L 66.21875 140.195312 L 62.851562 138.996094 L 61.027344 139.8125 L 60.230469 139.589844 L 60.054688 139.570312 L 60.457031 140.183594 L 60.273438 139.191406 L 60.96875 139.101562 L 61.804688 140.027344 L 61.972656 139.875 L 62.796875 141.132812 L 64.328125 143.203125 L 67.648438 140.824219 L 73.253906 137.164062 L 79.585938 133.273438 L 79.375 131.394531 L 79.480469 131.0625 L 79.59375 131.023438 L 79.722656 130.445312 L 79.746094 129.417969 L 81.339844 127.421875 L 80.96875 126.761719 L 81.644531 125.960938 L 81.273438 124.660156 L 82.597656 123.617188 L 85.039062 118.738281 L 86.046875 115.519531 L 88.515625 106.296875 L 81.554688 98.105469 L 81.589844 90.835938 L 80.675781 88.574219 L 79.710938 77.949219 L 79 75.886719 L 74.230469 73.207031 L 72.1875 69.660156 L 71.765625 67.734375 L 71.882812 67.753906 L 70.730469 68.132812 L 69.625 66.417969 L 66.390625 60.304688 L 64.484375 58.046875 L 63.34375 55.339844 L 56.191406 49.042969 L 46.078125 49.390625 L 44.003906 45.558594 L 42.300781 45.726562 L 41.503906 43.945312 L 40.394531 45.640625 L 40.203125 45.265625 L 40.132812 42.007812 L 41.261719 41.484375 L 41.808594 42.101562 L 41.597656 41.480469 L 40.511719 42.117188 L 41.703125 42.820312 L 40.117188 42.292969 L 37.488281 39.332031 L 39.132812 40.144531 L 40.859375 37.234375 L 38.839844 35.039062 L 37.21875 36.882812 L 36.445312 36.386719 L 35.578125 36.542969 L 36.8125 33.394531 L 37.535156 33.191406 L 35.925781 33.054688 L 35.222656 32.433594 L 38.601562 34.976562 L 38.355469 29.34375 L 38.082031 31.078125 L 41.65625 36.605469 L 43.003906 40.070312 L 44.335938 48.785156 L 46.726562 54.027344 L 47.121094 53.230469 L 47.660156 51.671875 L 47.835938 52.203125 L 45.722656 50.285156 L 47.453125 49.75 L 57.5625 51.746094 L 72.234375 65.355469 L 83.667969 78.46875 L 78.984375 87.582031 L 73.269531 101.515625 L 66.765625 113.796875 L 67.847656 111.671875 L 71.25 113.707031 L 74.570312 109.808594 L 71.140625 104.976562 L 70.226562 104.664062 L 69.140625 101.238281 L 69.929688 100.941406 L 71.582031 102.335938 L 67.902344 105.964844 L 64.753906 110.453125 L 61.628906 123.160156 L 59.492188 143.382812 L 58.089844 152.304688 L 59.347656 150.433594 L 60.636719 154.457031 L 64.542969 171.011719 L 71.730469 177.351562 L 68.53125 177.289062 L 67.710938 175.363281 L 71.332031 171.457031 L 72.285156 160.886719 L 72.777344 149.246094 L 66.226562 141.277344 L 70.804688 136.441406 L 71.035156 134.914062 L 68.3125 137.304688 L 82.160156 137.855469 L 98.707031 134.589844 L 90.695312 136.265625 L 89.753906 137.4375 L 82.769531 133.320312 L 81.722656 131.421875 L 79.871094 133.574219 L 79.371094 135.863281 L 77.410156 137.996094 L 75.707031 139.847656 L 78.632812 139.851562 L 78.019531 139.527344 L 79.363281 135.824219 L 80.875 131.6875 L 84.183594 131.277344 L 87.761719 130.972656 L 78.542969 131.5625 L 65.324219 132.367188 L 63.203125 133.429688 L 62.5 136.863281 L 61.296875 138.554688 L 61.574219 140.980469 L 63.023438 140.710938 L 63.226562 140.027344 L 64.476562 138.992188 L 66.171875 137.421875 L 66.847656 137.378906 L 66.898438 137.523438 L 69.195312 135.292969 L 70.089844 134.066406 L 70.230469 133.734375 L 67.632812 134.644531 L 67.421875 135.789062 L 63.5625 136.222656 L 63.808594 133.5 L 63.269531 133.613281 L 61.976562 135.011719 L 61.84375 134.871094 L 60.964844 137.363281 L 64.933594 135.632812 L 62.375 136.59375 L 64.863281 136.148438 L 65.164062 134.851562 L 61.976562 137.117188 L 64.761719 135.386719 L 64.28125 135.734375 L 64.511719 134.875 L 63.484375 135.78125 L 63.363281 138.28125 L 64.085938 137.714844 L 61.527344 137.53125 L 61.347656 135.898438 L 64.023438 135.105469 L 63.960938 134.035156 L 64.746094 133.097656 L 63.898438 132.636719 L 62.714844 134.296875 L 62.339844 134.648438 L 61.847656 136.460938 L 61.203125 137.175781 L 66.371094 135.734375 L 62.863281 136.242188 L 61.453125 137.285156 L 63.722656 136.484375 L 65.328125 135.746094 L 63.996094 135.582031 L 63.15625 137.121094 L 63.960938 136.78125 L 68.847656 133.683594 L 68.421875 135.199219 L 64.492188 134.890625 L 63.171875 134.179688 L 67.28125 133.859375 L 63.9375 134.066406 L 63.011719 136.402344 L 61.984375 137.839844 L 66.78125 135.699219 L 66.417969 135.625 L 65.777344 136.40625 L 63.40625 138.085938 L 64.097656 137.324219 L 64.859375 136.121094 L 64.167969 135.5625 L 63.613281 135.957031 L 61.476562 138.363281 L 67.242188 136.113281 L 63.542969 139.320312 L 63.042969 140.394531 L 68.242188 136.5 L 67.023438 136.230469 L 62.382812 136.0625 L 63.398438 135.472656 L 63.183594 133.757812 L 63.507812 134.851562 L 63.988281 134.726562 L 65.300781 134.539062 L 76.851562 130.0625 L 80.730469 127.070312 L 82.734375 124.78125 L 87.671875 124.101562 L 84.414062 123.378906 L 81.195312 123.613281 L 80.4375 123.753906 L 79.363281 124.109375 L 74.3125 125.730469 L 81.179688 123.1875 L 82.988281 124.179688 L 76.734375 127.78125 L 67.382812 136.578125 L 65.601562 135.039062 L 64.65625 136.9375 L 65.941406 137.355469 L 67.140625 136.191406 L 65.640625 139.5 L 62.488281 142.671875 L 62.351562 140.789062 L 64.9375 137.636719 L 61.753906 139.582031 L 64.953125 136.804688 L 62.691406 133.53125 L 61.523438 131.503906 L 61.839844 131.738281 L 64.753906 131.046875 L 76.660156 124.070312 L 80.429688 123.136719 L 79.316406 123.628906 L 81.433594 127.664062 L 78.890625 131.007812 L 67.472656 134.429688 L 66.335938 135.417969 L 69.867188 135.128906 L 69.023438 135.023438 L 74.585938 134.027344 L 72.332031 125.292969 L 70.441406 112.6875 L 67.191406 90.765625 L 62.132812 66.265625 L 54.476562 47.355469 L 57.023438 48.929688 L 59.722656 54.285156 L 64.757812 54.464844 L 64.363281 53.695312 L 77.378906 51.5625 L 80.5 49.128906 L 75.125 53.285156 L 73.753906 68.339844 L 75.660156 73.808594 L 76.570312 81.3125 L 76.449219 108.0625 L 74.609375 125.117188 L 73.820312 134.101562 L 67.90625 141.121094 L 66.050781 144.84375 L 62.332031 141.796875 L 61.804688 140.421875 L 61.339844 140.785156 L 60.128906 147.007812 L 62.507812 140.160156 L 61.484375 142.652344 L 60.445312 146.953125 L 61.484375 142.335938 L 62.902344 141.539062 L 62.226562 141.722656 L 62.117188 140.332031 L 61.8125 142.21875 L 65.4375 139.394531 L 72.140625 137.65625 L 70.167969 137.492188 L 71.496094 141.261719 L 70.796875 139.980469 L 68.480469 139.972656 L 63.007812 138.460938 L 63.257812 136.40625 L 63.769531 137.976562 L 63.519531 137.933594 L 62.332031 137.542969 L 61.914062 137.910156 L 62.042969 137.855469 L 62.171875 137.667969 L 62.414062 137.601562 L 63.027344 137.738281 L 62.699219 140.296875 L 61.613281 142.269531 L 63.273438 141.347656 L 62.269531 140.277344 L 60.578125 139.976562 L 62.261719 143.347656 L 65.71875 136.589844 L 65.503906 138.996094 L 65.542969 143.917969 L 68.222656 141.257812 L 71.867188 140.285156 L 73.097656 143.125 L 71.121094 138.398438 L 70.875 138.847656 L 66.480469 139.003906 L 64.902344 137.21875 L 65.667969 135.898438 L 64.492188 136.027344 L 65.585938 136.023438 L 65.289062 138.714844 L 64.019531 143.28125 L 67.488281 138.148438 L 67.796875 138.441406 L 68.910156 138.300781 L 69.601562 139.390625 L 71.007812 137.328125 L 73.484375 133.574219 L 75.929688 133.757812 L 78.191406 136.113281 L 75.105469 134.632812 L 69.804688 135.84375 L 69.339844 135.050781 L 67.128906 135.222656 L 66.015625 135.359375 L 65.042969 136.847656 L 64.492188 136.097656 L 64.316406 136.625 L 64.210938 136.433594 L 64.007812 136.28125 L 63.679688 136.6875 L 62.339844 137.15625 L 61.929688 136.320312 L 62.8125 134.925781 L 64.511719 134.582031 L 64.238281 134.199219 L 68.492188 132.179688 L 82.832031 129.027344 L 88.980469 130.199219 L 90.410156 130.929688 L 89.992188 132.21875 L 89.460938 132.394531 L 84.976562 133.625 L 70.042969 139.132812 L 63.253906 145.171875 L 65.558594 143.816406 L 67.828125 145.382812 L 71.089844 148.277344 L 77.375 156.78125 L 92.265625 169.5625 L 112.308594 182.210938 L 134.203125 193.894531 L 153.414062 204.441406 L 166.535156 209.492188 L 164.195312 208.238281 L 165.429688 207.597656 L 166.242188 209.710938 L 182.121094 214.738281 L 199.972656 223.019531 L 215.71875 219.890625 L 221.753906 219.195312 L 228.222656 212.777344 L 222.960938 216.566406 L 221.917969 219.089844 L 225.632812 213.171875 L 231.964844 197.828125 L 230.082031 174.605469 L 229.496094 162.6875 L 227.367188 161.113281 L 227.8125 162.613281 L 224.582031 162.058594 L 215.039062 155.570312 L 195.25 144.84375 L 177.484375 137.507812 L 170.945312 137.953125 L 164.234375 136.46875 L 163.425781 137.6875 L 160.027344 138.09375 L 147.210938 139.398438 L 150.761719 141.996094 L 150.484375 142.566406 L 137.988281 151.746094 L 125.167969 165.148438 L 120.253906 169.183594 L 123.023438 170.648438 L 123.570312 169.121094 L 118.1875 172.214844 L 104.355469 191.9375 L 88.792969 212.179688 L 78.40625 223.964844 L 72.476562 231.464844 L 58.894531 242.851562 L 53.804688 246.898438 L 43.648438 251.875 L 30.613281 259.910156 L 31.019531 259.589844 L 28.945312 261.605469 L 29.074219 261.851562 L 34.058594 256.433594 L 37.902344 255.972656 L 31.820312 246.617188 L 40.539062 230.402344 L 45.105469 220.007812 L 50.621094 203.089844 L 56.820312 182.640625 L 59.355469 162.375 L 60.824219 140.679688 L 67.855469 118.011719 L 67.890625 104.621094 L 70.113281 86.15625 L 73.625 65.910156 L 72.9375 61.308594 L 72.152344 56.800781 L 78.855469 58.710938 L 82.105469 61.367188 L 83.21875 59.886719 L 83.144531 59.203125 L 83.214844 60.917969 L 86.082031 68.007812 L 88.898438 81.125 L 85.378906 93.671875 L 78.285156 108.722656 L 68.550781 128.484375 L 61.363281 137.519531 L 61.289062 137.859375 L 61.042969 135.578125 L 60 136.257812 L 60.097656 136.113281 L 59.574219 135.5 L 59.640625 135.417969 L 59.867188 136.523438 L 60.070312 140.542969 L 60.378906 141.972656 L 60.789062 142.121094 L 60.382812 144.207031 L 65.417969 142.636719 L 64.550781 154.585938 L 66.953125 179.769531 L 70.917969 199.792969 L 77.324219 222.3125 L 74.359375 231.152344 L 69.757812 231.816406 L 72.820312 229.140625 L 72.796875 230.476562 L 74.0625 227.84375 L 74.253906 228.21875 L 73.8125 229.207031 L 74.554688 225.144531 L 78.417969 220.363281 L 85.152344 224.378906 L 118.585938 218.160156 L 150.640625 211.632812 L 171.683594 207.226562 L 203.300781 203.769531 L 227.195312 197.027344 L 222.507812 196.5625 L 223.152344 197.335938 L 223.171875 200.492188 L 218.097656 203.429688 L 217.085938 196.214844 L 216.769531 194.574219 L 213.773438 200.945312 L 211.265625 205.300781 L 209.640625 208.554688 L 209.742188 208.878906 L 209.75 209.273438 L 208.675781 210.953125 L 209.527344 213.46875 L 209.761719 213.8125 L 209.410156 215.078125 L 210.300781 216.335938 L 210.355469 216.417969 L 208.851562 217.058594 L 208.726562 217.519531 L 204.09375 215.40625 L 197.363281 206.285156 L 196.410156 208.234375 L 183.847656 205.265625 L 166.058594 196.640625 L 151.410156 181.664062 L 144.738281 173.917969 L 143.324219 159.875 L 141.871094 161.058594 L 142.527344 160.398438 L 141.800781 160.996094 L 141.449219 160.9375 L 140.972656 162.410156 L 141.320312 157.878906 L 141.039062 153.15625 L 139.839844 153.355469 L 139.457031 155.96875 L 139.785156 157.078125 L 139.921875 156.585938 L 139.796875 157.359375 L 140.367188 155.800781 L 140.511719 156.214844 L 139.261719 157.976562 L 139.734375 157.542969 L 143.183594 155.832031 L 140.214844 160.050781 L 139.484375 160.542969 L 137.355469 162.210938 L 134.222656 160.792969 L 137.785156 159.132812 L 139.167969 155.816406 L 145.316406 151.054688 L 142.921875 150.347656 L 140.402344 149.246094 L 139.832031 145.75 L 144.035156 151.753906 L 144.488281 152.429688 L 144.699219 152.445312 L 145.375 152.726562 L 145.433594 156.515625 L 145.996094 158.050781 L 146.785156 159.0625 L 147.058594 158.390625 L 147.132812 155.910156 L 146.085938 154.996094 L 149.507812 146.132812 L 154.007812 145.035156 L 153.34375 145.796875 L 155.921875 144.574219 L 156.351562 144.207031 L 156.015625 143.835938 L 160.445312 141.796875 L 176.386719 127.109375 L 192.023438 118.101562 L 211.449219 108.617188 L 230.4375 93.628906 L 238.34375 84.910156 L 242.0625 71.945312 L 247.011719 63.796875 L 245.957031 57.628906 L 246.675781 58.628906 L 246.234375 55.804688 L 248.121094 42.464844 L 248.3125 41.90625 L 248.492188 42.785156 L 248.296875 42.765625 L 248.578125 43.167969 L 248.667969 43.070312 L 248.222656 42.609375 L 247.746094 42.414062 L 247.171875 40.195312 L 245.8125 40.269531 L 245.816406 44.128906 L 239.105469 44.332031 L 212.753906 51.519531 L 185.929688 56.652344 L 162.566406 58.179688 L 147.503906 55.835938 L 132.746094 55.457031 L 114.886719 53.890625 L 114.660156 52.269531 L 115.1875 53.839844 L 111.789062 58.761719 L 92.53125 68.839844 L 77.238281 74.25 L 64.289062 72.992188 L 61.347656 69.582031 L 61.078125 69.488281 L 63.183594 66.710938 L 63.992188 61.597656 L 53.488281 49.242188 L 41.835938 32.339844 L 29.515625 21.226562 L 30.734375 20.621094 L 35.910156 30.472656 L 36.859375 25.820312 L 41.082031 36.613281 L 44.511719 47.488281 L 50.574219 63.5 L 56.328125 84.75 L 56.691406 89.691406 L 57.800781 89.390625 L 57.394531 90.65625 L 56.5 90.003906 L 57.074219 87.730469 L 56.808594 87.886719 L 57.945312 87.246094 L 56.835938 86.285156 L 56.847656 86.261719 L 56.800781 86.082031 L 56.875 85.332031 L 57.621094 85.898438 L 56.378906 84.667969 L 56.273438 83.949219 L 56.519531 83.457031 L 57 83.804688 L 55.824219 81.113281 L 55.59375 78.351562 L 56.390625 76.582031 L 56.289062 76.492188 L 56.125 76.371094 L 56.230469 75.742188 L 56.574219 74.675781 L 56.757812 75.394531 L 57.1875 81.078125 L 56.441406 81.078125 L 54.476562 77.34375 L 54.15625 78.039062 L 55.234375 77.855469 L 54.90625 77.175781 L 56.273438 76.71875 L 55.613281 76.808594 L 55.234375 77.019531 L 54.949219 77.417969 L 55.695312 76.199219 L 55.84375 77.9375 L 54.714844 75.863281 L 53.894531 75.191406 L 54.65625 72.746094 L 51.320312 71.289062 L 53.019531 75.589844 L 57.960938 91.753906 L 57.089844 104.363281 L 58.664062 124.621094 L 62.097656 130.996094 L 60.703125 129.964844 L 59.410156 132.484375 L 58.269531 135.242188 L 60.074219 136.816406 L 63.199219 134.25 L 64.269531 132.851562 L 63.128906 133.550781 L 62.449219 134.511719 L 59.402344 131.929688 L 60.078125 131.570312 L 59.808594 132.050781 L 58.808594 134.59375 L 59.785156 135.039062 L 60.234375 134.667969 L 59.332031 135.433594 L 58.828125 134.816406 L 58.695312 134.914062 L 58.992188 134.414062 L 58.398438 135.570312 L 58.089844 134.101562 L 58.09375 133.792969 L 58.132812 133.1875 L 58.007812 133.164062 L 57.871094 133.21875 L 57.882812 133.703125 L 57.964844 133.082031 L 58.003906 132.949219 L 58.167969 132.761719 L 58.542969 134.21875 L 60.46875 133.808594 L 60.234375 134.648438 L 58.109375 134.8125 L 58.414062 133.613281 L 58.644531 134.636719 L 60.320312 136.183594 L 61.136719 135.578125 L 61.21875 134.667969 L 61.078125 135.542969 L 62.273438 132.835938 L 63.792969 130.316406 L 64.347656 128.960938 L 62.128906 124.804688 L 61.988281 123.800781 L 62.753906 123.515625 L 65.886719 123.375 L 60.84375 119.988281 L 59.125 110.851562 L 58.925781 106.820312 L 60.949219 107.191406 L 59.449219 106.015625 L 58.824219 105.40625 L 59.289062 105.0625 L 58.128906 102.886719 L 52.695312 96.511719 L 53.710938 95.324219 L 54.074219 93.808594 L 54.394531 92.289062 L 54.394531 92.253906 L 55.84375 90.019531 L 55.425781 91.980469 L 55.644531 92.394531 L 56.042969 99.714844 L 54.410156 102.464844 L 54.070312 101.957031 L 52.746094 103.007812 L 52.128906 104.492188 L 52.140625 106.003906 L 51.808594 106.269531 L 51.734375 107.246094 L 51.535156 107.042969 L 52.449219 108.820312 L 52.320312 108.996094 L 52.144531 109.191406 L 52.402344 109.644531 L 52.253906 110.117188 L 52.28125 109.992188 L 52.40625 109.777344 L 54.335938 108.652344 L 52.40625 108.652344 L 50.957031 106.140625 L 51.964844 107.957031 L 51.546875 111.457031 L 51.144531 111.230469 L 51.144531 111.402344 L 51.050781 111.417969 L 51.019531 111.257812 L 51.265625 111.242188 L 53.625 109.789062 L 52.214844 108.632812 L 52.085938 111.851562 L 50.957031 111.003906 L 52.324219 107.703125 L 51.28125 110.300781 L 50.992188 111.039062 L 51.050781 110.699219 L 51.171875 110.605469 L 51.285156 110.734375 L 51.386719 110.632812 L 53.824219 110.226562 L 52.96875 111.824219 L 54.441406 111.230469 L 57.597656 111.816406 L 57.050781 108.054688 L 57.304688 107.515625 L 55.882812 104.902344 L 53.960938 102.570312 L 54.691406 99.519531 L 52.015625 101.425781 L 50.097656 103.183594 L 50.925781 103.90625 L 50.851562 105.210938 L 50.640625 105.121094 L 50.972656 105.265625 L 51.464844 104.339844 L 52.28125 104.132812 L 57.371094 105.5 L 61.828125 113.023438 L 67.5625 126.097656 L 71.554688 131.765625 L 69.8125 127.289062 L 67.148438 124.105469 L 69.085938 122.792969 L 74.554688 115.03125 L 80.539062 101.527344 L 84.238281 91.425781 L 90.207031 68.488281 L 92.722656 60.03125 L 94.730469 60.261719 L 95.261719 60.792969 L 96.652344 61.566406 L 99.234375 58.996094 L 108.597656 52.464844 L 116.921875 53.070312 L 149.113281 53.402344 L 169.28125 53.808594 L 179.203125 51.59375 L 195.890625 50.03125 L 214.746094 47.507812 L 230.800781 45.515625 L 243.167969 39.761719 L 241.386719 39.078125 L 243.488281 37.921875 L 245.113281 37.75 L 248.253906 35.316406 L 250.464844 28.339844 L 256.273438 27.257812 L 260.308594 23.296875 L 260.335938 23.484375 L 261.980469 24.03125 L 262.695312 23.410156 L 262.742188 23.136719 L 264.570312 19.070312 L 265.363281 19.085938 L 266.652344 19.84375 L 267.996094 18.601562 L 266.59375 18.117188 L 266.878906 17.949219 L 267.613281 18.328125 L 267.90625 18.527344 L 267.164062 18.761719 L 267.9375 19.34375 L 268.449219 19.089844 L 268.210938 19.238281 L 267.277344 19.644531 L 259.429688 22.023438 L 258.863281 22.972656 L 260.066406 25.667969 L 261.878906 29.542969 L 262.953125 30.023438 L 264.332031 27.066406 L 263.824219 28.359375 L 263.164062 28.796875 L 263.570312 29.199219 L 263.738281 29.652344 L 263.957031 29.378906 L 263.820312 29.890625 L 265.21875 27.691406 L 264.703125 27.285156 L 264.273438 27.917969 L 265.070312 27.820312 L 264.8125 27.910156 L 264.332031 28.714844 L 263.695312 29.121094 L 264.238281 28.722656 L 263.796875 28.78125 L 264.074219 28.28125 L 263.886719 28.414062 L 264.46875 28.027344 L 264.179688 29.230469 L 264.046875 28.484375 L 263.164062 29.800781 L 262.992188 28.804688 L 264.628906 27.273438 L 264.34375 27.882812 L 264.71875 27.65625 L 264.1875 28.140625 L 264.433594 27.597656 L 264.253906 27.820312 L 264.027344 28.140625 L 264.417969 27.914062 L 263.902344 28.410156 L 264.058594 28.296875 L 263.378906 28.75 L 263.765625 28.335938 L 263.488281 28.789062 L 263.332031 28.828125 L 263.773438 28.300781 L 263.953125 28.203125 L 263.644531 28.132812 L 263.332031 28.175781 L 263.464844 27.9375 L 262.535156 28.976562 L 262.503906 30.167969 L 264.183594 27.976562 L 263.859375 28.480469 L 264.375 27.253906 L 262.820312 29.722656 L 260.550781 29.421875 L 261.015625 28.964844 L 264.9375 27.40625 L 264.820312 27.257812 L 264.203125 27.707031 L 264.445312 27.917969 L 264.398438 27.488281 L 263.171875 28.402344 L 263.375 28.605469 L 263.75 28.039062 L 265.089844 26.945312 L 264.152344 27.21875 L 263.21875 28.390625 L 260.449219 31.746094 L 255.816406 35.808594 L 255.957031 37.433594 L 254.867188 38.550781 L 255.796875 35.183594 L 257.234375 35.664062 L 255.746094 32.605469 L 255.003906 34.96875 L 256.105469 34.328125 L 255.710938 35.039062 L 255.859375 36.019531 L 255.804688 36.367188 L 255.441406 35.84375 L 255.832031 34.34375 L 253.90625 34.777344 L 253.867188 37.59375 L 250.195312 36.53125 L 241.546875 38.402344 L 228.585938 40.320312 L 223.300781 44.761719 L 207.984375 46.640625 L 201.28125 48.382812 L 193.804688 51.78125 L 184.453125 56.894531 L 163.992188 61.4375 L 151.617188 60.6875 L 142.570312 59.390625 L 143.617188 59.390625 L 144.089844 60.28125 L 144.324219 60.332031 L 145.238281 59.308594 L 146.894531 59.863281 L 145.855469 60.085938 L 144.773438 59.636719 L 142.90625 59.609375 L 144.410156 61.3125 L 144.546875 59.367188 L 143.605469 58.910156 L 143.605469 58.945312 L 143.535156 60.242188 L 144.261719 60.339844 L 143.121094 60.027344 L 143.769531 58.363281 L 143.414062 57.386719 L 144.675781 56.695312 L 146.597656 57.113281 L 146.757812 57.449219 L 145.316406 56.144531 L 146.363281 56.304688 L 146.613281 56.800781 L 145.558594 57.78125 L 140.671875 58.835938 L 122.398438 62.796875 L 103.238281 68.4375 L 78.265625 69.96875 L 63.621094 67.550781 L 50.226562 61.417969 L 46.105469 56.363281 L 44.878906 54.371094 L 45.871094 47.417969 L 41.449219 32.179688 L 39.703125 28.683594 L 33.746094 28.441406 L 34.75 27.84375 L 35.585938 24.820312 L 35.34375 32.492188 L 27.289062 23.851562 L 27.445312 20.128906 L 27.765625 20.296875 L 27.671875 19.535156 L 26.445312 19.019531 L 30.117188 25.667969 L 34.425781 33.972656 L 33.023438 32.351562 L 32.550781 31.9375 L 35.914062 36.316406 L 48.859375 39.363281 L 63.46875 44.097656 L 83.804688 53.78125 L 106.179688 67.191406 L 134.417969 87.824219 L 153.742188 101.058594 L 167.699219 119.230469 L 170.292969 121.453125 L 170.003906 120.246094 L 169.734375 119.285156 L 169.949219 118.558594 L 170.003906 118.847656 L 170.054688 119.394531 L 167.558594 121.941406 L 162.171875 128.097656 L 157.703125 131.902344 L 153.347656 136.480469 L 149.730469 140.597656 L 139.75 153.652344 L 133.734375 160.101562 L 134.832031 158.597656 L 135.460938 158.269531 L 135.328125 157.980469 L 135.558594 157.992188 L 136.21875 160.800781 L 135.527344 167.648438 L 136.703125 173.105469 L 137.332031 176.820312 L 138.175781 178.996094 L 138.269531 178.808594 L 137.023438 179.667969 L 134.636719 182.441406 L 125.230469 192.871094 L 121.089844 199.570312 L 121.765625 198.160156 L 121.640625 198.015625 L 122.171875 197.628906 L 122.148438 197.210938 L 122.609375 196.550781 L 122.53125 197.496094 L 122.730469 197.886719 L 119.28125 202.671875 L 110.574219 213.464844 L 101.496094 215.230469 L 106.667969 218.554688 L 106.511719 218.25 L 106.902344 218.230469 L 106.757812 218.378906 L 105.613281 218.726562 L 100.792969 221.675781 L 93.511719 225.855469 L 90.507812 224.144531 L 88.835938 223.152344 L 88.242188 221.726562 L 88.628906 220.429688 L 88.796875 218.921875 L 90.015625 218.800781 L 90.1875 218.679688 L 90.347656 218.761719 L 90.34375 218.832031 L 90.128906 218.78125 L 85.707031 216.695312 L 80.429688 209.300781 L 79.070312 207.074219 L 78.648438 207.613281 L 78.335938 207.988281 L 76.863281 205.363281 L 76.871094 204.410156 L 76.554688 204.75 L 73.980469 204.589844 L 74.140625 205.972656 L 69.980469 207.132812 L 65.324219 206.988281 L 67.050781 207.203125 L 63.796875 208.738281 L 54.65625 210.460938 L 53.921875 211.34375 L 52.425781 210.769531 L 54.746094 215.699219 L 44.863281 227.914062 L 40.539062 240.449219 L 40.496094 238.296875 L 38.144531 245.308594 L 38.503906 244.433594 L 38.3125 241.4375 L 37.984375 243.148438 L 39.789062 241.550781 L 38.796875 244.769531 L 37.332031 246.984375 L 37.671875 250.722656 L 30.746094 250.773438 L 28.878906 254.425781 L 26.449219 261.105469 L 23.191406 262.558594 L 26.734375 257.300781 L 29.777344 257.898438 L 34.183594 247.433594 L 35.417969 245.179688 L 33.132812 244.21875 L 32.203125 249.367188 L 32.679688 248.167969 L 32.949219 252.304688 L 31.351562 253.722656 L 32.996094 252.023438 L 33.519531 251.785156 L 33.289062 251.988281 L 33.058594 252.652344 L 34.574219 253.453125 L 34.539062 253.496094 L 34.75 253.582031 L 33.542969 248.496094 L 44.242188 236.566406 L 50.214844 227.183594 L 54.316406 215.207031 L 62.667969 198.285156 L 65.886719 179.675781 L 65.992188 155.746094 L 64.128906 143.957031 L 67.570312 147.480469 L 64.613281 147.835938 L 63.367188 149.703125 L 62.464844 149.980469 L 62.917969 149.21875 L 64.539062 148.332031 L 64.898438 147.734375 L 63.222656 149.46875 L 63.582031 150.703125 L 67.441406 151.617188 L 66.105469 154.191406 L 67.921875 151.605469 L 65.871094 153.050781 L 62.519531 152.550781 L 68.160156 149.167969 L 72.554688 148.753906 L 70.386719 145.355469 L 68.4375 146.199219 L 65.6875 145.691406 L 64.871094 145.585938 L 62.953125 146.375 L 61.652344 146.335938 L 62.164062 146.539062 L 68.09375 146.75 L 71.820312 145.339844 L 68.605469 145.703125 L 68.21875 145.382812 L 67.542969 144.449219 L 63.8125 138.722656 L 63.144531 143.761719 L 66.550781 137.691406 L 66.9375 136.609375 L 65.917969 139.753906 L 64.816406 140.125 L 63.808594 141.242188 L 63.53125 141.589844 L 63.058594 141.59375 L 63.296875 142.007812 L 63.0625 141.949219 L 63.074219 142.234375 L 62.09375 141.953125 L 64.449219 142.914062 L 70.804688 142.394531 L 75.582031 138.484375 L 97.320312 132.761719 L 115.714844 129.097656 L 138.171875 126.027344 L 159.671875 122.359375 L 165.785156 117.328125 L 190.484375 113.574219 L 219.898438 108.523438 L 226.246094 104.203125 L 226.960938 103.765625 L 232.695312 99.753906 L 231.472656 99.796875 L 229.464844 100.289062 L 226.453125 105.964844 L 227.808594 109.070312 L 223.46875 109.398438 L 226.285156 114.523438 L 228.328125 115.101562 L 226.363281 122.25 L 223.371094 137.960938 L 220.3125 164.929688 L 224.433594 191.425781 L 231.03125 208.082031 L 234.738281 217.492188 L 239.683594 223.652344 L 246.492188 232.878906 L 247.265625 236.917969 L 248.300781 234.535156 L 257.535156 244.019531 L 258.675781 247.65625 L 261.429688 257.425781 L 257.355469 254.839844 L 263.457031 256.636719 L 269.027344 262.796875 L 270.050781 263.382812 L 269.71875 262.804688 L 266.894531 260.496094 L 264.328125 257.921875 L 263.832031 258.136719 L 260.382812 257.320312 L 257.550781 252.964844 L 256.015625 254.089844 L 256.171875 254.261719 L 248.546875 246.167969 L 244.058594 241.734375 L 233.261719 232.488281 L 226.730469 230.988281 L 224.507812 229.085938 L 207.625 214.433594 L 187.0625 200.765625 L 171.484375 196.398438 L 159.742188 189.027344 L 155.578125 178 L 150.761719 162.417969 L 151.648438 160.226562 L 151.464844 159.859375 L 151.3125 160.761719 L 149.074219 154.644531 L 144.191406 140.691406 L 131.628906 125.183594 L 110.917969 107.667969 L 90.542969 93.316406 L 86.8125 95.855469 L 87.28125 98.398438 L 81.015625 102.058594 L 67.980469 109.128906 L 71.710938 108.796875 L 68.367188 110.957031 L 69.046875 111.121094 L 75.046875 106.414062 L 76.144531 105.335938 L 75.585938 105.875 L 73.125 114.183594 L 66.378906 138.59375 L 66.398438 162.554688 L 62.9375 180.957031 "/>
<g clip-path="url(#clip-0)">
<path fill="none" stroke-width="1.066978" stroke-linecap="butt" stroke-linejoin="round" stroke="rgb(0%, 71.764706%, 100%)" stroke-opacity="1" stroke-dasharray="4.267913 4.267913" stroke-miterlimit="10" d="M 8.21875 138.136719 L 282.519531 138.136719 "/>
</g>
<g clip-path="url(#clip-1)">
<path fill="none" stroke-width="1.066978" stroke-linecap="butt" stroke-linejoin="round" stroke="rgb(0%, 71.764706%, 100%)" stroke-opacity="1" stroke-dasharray="4.267913 4.267913" stroke-miterlimit="10" d="M 144.621094 279.78125 L 144.621094 5.480469 "/>
</g>
</svg>
