<?xml version="1.0" encoding="UTF-8"?>
<svg xmlns="http://www.w3.org/2000/svg" xmlns:xlink="http://www.w3.org/1999/xlink" width="288" height="288" viewBox="0 0 288 288">
<defs>
<clipPath id="clip-0">
<path clip-rule="nonzero" d="M 8.21875 147 L 282.519531 147 L 282.519531 149 L 8.21875 149 Z M 8.21875 147 "/>
</clipPath>
<clipPath id="clip-1">
<path clip-rule="nonzero" d="M 149 5.480469 L 151 5.480469 L 151 279.78125 L 149 279.78125 Z M 149 5.480469 "/>
</clipPath>
</defs>
<rect x="-28.8" y="-28.8" width="345.6" height="345.6" fill="rgb(100%, 100%, 100%)" fill-opacity="1"/>
<rect x="-28.8" y="-28.8" width="345.6" height="345.6" fill="rgb(100%, 100%, 100%)" fill-opacity="1"/>
<path fill="none" stroke-width="1.066978" stroke-linecap="round" stroke-linejoin="round" stroke="rgb(100%, 100%, 100%)" stroke-opacity="1" stroke-miterlimit="10" d="M 0 288 L 288 288 L 288 0 L 0 0 Z M 0 288 "/>
<path fill="none" stroke-width="1.066978" stroke-linecap="butt" stroke-linejoin="round" stroke="rgb(30.196078%, 52.54902%, 77.647059%)" stroke-opacity="1" stroke-miterlimit="10" d="M 241.859375 232.148438 L 240.542969 232.503906 L 236.484375 229.777344 L 234.152344 230.28125 L 234.921875 231.09375 L 235.394531 229.28125 L 235.675781 226.460938 L 236.066406 226.199219 L 235.941406 226.488281 L 236.195312 226.988281 L 238.128906 228.011719 L 239.523438 230.476562 L 237.757812 227.738281 L 238.359375 225.960938 L 236.671875 226.644531 L 234.707031 227.730469 L 234.75 228.007812 L 236.527344 226.394531 L 237.992188 226.503906 L 240.351562 227.503906 L 239.628906 227.117188 L 238.195312 226.007812 L 238.746094 229.101562 L 238.050781 229.542969 L 239.644531 224.613281 L 238.609375 222.234375 L 237.925781 222.0625 L 238.15625 221.226562 L 237.652344 222.523438 L 237.988281 222.046875 L 239.679688 221.574219 L 237.589844 222.507812 L 240.007812 221.90625 L 240.566406 222.644531 L 241.277344 223.027344 L 241.78125 221.679688 L 240.550781 222.695312 L 240.785156 222.257812 L 240.777344 222.359375 L 240.785156 223.582031 L 241.761719 225.167969 L 240.484375 222.824219 L 240.441406 221.863281 L 239.476562 223.621094 L 239.496094 222.644531 L 239.753906 221.824219 L 237.964844 220.960938 L 239.074219 220.355469 L 235.699219 221.226562 L 207.867188 220.648438 L 164.835938 208.722656 L 145.628906 204.804688 L 147.539062 206.210938 L 140.441406 210.277344 L 132.199219 217.925781 L 122.132812 218.710938 L 94.976562 229.285156 L 78.242188 236.53125 L 65.242188 240.664062 L 54.320312 243.121094 L 55.332031 245.230469 L 57.460938 244.546875 L 57.867188 244.3125 L 58.75 244.683594 L 58.84375 244.84375 L 58.835938 244.789062 L 59.925781 244.796875 L 62.003906 248.601562 L 62.246094 248.796875 L 62.105469 248.871094 L 60.585938 245.011719 L 61.742188 248.410156 L 60.039062 244.390625 L 59.859375 244.769531 L 59.636719 245.03125 L 58.992188 244.535156 L 61.785156 249.511719 L 58.84375 244.84375 L 59.390625 244.742188 L 58.257812 243.710938 L 60.253906 248.136719 L 60.742188 248.207031 L 60.554688 248.589844 L 54.433594 245.34375 L 51.5 244.832031 L 48.605469 247.113281 L 32.046875 259.597656 L 29.703125 260.742188 L 30.09375 261.476562 L 29.902344 262.070312 L 27.230469 262.785156 L 28.109375 263.660156 L 38.550781 261.234375 L 41.039062 255.945312 L 42.019531 252.621094 L 54.425781 228.753906 L 66.652344 210.46875 L 67.886719 207.933594 L 70.542969 205.347656 L 85.425781 196.015625 L 106.167969 183.011719 L 127.304688 169.328125 L 146.636719 155.894531 L 156.910156 136.25 L 168.296875 112.480469 L 189.300781 91.660156 L 210.261719 80.085938 L 224.105469 77.847656 L 233.726562 75.808594 L 233.574219 74.367188 L 233.226562 72.941406 L 228.988281 75.679688 L 229.335938 77.597656 L 223.601562 81.773438 L 221.644531 84.214844 L 222.640625 100.460938 L 214.199219 141.488281 L 211.757812 172.996094 L 212.035156 197.59375 L 218.464844 214.832031 L 229.382812 225.921875 L 231.542969 230.164062 L 230.136719 229.726562 L 231.5 232.890625 L 228.375 224.804688 L 235.90625 226.679688 L 241.753906 232.488281 L 243.910156 234.140625 L 254.191406 243.695312 L 255.195312 245.203125 L 255.832031 248.085938 L 258.449219 251.835938 L 258.851562 250.472656 L 257.945312 249.453125 L 257.671875 252.40625 L 258.804688 251.582031 L 258.628906 252.414062 L 262.523438 254.148438 L 263.207031 254.179688 L 261.902344 252.738281 L 262.554688 247.199219 L 252.964844 248.148438 L 250.925781 246.886719 L 245.371094 245.324219 L 243.53125 244.332031 L 246.75 246.21875 L 248.265625 246.738281 L 248.566406 247.058594 L 247.59375 246.257812 L 248.289062 246.058594 L 248.058594 246.175781 L 247.851562 245.636719 L 246.375 244.957031 L 239.066406 231.46875 L 237.242188 227.734375 L 237.667969 225.585938 L 236.289062 225.507812 L 236.4375 225.058594 L 239.210938 228.75 L 235.886719 229.527344 L 231.292969 228.355469 L 229.339844 227.171875 L 226.367188 226.390625 L 226.96875 226.617188 L 226.84375 227.027344 L 226.84375 226.9375 L 226.71875 226.851562 L 226.984375 226.835938 L 226.683594 226.882812 L 230.246094 227.546875 L 231.359375 228.464844 L 231.375 228.207031 L 230.964844 228.046875 L 231.070312 227.777344 L 230.832031 227.53125 L 230.847656 227.535156 L 231.210938 227.007812 L 234.128906 228.554688 L 234.292969 229.328125 L 233.902344 229.996094 L 233.539062 230.164062 L 234.425781 230.410156 L 233.460938 229.96875 L 233.871094 230.007812 L 233.179688 229.828125 L 233 229.835938 L 233.125 229.984375 L 233.15625 230.027344 L 232.84375 229.867188 L 232.738281 230.058594 L 232.453125 230.054688 L 217.84375 230.765625 L 203.617188 224.867188 L 180.1875 216.101562 L 181.167969 215.765625 L 162.214844 213.273438 L 140.78125 201.144531 L 122.492188 189.253906 L 102.964844 179.171875 L 87.839844 172.074219 L 77.503906 168.472656 L 74.050781 165.195312 L 68.34375 143.375 L 63.777344 112.875 L 56.980469 86.539062 L 50.585938 64.976562 L 46.042969 47.714844 L 41.414062 42.707031 L 39.070312 40.234375 L 45.761719 41.015625 L 63.332031 46.597656 L 90.027344 69.789062 L 103.5625 100.144531 L 106.8125 130.875 L 104.425781 156.070312 L 109.324219 185.671875 L 122.398438 200.960938 L 134.671875 213.066406 L 139.621094 210.765625 L 161.519531 202.808594 L 186.148438 198.9375 L 203.523438 208.953125 L 222.796875 228.664062 L 227.285156 231.167969 L 226.734375 229.160156 L 224.339844 228.367188 L 231.996094 228.300781 L 249.625 241.546875 L 246.980469 242.296875 L 243.101562 237.679688 L 236.382812 241.074219 L 236.328125 239.609375 L 227.675781 211.773438 L 213.40625 188.421875 L 198.480469 165.605469 L 187.617188 140.296875 L 180.546875 115.730469 L 188.152344 95.875 L 200.65625 81.085938 L 201.566406 83.066406 L 202.058594 88.703125 L 207.367188 73.519531 L 223.492188 50.0625 L 233.925781 44.0625 L 235.746094 41.457031 L 228.425781 53.457031 L 183.628906 63.070312 L 136.515625 80.539062 L 109.78125 88.480469 L 97.421875 87.332031 L 92.5625 87.339844 L 90.941406 87.144531 L 90.273438 87.273438 L 95.753906 85.003906 L 86.992188 73.476562 L 70.941406 54.316406 L 51.472656 39.496094 L 48.824219 35.042969 L 55.507812 57.1875 L 65.515625 100.898438 L 74.960938 117.613281 L 88.34375 125.550781 L 95.210938 126.917969 L 91.503906 129.871094 L 92.242188 138.378906 L 88.929688 161.980469 L 83.296875 177.988281 L 73.980469 182.261719 L 79.042969 182.027344 L 80.949219 191.375 L 91.761719 205.933594 L 103.679688 218.390625 L 103.558594 222.023438 L 107.519531 227.96875 L 106.550781 227.789062 L 106.082031 228.09375 L 99.847656 228.527344 L 91.65625 229.195312 L 90.878906 229.984375 L 90.628906 228.597656 L 90.40625 228.328125 L 96.421875 221.746094 L 108.742188 223.789062 L 147.273438 220.667969 L 156.664062 222.621094 L 169.914062 222.527344 L 198.476562 224.996094 L 214.644531 224.316406 L 221.890625 228.101562 L 233.976562 233.054688 L 239.335938 232.15625 L 235.269531 228.132812 L 234.015625 211.039062 L 223.957031 197.101562 L 208.574219 181.542969 L 194.535156 161.96875 L 189.878906 151.839844 L 189.453125 141.613281 L 191.769531 121.925781 L 201.804688 100.671875 L 204.816406 97.273438 L 200.515625 106.984375 L 211.386719 118.875 L 220.648438 127.726562 L 222.867188 128.125 L 220.71875 126.859375 L 214.359375 125.683594 L 209.300781 116.789062 L 218.25 122.292969 L 225.632812 146.351562 L 233.707031 182.289062 L 238.355469 200.753906 L 238.902344 200.675781 L 238.785156 200.132812 L 236.40625 208.796875 L 229.488281 216.558594 L 218.40625 221.636719 L 214.84375 217.976562 L 216.222656 217.324219 L 211.847656 215.675781 L 213.128906 211.726562 L 213.023438 210.828125 L 212.234375 207.246094 L 207.3125 187.699219 L 206.117188 188.082031 L 199.695312 203.625 L 187.59375 213.542969 L 184.78125 207.566406 L 183.230469 204.859375 L 183.878906 207.921875 L 174.582031 206.867188 L 160.464844 216.390625 L 140.734375 221.738281 L 119.421875 218.828125 L 93.242188 219.3125 L 77.199219 217.519531 L 71.320312 217.152344 L 66.449219 216.734375 L 59.269531 219.007812 L 49.175781 224.40625 L 48.6875 224.328125 L 53.546875 222.464844 L 61.625 225.683594 L 47.960938 241.140625 L 35.890625 253.410156 L 37.386719 248.777344 L 51.882812 244.722656 L 85.445312 230.175781 L 117.082031 210.832031 L 130.171875 200.679688 L 133.925781 199.746094 L 137.359375 197.109375 L 134.144531 199.441406 L 142.851562 199.683594 L 160.457031 202.132812 L 179.554688 203.902344 L 194.6875 201.144531 L 210.03125 194.179688 L 215.832031 189.464844 L 217.925781 176.050781 L 219.472656 169.855469 L 213.773438 167.90625 L 214.0625 165.5625 L 214.605469 170.871094 L 213.542969 182.167969 L 230.980469 202.945312 L 243.359375 228.773438 L 251.640625 242.632812 L 253.0625 247.402344 L 257.070312 256.628906 L 255.261719 258.703125 L 255.980469 256.871094 L 256.269531 252.949219 L 252.890625 238.566406 L 248.457031 237.59375 L 250.425781 240.394531 L 244.445312 240.78125 L 244.882812 238.878906 L 238.867188 228.476562 L 230.578125 221.8125 L 234.710938 222.515625 L 234.234375 221.746094 L 234.144531 221.265625 L 236.214844 221.734375 L 234.878906 222.550781 L 228.917969 226.414062 L 227.5 227.019531 L 231.175781 224.597656 L 232.875 224.058594 L 233.234375 226.074219 L 237.609375 224.21875 L 238.824219 225.671875 L 238.535156 230.003906 L 234.742188 232.464844 L 235.828125 230.195312 L 235.851562 227.652344 L 235.792969 227.902344 L 234.160156 228.761719 L 223.402344 232.277344 L 221.164062 231.820312 L 219.285156 231.71875 L 210.261719 229.414062 L 205.371094 229.648438 L 202.890625 229.015625 L 202.382812 225.980469 L 202.691406 226.171875 L 204.714844 226.765625 L 204.9375 227.269531 L 205.21875 227.4375 L 205.089844 227.386719 L 205.582031 227.675781 L 205.457031 227.496094 L 205.28125 227.617188 L 205.222656 227.621094 L 205.242188 227.605469 L 205.097656 227.84375 L 205.214844 227.9375 L 204.925781 228.03125 L 205.378906 228.320312 L 204.828125 228.117188 L 205.414062 228.40625 L 205.128906 228.71875 L 210.054688 229.5625 L 210.035156 229.515625 L 210.195312 229.695312 L 209.882812 229.390625 L 209.757812 229.269531 L 209.695312 229.261719 L 209.191406 229.464844 L 209.136719 229.140625 L 209.152344 229.113281 L 209.550781 229.445312 L 209.007812 229.460938 L 174.316406 216.539062 L 152 203.863281 L 150.753906 202.972656 L 132.085938 188.058594 L 117.4375 167.980469 L 107.265625 157.078125 L 108.472656 157.402344 L 108.3125 157.347656 L 108.253906 157.289062 L 108.214844 157.226562 L 104.167969 152.382812 L 89.816406 139.050781 L 83.601562 128.40625 L 81.472656 129.96875 L 80.792969 130.457031 L 74.648438 127.164062 L 73.472656 128.113281 L 74.023438 128.425781 L 75.046875 128.363281 L 76.804688 126.332031 L 78.675781 130.640625 L 78.109375 129.085938 L 77.972656 128.796875 L 78.089844 129 L 78.296875 130.132812 L 78.257812 129.785156 L 79.035156 130.132812 L 80.390625 129.859375 L 79.648438 128.773438 L 81.347656 128.179688 L 80.363281 127.304688 L 75.441406 120.726562 L 71.105469 101.609375 L 68.300781 85.242188 L 63.136719 68.175781 L 56.011719 50.871094 L 46.875 40.121094 L 40.914062 36.449219 L 38.199219 32.660156 L 37.351562 32.550781 L 37.136719 32.363281 L 38.199219 33.621094 L 35.3125 36.820312 L 37.609375 40.058594 L 60.839844 48.542969 L 87.054688 61.027344 L 98.625 64.757812 L 97.546875 64.613281 L 99.019531 65.078125 L 110.097656 74.394531 L 128.144531 89.644531 L 145.496094 106.191406 L 147.65625 109.648438 L 148.628906 110.398438 L 147.785156 109.527344 L 148.429688 109.542969 L 148.046875 109.914062 L 148.21875 109.828125 L 147.46875 110.328125 L 147.023438 120.03125 L 148.816406 128.753906 L 143.496094 147.289062 L 139.960938 168.4375 L 136.152344 190.800781 L 126.429688 213.0625 L 106.886719 227.558594 L 93.269531 221.152344 L 78.800781 217.203125 L 76.191406 216.304688 L 77.449219 217.6875 L 81.792969 212.878906 L 67.457031 205.972656 L 68.113281 198.449219 L 68.332031 181.136719 L 79.753906 157.246094 L 85.027344 150.632812 L 83.40625 151 L 91.796875 149.046875 L 110.730469 139.917969 L 130.070312 133.714844 L 142.335938 129.898438 L 160.046875 136.828125 L 171.804688 151.976562 L 178.683594 165.734375 L 190.988281 183.035156 L 204.476562 189.378906 L 222.582031 203.078125 L 231.527344 213.773438 L 226.992188 219.308594 L 218.28125 224.988281 L 206.816406 223.519531 L 200.789062 224.089844 L 177.996094 213.425781 L 164.007812 203.558594 L 148.101562 194.582031 L 130.128906 186.429688 L 110.976562 182.996094 L 92.109375 181.707031 L 75.484375 181.828125 L 75.328125 181.855469 L 81.328125 177.976562 L 82.5625 164.320312 L 82.558594 164.792969 L 80.75 166.386719 L 75.25 151.277344 L 67.867188 141.617188 L 67.132812 139.59375 L 62.9375 127.695312 L 59.476562 117.277344 L 58.523438 107.382812 L 56.40625 86.800781 L 54.605469 71.835938 L 52.277344 53.996094 L 43.507812 45.457031 L 40.957031 39.613281 L 37.695312 35.191406 L 36.777344 34.988281 L 36.148438 35.410156 L 36.433594 35.621094 L 40.527344 36.671875 L 47.625 39.78125 L 52.949219 39.777344 L 70.140625 51.179688 L 84.828125 71.226562 L 90.910156 86.222656 L 92.574219 85.921875 L 91.710938 84.492188 L 91.628906 84.71875 L 90.410156 86.105469 L 90.832031 84.6875 L 93.742188 100.621094 L 91.335938 112.722656 L 81.113281 132.023438 L 69.644531 150.582031 L 65.445312 171.097656 L 61.988281 183.398438 L 60.4375 185.652344 L 60.339844 186.78125 L 60.804688 199.328125 L 61.191406 223.347656 L 62.5 232.433594 L 62.136719 236.914062 L 68.121094 241.6875 L 68.4375 241.601562 L 68.964844 237.96875 L 87.371094 224.273438 L 112.242188 212.058594 L 123.277344 200.894531 L 134.609375 184.109375 L 135.347656 181.601562 L 130.875 179.4375 L 128.761719 181.769531 L 112.332031 169.835938 L 88.195312 160.703125 L 74.515625 155.511719 L 72.335938 155.980469 L 73.511719 155.589844 L 67.683594 138.722656 L 66.3125 129.371094 L 64.761719 115.675781 L 75.511719 110.996094 L 74.929688 108.144531 L 76.378906 98.507812 L 86.796875 70.558594 L 92.070312 62.679688 L 102.175781 63.996094 L 137.429688 59.304688 L 170.757812 61.070312 L 193.269531 62.847656 L 211.476562 62.59375 L 229.097656 60.988281 L 234.144531 46.5 L 246.65625 33.726562 L 256.832031 24.71875 L 257.78125 22.882812 L 255.542969 25.839844 L 257.445312 24.644531 L 260.71875 22.859375 L 259.890625 22.722656 L 256.445312 25.898438 L 250.671875 31.933594 L 242.265625 53.203125 L 228.425781 86.703125 L 224.433594 109.578125 L 219.960938 114.933594 L 210.855469 129.746094 L 206.589844 153.046875 L 204.449219 181.679688 L 215.414062 204.332031 L 223.84375 220.433594 L 221.058594 227.703125 L 216.546875 231.617188 L 215.75 237.757812 L 214.308594 240.011719 L 216.613281 238.023438 L 222.785156 223.410156 L 233.78125 230.785156 L 245.445312 240.554688 L 250.84375 244.699219 L 257.003906 248.945312 L 250.292969 243.167969 L 248.296875 243.699219 L 247.070312 238.90625 L 247.480469 236.484375 L 253.53125 237.335938 L 235.570312 235.367188 L 226.828125 231.570312 L 225.753906 231.59375 L 226.953125 232.585938 L 229.328125 221.800781 L 220.269531 214.503906 L 208.230469 210.355469 L 192.300781 216.539062 L 173.539062 212.707031 L 152.238281 202.289062 L 131.914062 189.023438 L 119.648438 166.414062 L 106.59375 138.625 L 108.632812 138.015625 L 108.75 138.601562 L 107.664062 138.488281 L 106.554688 137.019531 L 97.703125 132.113281 L 81.878906 123.097656 L 76.664062 119.628906 L 76.117188 109.304688 L 71.484375 78.230469 L 64.113281 57.464844 L 62.9375 54.574219 L 65.933594 62.734375 L 86.707031 63.667969 L 112.492188 85.507812 L 131.441406 105.296875 L 154.722656 130.800781 L 175.007812 153.785156 L 195.183594 171.980469 L 213.742188 183.738281 L 227.503906 201.820312 L 235.796875 218.027344 L 243.9375 231.777344 L 251.128906 241.269531 L 251.351562 240.433594 L 245.769531 237.222656 L 246.171875 238.765625 L 245.042969 234.269531 L 243.328125 236.429688 L 242.796875 235.242188 L 240.113281 230.273438 L 227.898438 229.472656 L 211.277344 229.757812 L 195.386719 227.949219 L 168.726562 223.957031 L 149.652344 224.109375 L 133.523438 223.898438 L 116.144531 218.753906 L 107.984375 217.300781 L 112.992188 215.433594 L 100.785156 214.375 L 76.21875 207.675781 L 70.898438 208.277344 L 60.125 226.949219 L 48.164062 245.289062 L 36.355469 255.742188 L 31.523438 262.519531 L 30.195312 263.800781 L 34.574219 257.34375 L 45.121094 242.390625 L 43.988281 243.230469 L 41.3125 242.480469 L 39.328125 244.796875 L 35.96875 256.140625 L 31.609375 255.765625 L 33.953125 252.363281 L 31.214844 251.9375 L 37.007812 251.429688 L 37.988281 249.382812 L 44.9375 245.015625 L 48.429688 240.726562 L 52.691406 238.6875 L 59.863281 234.730469 L 63.964844 233.808594 L 71.714844 233.125 L 72.722656 234.101562 L 72.289062 233.34375 L 73.035156 233.75 L 73.242188 233.925781 L 73.019531 233.875 L 72.726562 233.742188 L 69.5 233.484375 L 65.046875 233.324219 L 66.4375 236.023438 L 54.894531 243.253906 L 50.222656 246.378906 L 49.457031 246.824219 L 44.492188 256.902344 L 33.570312 256.726562 L 31.480469 259.855469 L 30.730469 259.621094 L 32.59375 258.140625 L 31.625 258.234375 L 31.976562 258.382812 L 29.265625 256.363281 L 29.363281 256.550781 L 30.394531 259.269531 L 29.753906 261.792969 L 30.015625 261.734375 L 28.265625 264.394531 L 24.90625 265.570312 L 27.273438 265.839844 L 30.027344 264.761719 L 34.097656 264.65625 L 34.472656 262.714844 L 33.9375 262.945312 L 33.527344 262.515625 L 33.773438 262.980469 L 33.0625 262.601562 L 33.90625 262.992188 L 37.195312 250.714844 L 52.386719 228.347656 L 66.511719 198.148438 L 73.425781 179.183594 L 78.023438 159.703125 L 76.589844 154.300781 L 70.164062 147.1875 L 72.292969 144.652344 L 75.890625 138.75 L 80.894531 123.03125 L 86.011719 116.292969 L 94.585938 120.089844 L 108.648438 133.355469 L 126.871094 153.371094 L 151.769531 159.355469 L 176.691406 167.792969 L 202.921875 194.777344 L 225.257812 218.378906 L 236.210938 230.765625 L 233.976562 229.046875 L 232.230469 225.957031 L 234.285156 225.714844 L 232.273438 225.371094 L 228.351562 224.984375 L 227.539062 225.242188 L 224.371094 223.390625 L 222.105469 223.945312 L 222.707031 223.929688 L 223.042969 224.765625 L 221.984375 225.964844 L 219.542969 226.359375 L 222.242188 222.910156 L 231.230469 226.601562 L 247.09375 239.226562 L 257.964844 247.667969 L 258.738281 249.625 L 257.867188 250.171875 L 260.539062 251.980469 L 261.996094 257.488281 L 260.273438 253.824219 L 258.8125 257.164062 L 259.164062 256.363281 L 257.164062 249.089844 L 254.628906 244.523438 L 258.226562 238.578125 L 254.097656 240.140625 L 258.144531 236.089844 L 255.105469 243.496094 L 258.832031 249.75 L 258.292969 248.324219 L 263.152344 254.148438 L 265.722656 257.652344 L 265.660156 257.742188 L 265.980469 258.011719 L 267.175781 260.976562 L 270.050781 261.390625 L 269.015625 259.3125 L 269.617188 258.171875 L 268.816406 262.066406 L 267.804688 262.777344 L 266.753906 259.871094 L 263.992188 255.554688 L 263.683594 246.980469 L 261.933594 247.660156 L 262.644531 247.175781 L 262.511719 246.488281 L 261.894531 246.257812 L 261.433594 244.296875 L 261.722656 242.132812 L 254.742188 243.296875 L 261.070312 240.070312 L 262.101562 241.652344 L 263.0625 243.519531 L 263.398438 243.808594 L 264.90625 246.808594 L 266.878906 250.695312 L 267.5625 250.929688 L 266 257.207031 L 268.753906 256.90625 L 268.59375 254.246094 L 264.695312 253.441406 L 255.808594 250.222656 L 252.632812 254.503906 L 252.347656 249.984375 L 254.050781 255.773438 L 253.988281 254.605469 L 254.90625 249.132812 L 252.472656 251.921875 L 253.445312 253.140625 L 254.460938 255 L 251.058594 246.082031 L 243.257812 239.128906 L 239.628906 232.007812 L 234.003906 226.53125 L 227.285156 220.609375 L 228.027344 219.050781 L 228.300781 219.648438 L 228.386719 220.164062 L 228.167969 219.9375 L 228.296875 220.183594 L 228.363281 220.285156 L 228.300781 220.296875 L 228.320312 220.339844 L 228.234375 220.316406 L 228.253906 220.378906 L 228.207031 220.394531 L 229.429688 221.652344 L 221.210938 225.117188 L 216.570312 225.710938 L 199.304688 228.042969 L 195.113281 226.648438 L 192.191406 226.46875 L 177.703125 229.140625 L 178.722656 228.773438 L 159.402344 223.878906 L 159.003906 224.386719 L 159.730469 224.410156 L 160.226562 224.433594 L 159.15625 224.40625 L 159.425781 224.40625 L 160.269531 224.378906 L 160.371094 224.355469 L 159.445312 224.40625 L 160.667969 224.472656 L 164.003906 224.613281 L 164.15625 224.078125 L 163.613281 223.933594 L 163.242188 223.722656 L 163.167969 223.710938 L 164.054688 223.972656 L 164.046875 223.996094 L 163.210938 223.816406 L 162.972656 223.761719 L 164.105469 224.042969 L 164.234375 224.050781 L 163.171875 223.828125 L 163.324219 223.867188 L 164.0625 224.039062 L 164.300781 224.113281 L 163.308594 223.929688 L 163.214844 223.886719 L 164.082031 224.082031 L 164.320312 224.152344 L 163.28125 223.945312 L 163.34375 223.972656 L 164.144531 224.09375 L 164.382812 224.15625 L 163.414062 223.964844 L 163.339844 224.007812 L 164.171875 224.109375 L 164.4375 224.195312 L 163.304688 223.996094 L 163.535156 224.042969 L 164.515625 224.1875 L 179.765625 230.3125 L 180.519531 230.242188 L 181.03125 230.136719 L 181.292969 230.074219 L 181.570312 230.03125 L 181.394531 230.0625 L 181.6875 230.113281 L 182.015625 230.039062 L 182.257812 230.019531 L 182.238281 230.019531 L 182.1875 230.054688 L 182.460938 230.046875 L 182.152344 230.050781 L 182.550781 230.027344 L 182.234375 230.058594 L 182.523438 230.035156 L 182.046875 230.054688 L 182.410156 230.007812 L 181.949219 230.050781 L 182.246094 230.035156 L 181.542969 230.195312 L 181.65625 230.175781 L 181.765625 230.125 L 181.699219 230.148438 L 172.636719 216.347656 L 173.253906 216.027344 L 177.746094 214.898438 L 183.027344 212.039062 L 189.191406 211.953125 L 199.273438 215.347656 L 207.253906 219.308594 L 209.5 225.351562 L 221.242188 232.050781 L 239.632812 241.304688 L 252.300781 251.710938 L 256.601562 253.699219 L 249.589844 254.738281 L 250.246094 247.445312 L 250.355469 246.230469 L 251.304688 254.585938 L 255.28125 253.464844 L 240.21875 250.609375 L 239.246094 249.421875 L 239.011719 244.597656 L 241.070312 222.964844 L 231.210938 190.183594 L 225.09375 154.242188 L 229.726562 124.722656 L 232.15625 101.804688 L 231.535156 78.9375 L 244.0625 45.402344 L 255.75 31.660156 L 262.832031 26.210938 L 265.792969 21.785156 L 263.839844 24.28125 L 253.875 32.042969 L 240.609375 37.199219 L 225.816406 46.605469 L 202.273438 52.207031 L 167.261719 60.558594 L 138.535156 62.027344 L 107.78125 56.074219 L 76.289062 49.242188 L 55.199219 41.863281 L 45.480469 32.828125 L 44.519531 31.136719 L 44.9375 31.230469 L 44.667969 31.882812 L 45.28125 31.859375 L 45.539062 32.519531 L 45.6875 32.699219 L 45.324219 33 L 47.648438 30.527344 L 50.148438 35.75 L 49.535156 38.625 L 49.113281 48.292969 L 56.277344 62.796875 L 57.558594 82.175781 L 60.785156 92.542969 L 62.078125 100.574219 L 64.078125 109.066406 L 68.742188 118.882812 L 73.914062 136.660156 L 67.039062 151.367188 L 63.425781 174.8125 L 63.136719 180.453125 L 67.273438 175.082031 L 66.777344 173.675781 L 66.957031 172.101562 L 68.558594 170.992188 L 70.027344 165.523438 L 69.542969 166.222656 L 71.636719 166.554688 L 72.390625 165.367188 L 71.5625 165.65625 L 70.796875 170.867188 L 67.0625 190.597656 L 70.460938 208.292969 L 68.546875 201.214844 L 67.21875 200.453125 L 66.296875 198.484375 L 69.179688 199.957031 L 78.03125 209.339844 L 88.472656 221.90625 L 91.183594 213.851562 L 99.785156 204.886719 L 97.308594 191.851562 L 82.234375 172.402344 L 72.25 160.519531 L 67.890625 139.515625 L 70.429688 104.273438 L 76.894531 80.570312 L 80.707031 62.046875 L 70.527344 60.246094 L 58.4375 49.976562 L 46.890625 45.242188 L 35.621094 34.40625 L 21.78125 20.582031 L 21.734375 19.527344 L 22.972656 19.699219 L 22.425781 21.445312 L 22.703125 21.992188 L 25.957031 23.269531 L 33.972656 36.585938 L 43.917969 34.921875 L 60.386719 45.285156 L 82.1875 66.65625 L 90.363281 76.679688 L 88.480469 76.726562 L 88.640625 77.425781 L 88.453125 77.140625 L 87.402344 79.875 L 87.597656 101.363281 L 82.894531 121.160156 L 73.753906 130.011719 L 69.765625 135.890625 L 68.292969 139.8125 L 67.367188 158.480469 L 61.019531 183.292969 L 55.085938 207.625 L 49.78125 229.1875 L 50.925781 228.734375 L 51.34375 228.761719 L 56.453125 230.628906 L 56.761719 233.484375 L 54.433594 233.585938 L 54.144531 227.621094 L 53.804688 224.277344 L 61.371094 227.398438 L 82.636719 231.992188 L 103.046875 228.597656 L 129.941406 222.632812 L 142.066406 222.699219 L 157.984375 219.761719 L 172.636719 218.371094 L 184.257812 215.183594 L 209.25 222.949219 L 220.859375 227.324219 L 238.8125 233.675781 L 245.597656 239.738281 L 249.207031 244.011719 L 259.402344 250.851562 L 261.53125 252.6875 L 261.664062 254.375 L 263.351562 253.164062 L 265.480469 249 L 257.945312 242.113281 L 252.714844 245.527344 L 238.652344 241.460938 L 230.597656 234.890625 L 227.664062 229.503906 L 226.046875 226.808594 L 227.0625 227.085938 L 224.550781 227.945312 L 228.40625 230.464844 L 227.882812 231.527344 L 221.21875 230.199219 L 227.65625 230.371094 L 226.152344 225.789062 L 225.195312 211.828125 L 225.414062 186.046875 L 219.074219 161.847656 L 209.828125 138.644531 L 203.113281 117.195312 L 197.550781 94.894531 L 193.867188 72.429688 L 197.328125 61.109375 L 206.414062 58.609375 L 214.03125 50.539062 L 209.957031 52.03125 L 212.582031 50.527344 L 219.351562 48.464844 L 217.945312 46.007812 L 217.796875 45.144531 L 218.480469 45.167969 L 218.96875 44.683594 L 219.027344 44.136719 L 217.246094 45.304688 L 217.472656 45.042969 L 217.527344 44.605469 L 223.894531 41.960938 L 229.070312 39.761719 L 238.648438 34.984375 L 244.675781 31.257812 L 238.914062 30.511719 L 235.929688 32.554688 L 238.09375 32.414062 L 247.339844 28.613281 L 239.234375 33.714844 L 235.375 37.328125 L 233.242188 51.976562 L 225.167969 77.71875 L 219.179688 95.234375 L 220.320312 112.875 L 225.269531 127.789062 L 224.441406 142.0625 L 230.855469 164.953125 L 233.058594 176.296875 L 232.371094 175.476562 L 231.894531 176.859375 L 227.226562 190.367188 L 221.324219 194.339844 L 210.382812 207.3125 L 209.96875 215.574219 L 219.394531 222.703125 L 240.949219 234.339844 L 254.253906 245.738281 L 253.277344 247.574219 L 252.460938 247.269531 L 257.410156 253.933594 L 260.695312 260.414062 L 261.199219 259.9375 L 258.34375 258.117188 L 259.929688 256.125 L 258.863281 256.226562 L 252.15625 249.835938 L 246.53125 227.832031 L 231.167969 206.648438 L 218.390625 177.515625 L 207.164062 156.21875 L 200.894531 143.859375 L 202.71875 148.074219 L 199.777344 147.351562 L 192.261719 141.152344 L 167.992188 128.449219 L 170.277344 128.328125 L 169.882812 128.132812 L 169.976562 127.878906 L 169.824219 127.960938 L 169.839844 127.890625 L 165.25 123.105469 L 146.695312 108.09375 L 124.910156 89.503906 L 106.285156 73.582031 L 83.457031 54.226562 L 64.65625 50.445312 L 47.542969 47.417969 L 46.351562 47.773438 L 49.722656 47.074219 L 49.996094 47.6875 L 50.101562 46.628906 L 49.25 48.269531 L 46.820312 50.3125 L 44.425781 48.257812 L 42.347656 47.183594 L 36.828125 44.074219 L 37.359375 42.992188 L 46.21875 44.898438 L 42.75 41.128906 L 39.339844 37.734375 L 22.238281 21.28125 L 22.992188 19.535156 L 39.84375 26.550781 L 36.53125 30.550781 L 36.828125 34.191406 L 36.289062 31.980469 L 36.179688 31.9375 L 35.960938 30.875 L 36.082031 29.984375 L 35.820312 29.671875 L 35.714844 29.265625 L 28.839844 19.941406 L 37.921875 31.496094 L 44.921875 41.109375 L 51.773438 46.757812 L 63.6875 55.253906 L 84.269531 67.75 L 97.960938 79.472656 L 97.230469 77.9375 L 97.101562 78.449219 L 95.996094 77.375 L 96.988281 78.234375 L 96.34375 77.757812 L 108.4375 84.238281 L 130.664062 93.941406 L 148.070312 107.070312 L 164.46875 128.367188 L 175.429688 153.601562 L 184.421875 177.746094 L 191.476562 201.964844 L 198.808594 218.53125 L 211.605469 223.066406 L 231.363281 229.167969 L 246.007812 237.644531 L 241.976562 234.964844 L 241.515625 233.726562 L 238.167969 232.382812 L 238.410156 231.421875 L 236.417969 230.273438 L 234.699219 227.832031 L 234.636719 225.488281 L 234.210938 225.242188 L 234.492188 225.753906 L 236.726562 229.628906 L 247.101562 239.246094 L 256.945312 247.429688 L 265.371094 248.578125 L 267.277344 250.023438 L 267.289062 249.492188 L 267.644531 250.433594 L 267.722656 250.367188 L 267.761719 250.222656 L 267.425781 249.964844 L 264.453125 246.953125 L 263.585938 244.632812 L 256.964844 253.257812 L 258.023438 256.574219 L 262.484375 255.1875 L 265.480469 257.164062 L 261.039062 250.152344 L 253.941406 243.144531 L 250.898438 242.105469 L 250.917969 242.695312 L 251.851562 243.417969 L 246.027344 241.84375 L 230.855469 234.824219 L 229.605469 230.921875 L 226.230469 226.984375 L 219.703125 219.359375 L 208.363281 196.039062 L 199.03125 173.210938 L 190.632812 160.960938 L 192.925781 162.792969 L 176.664062 172.9375 L 158.585938 186.933594 L 154.894531 196.910156 L 145.8125 213.660156 L 135.832031 218.117188 L 104.664062 229.238281 L 105.023438 228.3125 L 95.136719 225.605469 L 82.988281 222.277344 L 69.503906 216.453125 L 71.105469 221.464844 L 57.421875 231.527344 L 56.710938 240.773438 L 49.144531 248.386719 L 42.253906 261.75 L 40.214844 262.070312 L 40.285156 262.296875 L 39.234375 262.5625 L 33.945312 265.15625 L 33.371094 264.71875 L 30.636719 266.136719 L 25.921875 266.644531 L 24.703125 263.609375 L 27.699219 265.070312 L 36.980469 262.859375 L 40.515625 259.765625 L 40.101562 259.402344 L 38.863281 258.210938 L 37.628906 257.757812 L 37.492188 257.109375 L 37.476562 257.136719 L 35.566406 257.792969 L 36.277344 261.539062 L 31.300781 264.277344 L 26.542969 265.992188 L 23.347656 266.546875 L 26.101562 267.3125 L 24.0625 266.828125 L 26.496094 265.847656 L 32.828125 264.285156 L 47.785156 257.933594 L 50.476562 254.335938 L 49.25 252.257812 L 59.292969 228.929688 L 75 210.003906 L 88.898438 192.753906 L 100.910156 173.214844 L 110.148438 156.390625 L 107.652344 142.410156 L 97.554688 124.546875 L 78.972656 105.667969 L 62.765625 90.917969 L 49.890625 66.726562 L 49.238281 59.113281 L 42.382812 44.441406 L 39.214844 40.761719 L 38.488281 39.527344 L 38.625 40.394531 L 37.335938 40.164062 L 24.054688 22.367188 L 23.355469 20.03125 L 21.886719 20.527344 L 21.832031 19.367188 L 22.675781 24.113281 L 39.046875 34.179688 L 46.121094 35.429688 L 52.324219 41.878906 L 52.695312 41.9375 L 60.398438 44.683594 L 86.832031 53.59375 L 113.183594 55.636719 L 139.726562 56.753906 L 141.046875 57.828125 L 140.625 57.449219 L 147.976562 56.414062 L 172.597656 56.910156 L 195.753906 55.785156 L 213.554688 51.464844 L 228.328125 44.214844 L 239.5625 37.898438 L 252.199219 28.839844 L 257.496094 26.179688 L 261.890625 21.320312 L 264.996094 19.410156 L 264.230469 19.21875 L 266.011719 17.949219 L 266.8125 18.058594 L 267.03125 18.386719 L 265.640625 19.429688 L 259.691406 23.734375 L 254.960938 26.347656 L 251.527344 26.996094 L 245.972656 31.773438 L 225.8125 42.132812 L 198.789062 58.894531 L 172.832031 70.726562 L 159.695312 85.308594 L 150.414062 103.28125 L 131.308594 126.71875 L 108.535156 149.535156 L 90.101562 167.480469 L 73.011719 182.339844 L 76.707031 181.816406 L 78.429688 180.75 L 72.003906 181.050781 L 63.039062 182.1875 L 54.042969 186.867188 L 50.996094 187.6875 L 51.953125 188.589844 L 49.847656 188.640625 L 52.5625 188.804688 L 55.175781 189.179688 L 60.164062 188.96875 L 63.34375 197.152344 L 61.019531 228.234375 L 51.679688 241.328125 L 55.550781 238.746094 L 54.945312 238.113281 L 53.671875 241.414062 L 52.125 247.941406 L 51.414062 257.554688 L 52.433594 257.570312 L 53.835938 254.265625 L 60.632812 238.074219 L 64.164062 235.339844 L 58.582031 230.050781 L 75.347656 224.445312 L 96.789062 208.96875 L 111.378906 195.539062 L 132.417969 189.082031 L 163.714844 188.191406 L 192.476562 189.191406 L 199.308594 192.578125 L 217.234375 198.707031 L 235.960938 213.214844 L 241.917969 214.253906 L 252.066406 213.640625 L 253.28125 217.71875 L 255.609375 218.667969 L 253.835938 217.59375 L 248.8125 218.378906 L 237.175781 212.792969 L 231.828125 208.972656 L 228.71875 209.085938 L 225.632812 212.515625 L 223.351562 205.046875 L 213.851562 192.394531 L 194.847656 180.25 L 176.644531 177.234375 L 145.535156 175.144531 L 124.742188 172.058594 L 122.507812 170.222656 L 124.597656 173.171875 L 100.542969 172.226562 L 84.09375 168.730469 L 90.140625 169.949219 L 89.5625 169.910156 L 78.171875 165.046875 L 76.007812 161.222656 L 72.585938 138.625 L 76.789062 109.074219 L 83.253906 89.808594 L 94.847656 67.355469 L 100.257812 59.894531 L 104.261719 51.820312 L 102.859375 54.804688 L 104.195312 50.011719 L 107.324219 46.800781 L 105.5 50.890625 L 105.726562 54.015625 L 106.886719 56.328125 L 99.746094 61.355469 L 93.089844 57.496094 L 82.511719 51.703125 L 66.179688 47.363281 L 46.046875 39.726562 L 50.683594 42.195312 L 50.921875 42.214844 L 47.582031 39.445312 L 38.027344 38.164062 L 39.035156 36.476562 L 45.109375 34.339844 L 51.945312 36.566406 L 43.714844 34.789062 L 48.429688 35.207031 L 54.171875 52.5625 L 70.351562 93.492188 L 85.753906 114.9375 L 111.695312 136.066406 L 133.808594 145.074219 L 155.335938 153.554688 L 191.085938 174.449219 L 219.570312 194.792969 L 231.761719 208.085938 L 242.515625 225.414062 L 253.921875 243.703125 L 252.003906 240.160156 L 247.523438 233.847656 L 247.609375 232.292969 L 247.546875 231.675781 L 248.011719 231.414062 L 248.28125 230.867188 L 248.003906 230.335938 L 248.246094 229.945312 L 248 229.71875 L 249.03125 229.238281 L 248.300781 228.953125 L 247.691406 228.109375 L 247.457031 227.441406 L 247.074219 227.632812 L 246.492188 227.75 L 246.679688 227.746094 L 247.304688 227.117188 L 247.179688 227.390625 L 247.324219 227.511719 L 247.039062 228.085938 L 246.695312 228.097656 L 247.003906 227.351562 L 246.847656 229.285156 L 247.269531 227.433594 L 246.707031 227.710938 L 245.679688 226.773438 L 247.164062 226.539062 L 246.78125 226.460938 L 247.496094 225.132812 L 247.351562 223.546875 L 247.644531 223.046875 L 249.289062 232.621094 L 252.722656 243.027344 L 258.027344 248.625 L 254.992188 247.664062 L 257 248.441406 L 255.660156 248.96875 L 254.019531 242.046875 L 256.589844 237.335938 L 259.78125 235.148438 L 255.398438 238.820312 L 251.203125 237.539062 L 246.582031 232.09375 L 243.136719 218.222656 L 244.945312 219.949219 L 241.132812 219.863281 L 229.867188 212.589844 L 222.027344 207.953125 L 222.953125 208.957031 L 224.625 210.175781 L 224.632812 210.695312 L 224.265625 211.914062 L 223.882812 211.980469 L 220.894531 214.0625 L 209.1875 221 L 208.859375 225.746094 L 207.246094 234.144531 L 208.835938 235.71875 L 209.640625 239.488281 L 210.933594 238.371094 L 212.644531 231.226562 L 217.332031 224.527344 L 220.257812 228.609375 L 223.269531 227.691406 L 228.21875 226.53125 L 226.550781 226.46875 L 226.238281 226.609375 L 226.484375 226.128906 L 226.339844 226.59375 L 223.402344 232.480469 L 222.550781 232.371094 L 221.957031 233.023438 L 221.363281 232.90625 L 221.210938 232.289062 L 221.628906 232.925781 L 221.027344 233.117188 L 220.785156 233.1875 L 220.777344 232.085938 L 222.195312 230.390625 L 222.300781 228.015625 L 223.835938 229.160156 L 223.746094 227.839844 L 226.328125 230.863281 L 229.289062 231.316406 L 231.476562 230.976562 L 233.535156 231.933594 L 232.996094 229.402344 L 231.527344 229.367188 L 230.257812 229.167969 L 231.453125 228.136719 L 227.945312 226.300781 L 225.1875 226.339844 L 219.28125 225.839844 L 213.019531 226.152344 L 204.851562 224.371094 L 203.773438 223.792969 L 200.773438 225.027344 L 202.148438 225.039062 L 203.253906 224.957031 L 203.378906 225.019531 L 203.363281 224.996094 L 203.40625 225.105469 L 203.464844 225.152344 L 203.320312 225.066406 L 203.390625 225.148438 L 203.300781 225.042969 L 203.40625 225.152344 L 203.402344 225.125 L 203.417969 225.292969 L 203.3125 225.296875 L 203.152344 225.296875 L 203.285156 225.351562 L 203.898438 225.402344 L 204.46875 225.089844 L 204.476562 225.070312 L 204.464844 225.09375 L 204.476562 225.046875 L 204.421875 225.144531 L 204.21875 225.15625 L 203.914062 225.304688 L 203.652344 225.285156 L 203.773438 225.320312 L 203.824219 225.320312 L 203.773438 225.328125 L 204.210938 225.476562 L 204.15625 225.425781 L 204.265625 225.429688 L 204.183594 225.4375 L 204.292969 225.445312 L 204.175781 225.410156 L 204.292969 225.445312 L 204.179688 225.429688 L 204.355469 225.480469 L 204.210938 225.429688 L 204.378906 225.488281 L 204.195312 225.457031 L 204.371094 225.476562 L 204.355469 225.472656 L 204.246094 225.4375 L 204.335938 225.472656 L 204.289062 225.464844 L 204.425781 225.496094 L 204.273438 225.464844 L 204.375 225.488281 L 204.265625 225.472656 L 204.441406 225.5 L 204.296875 225.480469 L 204.421875 225.507812 L 204.273438 225.476562 L 204.410156 225.496094 L 204.246094 225.410156 L 204.265625 225.828125 L 202.730469 226.472656 L 203.296875 226.175781 L 203.199219 226.214844 L 203.453125 226.023438 L 203.5 226.011719 L 203.320312 226.011719 L 203.472656 226.007812 L 203.75 225.933594 L 204.199219 225.648438 L 204.707031 225.328125 L 204.253906 222.644531 L 205.082031 222.425781 L 205.003906 222.449219 L 204.984375 222.507812 L 204.960938 222.394531 L 205.007812 222.4375 L 204.976562 222.441406 L 206.023438 224.773438 L 204.75 222.808594 L 205.972656 224.75 L 205.992188 224.75 L 205.984375 224.742188 L 204.738281 222.730469 L 206.003906 224.792969 L 204.695312 222.800781 L 206.011719 224.777344 L 206 224.785156 L 205.984375 224.789062 L 205.996094 224.792969 L 205.996094 224.777344 L 206.003906 224.777344 L 206.011719 224.894531 L 205.96875 224.902344 L 205.992188 224.898438 L 205.96875 224.902344 L 205.984375 224.898438 L 206 224.902344 L 205.984375 224.917969 L 205.996094 224.933594 L 206.011719 224.953125 L 205.992188 224.921875 L 206.003906 224.921875 L 205.960938 224.921875 L 205.976562 224.941406 L 205.925781 224.921875 L 205.980469 224.859375 L 205.347656 225.046875 L 203.351562 225.855469 L 200.550781 226.402344 L 194.691406 226.835938 L 183.234375 227.882812 L 155.808594 223.894531 L 136.714844 223.3125 L 127.609375 221.886719 L 105.730469 228.621094 L 89.429688 232.671875 L 74.648438 237.09375 L 60.878906 241.578125 L 55.738281 245.164062 L 49.148438 250.300781 L 44.0625 259.609375 L 39.199219 256.910156 L 37.738281 257.84375 L 40.535156 261.976562 L 38.980469 257.734375 L 50.863281 254.757812 L 50.945312 251.8125 L 49.535156 239.925781 L 52.242188 225.941406 L 59.574219 201.070312 L 68.457031 180.648438 L 73.597656 168.023438 L 72.65625 166.472656 L 71.195312 164.195312 L 65.132812 151.207031 L 63.320312 123.277344 L 65.832031 97.558594 L 68.824219 71.292969 L 67.238281 59.726562 L 57.152344 58.171875 L 42.835938 43.039062 L 38.203125 36.433594 L 23.347656 21.558594 L 23.054688 19.867188 L 22.8125 19.414062 L 25.261719 20.859375 L 37.019531 31.296875 L 36.53125 35.097656 L 38.503906 42.621094 L 48.152344 54.535156 L 68.972656 74.851562 L 83.515625 98.328125 L 94.464844 124.761719 L 99.839844 142.351562 L 105.277344 158.574219 L 106.011719 175.105469 L 97.523438 192.070312 L 85.339844 210.160156 L 78.140625 220.917969 L 71.214844 228.523438 L 70.371094 228.585938 L 68.195312 229.652344 L 68.105469 227.453125 L 67.222656 224.765625 L 68.722656 226.796875 L 63.644531 236.65625 L 50.730469 244.726562 L 46.136719 250.671875 L 39.304688 255.820312 L 36.921875 263.574219 L 29.109375 264.398438 L 29.320312 264.140625 L 39.679688 261.242188 L 39.300781 260.878906 L 42.140625 258.089844 L 42.488281 243.273438 L 53.71875 226.167969 L 76.394531 212.382812 L 99.585938 211.847656 L 118.734375 217.785156 L 125.144531 218.867188 L 130.515625 220.320312 L 148.75 211.996094 L 175.089844 200.132812 L 199.03125 198 L 216.480469 201.085938 L 222.476562 205.519531 L 222.433594 215.542969 L 223.914062 218.445312 L 224.554688 214.785156 L 222.660156 214.6875 L 222.109375 215.027344 L 224.167969 214.171875 L 232.464844 219.140625 L 250.246094 238.367188 L 259.691406 250.160156 L 266.644531 250.386719 L 268.285156 253.496094 L 266.480469 250.808594 L 255.230469 249.039062 L 246.980469 248.328125 L 231.828125 239.917969 L 227.953125 236.199219 L 220.765625 222 L 204.164062 198.863281 L 183.714844 178.351562 L 158.351562 163.367188 L 135.992188 161.53125 L 125.117188 171.3125 L 111.554688 186.832031 L 105.992188 205.367188 L 101.800781 216.996094 L 92.90625 216.203125 L 77.355469 218.910156 L 63.792969 225.890625 L 48.886719 241.960938 L 37.773438 257.441406 L 31.84375 262.550781 L 28.105469 266.027344 L 32.222656 261.945312 L 35.253906 256.269531 L 34.367188 254.886719 L 41.253906 256.523438 L 38.820312 248.207031 L 46.5 232.097656 L 66.402344 199.570312 L 79.347656 173.871094 L 88.90625 147.824219 L 91.523438 130.085938 L 93.890625 111.3125 L 102.566406 92.144531 L 120.25 75.070312 L 142.972656 65.855469 L 163.558594 66.449219 L 178.480469 70.75 L 191.988281 80.765625 L 206.996094 92.082031 L 218.058594 101.089844 L 212.140625 103.574219 L 211.203125 114.3125 L 207.121094 139.003906 L 208.496094 163.980469 L 216.851562 186.324219 L 224.90625 192.03125 L 231.855469 198.214844 L 242.671875 217.367188 L 250.707031 232.40625 L 254.789062 239.289062 L 258.917969 245.441406 L 252.753906 235.339844 L 245.761719 233.300781 L 238.878906 234.453125 L 220.765625 233.949219 L 193.46875 229.433594 L 176.261719 230.074219 L 136.765625 224.039062 L 109.414062 231.414062 L 85.316406 234.996094 L 69.394531 237.347656 L 54.199219 247.082031 L 50.535156 248.488281 L 52.097656 253.023438 L 55.417969 244.292969 L 60.433594 247.410156 L 64.367188 244.476562 L 70.863281 240.261719 L 78.71875 235.972656 L 96.839844 231.703125 L 128.011719 221.136719 L 153.175781 220.300781 L 171.085938 217.015625 L 171.511719 218.804688 L 202.097656 217.710938 L 214.4375 210.097656 L 223.285156 207.269531 L 226.640625 190.574219 L 221.5 165.082031 L 208.507812 141.800781 L 199.636719 115.53125 L 195.019531 87.058594 L 192.386719 66.246094 L 200.761719 65.25 L 214.804688 52.34375 L 221.546875 49.988281 L 221.539062 47.503906 L 222.027344 48.089844 L 233.074219 41.03125 L 243.355469 37.136719 L 255.878906 26.878906 L 262.699219 20.367188 L 263.445312 20.222656 L 252.402344 25.601562 L 250.503906 30.785156 L 251.125 44.117188 L 237.0625 75.359375 L 226.414062 106.648438 L 217.03125 129.835938 L 203.445312 154.46875 L 184.203125 170.238281 L 162.085938 180.777344 L 141.039062 186.683594 L 111.605469 191.027344 L 91.257812 200.964844 L 77.824219 218.242188 L 70.675781 231.695312 L 53.519531 242.90625 L 48.140625 248.824219 L 54.058594 244.527344 L 53.160156 226.625 L 58.679688 190.660156 L 63.660156 150.496094 L 66.117188 115.6875 L 73.976562 83.535156 L 75.429688 59.574219 L 66.328125 60.257812 L 50.351562 52.703125 L 40.382812 41.675781 L 35.59375 37.316406 L 22.300781 21.128906 L 20.972656 20.988281 L 22.96875 20.582031 L 26.203125 20.839844 L 27.042969 23.800781 L 39.761719 31.09375 L 48.980469 38.105469 L 84.738281 50.652344 L 120.785156 57.75 L 150.457031 61.933594 L 178.195312 65.695312 L 205.292969 69.230469 L 224.019531 72.675781 L 222.378906 64.386719 L 229.898438 52.777344 L 226.902344 53.164062 L 223.710938 58.835938 L 221.746094 74.992188 L 217.5 106.09375 L 216.941406 118.304688 L 222.578125 127.71875 L 225.75 149.523438 L 228.742188 180.578125 L 232.695312 208.652344 L 236.917969 231.292969 L 243.824219 236.664062 L 254.085938 248.664062 L 259 254.878906 L 262.015625 258.832031 L 262.640625 258.636719 L 262.585938 258.769531 L 263.378906 259.972656 L 258.667969 254.667969 L 249.707031 249.769531 L 230.824219 241.207031 L 211.695312 234.90625 L 172.589844 215.835938 L 134.960938 199.972656 L 105.125 185.941406 L 83.386719 173 L 71.5 158.871094 L 68.640625 127.71875 L 68.632812 92.433594 L 65.699219 69.984375 L 58.75 56.445312 L 53.273438 50.191406 L 40.402344 42.984375 L 35.496094 35.714844 L 22.683594 23.824219 L 33.621094 36.367188 L 56.488281 40.03125 L 97.792969 65.351562 L 129.429688 88.621094 L 160.09375 107.460938 L 182.160156 120.421875 L 200.1875 131.527344 L 218.636719 147.277344 L 218.191406 164.746094 L 209.769531 189.898438 L 195.296875 214.160156 L 196.703125 209.683594 L 173.699219 209.417969 L 135.097656 212.273438 L 108.140625 216.433594 L 90.988281 228.09375 L 71.417969 239.433594 L 52.457031 247.339844 L 44.203125 260.261719 L 31.304688 262.367188 L 28.453125 264.398438 L 36.957031 261.660156 L 30.605469 257.597656 L 29.84375 258.019531 L 33.332031 258.515625 L 40.648438 256.390625 L 46.242188 233.191406 L 56.519531 207.058594 L 70.085938 174.574219 L 80.558594 145.300781 L 79.488281 149.699219 L 85.074219 149.929688 L 107.898438 135.585938 L 137.792969 115.257812 L 156.796875 89.222656 L 167.386719 65.425781 L 176.136719 71.6875 L 185.378906 70.878906 L 188.558594 69.234375 L 184.691406 65.269531 L 196.835938 55.242188 L 220.359375 42.640625 L 238.261719 31.253906 L 249.640625 28.59375 L 248.945312 26.503906 L 256.191406 23.242188 L 261.125 21.976562 L 254.277344 23.492188 L 260.644531 23.902344 L 260.847656 23.453125 L 260.371094 23.605469 L 252.769531 24.613281 L 246.433594 29.246094 L 245.304688 44.554688 L 226.644531 75.828125 L 194.003906 107.628906 L 163.804688 134.644531 L 136.675781 155.546875 L 111.027344 174.546875 L 85.628906 196.074219 L 65.039062 215.03125 L 51.296875 231.675781 L 50.4375 241.671875 L 55.441406 229.101562 L 71.375 230.460938 L 93.164062 225.382812 L 117.648438 212.703125 L 125.894531 186.296875 L 142.304688 161.210938 L 159.042969 138.3125 L 170.367188 117.832031 L 183.820312 93.296875 L 191.492188 70.519531 L 196.976562 62.484375 L 190.871094 65.148438 L 177.828125 63.585938 L 159.429688 62.804688 L 138.929688 63.4375 L 113.953125 61.71875 L 92.054688 55.59375 L 68.992188 51.636719 L 64.363281 50.992188 L 77.601562 53.355469 L 83.675781 51.0625 L 89.484375 55.066406 L 111.097656 59.109375 L 155.402344 63.972656 L 195.6875 64.648438 L 223.160156 65.542969 L 228.542969 63.695312 L 224.179688 70.695312 L 220.878906 97.195312 L 213.382812 140.285156 L 208.789062 174.171875 L 208.378906 196.5625 L 211.820312 214.261719 L 217.347656 213.585938 L 234.746094 216.078125 L 242.582031 222.875 L 256.039062 240.886719 L 261.707031 252.085938 L 264.007812 257.082031 L 266.84375 257.789062 L 266.300781 256.652344 L 265.855469 253.25 L 264.75 249.261719 L 258.945312 248.605469 L 254.628906 245.820312 L 244.289062 228.308594 L 229.300781 196.609375 L 217.082031 155.367188 L 212.335938 118.554688 L 216.859375 88.648438 L 222.074219 72.007812 L 223.78125 57.601562 L 224.625 58.667969 L 209.21875 57.238281 L 165.382812 61.160156 L 120.175781 70.175781 L 84.542969 88.078125 L 67.265625 111.773438 L 72.179688 146.355469 L 70.882812 180.753906 L 66.851562 208.492188 L 64.765625 230.074219 L 56.15625 240.234375 L 42.339844 252 L 32.195312 262.082031 L 28.652344 263.515625 L 33.675781 259.945312 L 38.5625 260.042969 L 47.882812 253.96875 L 60.816406 240.074219 L 97.523438 214.863281 L 138.855469 193.863281 L 164.355469 179.832031 L 193.421875 165.871094 L 219.0625 150.824219 L 223.105469 147.523438 L 233.53125 142.515625 L 234.582031 141.085938 L 223.859375 141.246094 L 223.386719 109.441406 L 222.328125 79.15625 L 227.96875 59.929688 L 229.46875 58.945312 L 228.808594 60.324219 L 233.042969 57.769531 L 238.71875 44.320312 L 250.578125 29.128906 L 259.140625 23.011719 L 263.261719 21.144531 L 253.375 29.652344 L 248.34375 40.554688 L 222.578125 80.5 L 206.382812 125.933594 L 196.800781 170.613281 L 190.183594 202.921875 L 186.535156 205.972656 L 172.945312 210.316406 L 138.433594 221.542969 L 98.320312 226.515625 L 80.960938 228.710938 L 64.226562 230.828125 L 57.019531 227.265625 L 47.808594 230.359375 L 47.132812 231.042969 L 59.242188 231.050781 L 53.023438 234.84375 L 55.1875 233.40625 L 60.238281 227.460938 L 62.949219 192.761719 L 67.773438 146.800781 L 67.441406 105.425781 L 69.257812 76.96875 L 63.585938 56.945312 L 53.675781 47.390625 L 38.667969 36.40625 L 22.84375 19.46875 L 23.554688 18.441406 L 26.238281 22.925781 L 37.511719 30.769531 L 42.707031 40.148438 L 51.164062 63.40625 L 72.363281 114.332031 L 90.316406 151.984375 L 110.316406 179.703125 L 124.199219 187.089844 L 163.78125 205.25 L 178.09375 213.976562 L 175.671875 212.253906 L 181.433594 214.75 L 206.105469 223.324219 L 222.433594 222.027344 L 240.027344 228.09375 L 255.035156 240.890625 L 262.367188 253.898438 L 266.078125 258.296875 L 263.242188 256.230469 L 260.550781 250.5625 L 257.40625 248.398438 L 246.183594 228.773438 L 227.160156 198.039062 L 203.714844 161.535156 L 186.578125 128.070312 L 169.855469 94.882812 L 152.617188 67.921875 L 142.902344 69.917969 L 112.71875 74.976562 L 79.597656 81.300781 L 63.976562 76.980469 L 55.007812 62.097656 L 42.25 46.175781 L 42.917969 44.667969 L 44.636719 52.441406 L 45.257812 55.753906 L 52.527344 61.648438 L 74.0625 106.296875 L 98.929688 151.070312 L 120.417969 187.207031 L 133.753906 215.28125 L 139.992188 214.363281 L 169.980469 219.179688 L 189.59375 216.050781 L 212.429688 202.253906 L 223.613281 192.363281 L 223.449219 169.398438 L 227.167969 128.761719 L 230.613281 95.910156 L 234.175781 80.8125 L 236.320312 82.734375 L 243.863281 78.832031 L 246.039062 77.941406 L 241.792969 79.710938 L 228.800781 90.300781 L 229.183594 100.226562 L 230.277344 139.484375 L 229.222656 176.851562 L 229.847656 181.957031 L 236.015625 200.65625 L 243.511719 223.9375 L 245.078125 231.894531 L 252.597656 244.335938 L 261.332031 255.085938 L 264.347656 256.554688 L 265.171875 252.011719 L 257.578125 256.972656 L 254.171875 249.742188 L 231.875 239.253906 L 201.722656 233.101562 L 151.222656 218.167969 L 109.199219 204.835938 L 83.09375 188.824219 L 67.546875 171.953125 L 69.546875 167.140625 L 65.292969 148.886719 L 64.125 112.40625 L 65.574219 94.050781 L 68.597656 87.332031 L 72.335938 64.9375 L 74.078125 55.765625 L 80.203125 46.179688 L 78.941406 44.367188 L 75.480469 45.171875 L 70.902344 50.976562 L 46.964844 41.109375 L 37.5625 32.667969 L 22.957031 19.824219 L 24.71875 20.46875 L 37.101562 29.140625 L 37.734375 32.863281 L 60.257812 74.210938 L 90.480469 127.25 L 112.121094 164.265625 L 131.226562 191.90625 L 152.640625 214.152344 L 175.789062 217.710938 L 207.003906 214.816406 L 228.648438 215.8125 L 234.617188 222.9375 L 249.574219 236.039062 L 259.898438 249.449219 L 260.628906 250.875 L 255.433594 248.167969 L 251.019531 236.488281 L 231.734375 194.695312 L 220.15625 148.082031 L 216.167969 102.921875 L 216.488281 73.550781 L 218.277344 55.21875 L 230.09375 44.074219 L 249.652344 29.949219 L 259.863281 23.214844 L 262.644531 20.675781 L 261.027344 22.707031 L 254.222656 26.65625 L 254.613281 26.144531 L 252.566406 25.816406 L 249.65625 31.34375 L 248.894531 47.085938 L 235.042969 85.972656 L 224.332031 132.21875 L 223.453125 169.386719 L 217.65625 199.621094 L 214.683594 222.632812 L 211.917969 224.828125 L 208.652344 233.578125 L 209.988281 233.761719 L 215.101562 228.859375 L 239.851562 240.683594 L 253.707031 248.128906 L 255.964844 249.328125 L 259.625 255.015625 L 259.117188 251.511719 L 259.21875 252.78125 L 262.386719 255.890625 L 263.347656 255.613281 L 262.328125 254.332031 L 264.265625 250.023438 L 260.238281 256.882812 L 256.824219 251.609375 L 228.082031 236.746094 L 191.9375 226.539062 L 148.027344 208.992188 L 106.332031 194.636719 L 78.308594 194.160156 L 60.179688 215.160156 L 46.84375 241.25 L 33.671875 257.617188 L 33.019531 257.308594 L 31.476562 257.375 L 33.171875 257.578125 L 37.421875 260.277344 L 33.03125 258.378906 L 30.621094 261.53125 L 30.425781 262.757812 L 27.953125 263.734375 L 33.773438 261.492188 L 41.710938 251.691406 L 55.675781 252.261719 L 53.964844 253.027344 L 53.339844 252.738281 L 61.261719 240.128906 L 92.496094 208.507812 L 130.621094 178.460938 L 162.855469 148.300781 L 186.539062 122.0625 L 212.023438 101.230469 L 217.085938 101.457031 L 219.125 102.558594 L 222.605469 114.164062 L 229.765625 147.125 L 229.46875 173.375 L 231.085938 179.09375 L 231.230469 176.21875 L 234.527344 183.171875 L 233.316406 192.050781 L 243.410156 219.902344 L 253.195312 240.238281 L 256.875 242.019531 L 252.402344 236.953125 L 256.046875 247.675781 L 260.445312 249.335938 L 257.398438 244.90625 L 257.339844 246.789062 L 258.078125 249.089844 L 254.992188 245.085938 L 249 244.710938 L 232.449219 241.175781 L 204.5625 232.191406 L 153.730469 219.453125 L 113.90625 215.546875 L 80.144531 226.863281 L 62.808594 233.515625 L 48.316406 246.554688 L 37.699219 257.046875 L 32.304688 260.675781 L 30.195312 264.441406 L 42.101562 261.539062 L 38.75 251.097656 L 35.957031 249.257812 L 41.882812 236.898438 L 54.492188 208.085938 L 59.953125 180.03125 L 61.964844 142.191406 L 58.683594 102.128906 L 51.421875 69.5 L 44.738281 53.0625 L 40.402344 45.601562 L 36.929688 35.257812 L 23.195312 20.472656 L 23.523438 21.691406 L 23.71875 23.425781 L 21.539062 21.097656 L 20.6875 19.878906 L 20.800781 18.21875 L 21.417969 22.667969 L 35.367188 32.363281 L 46.761719 36.214844 L 71.914062 48.414062 L 120.429688 56.851562 L 162.414062 59.644531 L 201.210938 58.296875 L 225.878906 57.980469 L 233.679688 56.9375 L 246.0625 53.871094 L 249.363281 51.542969 L 240.222656 51.460938 L 249.46875 37.910156 L 243.023438 45.800781 L 240.980469 46.960938 L 226.023438 51.84375 L 196.390625 63.296875 L 159.886719 82.414062 L 133.195312 108.542969 L 112.71875 135.925781 L 91.316406 164.996094 L 81.648438 180.996094 L 85.636719 198.039062 L 90.601562 220.671875 L 94.796875 218.296875 L 124.800781 221.367188 L 154.660156 223.195312 L 176.460938 218.121094 L 200.457031 212.101562 L 218.105469 204.035156 L 228.21875 204.171875 L 239.066406 202.945312 L 246.691406 197.722656 L 237.835938 199.191406 L 231.425781 186.121094 L 224.539062 137.957031 L 219.378906 99.527344 L 216.054688 97.082031 L 192.679688 88.820312 L 149.28125 79.082031 L 109.382812 66.773438 L 82.824219 58.261719 L 61.242188 51.039062 L 51.441406 41.101562 L 44.980469 37.621094 L 41.1875 40.855469 L 42.898438 43.109375 L 47.199219 58.054688 L 64.519531 101.023438 L 72.335938 136.199219 L 69.726562 169.203125 L 71.117188 196.097656 L 74.121094 224.484375 L 64.957031 228.386719 L 52.105469 243.03125 L 52.207031 240.65625 L 69.613281 236.761719 L 120.816406 218.742188 L 164.632812 216.109375 L 193.160156 207.699219 L 220.628906 202.070312 L 232.285156 203.585938 L 245.632812 203.289062 L 248.765625 203.417969 L 240.199219 204.570312 L 224.128906 208.320312 L 221.78125 176.164062 L 199.652344 136.765625 L 176.972656 103.191406 L 154.804688 73.6875 L 138.320312 61.421875 L 105.707031 60.066406 L 74.070312 49.949219 L 56.011719 44.769531 L 43.804688 35.265625 L 23.570312 21.089844 L 22.785156 19.210938 L 36.453125 30.898438 L 37.476562 26.828125 L 36.917969 30.375 L 53.804688 40.992188 L 103.734375 66.484375 L 148.640625 92.675781 L 184.957031 116.351562 L 215.367188 137.535156 L 221.546875 147.113281 L 226.523438 141.359375 L 236.523438 135.824219 L 236.589844 131.628906 L 222.964844 129.828125 L 230.738281 95.09375 L 239.894531 59.113281 L 247.957031 39.574219 L 257.632812 25.351562 L 263.507812 20.148438 L 263.277344 20.628906 L 263.566406 20.109375 L 264.527344 20.746094 L 263.726562 21.792969 L 262.066406 23.050781 L 258.855469 24.09375 L 255.964844 27.722656 L 252.6875 27.492188 L 252.433594 30.765625 L 252.332031 31.292969 L 251.464844 32.570312 L 250.121094 33.4375 L 250.804688 34.765625 L 253.019531 37.71875 L 239.421875 42.46875 L 200.625 72.128906 L 166.722656 114.441406 L 141.195312 151.875 L 130.4375 173.109375 L 124.304688 202.066406 L 122.929688 212.59375 L 128.414062 212.730469 L 156.476562 221.898438 L 177.0625 219.207031 L 174.210938 218.179688 L 173.5 218.382812 L 173.003906 218.378906 L 172.082031 217.835938 L 172.308594 217.34375 L 173.085938 217.613281 L 174.894531 217.730469 L 175.511719 217.203125 L 175.878906 217.976562 L 176.914062 216.925781 L 176.847656 216.578125 L 176.066406 216.347656 L 182.25 229.492188 L 184.917969 228.945312 L 172.390625 220.460938 L 146.589844 224.832031 L 100.039062 229.144531 L 76.117188 234.042969 L 71.449219 232.371094 L 73.390625 234.25 L 72.960938 227.226562 L 62.339844 220.679688 L 64.265625 222.515625 L 62.328125 223.078125 L 60.679688 222.949219 L 57.957031 222.105469 L 57.246094 218.609375 L 57.867188 204.410156 L 60.5 169.820312 L 63.382812 127.101562 L 64.917969 96.378906 L 67.511719 72.621094 L 70.121094 61.871094 L 71.292969 52.742188 L 70.632812 41.464844 L 68.554688 40.597656 L 68.503906 46.746094 L 60.417969 44.113281 L 44.316406 36.992188 L 24.855469 20.855469 L 25.070312 20.835938 L 41.511719 37.398438 L 81.292969 68.722656 L 121.886719 109.65625 L 151.527344 132.867188 L 181.285156 152.355469 L 205.851562 174.101562 L 224.292969 189.757812 L 238.625 210.828125 L 235.933594 213.8125 L 236.792969 230.03125 L 236.109375 234.589844 L 237.789062 245.101562 L 239.488281 244.167969 L 238.625 235.582031 L 244.65625 243.460938 L 235.828125 240.570312 L 234.664062 236.527344 L 233.667969 233.71875 L 235.371094 206.167969 L 227.199219 168.09375 L 222.019531 125.289062 L 226.472656 95.515625 L 229.058594 70.28125 L 229.410156 54.152344 L 233.945312 46.714844 L 242.394531 38.5625 L 254.234375 28.3125 L 257.074219 20.945312 L 257.585938 21.542969 L 261.441406 19.675781 L 251.882812 26.285156 L 245.886719 50.371094 L 222.839844 103.71875 L 198.136719 155.738281 L 174.4375 188.425781 L 147.390625 216.941406 L 109.585938 228.09375 L 79.941406 233.824219 L 64.40625 241.855469 L 41.488281 253.402344 L 38.382812 256.308594 L 34.449219 260.445312 L 32.257812 262.359375 L 33.476562 260.367188 L 32.886719 259.824219 L 38.929688 261.359375 L 38.871094 261.789062 L 39.195312 260.910156 L 38.230469 261.421875 L 46.625 256.214844 L 42.398438 246.832031 L 50.757812 218.230469 L 74.109375 171.914062 L 93.292969 130.003906 L 104.570312 88.738281 L 103.546875 66.984375 L 88.785156 63.734375 L 67.050781 61.15625 L 51.871094 54.800781 L 57.550781 56.496094 L 60.671875 90.246094 L 69.597656 153.585938 L 81.585938 189.171875 L 100.332031 214.019531 L 116.792969 216.613281 L 160.011719 219.039062 L 193.558594 225.46875 L 215.0625 225.21875 L 235.457031 228.117188 L 250.34375 240.164062 L 260.640625 252.109375 L 263.570312 257.269531 L 263.695312 258.789062 L 266.542969 258.589844 L 267.722656 260.773438 L 262.519531 261.351562 L 260.878906 259.085938 L 262.964844 259.570312 L 265.546875 261.367188 L 266.410156 259.234375 L 265.253906 258.078125 L 266.125 251.523438 L 257.523438 247.859375 L 251.199219 241.816406 L 248.210938 243.1875 L 249.609375 244.507812 L 251.738281 245.703125 L 244.1875 239.667969 L 241.015625 234.695312 L 236.0625 237.253906 L 235.949219 240.007812 L 237.167969 236.066406 L 233.199219 221.933594 L 220.585938 203.289062 L 203.5 179.953125 L 193.402344 167.4375 L 196.292969 168.492188 L 197.949219 149.488281 L 204 128.804688 L 201.105469 133.347656 L 203.511719 134.890625 L 202.585938 135.292969 L 200.773438 135.996094 L 197.46875 144.601562 L 206.402344 175.171875 L 210.527344 205.8125 L 218.191406 226.390625 L 224.886719 234.855469 L 228.941406 235.890625 L 244.640625 242.503906 L 240.550781 239 L 241.289062 239.226562 L 250.996094 245.152344 L 256.78125 251.15625 L 258.828125 255.597656 L 260.117188 255.78125 L 260.289062 255.027344 L 264.03125 255.765625 L 266.1875 256.695312 L 266.378906 256.648438 L 265.964844 256.710938 L 264.570312 256.757812 L 267.492188 253.550781 L 258.976562 255.585938 L 246.625 251.027344 L 238.117188 219.402344 L 226.171875 201.878906 L 228.410156 205.855469 L 229.261719 203.476562 L 230.964844 204.195312 L 232.039062 204.015625 L 233.625 204.109375 L 234.308594 204.410156 L 231.75 207.773438 L 224.484375 216.992188 L 220.320312 222.515625 L 193.671875 226.746094 L 193.058594 225.453125 L 194.910156 225 L 166.6875 223.332031 L 129.828125 221.660156 L 94 227.894531 L 70.539062 236.640625 L 56.574219 240.902344 L 47.019531 249.847656 L 45.582031 253.914062 L 42.035156 257.46875 L 38.328125 259.515625 L 41.8125 254.722656 L 58.730469 239.707031 L 67.6875 202.082031 L 89.105469 153.644531 L 117.691406 119.796875 L 147.433594 89.386719 L 169.765625 62.1875 L 185.117188 55.273438 L 211.585938 52.769531 L 234.511719 50.484375 L 242.492188 44.136719 L 244.65625 42.421875 L 244.070312 45.199219 L 246.847656 50.421875 L 237.980469 56.632812 L 236.796875 85.710938 L 230.148438 129.851562 L 229.792969 168.417969 L 232.113281 204.460938 L 235.511719 227.574219 L 242.164062 237.402344 L 247.167969 248.273438 L 249.585938 252.3125 L 249.777344 246.125 L 254.96875 249.109375 L 258.796875 252.644531 L 256.695312 249.117188 L 260.441406 254.09375 L 266.003906 258.914062 L 265.660156 259.625 L 262.09375 253.816406 L 260.75 244.074219 L 234.375 240.609375 L 223.148438 236.027344 L 227.117188 234.082031 L 228.203125 235.910156 L 228.105469 235.574219 L 224.804688 232.34375 L 205.957031 222.808594 L 170.324219 206.460938 L 139.507812 180.671875 L 119.179688 147.339844 L 102.226562 116.867188 L 88.65625 99.5625 L 68.832031 85.914062 L 52.742188 67.804688 L 48.96875 59.941406 L 49.992188 58.765625 L 52.152344 58.546875 L 38.128906 41.066406 L 23.246094 20.75 L 22.03125 20.300781 L 37.855469 29.449219 L 43.257812 47.640625 L 80.40625 112.808594 L 102.734375 165.644531 L 121.339844 189.863281 L 156.203125 208.777344 L 195.824219 227.945312 L 223.039062 233.003906 L 240.707031 240.519531 L 240.6875 242.542969 L 242.113281 243.050781 L 241.636719 242.003906 L 244.371094 243.347656 L 244.445312 241.972656 L 243.390625 241.898438 L 242.550781 241.695312 L 242.117188 240.886719 L 242.023438 239.394531 L 243.113281 238.226562 L 243.222656 237.535156 L 243.753906 236.960938 L 242.894531 238.507812 L 248.472656 238.523438 L 250.183594 243.5625 L 255.609375 249.59375 L 253.613281 257.308594 L 256.128906 254.328125 L 256.703125 254.015625 L 245.058594 251.34375 L 249.863281 240.988281 L 251.628906 242.539062 L 248.828125 241.953125 L 243.34375 242.1875 L 244.691406 244.019531 L 247.617188 242.503906 L 248.054688 250.5 L 251.601562 251.769531 L 252.128906 248.328125 L 249.574219 246.726562 L 242.027344 241.699219 L 238.792969 236.921875 L 236.390625 232.820312 L 221.941406 233.136719 L 184.589844 228.570312 L 148.242188 217.5625 L 122.445312 214.210938 L 95.648438 227.269531 L 92.664062 227.863281 L 90.585938 232.394531 L 91.929688 233.542969 L 95.382812 233.898438 L 97.007812 229.628906 L 99.078125 221.414062 L 103.574219 225.445312 L 124.585938 217.132812 L 168.007812 201.191406 L 196.160156 180.902344 L 219.800781 167.355469 L 227.960938 158.15625 L 233.957031 146.777344 L 236.191406 142.203125 L 232.382812 146.488281 L 239.136719 159.125 L 241.484375 164.507812 L 233.890625 163.996094 L 233.351562 184.960938 L 239.96875 207.304688 L 237.242188 206.25 L 237.703125 204.929688 L 238.410156 204.238281 L 238.121094 203.535156 L 238.261719 205.441406 L 234.789062 202.140625 L 234.566406 202.054688 L 234.789062 202.648438 L 235.71875 203.453125 L 235.886719 204.417969 L 245.25 224.121094 L 253.8125 243.777344 L 261.484375 253.652344 L 266.15625 257.457031 L 269.027344 258.101562 L 268.71875 259.355469 L 263.949219 257.574219 L 263.546875 256.535156 L 263.058594 259.207031 L 262.460938 261.757812 L 262.179688 256.636719 L 251.089844 248.429688 L 223.1875 232.503906 L 206.957031 216.746094 L 209.859375 221.609375 L 210.847656 225.085938 L 210.738281 226.136719 L 210.40625 226.429688 L 209.96875 225.257812 L 209.351562 225.378906 L 209.539062 225.429688 L 208.59375 224.277344 L 208.140625 223.886719 L 208.679688 223.824219 L 213.820312 224.328125 L 225.125 220.316406 L 222.246094 220.4375 L 221.558594 219.183594 L 217.703125 210.175781 L 205.460938 172.695312 L 187 136.480469 L 165.402344 106.84375 L 142.15625 75.273438 L 137.621094 64.222656 L 134.394531 54.402344 L 134.683594 54.316406 L 139.246094 51.226562 L 138.429688 59.601562 L 142.570312 63.210938 L 144.007812 62.289062 L 163.765625 55.941406 L 196.558594 49.011719 L 221.519531 44.703125 L 234.308594 37.207031 L 246.433594 30.109375 L 246.625 26.179688 L 249.050781 27.378906 L 242.796875 29.039062 L 242.390625 31.132812 L 243.824219 31.539062 L 248.765625 26.804688 L 256.894531 23.308594 L 259.207031 19.785156 L 264.148438 20.03125 L 264.808594 19.582031 L 262.394531 23.386719 L 255.324219 28.523438 L 210.105469 56.378906 L 164.316406 83.972656 L 124.195312 115.492188 L 92.1875 145.785156 L 73.742188 160.738281 L 70.65625 164.851562 L 66.484375 171.113281 L 61.140625 179.757812 L 56.578125 187.066406 L 62.226562 184.230469 L 59.542969 205.132812 L 57.664062 209.617188 L 56.808594 209.546875 L 47.980469 232.359375 L 37.671875 247.792969 L 39.421875 246.652344 L 35.28125 252.65625 L 30.8125 256.527344 L 29.820312 260.53125 L 28.640625 262.980469 L 24.925781 264.664062 L 24.0625 264.90625 L 27.097656 259.78125 L 41.46875 258.125 L 57.820312 244.007812 L 99.746094 226.394531 L 157.53125 219.042969 L 197.660156 223.71875 L 220.246094 224.195312 L 235.792969 226.746094 L 242.535156 227.566406 L 254.277344 223.675781 L 256.542969 221.808594 L 242.296875 226.371094 L 246.53125 234.792969 L 256.535156 251.84375 L 257.226562 251.414062 L 260.363281 253.644531 L 255.917969 252.582031 L 251.878906 254.675781 L 247.546875 242.648438 L 251.222656 238.53125 L 250.660156 240.535156 L 246.152344 237.703125 L 244.046875 224.390625 L 236.652344 189.070312 L 228.410156 152.804688 L 229.601562 108.839844 L 233.679688 76.554688 L 240.648438 52.632812 L 243.945312 46.515625 L 243.988281 47.707031 L 243.433594 46.597656 L 241.296875 50.691406 L 235.066406 53.203125 L 241.824219 44.761719 L 235 51.007812 L 234.136719 61.675781 L 242.980469 70.519531 L 244.441406 76.511719 L 238.875 87.039062 L 232.507812 126.183594 L 228.832031 167.683594 L 225.777344 173.632812 L 224.929688 170.890625 L 232.179688 163.039062 L 240.738281 159.117188 L 240.476562 156.835938 L 240.273438 155.917969 L 239.027344 156.269531 L 221.273438 160.742188 L 222.839844 126.949219 L 222.753906 82.769531 L 222.273438 60.375 L 218.804688 64.675781 L 183.871094 57.875 L 137.082031 61.535156 L 97.34375 62.605469 L 69.148438 62.164062 L 55.765625 57.636719 L 45.582031 56.953125 L 43.519531 56.507812 L 49.902344 54.539062 L 49.378906 51.105469 L 43.847656 47.132812 L 38.359375 40.039062 L 22.476562 20.28125 L 24.105469 20.023438 "/>
<g clip-path="url(#clip-0)">
<path fill="none" stroke-width="1.066978" stroke-linecap="butt" stroke-linejoin="round" stroke="rgb(0%, 71.764706%, 100%)" stroke-opacity="1" stroke-dasharray="4.267913 4.267913" stroke-miterlimit="10" d="M 8.21875 147.839844 L 282.519531 147.839844 "/>
</g>
<g clip-path="url(#clip-1)">
<path fill="none" stroke-width="1.066978" stroke-linecap="butt" stroke-linejoin="round" stroke="rgb(0%, 71.764706%, 100%)" stroke-opacity="1" stroke-dasharray="4.267913 4.267913" stroke-miterlimit="10" d="M 149.644531 279.78125 L 149.644531 5.480469 "/>
</g>
</svg>
