<?xml version="1.0" encoding="UTF-8"?>
<svg xmlns="http://www.w3.org/2000/svg" xmlns:xlink="http://www.w3.org/1999/xlink" width="288" height="288" viewBox="0 0 288 288">
<defs>
<clipPath id="clip-0">
<path clip-rule="nonzero" d="M 8.21875 147 L 282.519531 147 L 282.519531 149 L 8.21875 149 Z M 8.21875 147 "/>
</clipPath>
<clipPath id="clip-1">
<path clip-rule="nonzero" d="M 148 5.480469 L 150 5.480469 L 150 279.78125 L 148 279.78125 Z M 148 5.480469 "/>
</clipPath>
</defs>
<rect x="-28.8" y="-28.8" width="345.6" height="345.6" fill="rgb(100%, 100%, 100%)" fill-opacity="1"/>
<rect x="-28.8" y="-28.8" width="345.6" height="345.6" fill="rgb(100%, 100%, 100%)" fill-opacity="1"/>
<path fill="none" stroke-width="1.066978" stroke-linecap="round" stroke-linejoin="round" stroke="rgb(100%, 100%, 100%)" stroke-opacity="1" stroke-miterlimit="10" d="M 0 288 L 288 288 L 288 0 L 0 0 Z M 0 288 "/>
<path fill="none" stroke-width="1.066978" stroke-linecap="butt" stroke-linejoin="round" stroke="rgb(41.176471%, 41.176471%, 41.176471%)" stroke-opacity="1" stroke-miterlimit="10" d="M 69.023438 78.84375 L 66.421875 99.019531 L 66.820312 132.839844 L 67.78125 176.214844 L 61.464844 197.261719 L 53.773438 218.863281 L 43.933594 244.636719 L 43.960938 241.214844 L 45.613281 237.347656 L 64.359375 236.921875 L 94.726562 229.339844 L 144.878906 223.597656 L 184.105469 228.128906 L 195.535156 227.367188 L 195.890625 223.410156 L 210.660156 212.878906 L 216.511719 208.441406 L 220.363281 211.492188 L 230.890625 213.066406 L 234.375 219.773438 L 244.492188 231.472656 L 250.195312 241.050781 L 255.425781 249.546875 L 255.890625 248.859375 L 256.242188 249.574219 L 255.511719 250.074219 L 259.484375 248.019531 L 255.007812 249.921875 L 259.320312 247.945312 L 255.496094 250.3125 L 259.273438 248.023438 L 258.996094 247.835938 L 255.621094 250.339844 L 259.785156 248.261719 L 256.03125 250.476562 L 256.425781 250.738281 L 257.71875 252.203125 L 257.667969 252.691406 L 258.128906 254.113281 L 258.476562 255.222656 L 259.710938 256.253906 L 259.914062 256.125 L 259.941406 255.925781 L 259.992188 256.050781 L 259.808594 255.925781 L 258.625 253.375 L 259.804688 254.480469 L 258.96875 255.628906 L 257.417969 254.757812 L 259.484375 255.304688 L 260.363281 255.722656 L 260.15625 255.277344 L 256.683594 249.054688 L 254.027344 245.675781 L 257.265625 242.777344 L 244.359375 239.601562 L 241.894531 240.171875 L 241.292969 232.917969 L 228.738281 215.960938 L 208.4375 193.597656 L 185.640625 175.84375 L 159.992188 151.59375 L 155.722656 147.230469 L 154.914062 146.003906 L 156.683594 148.394531 L 157.75 150.003906 L 158.007812 150.335938 L 157.929688 150.347656 L 154.859375 145.773438 L 137.210938 120.945312 L 130.871094 108.855469 L 126.152344 100.46875 L 125.105469 97.046875 L 124.183594 98.019531 L 119.480469 92.289062 L 110.128906 84.898438 L 102.492188 72.898438 L 95.632812 64.234375 L 90.773438 63.1875 L 91.355469 65.777344 L 92.582031 65.558594 L 94.144531 67.023438 L 94.96875 65.957031 L 94.902344 64.648438 L 96.5 69.726562 L 104.21875 76.597656 L 103.632812 73.464844 L 102.550781 69.246094 L 101.132812 76.5625 L 88.855469 77.851562 L 81.433594 85.902344 L 67.402344 107.703125 L 68.75 119.492188 L 85.960938 136.492188 L 120.78125 157.007812 L 152.050781 171.523438 L 182.925781 190.722656 L 205.183594 212.589844 L 219.273438 227.515625 L 237.265625 242.097656 L 242.113281 244.128906 L 250.308594 248.875 L 249.753906 249.589844 L 245.917969 245.535156 L 251.597656 246.5 L 257.699219 246.5625 L 261.371094 245.777344 L 261.488281 244.402344 L 244.417969 245.292969 L 233.878906 236.675781 L 218.796875 210.304688 L 191.996094 177.726562 L 174.410156 138.964844 L 170.207031 115.507812 L 178.628906 87.160156 L 191.0625 62.976562 L 202.855469 55.945312 L 214.398438 47.800781 L 215.878906 48.140625 L 214.335938 49.230469 L 213.441406 49.105469 L 216.910156 49.265625 L 239.222656 41.640625 L 245.683594 36.980469 L 248.144531 34.359375 L 246.9375 32.660156 L 244.03125 32.542969 L 242.4375 32.378906 L 242.121094 38.390625 L 239.039062 49.832031 L 245.152344 42.183594 L 255.777344 37.121094 L 257.855469 34.84375 L 259.214844 33.125 L 260.203125 30.59375 L 263.445312 26.894531 L 263.015625 26.527344 L 263.070312 24.421875 L 264.746094 22.070312 L 265 19.75 L 263.339844 29.714844 L 253.488281 33.261719 L 227.691406 43.523438 L 199.386719 56.058594 L 176.855469 62.660156 L 155.6875 61.113281 L 142.382812 59.140625 L 136.207031 61.261719 L 107.570312 61.800781 L 88.628906 60.015625 L 68.503906 53.917969 L 71.269531 53.066406 L 73.574219 52.78125 L 73.242188 52.546875 L 76.140625 52.625 L 85.789062 55.644531 L 73.589844 55.398438 L 58.492188 51.503906 L 53.796875 49.765625 L 43.328125 40.4375 L 38.585938 35.164062 L 41.332031 33.859375 L 39.726562 29.710938 L 23.410156 19.597656 L 23.78125 17.949219 L 22.539062 18.902344 L 22.242188 19.484375 L 21.847656 19.382812 L 22.886719 20.761719 L 22.675781 23.363281 L 38.351562 27.511719 L 40.292969 26.828125 L 40.09375 28.132812 L 41.546875 40.421875 L 58.253906 62.128906 L 84.8125 95.675781 L 119.65625 131.617188 L 154.230469 157.800781 L 178.335938 164.511719 L 204.792969 163.03125 L 215.996094 163.445312 L 217.664062 157.207031 L 225.167969 144.601562 L 224.222656 142.902344 L 224.109375 143.328125 L 227.460938 132.355469 L 230.945312 113.675781 L 233.261719 96.101562 L 236.234375 84.101562 L 235.238281 85.949219 L 233.398438 88.902344 L 233.210938 88.441406 L 237.113281 83.859375 L 238.457031 82.476562 L 232.03125 86.90625 L 237.121094 64.480469 L 243.34375 49.699219 L 249.058594 37.097656 L 247.925781 38.582031 L 244.371094 40.953125 L 243.351562 41.714844 L 240.351562 54.34375 L 225.125 91.550781 L 207.441406 126.539062 L 195.234375 143.070312 L 186.925781 155.222656 L 182.96875 175.09375 L 178.25 206.390625 L 175.570312 213.222656 L 174.125 215.328125 L 174.519531 215.398438 L 174.917969 215.082031 L 173.121094 216.953125 L 164.488281 221.414062 L 154.410156 223.300781 L 144.910156 223.5 L 130.546875 224.445312 L 108.707031 231.050781 L 98.507812 229.855469 L 89.742188 232.597656 L 74.546875 235.089844 L 58.957031 238.335938 L 49.714844 242.945312 L 38.902344 250.734375 L 35.859375 254.589844 L 33.074219 257.070312 L 30.648438 261.261719 L 32.515625 259.667969 L 38.238281 245.007812 L 45.191406 250.300781 L 42.632812 250.734375 L 36.800781 244.167969 L 62.550781 244.328125 L 92.332031 234.53125 L 102.472656 230.535156 L 145.238281 218.507812 L 161.203125 217.789062 L 158.648438 217.089844 L 177.292969 212.054688 L 191.054688 210.890625 L 203.367188 214.597656 L 219.402344 221.570312 L 229.734375 230.652344 L 235.222656 234.796875 L 235.585938 235.394531 L 235.964844 236.945312 L 241.5625 240.914062 L 251.1875 252.242188 L 252.351562 254.335938 L 251.777344 251.855469 L 258.570312 254.992188 L 260.515625 256.761719 L 258.539062 256.957031 L 259.667969 255.425781 L 261.285156 255.386719 L 261.265625 254.332031 L 249.636719 254.894531 L 241.367188 249.570312 L 242.621094 248.515625 L 245.316406 233.933594 L 238.808594 209.765625 L 234.539062 198.484375 L 226.714844 168.382812 L 219.023438 129.53125 L 215.5625 117.804688 L 216.722656 116.792969 L 219.085938 104.828125 L 226.820312 84.449219 L 234.820312 70.386719 L 241.398438 58.648438 L 249.71875 39.480469 L 255.347656 37.464844 L 241.132812 43.277344 L 218.8125 46.171875 L 183.933594 56.617188 L 185.566406 55.074219 L 189.761719 55.417969 L 190.710938 55.542969 L 191.238281 55.933594 L 193.097656 56.570312 L 193.738281 56.871094 L 194.835938 57.347656 L 196.207031 57.085938 L 196.378906 56.777344 L 196.546875 56.757812 L 196.5625 56.75 L 196.609375 56.910156 L 196.664062 56.960938 L 196.695312 57.089844 L 196.796875 57.113281 L 196.882812 57.15625 L 196.960938 57.152344 L 197.085938 57.089844 L 197.066406 57.25 L 196.222656 56.5 L 196.523438 56.265625 L 194.769531 53.082031 L 196.429688 54.183594 L 197 55.578125 L 197.601562 56.816406 L 197.699219 57.742188 L 198.011719 56.992188 L 195.921875 56.792969 L 195.597656 56.875 L 197.167969 56.921875 L 198.316406 57.011719 L 197.628906 57.480469 L 197.6875 56.546875 L 198.265625 56.347656 L 188.734375 64.902344 L 172.566406 81.261719 L 151.222656 90.503906 L 139.800781 87.933594 L 137.484375 87.414062 L 120.390625 87.003906 L 123.101562 87.804688 L 123.503906 85.527344 L 126.507812 87.066406 L 128.753906 89.628906 L 134.894531 107.386719 L 153.664062 136.789062 L 177.945312 170.644531 L 193.878906 197.28125 L 203.871094 222.570312 L 216.066406 222.933594 L 236.097656 230.304688 L 239.605469 233.414062 L 226.113281 227.875 L 204.515625 218.042969 L 193.730469 203.3125 L 188.613281 184.414062 L 185.351562 157.683594 L 184.144531 141.34375 L 185.085938 146.546875 L 182.128906 138.722656 L 170.308594 112.585938 L 164.269531 91.765625 L 159.539062 72.855469 L 152.515625 67.703125 L 139.597656 61.988281 L 120.113281 56.367188 L 106.738281 53.015625 L 96.15625 50.808594 L 95.542969 50.699219 L 97.191406 48.828125 L 95.964844 48.273438 L 99.019531 52.921875 L 98.253906 57.371094 L 74.101562 56.453125 L 61.183594 51.507812 L 50.167969 45.410156 L 41.078125 38.660156 L 40.136719 35.261719 L 39.972656 33.421875 L 39.421875 34.96875 L 40.230469 37.316406 L 44.523438 40.097656 L 48.121094 41.863281 L 49.082031 50.550781 L 53.566406 62.902344 L 59.628906 70.449219 L 81.292969 100.425781 L 96.59375 133.066406 L 93.683594 165.519531 L 74.761719 191.9375 L 78.003906 187.859375 L 75.195312 196.335938 L 71.425781 199.570312 L 72.652344 197.875 L 71.539062 205.488281 L 63.746094 230.871094 L 51.507812 244.863281 L 46.113281 248.515625 L 37.171875 256.640625 L 44.222656 250.378906 L 41.246094 249.144531 L 40.101562 248.476562 L 35.960938 248.03125 L 37.414062 249.402344 L 52.09375 244.261719 L 62.367188 237.253906 L 91.804688 215.789062 L 116.449219 198 L 123.054688 185.691406 L 135.113281 162.496094 L 144.871094 149.324219 L 138.640625 153.550781 L 142.863281 150.523438 L 142.914062 150.832031 L 142.757812 151.722656 L 142.398438 151.738281 L 143.054688 151.464844 L 149.210938 150.238281 L 177.664062 138.308594 L 202.050781 134.3125 L 216.65625 130.570312 L 222.828125 128.597656 L 228.523438 129.167969 L 229.03125 128.050781 L 228.046875 126.648438 L 226.382812 127.566406 L 224.472656 127.515625 L 219.566406 128.96875 L 217.007812 128.832031 L 215.472656 130.066406 L 212.070312 131.621094 L 209.347656 125.0625 L 200.132812 96.574219 L 192.117188 74.527344 L 193.605469 79.253906 L 193.847656 78.203125 L 195.707031 66.28125 L 194.980469 65.832031 L 195.792969 65.421875 L 196.246094 64.589844 L 199.515625 59.894531 L 204.613281 61.894531 L 221.972656 53.847656 L 224.027344 52.929688 L 222.453125 47.101562 L 220.941406 50.917969 L 218.785156 57.269531 L 216.363281 59.773438 L 209.601562 66.402344 L 208.109375 69.398438 L 209.269531 65.242188 L 223.277344 66.410156 L 223.890625 63.160156 L 217.320312 66.652344 L 212.625 90.460938 L 201.898438 110.789062 L 185.039062 146.613281 L 173.738281 174.976562 L 160.414062 203.460938 L 153.488281 214.226562 L 157.960938 212.429688 L 160.300781 214.433594 L 160.769531 209.25 L 166.621094 211.492188 L 177.710938 215.507812 L 193.949219 219.925781 L 210.976562 226.917969 L 224.320312 236.328125 L 236.574219 244.972656 L 248.136719 250.65625 L 248.421875 254.535156 L 244.042969 249.988281 L 241.734375 248.457031 L 242.148438 246.664062 L 245.292969 233.222656 L 236.75 205.972656 L 228.34375 185.1875 L 223.15625 157.753906 L 216.027344 127.539062 L 209.375 93.847656 L 205.601562 68.734375 L 204.28125 62.554688 L 203.640625 61.964844 L 194.726562 62.460938 L 173.84375 59.265625 L 153.71875 57 L 151.746094 57.878906 L 151.765625 56.242188 L 151.738281 58.285156 L 139.0625 69.519531 L 114.484375 85.730469 L 88.585938 97.078125 L 72.699219 106.066406 L 72.605469 103.332031 L 72.632812 103.179688 L 73.140625 103.578125 L 67.554688 100.257812 L 60.847656 92.175781 L 53.5 77.394531 L 51.058594 66.453125 L 51.945312 63.28125 L 50.953125 63.453125 L 49.894531 63.652344 L 49.289062 61.398438 L 49.011719 61.714844 L 48.132812 61.40625 L 48.546875 61.625 L 48.878906 61.71875 L 49.847656 61.851562 L 43.230469 44.460938 L 40.386719 43.921875 L 37.878906 39.109375 L 37.507812 32.058594 L 37.769531 32.277344 L 37.953125 31.445312 L 38.140625 31.761719 L 39.441406 40.304688 L 45.851562 53.542969 L 67.992188 63.671875 L 85.746094 76.636719 L 102.859375 82.414062 L 122.34375 82.746094 L 147.355469 76.777344 L 169.691406 74.085938 L 197.507812 76.722656 L 220.863281 82.28125 L 220.058594 80.53125 L 221.757812 74.417969 L 234.6875 59.394531 L 248.664062 39.953125 L 255.730469 29.972656 L 252.234375 34.363281 L 241.546875 42.953125 L 203.730469 59.457031 L 192.640625 57.414062 L 190.507812 56.75 L 192.8125 54.390625 L 191.820312 53.824219 L 192.277344 52.796875 L 192.507812 52.902344 L 192.855469 52.617188 L 192.777344 53.050781 L 193.117188 52.304688 L 193.566406 52.183594 L 193.644531 52.019531 L 193.160156 51.804688 L 193.535156 52.230469 L 193.207031 51.847656 L 193.746094 52.371094 L 193.628906 52.09375 L 193.28125 51.914062 L 193.472656 52.34375 L 192.839844 52.277344 L 191.367188 52.550781 L 190.324219 52.941406 L 191.582031 52.734375 L 192.523438 52.875 L 193.4375 52.179688 L 193 52.507812 L 192.941406 52.40625 L 192.5625 52.011719 L 192.609375 51.84375 L 193.464844 51.890625 L 193.734375 52.359375 L 193.335938 52.085938 L 193.257812 52.144531 L 193.378906 52.15625 L 192.992188 51.855469 L 193.417969 52.074219 L 193.273438 52.355469 L 194.257812 55.34375 L 199.882812 65.761719 L 199.410156 66.890625 L 198.652344 67.75 L 198.320312 68.859375 L 198.597656 68.726562 L 199.152344 69.246094 L 197.6875 70.550781 L 185.613281 74.867188 L 170.578125 86.4375 L 157.933594 98.507812 L 149.164062 111.550781 L 139.566406 126.832031 L 132.269531 140.167969 L 119.316406 153.425781 L 100.023438 163.074219 L 76.285156 167.882812 L 74.902344 169.289062 L 72.21875 169.457031 L 71.289062 167.042969 L 66.722656 156.421875 L 63.503906 133.746094 L 63.484375 113.003906 L 63.269531 95.949219 L 64.039062 89.835938 L 63.148438 90.214844 L 65.957031 94.035156 L 77.296875 89.214844 L 103.179688 80.921875 L 99.816406 80.296875 L 99.796875 79.28125 L 114.269531 63.796875 L 115.714844 62.421875 L 118.449219 60.230469 L 114.964844 58.34375 L 114.535156 62.304688 L 121.167969 71.386719 L 151.621094 101.628906 L 166.785156 125.589844 L 183.605469 161.277344 L 196.375 187.753906 L 199.945312 207.242188 L 200.925781 217.800781 L 196.683594 216.398438 L 194.796875 220.859375 L 199.570312 218.050781 L 206.652344 216.988281 L 220.890625 230.625 L 220.148438 229.492188 L 220.84375 228.59375 L 235.652344 237.429688 L 248.980469 246.398438 L 252.777344 247.46875 L 257.863281 248.792969 L 258.695312 245.0625 L 259.921875 242.496094 L 247.007812 243.367188 L 239.140625 242.457031 L 240.988281 243.890625 L 252.984375 250.1875 L 254.945312 251.992188 L 257.691406 254.140625 L 259.179688 257.648438 L 260.09375 257.910156 L 260.054688 257.640625 L 260.105469 257.726562 L 259.777344 256.691406 L 261.953125 258.875 L 264.792969 260.808594 L 264.925781 261.128906 L 258.832031 255.773438 L 246.136719 250.320312 L 245.464844 243.304688 L 244 238.523438 L 230.917969 211.027344 L 226.960938 202.328125 L 228.992188 207.675781 L 228.285156 208.644531 L 226.371094 207.765625 L 229.265625 209.273438 L 229.433594 209.003906 L 229.964844 207.886719 L 229.707031 209.195312 L 229.671875 210.96875 L 231.042969 209.464844 L 233.761719 207.234375 L 234.082031 207.113281 L 230.816406 209.742188 L 217.523438 192.757812 L 199.425781 173.058594 L 177.589844 146.9375 L 157.496094 120.046875 L 148.269531 98.25 L 144.96875 94.996094 L 144.871094 94.871094 L 144.652344 82.386719 L 145.808594 69.992188 L 148.046875 61.878906 L 149.917969 59.28125 L 148.054688 61.605469 L 147.976562 64.328125 L 148.375 67.214844 L 147.902344 66.820312 L 148.589844 63.53125 L 147.769531 63.492188 L 147.769531 63.574219 L 147.925781 62.773438 L 149.46875 59.652344 L 148.804688 60.96875 L 147.484375 68.046875 L 144.960938 77.242188 L 152.6875 91.71875 L 163.429688 131.765625 L 169.875 150.335938 L 169.105469 149.070312 L 168.152344 149.359375 L 162.347656 151.136719 L 155.832031 174.550781 L 147.628906 201.484375 L 143.578125 212.128906 L 136.050781 211.015625 L 110.46875 216.261719 L 85.71875 218.871094 L 70.878906 216.644531 L 68.703125 216.988281 L 68.972656 219.890625 L 67.890625 217.1875 L 68.371094 215.078125 L 71.660156 217.359375 L 68.519531 217.9375 L 69.929688 219.027344 L 74.582031 220.589844 L 87.332031 218.03125 L 115.632812 205.042969 L 153.730469 192.390625 L 180.453125 180.414062 L 209.144531 171.917969 L 219.652344 167.480469 L 219.039062 175.4375 L 227.582031 198.394531 L 226.855469 219.1875 L 224.929688 222.914062 L 219.679688 223.792969 L 210.238281 226.824219 L 203.121094 217.257812 L 192.195312 202.847656 L 182.289062 187.378906 L 159.695312 163.457031 L 154.777344 159.140625 L 154.914062 159.886719 L 154.902344 140.085938 L 156.1875 108.859375 L 159.117188 81.410156 L 161.0625 71.367188 L 168.652344 74.308594 L 194.695312 67.710938 L 215.605469 65.46875 L 227.777344 65.90625 L 230.472656 65.453125 L 239.296875 67.09375 L 236.414062 66.441406 L 224.570312 66.460938 L 214.484375 62.304688 L 214.066406 61.527344 L 207.84375 59.617188 L 208.410156 59.105469 L 210.328125 59.71875 L 215.535156 59.679688 L 217.027344 55.628906 L 217.0625 49.402344 L 221.976562 46.570312 L 223.628906 42.507812 L 221.3125 45.625 L 215.75 60.175781 L 183.796875 63.292969 L 161.183594 62.460938 L 155.175781 62.53125 L 149.027344 62.140625 L 137.722656 62.003906 L 125.179688 59.117188 L 117.019531 61.175781 L 106.601562 57.394531 L 90.683594 54.703125 L 90.636719 54.90625 L 94.375 62.492188 L 86.953125 82.074219 L 80.410156 95.238281 L 54.617188 113.597656 L 54.703125 114.011719 L 53.546875 114.523438 L 53.222656 114.792969 L 63.171875 109.367188 L 71.183594 107.492188 L 71.21875 108.558594 L 70.246094 124.402344 L 67.628906 140.734375 L 64.503906 151.042969 L 69.636719 160.78125 L 71.398438 182.988281 L 65.53125 198.382812 L 63.058594 198.667969 L 55.746094 211.757812 L 47.65625 233.160156 L 44.0625 242.871094 L 36.140625 255.148438 L 32.324219 259.226562 L 28.253906 261.484375 L 26.617188 263.84375 L 25.984375 266.933594 L 26.011719 267.3125 L 22.371094 265.125 L 23.320312 265.671875 L 22.894531 265.761719 L 22.925781 266.457031 L 24.695312 264.574219 L 26.40625 259.941406 L 33.558594 255.96875 L 38.757812 249.171875 L 40.867188 248.921875 L 50.355469 243.816406 L 71.660156 230.886719 L 97.066406 218.761719 L 107.96875 211.621094 L 137.1875 195.375 L 173.144531 192.015625 L 196.496094 192.003906 L 207.171875 195.027344 L 218.027344 204.53125 L 234.089844 223.542969 L 245.4375 237.886719 L 250.652344 243.054688 L 253.226562 245.976562 L 254.328125 249.910156 L 256.457031 255.28125 L 257.320312 254.066406 L 257.503906 252.007812 L 260.886719 246.785156 L 262.519531 246.199219 L 254.46875 244.835938 L 255.378906 245.324219 L 257.078125 249.214844 L 257.804688 250.304688 L 259.164062 255.457031 L 260.707031 255.546875 L 259.335938 252.273438 L 258.40625 252.082031 L 258.925781 252.378906 L 259.003906 252.53125 L 258.847656 252.089844 L 259.449219 252.667969 L 259.558594 252.558594 L 259.367188 253.058594 L 259.667969 253.167969 L 261.601562 249.566406 L 261.570312 249.734375 L 261.355469 249.878906 L 270.027344 242.058594 L 258.199219 253.535156 L 270.050781 242.902344 L 258.808594 253.535156 L 259.242188 253.238281 L 259.421875 253.144531 L 258.289062 252.425781 L 258.761719 253.546875 L 259.285156 253.617188 L 259.183594 253.5625 L 257.765625 251.464844 L 258.03125 251.089844 L 257.769531 252.535156 L 257.980469 252.816406 L 257.4375 255.085938 L 257.238281 254.574219 L 257.628906 255.007812 L 257.867188 255.210938 L 257.804688 254.960938 L 256.65625 254.019531 L 254.484375 254.4375 L 254.597656 254.445312 L 254.941406 254.359375 L 254.507812 249.089844 L 245.707031 243.847656 L 232.964844 232.339844 L 217.582031 210.214844 L 200.375 185.90625 L 186.960938 155.695312 L 184.226562 129.425781 L 183.40625 108.183594 L 181.894531 78.980469 L 181.589844 65.367188 L 184.179688 65.234375 L 184.789062 63.347656 L 184.832031 66.863281 L 185.253906 68.355469 L 184.046875 68.664062 L 184.710938 68.996094 L 183.234375 70.242188 L 183.175781 82.25 L 181.75 81.015625 L 180.097656 69.703125 L 183.183594 72.128906 L 189.800781 66.871094 L 209.429688 60.578125 L 230.121094 56.199219 L 238.089844 51.171875 L 250.625 36.09375 L 256.402344 31.738281 L 257.964844 28.101562 L 262.945312 27.304688 L 262.421875 24.4375 L 264.457031 20.214844 L 264.480469 19.375 L 259.308594 27.015625 L 250.371094 35.472656 L 230.167969 39.328125 L 205.613281 50.421875 L 189.3125 52.472656 L 159.367188 56.019531 L 135.890625 58.621094 L 119.308594 57.566406 L 98.132812 54.085938 L 89.15625 49.390625 L 82.023438 46.921875 L 81.066406 46.300781 L 80.898438 47.261719 L 82.527344 48.300781 L 85.765625 48.167969 L 82.832031 57.402344 L 82.3125 56.128906 L 77.644531 60.925781 L 62.246094 79.082031 L 63.605469 75.816406 L 54.300781 65.773438 L 52.746094 60.738281 L 53.730469 61.8125 L 54.117188 63.070312 L 52.5 58.589844 L 43.773438 43.15625 L 38.316406 36.660156 L 37.464844 33.640625 L 38.363281 33.105469 L 40.355469 35.253906 L 24.960938 19.292969 L 24.277344 18.5625 L 24.226562 18.269531 L 23.078125 18.453125 L 22.386719 18.875 L 22.394531 18.839844 L 22.097656 19.246094 L 22.984375 18.605469 L 23.71875 18.046875 L 23.457031 18.433594 L 36.585938 30.472656 L 39.511719 32.953125 L 37.835938 34.996094 L 43.277344 39.0625 L 62.945312 51.640625 L 94.78125 66.34375 L 123.296875 74.417969 L 150.910156 77.683594 L 158.550781 76.820312 L 159.46875 78.410156 L 169.175781 89.386719 L 179.339844 110.472656 L 183.324219 144.535156 L 183.488281 173.203125 L 180.601562 195.300781 L 181.476562 207.824219 L 176.394531 209.898438 L 163.234375 216.515625 L 147.078125 221.277344 L 130.996094 220.113281 L 112.265625 216.160156 L 95.042969 212.777344 L 89.839844 213.722656 L 77.792969 205.523438 L 68.261719 199.445312 L 67.085938 185.976562 L 65.609375 162.613281 L 70.3125 151.90625 L 80.65625 129.035156 L 95.300781 103.4375 L 98.726562 98.238281 L 97.601562 99.144531 L 98.351562 97.085938 L 98.308594 97.214844 L 105.609375 87.414062 L 119.898438 67.839844 L 119.773438 67.699219 L 119.199219 68.585938 L 138.613281 62.632812 L 163.300781 57.523438 L 177.101562 54.953125 L 184.789062 52.90625 L 181.894531 54.390625 L 175.839844 58.890625 L 193.394531 56.992188 L 220.039062 62.730469 L 230.339844 61.132812 L 242.738281 50.605469 L 255.394531 33.484375 L 257.570312 26.09375 L 260.609375 23.1875 L 259.359375 24.363281 L 256.101562 23.308594 L 256.601562 24.351562 L 255.609375 23.035156 L 252.792969 25.15625 L 248.539062 27.984375 L 250.363281 37.683594 L 248.535156 38.910156 L 248.109375 39.097656 L 248.492188 39.070312 L 249.699219 38.425781 L 250.199219 38.078125 L 250.933594 37.402344 L 251.714844 36.351562 L 252.140625 35.503906 L 252.363281 35.078125 L 252.511719 34.832031 L 252.464844 35.152344 L 252.488281 34.921875 L 252.226562 35.402344 L 251.929688 35.410156 L 251.945312 36.070312 L 251.730469 36.398438 L 251.351562 36.585938 L 251 37.15625 L 250.945312 37.144531 L 251.488281 36.96875 L 250.980469 36.90625 L 251.28125 36.234375 L 250.902344 36.785156 L 250.828125 35.152344 L 250.175781 36.480469 L 248.832031 37.363281 L 249.0625 37.125 L 249.058594 36.398438 L 247.765625 35.960938 L 247.847656 36.425781 L 247.8125 36.730469 L 249.328125 36.578125 L 248.539062 36.683594 L 247.609375 37.976562 L 248.777344 35.429688 L 248.484375 36.191406 L 249.019531 38.675781 L 250.28125 37.617188 L 248.746094 38.589844 L 246.355469 39.066406 L 236.6875 47.375 L 220.394531 66.492188 L 211.542969 80.472656 L 204.628906 95.082031 L 191.242188 113.503906 L 168.886719 137.9375 L 152.835938 155.902344 L 145.789062 164.507812 L 146.089844 167.160156 L 145.683594 165.492188 L 145.355469 164.742188 L 144.871094 165.574219 L 145.039062 164.417969 L 146.753906 161.199219 L 136.65625 161.851562 L 123.65625 157.816406 L 102.183594 150.609375 L 81.949219 140.90625 L 79.015625 139.558594 L 78.777344 149.230469 L 73.761719 162.734375 L 73.152344 165.59375 L 73.84375 164.351562 L 75.59375 161.675781 L 80.472656 154.746094 L 98.097656 164.671875 L 123.65625 169.0625 L 154.769531 173.640625 L 181.324219 179.5 L 206.734375 196.804688 L 224.609375 211.957031 L 238.636719 225.886719 L 248.816406 238.003906 L 252.945312 240.679688 L 253.214844 240.117188 L 247.4375 237.945312 L 244.6875 238.765625 L 248.0625 235.609375 L 249.117188 238.113281 L 249.820312 238.902344 L 250.246094 240.8125 L 256.976562 248.628906 L 257.128906 238.65625 L 236.03125 239.582031 L 207.960938 227.078125 L 179.589844 210.589844 L 156.757812 203.867188 L 134.320312 209.925781 L 122.117188 217.007812 L 117.65625 217.324219 L 117.242188 217.519531 L 102.414062 230.539062 L 93.863281 232.582031 L 79.558594 235.832031 L 65.164062 241.128906 L 56.925781 241.023438 L 55.929688 240.394531 L 52.339844 241.484375 L 37.8125 252.007812 L 32.890625 258.125 L 29.289062 255.761719 L 31.617188 257.402344 L 31.421875 258.546875 L 28.5625 261.574219 L 28.546875 262.308594 L 26.863281 264.367188 L 25.355469 265.164062 L 25.617188 261.890625 L 30.957031 259.066406 L 38.167969 254.769531 L 43.335938 260.441406 L 43.0625 262.085938 L 43.425781 262.25 L 41.816406 254.4375 L 40.988281 245.488281 L 45.625 246.8125 L 80.101562 230.199219 L 106.609375 220.746094 L 119.421875 219.335938 L 120.957031 212.429688 L 133.914062 191.761719 L 148.335938 172.578125 L 158.972656 159.046875 L 164.867188 151.984375 L 171.011719 131.976562 L 184.488281 107.171875 L 195.734375 88.441406 L 207.992188 71.691406 L 217.664062 59.832031 L 226.300781 50.683594 L 229.007812 48.863281 L 235.160156 49.796875 L 233.214844 51.035156 L 231.207031 50.953125 L 230.515625 49.699219 L 231.703125 48.636719 L 232.449219 47.820312 L 232.363281 47.316406 L 232.566406 47.394531 L 233.402344 48.757812 L 231.574219 48.132812 L 228.648438 50.289062 L 222.300781 54.027344 L 222.359375 54.703125 L 221.449219 52.976562 L 220.167969 53.03125 L 217.8125 64.042969 L 201.871094 84.875 L 179.304688 96.683594 L 161.058594 97.652344 L 140.289062 91.9375 L 123.773438 83.863281 L 115.003906 78.03125 L 106.867188 66.1875 L 103.074219 59.851562 L 103.027344 62.347656 L 103.039062 66.914062 L 101.847656 67.921875 L 105.683594 68.039062 L 109.246094 67.480469 L 110.089844 66.964844 L 108.519531 68.332031 L 107.746094 68.902344 L 99.691406 72.226562 L 77.273438 78.886719 L 72.1875 79.167969 L 71.28125 77.199219 L 71.683594 73.300781 L 73.171875 74.769531 L 78.621094 77.214844 L 93.5625 79.886719 L 110.539062 83.601562 L 113.515625 83.882812 L 121.980469 99.824219 L 139.914062 121.109375 L 166.289062 151.980469 L 184.976562 178.421875 L 197.132812 200.222656 L 213.03125 225.960938 L 232.707031 240.871094 L 243.1875 247.484375 L 244.875 246.746094 L 244.054688 248.300781 L 243.507812 248.429688 L 240.027344 240.753906 L 243.15625 238.78125 L 237.199219 235.480469 L 234.457031 213.394531 L 230.496094 184.910156 L 228.816406 173.363281 L 226.980469 171.460938 L 212.792969 158.632812 L 197.316406 136.132812 L 185.664062 118.132812 L 172.09375 94.277344 L 162.125 77.140625 L 156.835938 67.511719 L 155.734375 67.839844 L 152.992188 64.496094 L 143.179688 65.332031 L 115.214844 58.910156 L 96.925781 55.28125 L 79.457031 51.714844 L 67.144531 46.234375 L 52.519531 40.273438 L 49.148438 37.988281 L 51.585938 39.429688 L 59.238281 48.828125 L 56.304688 65.46875 L 62.425781 75.648438 L 73.445312 106.871094 L 79.703125 125.25 L 78.304688 121.605469 L 77.511719 119.75 L 77.269531 118.902344 L 77.078125 118.316406 L 77.015625 117.671875 L 77.175781 117.941406 L 84.953125 133.28125 L 99.027344 159.359375 L 107.394531 180.679688 L 110.105469 186.144531 L 109.746094 187.003906 L 109.515625 185.085938 L 108.660156 183.34375 L 107.363281 182.3125 L 117.953125 177.871094 L 150.730469 178.859375 L 174.511719 180.8125 L 200.207031 186.585938 L 222.257812 191.433594 L 223.308594 190.25 L 232.089844 189.5 L 233.597656 189.347656 L 237.539062 187.964844 L 235.179688 188.121094 L 227.878906 189.28125 L 211.898438 189.769531 L 205.363281 174.707031 L 195.984375 168.761719 L 180.675781 160.207031 L 161.554688 145.542969 L 135.726562 127.289062 L 120.355469 116.59375 L 102.996094 102.484375 L 94.238281 93.386719 L 101.121094 95.785156 L 102.25 94.761719 L 100.214844 101.332031 L 87.625 109.546875 L 69.824219 121.746094 L 65.25 121.636719 L 58.324219 120.003906 L 62.558594 120.546875 L 76.699219 117.855469 L 85.070312 125.375 L 96.410156 155.742188 L 102.226562 183.5625 L 103.539062 199.628906 L 101.21875 203.25 L 96.007812 223.789062 L 94.390625 222.25 L 93.363281 233.90625 L 94.398438 234.925781 L 95.328125 218.410156 L 100.910156 208.945312 L 120.390625 201.398438 L 122.691406 192.683594 L 125.984375 173.550781 L 128.960938 156.378906 L 129.855469 156.746094 L 128.53125 156.089844 L 127.027344 157.617188 L 126.664062 158.105469 L 126.503906 159.34375 L 126.695312 160.953125 L 127.4375 165.078125 L 122.414062 155.9375 L 120.867188 152.929688 L 110.328125 125.589844 L 107.027344 93.230469 L 108.519531 68.230469 L 102.433594 64.808594 L 92.847656 58.941406 L 76.679688 47.925781 L 64.394531 44.8125 L 65.726562 43.871094 L 61.949219 41.144531 L 52.175781 37.996094 L 44.089844 33.023438 L 39.46875 29.023438 L 38.621094 28.515625 L 38.296875 28.539062 L 37.617188 29.042969 L 36.890625 29.34375 L 36.890625 29.246094 L 39.140625 29.296875 L 45.867188 33.34375 L 51.222656 51.765625 L 74.25 69.75 L 99.253906 83.40625 L 139.671875 100.433594 L 179.722656 107.121094 L 204.585938 104.335938 L 221.933594 95.953125 L 230.375 82.246094 L 239.582031 63.421875 L 246.394531 50.796875 L 253.148438 34.667969 L 253.9375 30.742188 L 255.09375 30.914062 L 258.636719 28.675781 L 260.691406 27.453125 L 261.734375 26.980469 L 261.773438 27.035156 L 262.242188 26.929688 L 260.128906 27.734375 L 245.550781 34.167969 L 237.191406 41.257812 L 221.863281 60.746094 L 211.328125 78.03125 L 203.566406 87.589844 L 203.269531 86.597656 L 203.3125 89.402344 L 202.007812 88.726562 L 188.167969 98.398438 L 174.054688 117.722656 L 160.554688 144.074219 L 145.976562 167.617188 L 132.253906 192.730469 L 118.652344 212.820312 L 115.503906 215.265625 L 98.15625 227.777344 L 80.167969 231.214844 L 53.796875 236.835938 L 47.324219 242.835938 L 45.832031 247.289062 L 43.394531 249.265625 L 37.609375 253.964844 L 39.289062 250.40625 L 37.15625 256.722656 L 39.179688 262.382812 L 39.910156 263.277344 L 39.574219 263.03125 L 38.378906 263.65625 L 37.523438 258.210938 L 43.023438 245.871094 L 77.273438 230.363281 L 113.511719 217.855469 L 147.996094 206.578125 L 174.472656 197.003906 L 192.238281 191.902344 L 220.707031 179.203125 L 220.035156 179.394531 L 225.726562 178.976562 L 228.359375 177.871094 L 229.726562 176.667969 L 231.910156 175.726562 L 236.863281 175.839844 L 236.925781 175.175781 L 225.609375 177.710938 L 216.558594 173.1875 L 207.191406 145.808594 L 199.882812 121.746094 L 192.644531 92.515625 L 186.449219 68.742188 L 186.472656 63.46875 L 189.191406 65.738281 L 191.570312 64.714844 L 197.113281 59.359375 L 222.699219 47.511719 L 240.96875 40.253906 L 246.898438 33.722656 L 240.625 36.765625 L 234.566406 42.996094 L 224.648438 43.867188 L 204.273438 48.59375 L 179.238281 54.136719 L 153.253906 54.519531 L 128.035156 56.851562 L 108.914062 59.640625 L 109.09375 61.734375 L 109.679688 61.851562 L 110.441406 59.960938 L 110.21875 59.683594 L 109.019531 59.65625 L 111.59375 60.144531 L 111.847656 60.308594 L 111.898438 59.90625 L 110.90625 59.140625 L 110.570312 59.628906 L 110.007812 59.308594 L 110.601562 59.925781 L 111.382812 60.234375 L 111.078125 60.714844 L 111.800781 61.210938 L 111.117188 61.636719 L 111.335938 61.648438 L 111.496094 61.859375 L 112.828125 61.214844 L 115.414062 60.257812 L 111.648438 63.433594 L 111.992188 65.464844 L 113.75 68.085938 L 107.367188 71.636719 L 104.660156 73.320312 L 92.441406 80.070312 L 79.144531 86.800781 L 71.066406 93.601562 L 72.398438 93.683594 L 75.515625 91.761719 L 71.722656 95.59375 L 66.257812 106.535156 L 62.707031 113.796875 L 63.605469 113.988281 L 63.570312 113.394531 L 63.5 112.890625 L 61.824219 114.367188 L 63.253906 113.246094 L 63.640625 113.84375 L 62.316406 130.929688 L 63.769531 153.890625 L 63.886719 173.890625 L 61.265625 188.507812 L 58.386719 198.226562 L 58.132812 201.003906 L 56.511719 200.675781 L 54.609375 199.144531 L 54.269531 201.050781 L 62.75 190.601562 L 68.292969 184.914062 L 69.882812 202.804688 L 69.25 217.867188 L 72.253906 225.769531 L 67.777344 232.820312 L 62.3125 239.605469 L 50.464844 247.1875 L 46.835938 248.363281 L 50 244.902344 L 61.617188 239.984375 L 74.648438 238.824219 L 84.964844 235.191406 L 85.828125 233.660156 L 85.054688 233.640625 L 93.28125 232.542969 L 122.957031 220.652344 L 148.113281 215.210938 L 156.402344 214.316406 L 175.757812 214.71875 L 177.355469 215.921875 L 174.449219 216.648438 L 174.09375 216.789062 L 174.054688 216.835938 L 175.066406 216.695312 L 185.828125 216.835938 L 206.390625 217.632812 L 221.316406 218.421875 L 227.726562 218.898438 L 229.21875 218.421875 L 230.921875 218.289062 L 231.605469 218.179688 L 232.628906 213.875 L 232.996094 209.578125 L 234.492188 202.210938 L 233.3125 191.683594 L 234.375 184.34375 L 232.011719 170.203125 L 229.8125 158.226562 L 229.378906 151.570312 L 230.230469 147.078125 L 229.21875 140.421875 L 229.535156 120.574219 L 230.628906 101.800781 L 231.996094 93.195312 L 234.800781 89.527344 L 230.789062 89.898438 L 231.90625 91.382812 L 231.175781 92.714844 L 230.234375 92.414062 L 229.707031 93.453125 L 229.125 99.394531 L 232.054688 90.25 L 236.3125 79.996094 L 237.449219 77.335938 L 238.089844 74.519531 L 244.914062 49.273438 L 251.773438 34.773438 L 250.269531 39.996094 L 242.085938 45.039062 L 214.933594 52.796875 L 190.578125 62.953125 L 167.75 63.589844 L 140.011719 59.8125 L 118.007812 57.953125 L 103.226562 54.554688 L 84.914062 51.101562 L 68.015625 49.832031 L 61.515625 47.882812 L 61.085938 45.734375 L 62.472656 47.441406 L 63.503906 46.898438 L 63.332031 47.21875 L 65.382812 49.292969 L 67.8125 48.910156 L 58.03125 47.796875 L 47.773438 40.257812 L 45.242188 36.769531 L 45.980469 35.429688 L 39.160156 30.078125 L 22.914062 20.390625 L 21.15625 25.0625 L 22.726562 25.585938 L 42.09375 26.636719 L 44.769531 43.410156 L 70.261719 77.574219 L 114.347656 107.140625 L 133.234375 123.769531 L 139.070312 136.886719 L 155.402344 164.367188 L 174.027344 197.371094 L 197.28125 227.476562 L 219.507812 235.738281 L 238.082031 243.5625 L 250.25 251.027344 L 252.648438 252.136719 L 257.550781 254.332031 L 255.320312 255.539062 L 255.515625 255.976562 L 255.277344 255.910156 L 254.878906 255.574219 L 255.078125 256.136719 L 257.945312 253.785156 L 258.160156 253.644531 L 255.5625 255.929688 L 256.101562 256.847656 L 255.945312 257.335938 L 255.710938 257.605469 L 255.644531 256.867188 L 256.34375 257.445312 L 258.804688 259.335938 L 260.128906 259.21875 L 260.210938 259.023438 L 259.992188 259.050781 L 259.855469 258.632812 L 260.445312 258.460938 L 262.214844 259.773438 L 264.773438 261.515625 L 264.960938 261.4375 L 260.28125 259.773438 L 261.390625 259.636719 L 260.394531 258.832031 L 254.882812 257.703125 L 251.066406 255.734375 L 249.746094 246.589844 L 246.738281 233.453125 L 245.042969 232.457031 L 237.0625 206.316406 L 231.3125 178.375 L 230.066406 161.75 L 226.394531 159.769531 L 227.367188 148.1875 L 228.429688 146.320312 L 231.84375 146.460938 L 234.5625 144.007812 L 235.867188 142.996094 L 228.15625 146.59375 L 222.039062 142.597656 L 218.859375 117.128906 L 219.089844 98.394531 L 225.214844 76.753906 L 234.222656 52.277344 L 239.367188 43.382812 L 249.359375 33.84375 L 253.433594 28.003906 L 253.226562 27.140625 L 256.847656 23 L 260.621094 21.726562 L 260.542969 21.203125 L 261.457031 20.613281 L 264.453125 18.039062 L 263.59375 19.308594 L 251.246094 27.292969 L 244.351562 41.773438 L 224.324219 65.746094 L 198.398438 90.53125 L 176.5 115.398438 L 161.566406 130.277344 L 159.332031 131.894531 L 159.433594 131.699219 L 158.300781 133.105469 L 158.207031 132.625 L 156.753906 133.773438 L 157.078125 132.585938 L 156.464844 133.277344 L 157.519531 132.144531 L 157.585938 131.988281 L 156.542969 134.265625 L 156.996094 132.929688 L 156.703125 132.714844 L 155.605469 133.503906 L 154.808594 129.953125 L 154.324219 130.453125 L 154.230469 132.609375 L 154.574219 132.558594 L 154.683594 132.3125 L 154.847656 130.542969 L 154.46875 132.140625 L 154.730469 130.503906 L 154.5625 130.039062 L 154.957031 130.308594 L 153.925781 131.339844 L 153.613281 131.15625 L 153.425781 131.457031 L 153.390625 129.644531 L 153.84375 129.964844 L 154.539062 130.117188 L 149.722656 135.378906 L 140.488281 140.9375 L 132.371094 147.90625 L 126.410156 150.589844 L 113.542969 154.179688 L 97.777344 158.175781 L 95.042969 157.308594 L 96.53125 154.972656 L 97.554688 156.171875 L 98.167969 155.902344 L 97.78125 155.675781 L 97.570312 156.636719 L 97.5625 157.128906 L 97.894531 157.144531 L 97.210938 157.484375 L 99.71875 157.714844 L 105.820312 154.164062 L 104.09375 154.964844 L 97.964844 157.789062 L 94.453125 159.632812 L 92.964844 159.082031 L 98.308594 157.003906 L 97.476562 155.511719 L 78.144531 143.84375 L 67 130.226562 L 63.621094 121.667969 L 60.632812 118.476562 L 57.929688 117.957031 L 59.316406 120.207031 L 57.730469 120.78125 L 57.96875 121.335938 L 55.671875 121.722656 L 70.203125 128.695312 L 88.183594 126.503906 L 117.71875 131.929688 L 142.765625 138.808594 L 150.019531 143.914062 L 162.007812 151.386719 L 182 175.460938 L 202.4375 189.257812 L 219.117188 199.703125 L 229.558594 213.183594 L 234.242188 228.046875 L 233.761719 230.128906 L 231.484375 230.644531 L 230.5625 232.824219 L 227.65625 233.195312 L 228.058594 234.207031 L 226.207031 234.636719 L 218.660156 235.636719 L 206.164062 232.476562 L 205.222656 230.648438 L 192 229.429688 L 166.5 222.804688 L 144.296875 216.539062 L 116.375 207.242188 L 103.910156 199.972656 L 105.636719 201.210938 L 105.085938 201.324219 L 104.574219 201.050781 L 94.714844 195.679688 L 73.695312 181.425781 L 69.914062 177.023438 L 69.941406 178.40625 L 70.46875 180.503906 L 68.109375 182.859375 L 60.421875 191.070312 L 54.164062 206.292969 L 49.53125 220.585938 L 46.25 226.066406 L 46 225.320312 L 40.054688 241.054688 L 29.25 250.53125 L 31.859375 254.285156 L 29.101562 252.527344 L 31.625 254.855469 L 29.875 252.488281 L 32.472656 254.808594 L 32.273438 254.679688 L 27.101562 256.324219 L 27.835938 260.660156 L 27.496094 260.972656 L 27.425781 261.503906 L 26.191406 264.414062 L 25.113281 265.488281 L 24.570312 265.730469 L 25.824219 264.046875 L 34.050781 254.027344 L 36.660156 253.578125 L 41.949219 250.296875 L 69.554688 240.242188 L 97.703125 227.40625 L 116.863281 219.644531 L 119.285156 217.972656 L 133.503906 207.636719 L 134.167969 213.542969 L 135.054688 212.910156 L 136.8125 213.214844 L 154.855469 200.859375 L 177.589844 193.570312 L 204.847656 192.671875 L 223.273438 198.421875 L 225.285156 199.871094 L 226.394531 199.546875 L 226.726562 201.929688 L 236.617188 213.238281 L 243.5625 230.273438 L 246.3125 239.96875 L 249.988281 241.765625 L 253.515625 250.691406 L 255.605469 253.097656 L 257.332031 252.914062 L 257.925781 252.9375 L 258.058594 254.25 L 257.519531 254.425781 L 260.054688 254.042969 L 257.535156 254.039062 L 257.476562 254.027344 L 258.683594 256.550781 L 259.785156 258.074219 L 260.796875 258.867188 L 260.101562 258.035156 L 260.742188 258.425781 L 263.828125 260.191406 L 264.066406 260.53125 L 257.105469 252.089844 L 253.183594 249.664062 L 247.648438 251.3125 L 249.003906 250.09375 L 247.679688 246.148438 L 243.40625 246.75 L 228.226562 239.488281 L 203.757812 222.054688 L 187.527344 209.464844 L 166.238281 193.15625 L 161.390625 189.398438 L 156.824219 159.226562 L 157.625 158.585938 L 156.746094 157.179688 L 150.484375 135.46875 L 143.558594 110 L 140.355469 81.828125 L 142.964844 68.253906 L 140.921875 69.832031 L 134.324219 64.253906 L 127.035156 60.496094 L 118.289062 57.03125 L 108.402344 53.402344 L 90.457031 49.730469 L 81.289062 45.449219 L 67.695312 40.816406 L 56.527344 33.96875 L 51.628906 36.160156 L 43.898438 30.085938 L 40.84375 29.898438 L 40.714844 29.554688 L 42.03125 27.007812 L 41.96875 26.8125 L 42.097656 27.085938 L 43.035156 29.597656 L 43.96875 31.257812 L 44.601562 32.472656 L 43.140625 30.71875 L 42.589844 30.804688 L 44.644531 34.757812 L 46.203125 42.59375 L 45.925781 42.027344 L 45.003906 40.167969 L 47.339844 46.222656 L 45.804688 40.558594 L 45.175781 39.113281 L 46.644531 41.34375 L 48.359375 44.089844 L 58.921875 68.808594 L 73.03125 98.734375 L 88.582031 124.964844 L 106.351562 153.808594 L 120.332031 182.730469 L 122.457031 198.058594 L 122.363281 211.335938 L 122.027344 211.46875 L 119.5 215.5 L 117.058594 217.71875 L 113.617188 232.335938 L 115.246094 232.355469 L 115.695312 232.214844 L 114.335938 231.304688 L 114.558594 231.753906 L 114.816406 231.796875 L 114.007812 231.46875 L 117.945312 218.09375 L 109.207031 213.03125 L 89.328125 191.289062 L 72.136719 168.9375 L 72.34375 146.152344 L 71.785156 112.296875 L 74.015625 87.484375 L 74.347656 64.792969 L 76.113281 66.71875 L 69.175781 74.351562 L 64.207031 90.746094 L 64.164062 128.871094 L 71.320312 172.132812 L 80.933594 198.113281 L 85.625 219.691406 L 85.324219 227.472656 L 86.5 234.078125 L 88.476562 235.609375 L 90.398438 236.214844 L 90.617188 236.367188 L 88.5625 232.5 L 87.992188 221.988281 L 114.464844 205.386719 L 134.820312 192.351562 L 145.5 179.746094 L 152.914062 158 L 154.144531 150.808594 L 154.914062 151.261719 L 155.992188 151.082031 L 154.527344 152.261719 L 153.199219 154.132812 L 153.605469 155.246094 L 152.257812 158.664062 L 154.296875 160.921875 L 155.546875 161.238281 L 155.320312 159.839844 L 154.035156 160.488281 L 151.84375 163.011719 L 150.742188 163.851562 L 156.628906 146.699219 L 164.320312 126.222656 L 169.511719 110.222656 L 173.417969 99.523438 L 177.503906 80.65625 L 177.996094 67.152344 L 173.828125 75.507812 L 167.46875 77.332031 L 151.144531 78.359375 L 143.730469 79.765625 L 128.671875 94.371094 L 127.777344 101.355469 L 134.972656 119.179688 L 152.246094 141.316406 L 174.21875 170.722656 L 191.367188 197.53125 L 211.261719 222.980469 L 214.148438 224.136719 L 221.554688 223.550781 L 229.007812 206.089844 L 229.972656 200.003906 L 232.589844 194.523438 L 231.859375 194.636719 L 232.433594 192.898438 L 232.332031 193.640625 L 233.085938 186.480469 L 233.117188 170.605469 L 231.445312 156.984375 L 231.3125 150.839844 L 230.898438 151.945312 L 230.777344 147.460938 L 228.746094 124.804688 L 223.140625 104.253906 L 222.824219 94.558594 L 222.214844 87.085938 L 223.507812 86.871094 L 223.824219 89.226562 L 225.09375 89.65625 L 223.933594 89.691406 L 224.949219 89.542969 L 222.796875 89.710938 L 222.519531 78.617188 L 223.136719 69.890625 L 224.6875 67.820312 L 232.316406 53.570312 L 240.066406 48.667969 L 238.613281 49.898438 L 240.148438 51.296875 L 237.046875 52.460938 L 231.144531 53.054688 L 228.382812 53.746094 L 227.21875 56.128906 L 221.832031 63.542969 L 220.601562 65.070312 L 215.851562 63.984375 L 195.953125 61.199219 L 165.058594 79.285156 L 138.34375 101.453125 L 111.835938 124.15625 L 91.101562 143.261719 L 76.429688 155.566406 L 78.339844 153.714844 L 75.496094 145.765625 L 66.066406 119.578125 L 60.515625 97.8125 L 54.175781 72.3125 L 53.429688 54.53125 L 48.699219 45.792969 L 40.03125 37.824219 L 36.066406 34.832031 L 41.269531 36.441406 L 67.976562 48.382812 L 88.335938 53.890625 L 98.347656 52.34375 L 107 52.484375 L 111.488281 53.394531 L 113.292969 51.261719 L 114.019531 50.914062 L 114.492188 50.917969 L 114.855469 50.730469 L 113.699219 51.363281 L 111.890625 51.589844 L 107.480469 50.769531 L 99.847656 56.898438 L 104.414062 53.746094 L 105.332031 54.765625 L 105.351562 55.839844 L 105.636719 59.621094 L 137.539062 69.984375 L 163.710938 90.699219 L 183.578125 100.09375 L 196.878906 103.402344 L 201.699219 115.035156 L 207.679688 146.21875 L 209.664062 180.320312 L 211.121094 206.914062 L 209.621094 220.761719 L 207.085938 224.621094 L 201.589844 227.625 L 201.746094 229.472656 L 201.605469 230.917969 L 205.808594 221.398438 L 203.265625 214.726562 L 200.851562 215.949219 L 206.804688 216.097656 L 204.378906 220.660156 L 206.457031 218.929688 L 196.164062 212.328125 L 179.894531 198.738281 L 174.097656 182.480469 L 171.105469 163.253906 L 167.773438 138.421875 L 167.101562 109.816406 L 164.449219 82.429688 L 164.28125 70.910156 L 166.925781 74.867188 L 182.59375 65.878906 L 187.171875 65.539062 L 183.820312 64.484375 L 195.957031 66.214844 L 220.664062 70.085938 L 229.332031 68.539062 L 229.246094 68.402344 L 224.199219 68.691406 L 216.453125 69.699219 L 196.363281 97.175781 L 174.714844 112.414062 L 147.894531 122.476562 L 145.675781 121.046875 L 145.652344 120.71875 L 145.746094 120.429688 L 146.394531 120.300781 L 133.664062 128.6875 L 110.765625 143.15625 L 89.003906 150.839844 L 71.523438 147.570312 L 65.832031 143.878906 L 64.828125 145.402344 L 63.589844 145.742188 L 64.3125 148.855469 L 60.167969 154.875 L 62.464844 155.355469 L 73.527344 151.96875 L 84.894531 152.035156 L 89.019531 168.585938 L 98.988281 183.058594 L 105.628906 202.683594 L 105.3125 216.664062 L 88.609375 229.183594 L 63.339844 237.160156 L 51.835938 240.558594 L 37.421875 253.34375 L 35.546875 256.835938 L 39.089844 260.714844 L 36.722656 258.441406 L 40.265625 260.582031 L 38.59375 255.140625 L 42.238281 258.808594 L 32.902344 257.605469 L 30.59375 259.621094 L 28.054688 257.84375 L 29.28125 257.660156 L 38.121094 255.53125 L 48.480469 242.015625 L 68.585938 226.03125 L 95.386719 213.046875 L 120.121094 203.496094 L 114.089844 204.722656 L 137.238281 199.007812 L 158.558594 197.871094 L 184.808594 203.867188 L 185.386719 206.285156 L 184.9375 206.335938 L 188.960938 208 L 199.4375 216.488281 L 212.90625 228.5 L 224.910156 238.421875 L 237.183594 242.953125 L 248.203125 249.316406 L 245.128906 248.460938 L 246.539062 250.246094 L 244.144531 247.039062 L 243.203125 245.898438 L 244.78125 245.621094 L 248.636719 248.410156 L 247.636719 252.417969 L 242.46875 247.214844 L 242.953125 242.523438 L 243.683594 227.976562 L 238.941406 220.714844 L 232.886719 199.140625 L 227.902344 177.398438 L 222.214844 157.824219 L 220.246094 141.78125 L 225.964844 124.476562 L 226.746094 119.070312 L 228.980469 114.539062 L 230.78125 97.046875 L 233.015625 72.675781 L 238.8125 63.695312 L 244.480469 53.367188 L 252.605469 37.738281 L 256.449219 32.871094 L 256.648438 32.714844 L 261.171875 25.382812 L 261.625 24.226562 L 261.699219 24.234375 L 262.257812 24.234375 L 263.894531 23.902344 L 263.304688 23.882812 L 264.179688 21.636719 L 264.390625 21.949219 L 265.050781 20.964844 L 265.816406 20.460938 L 266.402344 20.347656 L 266.257812 20.253906 L 266.707031 20.964844 L 264.882812 23.242188 L 257.402344 34.402344 L 247.382812 35.964844 L 242.507812 39.175781 L 229.070312 42.847656 L 207.378906 50.355469 L 189.785156 52.320312 L 165.554688 59.644531 L 136.320312 64.992188 L 105.074219 64.597656 L 91.300781 63.105469 L 75.472656 58.304688 L 72.46875 55.796875 L 72.144531 56.148438 L 73.777344 58.085938 L 75.371094 58.609375 L 84.363281 57.160156 L 81.097656 62.121094 L 79.535156 63.328125 L 78.628906 59.972656 L 64.976562 57.800781 L 59.605469 57.621094 L 57.679688 51.984375 L 43.769531 41.5625 L 41.976562 36.90625 L 24.535156 19.273438 L 22.816406 19.289062 L 22.414062 18.859375 L 23.199219 18.792969 L 39.542969 28.222656 L 37.964844 28.257812 L 37.652344 29.132812 L 37.585938 28.484375 L 37.679688 28.191406 L 41.652344 28.121094 L 53.136719 51.828125 L 65.441406 81.898438 L 88.5 107.589844 L 129.253906 126.226562 L 161.335938 136.332031 L 181.898438 142.101562 L 207.714844 149.078125 L 217.625 158.285156 L 226.589844 174.679688 L 231.128906 197.75 L 231.785156 215.394531 L 227.371094 225.675781 L 229.660156 223.695312 L 219.035156 227.519531 L 218.117188 223.464844 L 213.484375 221.316406 L 211.402344 221.160156 L 190.425781 206.210938 L 170.902344 190.328125 L 158.632812 168.539062 L 155.214844 157.96875 L 154.4375 158.648438 L 153.394531 158.03125 L 153.867188 158.09375 L 153.683594 157.925781 L 152.992188 158.273438 L 152.601562 158.609375 L 152.03125 158.230469 L 152.109375 158.34375 L 152.167969 158.191406 L 152.972656 157.601562 L 152.65625 157.621094 L 152.707031 157.8125 L 152.609375 157.78125 L 152.5625 157.664062 L 152.257812 156.683594 L 147.816406 135.207031 L 143.300781 115.585938 L 141.585938 103.253906 L 145.476562 109.070312 L 149.738281 108.273438 L 142.75 110.144531 L 146.890625 111.164062 L 154.9375 118.488281 L 157.980469 135.214844 L 158.578125 156.960938 L 155.519531 175.335938 L 153.066406 173.386719 L 154.871094 172.128906 L 155.765625 171.832031 L 158.03125 168.367188 L 156.070312 169.007812 L 153.019531 170.703125 L 146.960938 171.910156 L 127.015625 169.125 L 112.835938 153.191406 L 117.511719 135.5 L 129.449219 126.757812 L 137.265625 124.25 L 148.03125 117.3125 L 168.5625 112.417969 L 178.515625 117.910156 L 183.882812 132.835938 L 182.242188 153.25 L 176.714844 175.996094 L 171.886719 203.578125 L 170.492188 211.996094 L 168.847656 213.394531 L 171.121094 209.539062 L 182.34375 212.8125 L 198.195312 214.390625 L 209.699219 215.527344 L 224.359375 221.589844 L 237.515625 226.484375 L 248.417969 238.230469 L 256.828125 250.128906 L 258.492188 253.582031 L 260.800781 257.371094 L 262.5625 259.109375 L 265.34375 261.417969 L 266.089844 261.324219 L 260.582031 258.105469 L 259.785156 255.804688 L 261.839844 252.234375 L 260.386719 251.417969 L 250.441406 252.640625 L 245.292969 234.292969 L 230.523438 203.929688 L 221.105469 173.277344 L 219.957031 154.710938 L 218.394531 127.40625 L 218.976562 107.101562 L 219.277344 105.378906 L 216.894531 112.625 L 215.6875 115.386719 L 215.070312 117.554688 L 218.410156 109.542969 L 226.070312 96.339844 L 227.550781 93.253906 L 227.195312 94.515625 L 226.894531 96.535156 L 224.742188 101.507812 L 208.746094 104.257812 L 179.136719 108.699219 L 172.390625 110.867188 L 179.007812 110.859375 L 184.0625 109.683594 L 172.648438 119.542969 L 163.371094 128.308594 L 161.164062 129.207031 L 155.957031 129.886719 L 141.386719 138.242188 L 137.382812 137.738281 L 135.375 137.710938 L 132.382812 138.238281 L 110.71875 136.964844 L 85.757812 129.265625 L 71.378906 123.496094 L 63.054688 116.929688 L 58.984375 110.855469 L 57.898438 110.988281 L 57.757812 111.117188 L 56.851562 110.988281 L 53.398438 110.398438 L 53.898438 110.683594 L 52.367188 109.515625 L 56.285156 111.269531 L 66.460938 115.789062 L 66.574219 111.363281 L 67.265625 88.191406 L 73.78125 78.847656 L 84.484375 78.960938 L 112.542969 73.183594 L 130.589844 62.382812 L 128.511719 63.097656 L 133.914062 60.367188 L 137.4375 60.082031 L 133.929688 61.332031 L 140.578125 65.160156 L 159.6875 76.378906 L 161.21875 96.828125 L 153.992188 121.632812 L 152.996094 125.746094 L 152.574219 126.230469 L 142.136719 140.019531 L 132.914062 163.585938 L 122.285156 191.554688 L 113.605469 206.964844 L 103.664062 222.257812 L 99.324219 219.363281 L 80.355469 216.210938 L 64.410156 211.015625 L 55.316406 210.414062 L 51.378906 209.339844 L 52.367188 209.75 L 70.882812 211.78125 L 87.558594 199.730469 L 104.320312 196.136719 L 124.164062 185.703125 L 136.132812 175.597656 L 149.261719 166.300781 L 155.996094 159.199219 L 155.375 160.488281 L 152.550781 162.164062 L 152.6875 163.816406 L 145.628906 167.488281 L 147.511719 166.351562 L 162.25 163.277344 L 181.050781 159.292969 L 193.265625 157.378906 L 210.566406 159.269531 L 215.800781 162.253906 L 218.65625 164.816406 L 218.417969 164.75 L 225.601562 175.515625 L 232.972656 198.839844 L 237.441406 221.070312 L 237.046875 232.5 L 234.921875 228.917969 L 232.789062 230.917969 L 237.421875 229.257812 L 245.917969 244.332031 L 254.027344 253.351562 L 255.125 256.539062 L 257.523438 257.285156 L 257.039062 259.371094 L 257.664062 260.367188 L 262.066406 261.1875 L 261.394531 261.171875 L 253.21875 257.636719 L 249.695312 252.308594 L 257.316406 247.597656 L 258.871094 245.496094 L 253.855469 246.984375 L 245.953125 249.558594 L 240.597656 226.421875 L 224.910156 200.644531 L 200.585938 179.785156 L 187.527344 167.414062 L 173.347656 145.105469 L 156.003906 124.15625 L 139.375 101.863281 L 125.714844 89.085938 L 125.171875 90.164062 L 124.777344 90.425781 L 125.9375 89.242188 L 126.691406 90.46875 L 127.203125 90.0625 L 126.933594 90.53125 L 126.90625 90.597656 L 127.96875 91.117188 L 128.28125 91.011719 L 128.113281 91.121094 L 127.539062 96.035156 L 129.09375 93.574219 L 132.773438 93.558594 L 128.46875 92.148438 L 128.730469 93.511719 L 131.277344 90.355469 L 128.730469 92.554688 L 128.503906 95.792969 L 123.136719 83.835938 L 120.722656 80.925781 L 113.648438 74.121094 L 104.328125 64.726562 L 97.929688 62.710938 L 81.878906 55.496094 L 60.410156 50.011719 L 59.0625 49.164062 L 61.6875 50.035156 L 67.058594 52.582031 L 78.171875 55.8125 L 98.085938 57.808594 L 118.742188 62.832031 L 134.453125 57.945312 L 139.3125 58.601562 L 161.023438 55.179688 L 173.308594 55.664062 L 173.890625 54.382812 L 172.132812 53.757812 L 178.359375 52.394531 L 180.453125 52.78125 L 180.765625 52.414062 L 180.917969 52.757812 L 180.480469 52.777344 L 178.375 52.835938 L 180.5625 52.46875 L 180.320312 52.703125 L 181.058594 52.605469 L 180.929688 52.578125 L 178.066406 53.628906 L 179.710938 53.03125 L 179.660156 52.847656 L 180.242188 53.097656 L 186.992188 52.550781 L 190.769531 53.125 L 193.277344 55.632812 L 197.351562 58.234375 L 207.101562 65.445312 L 206.859375 66.164062 L 211.511719 71.183594 L 213.476562 71.414062 L 210.59375 69.855469 L 211.378906 68.707031 L 224.324219 76.453125 L 221.761719 76.007812 L 215.851562 72.484375 L 205.558594 82.082031 L 189.230469 97.148438 L 177.378906 108.898438 L 173.480469 115.152344 L 170.136719 136.628906 L 163.914062 144.472656 L 148.703125 152.453125 L 133.816406 153.117188 L 115.835938 154.484375 L 99.746094 153.351562 L 78.410156 150.65625 L 79.378906 151.632812 L 77.273438 153.476562 L 69.75 155.949219 L 68.640625 156.132812 L 67.96875 156.253906 L 61.304688 159.550781 L 67.0625 157.777344 L 72.390625 157.953125 L 74.203125 157.757812 L 81.125 155.046875 L 93.90625 166.390625 L 127.679688 170.160156 L 157.914062 165.320312 L 183.085938 164.210938 L 201.015625 164.03125 L 215.277344 164.679688 L 218.136719 168.605469 L 218.078125 168.6875 L 220.203125 166.859375 L 221.945312 164.277344 L 225.011719 164.277344 L 226.601562 165.640625 L 226.722656 165.894531 L 227.296875 164.53125 L 231.265625 152.453125 L 232.050781 128.757812 L 232.550781 117.742188 L 233.308594 99.71875 L 234.207031 97.4375 L 233.207031 98.007812 L 228.296875 83.46875 L 219.695312 65.003906 L 216.890625 53.402344 L 220.003906 48.125 L 219.183594 47 L 218.71875 47.042969 L 218.421875 47.125 L 218.417969 47.261719 L 218.140625 48.25 L 217.855469 46.269531 L 217.710938 46.082031 L 219.164062 49.835938 L 219.828125 53.6875 L 231.949219 43.433594 L 246.03125 35.828125 L 255.679688 29.804688 L 261.484375 23.332031 L 262.808594 21.109375 L 265.375 19.335938 L 265.265625 20.054688 L 265.289062 19.648438 L 265.515625 19.695312 L 259.785156 32.671875 L 245.992188 40.285156 L 215.394531 56.148438 L 181.921875 66.589844 L 151.117188 65 L 135.804688 60.199219 L 133.28125 60.9375 L 135.261719 60.367188 L 134.808594 57.484375 L 135.398438 58.773438 L 136.0625 61.699219 L 139.414062 62.535156 L 127.867188 62.171875 L 109.304688 59.324219 L 85.59375 52.097656 L 64.765625 43.988281 L 50.207031 37.316406 L 48.714844 35.828125 L 47.679688 35.773438 L 43.382812 33.617188 L 42.003906 33.703125 L 40.492188 32.265625 L 38.980469 31.183594 L 24.1875 18.925781 L 24.28125 18.285156 L 37.652344 27.304688 L 37.671875 27.464844 L 36.480469 27.960938 L 36.425781 27.617188 L 24.894531 22.847656 L 21.15625 21.214844 L 20.6875 21.074219 L 24.75 19.800781 L 40.179688 32.496094 L 45.816406 56.347656 L 51.683594 65.957031 L 58.699219 68.386719 L 64.421875 71.984375 L 72.582031 72.632812 L 80.664062 76.5625 L 98.066406 97.355469 L 99.523438 123.300781 L 98.707031 134.464844 L 101.355469 134.132812 L 102.746094 132.882812 L 101.261719 131.398438 L 104.429688 126.335938 L 131.445312 129.535156 L 163.625 128.894531 L 183.917969 132.25 L 203.589844 141.058594 L 223.175781 155.644531 L 229.0625 176.675781 L 233.210938 202.386719 L 233.917969 217.375 L 234.03125 229.324219 L 234.683594 229.15625 L 243.554688 238.585938 L 255.117188 250.625 L 257.710938 252.359375 L 260.605469 255.519531 L 260.253906 257.15625 L 260.773438 260.117188 L 261.808594 260.660156 L 262.496094 260.238281 L 262.71875 259.601562 L 263.660156 257.753906 L 255.3125 246.773438 L 244.757812 243.394531 L 224.722656 229.050781 L 206.261719 218.042969 L 197.363281 209.941406 L 179.796875 191.71875 L 170.734375 178.6875 L 155.933594 155.191406 L 145.691406 137.234375 L 143.390625 113.417969 L 139.964844 82.328125 L 139.796875 69.984375 L 138.171875 65.160156 L 136.53125 58.972656 L 135.960938 59.332031 L 142.308594 67.996094 L 142.804688 65.097656 L 143.539062 65.9375 L 153.851562 63.585938 L 163.65625 61.128906 L 163.28125 61.046875 L 163.535156 60.878906 L 163.492188 60.894531 L 163.417969 60.847656 L 163.492188 60.800781 L 163.421875 60.859375 L 160.699219 61.164062 L 164.542969 61.152344 L 184.324219 60.5 L 199.71875 63.230469 L 206.28125 66.046875 L 206.769531 65.710938 L 207.03125 65.078125 L 205.671875 64.066406 L 205.644531 64.878906 L 203.292969 64.652344 L 207.65625 68.445312 L 222.480469 75.332031 L 226.152344 77.9375 L 219.9375 77.425781 L 209.796875 92.21875 L 184.765625 103.441406 L 163.585938 94.765625 L 159.152344 93.824219 L 161.875 96.457031 L 163.640625 96.484375 L 168.328125 101.417969 L 160.417969 117.492188 L 156.777344 127.757812 L 156.113281 128.394531 L 149.375 140.496094 L 137.574219 164.425781 L 117.699219 190.699219 L 102.277344 202.726562 L 87.425781 211.175781 L 68.417969 218.308594 L 59.796875 223.476562 L 53.507812 232.648438 L 47.371094 238.441406 L 43.214844 245.875 L 34.785156 254.128906 L 31.042969 258.769531 L 29.03125 263.242188 L 28.675781 263.855469 L 26.953125 265.757812 L 27.414062 266.257812 L 28.867188 264.5 L 37.769531 251.066406 L 47.679688 254.976562 L 46.332031 251.457031 L 55.695312 241.492188 L 66.386719 234.394531 L 94.664062 221.507812 L 127.097656 201.214844 L 156.820312 179.953125 L 181.253906 164.46875 L 204.273438 153.230469 L 219.347656 143.984375 L 217.523438 144.113281 L 217.710938 145 L 221.949219 145.574219 L 226.261719 144.042969 L 228.25 143.679688 L 227.539062 143.328125 L 226.980469 143.601562 L 233.882812 145.519531 L 232.078125 145.105469 L 220.359375 145.027344 L 210.410156 138.769531 L 212.675781 118.4375 L 213.886719 100.996094 L 218.234375 77.621094 L 224.820312 56.847656 L 229.417969 49.835938 L 231.777344 48.042969 L 229.8125 43.890625 L 227.535156 53.5 L 231.304688 54.816406 L 230.917969 55.511719 L 226.257812 60.203125 L 220.628906 65.046875 L 224.128906 62.867188 L 220.929688 68.78125 L 217.011719 87.371094 L 201.882812 104.613281 L 179.464844 125.984375 L 169.15625 135.097656 L 168.53125 135.351562 L 167.511719 136.113281 L 167.214844 135.796875 L 166.175781 136.699219 L 164.769531 137.796875 L 155.621094 143.78125 L 134.070312 160.113281 L 132.097656 159.742188 L 132.453125 161.027344 L 132.949219 161.308594 L 135.085938 160.617188 L 135.605469 159.289062 L 136.003906 156.898438 L 133.597656 157.667969 L 134.890625 157.25 L 135.347656 157.855469 L 135.796875 157.554688 L 135.933594 156.679688 L 135.699219 156.976562 L 136.003906 156.503906 L 135.347656 156.265625 L 137.476562 154.214844 L 134.425781 153.453125 L 122.859375 157.925781 L 104.839844 163.828125 L 77.183594 172.0625 L 72.46875 172.296875 L 73.714844 172.6875 L 66.929688 182.589844 L 62.863281 191.082031 L 65.699219 193.117188 L 72.289062 196.535156 L 93.3125 195.5 L 111.59375 180.808594 L 127.761719 171.609375 L 149.144531 175.90625 L 178.113281 189.941406 L 192.691406 206.847656 L 197.59375 220.296875 L 204.640625 229.289062 L 220.066406 238.898438 L 233.421875 243.742188 L 242.753906 249.464844 L 250.070312 251.847656 L 247.390625 253.085938 L 242.824219 249.445312 L 243.410156 248.671875 L 245.863281 245.378906 L 247.636719 244.289062 L 244.96875 224.421875 L 237.691406 197.824219 L 230.675781 171.691406 L 228.105469 142.902344 L 225.777344 126.28125 L 228.734375 111.109375 L 231.484375 101.289062 L 235.371094 94.453125 L 240.375 75.097656 L 246.285156 55.484375 L 255.054688 36.070312 L 258.292969 30.078125 L 258.710938 28.304688 L 260.992188 25.855469 L 262.375 24.625 L 262.28125 23.972656 L 262.234375 23.554688 L 262.410156 23.160156 L 262.464844 23.175781 L 262.488281 23.082031 L 262.050781 22.914062 L 261.84375 23.519531 L 261.796875 23.433594 L 262.015625 23.429688 L 262.546875 23.410156 L 262.289062 23.410156 L 262.433594 23.117188 L 262.371094 22.671875 L 262.351562 22.890625 L 262.335938 22.578125 L 262.394531 22.402344 L 262.421875 22.523438 L 262.394531 22.433594 L 262.511719 22.976562 L 262.570312 23.039062 L 262.269531 22.640625 L 262.359375 22.480469 L 262.445312 22.808594 L 262.398438 22.519531 L 262.308594 22.578125 L 262.300781 22.648438 L 262.191406 22.480469 L 262.316406 22.464844 L 262.261719 22.597656 L 262.339844 22.363281 L 262.070312 22.449219 L 262.234375 22.230469 L 262.199219 22.230469 L 262.222656 22.429688 L 262.394531 22.464844 L 262.292969 22.359375 L 262.246094 22.347656 L 262.261719 22.359375 L 262.210938 22.464844 L 262.207031 22.464844 L 262.191406 22.378906 L 262.171875 22.398438 L 262.191406 22.425781 L 262.140625 22.40625 L 262.21875 22.542969 L 262.335938 22.429688 L 261.71875 23.226562 L 261.628906 23.640625 L 261.003906 24.554688 L 258.640625 26.460938 L 256.015625 27.6875 L 254.46875 28.71875 L 253.480469 30.410156 L 249.339844 34.351562 L 247.886719 36.851562 L 246.046875 35.363281 L 245.445312 36.59375 L 244.25 37.230469 L 244.480469 37.976562 L 241.8125 40.410156 L 242.777344 39 L 243.847656 37.378906 L 244.570312 39.246094 L 241.386719 49.675781 L 234.03125 62.347656 L 224.578125 72.375 L 214.707031 82.238281 L 212.75 87.109375 L 208.601562 85.484375 L 193.464844 94.1875 L 178.640625 98.972656 L 171.320312 100.148438 L 154.347656 103.492188 L 131.046875 102.011719 L 112.78125 97.195312 L 96.746094 91.304688 L 96.960938 91.96875 L 97.359375 92.515625 L 99.714844 94.644531 L 108.523438 97.480469 L 108.445312 101.410156 L 107.816406 101.429688 L 107.945312 100.675781 L 108.804688 100.019531 L 105.519531 101.015625 L 97.210938 108.535156 L 100.613281 101.488281 L 92.535156 101.296875 L 85.253906 92.257812 L 87.109375 89.996094 L 85.503906 89.714844 L 84.203125 90.359375 L 84.917969 92.9375 L 86.625 93.488281 L 102.601562 93.386719 L 129.21875 89.8125 L 135.699219 86.304688 L 143.324219 90.148438 L 158.882812 90.679688 L 172.265625 85.894531 L 180.757812 81.957031 L 190.496094 80.570312 L 190.78125 80.816406 L 188.273438 79.242188 L 186.472656 78.957031 L 180.3125 77.109375 L 193.535156 68.941406 L 206.179688 61.921875 L 219.992188 51.917969 L 227.3125 48.308594 L 228.953125 46.707031 L 223.371094 49.074219 L 215.347656 62.574219 L 205.226562 81.304688 L 181.5625 106.234375 L 170.59375 115.296875 L 167.90625 117.871094 L 157.527344 123.320312 L 143.445312 132.371094 L 142.722656 134.636719 L 143.074219 135.324219 L 144.273438 133.527344 L 146.078125 132.378906 L 153.347656 132.09375 L 148.660156 135.175781 L 129.222656 149.882812 L 123.953125 154.261719 L 120.679688 161.175781 L 120.957031 161.398438 L 121.925781 161.390625 L 122.144531 161.449219 L 122.605469 159.59375 L 125.464844 157.445312 L 130.902344 156.789062 L 133.367188 154.355469 L 137.058594 152.054688 L 144.492188 165.5625 L 156.304688 184.996094 L 166.144531 206.652344 L 174.738281 213.910156 L 198.273438 228.375 L 207.65625 228.859375 L 208.261719 227.753906 L 208.210938 227.699219 L 208.960938 233.222656 L 208.460938 233.050781 L 208.089844 230.617188 L 207.253906 228.089844 L 206.078125 225.734375 L 206.710938 223.613281 L 206.605469 214.90625 L 207.710938 194.667969 L 206.453125 170.527344 L 205.820312 141.195312 L 210.257812 118.179688 L 210.71875 118.984375 L 212.273438 106.550781 L 215.066406 85.390625 L 218.214844 68.363281 L 224.007812 53.503906 L 233.710938 47.78125 L 241.414062 42.707031 L 244.882812 40.667969 L 239.601562 42.578125 L 230.859375 46.851562 L 198.9375 56.265625 L 165.238281 66.023438 L 139.644531 64.179688 L 121.460938 59.101562 L 118.78125 58.667969 L 118.109375 57.902344 L 118.613281 57.808594 L 118.621094 56.003906 L 119.308594 58.292969 L 121.015625 61.394531 L 104.269531 66.914062 L 88.386719 72.285156 L 82.660156 72.488281 L 76.628906 76.824219 L 76.472656 77.792969 L 77.246094 78.269531 L 82.214844 75.597656 L 80.378906 80.289062 L 69.390625 96.742188 L 68.382812 114.6875 L 72.5 141.042969 L 72.96875 167.929688 L 71.042969 184.605469 L 68.738281 185.945312 L 60.472656 202.027344 L 54.578125 210.878906 L 49.199219 224.082031 L 47.207031 236.046875 L 39.921875 247.953125 L 32.558594 258.425781 L 31.570312 259.152344 L 29.726562 258.46875 L 34.570312 256.761719 L 43.097656 252.230469 L 50.460938 255.085938 L 48.886719 251.171875 L 50.640625 253.625 L 50.472656 253.929688 L 50.664062 252.824219 L 60.730469 243.828125 L 82.515625 230 L 104.808594 221.929688 L 133.289062 208.691406 L 155.382812 201.558594 L 181.457031 193.996094 L 202.25 184.457031 L 217.441406 177.8125 L 214.5625 171.566406 L 206.996094 146.34375 L 193.449219 116.765625 L 186.914062 96.5 L 182.785156 76.140625 L 183.8125 65.160156 L 195.5 57.347656 L 214.667969 47.582031 L 236.648438 42.710938 L 241.183594 40.722656 L 244.496094 38.355469 L 249.527344 33.703125 L 255.605469 28.875 L 257.945312 27.238281 L 256.777344 29.109375 L 255.664062 29.519531 L 252.089844 29.640625 L 251.40625 29.078125 L 250.757812 29.773438 L 248.28125 32.59375 L 243.621094 37.175781 L 223.125 50.421875 L 227.777344 46.976562 L 228.464844 45.941406 L 228.90625 45.457031 L 230.410156 45.203125 L 228.695312 45.492188 L 224.289062 45.863281 L 222.402344 45.972656 L 215.019531 47.1875 L 205.492188 50.164062 L 191.515625 55.28125 L 181.539062 60.902344 L 179.648438 62.523438 L 181.40625 62.734375 L 181.972656 63.074219 L 182.203125 63.574219 L 183.582031 63.667969 L 184.199219 62.589844 L 184.769531 62.109375 L 185.417969 62.332031 L 186 62.488281 L 183.914062 62.109375 L 178.5625 67.03125 L 174.066406 76.984375 L 172.632812 81.394531 L 179.695312 91.304688 L 181.980469 103.691406 L 169.855469 126.820312 "/>
<g clip-path="url(#clip-0)">
<path fill="none" stroke-width="1.066978" stroke-linecap="butt" stroke-linejoin="round" stroke="rgb(0%, 71.764706%, 100%)" stroke-opacity="1" stroke-dasharray="4.267913 4.267913" stroke-miterlimit="10" d="M 8.21875 148.183594 L 282.519531 148.183594 "/>
</g>
<g clip-path="url(#clip-1)">
<path fill="none" stroke-width="1.066978" stroke-linecap="butt" stroke-linejoin="round" stroke="rgb(0%, 71.764706%, 100%)" stroke-opacity="1" stroke-dasharray="4.267913 4.267913" stroke-miterlimit="10" d="M 149.15625 279.78125 L 149.15625 5.480469 "/>
</g>
</svg>
