<?xml version="1.0" encoding="UTF-8"?>
<svg xmlns="http://www.w3.org/2000/svg" xmlns:xlink="http://www.w3.org/1999/xlink" width="288" height="288" viewBox="0 0 288 288">
<defs>
<clipPath id="clip-0">
<path clip-rule="nonzero" d="M 8.21875 149 L 282.519531 149 L 282.519531 151 L 8.21875 151 Z M 8.21875 149 "/>
</clipPath>
<clipPath id="clip-1">
<path clip-rule="nonzero" d="M 150 5.480469 L 152 5.480469 L 152 279.78125 L 150 279.78125 Z M 150 5.480469 "/>
</clipPath>
</defs>
<rect x="-28.8" y="-28.8" width="345.6" height="345.6" fill="rgb(100%, 100%, 100%)" fill-opacity="1"/>
<rect x="-28.8" y="-28.8" width="345.6" height="345.6" fill="rgb(100%, 100%, 100%)" fill-opacity="1"/>
<path fill="none" stroke-width="1.066978" stroke-linecap="round" stroke-linejoin="round" stroke="rgb(100%, 100%, 100%)" stroke-opacity="1" stroke-miterlimit="10" d="M 0 288 L 288 288 L 288 0 L 0 0 Z M 0 288 "/>
<path fill="none" stroke-width="1.066978" stroke-linecap="butt" stroke-linejoin="round" stroke="rgb(41.176471%, 41.176471%, 41.176471%)" stroke-opacity="1" stroke-miterlimit="10" d="M 258.300781 250.25 L 247.980469 247.785156 L 246.199219 245.742188 L 246.054688 246.238281 L 246.714844 245.871094 L 242.261719 247.089844 L 249.628906 247.574219 L 251.457031 251.445312 L 248.394531 251.234375 L 245.664062 248.929688 L 245.277344 251.480469 L 246.800781 252.050781 L 248.246094 253.269531 L 249.585938 251.757812 L 248.820312 249.949219 L 245.453125 245.824219 L 244.621094 243.867188 L 244.542969 244.546875 L 243.808594 245.667969 L 243.578125 245.847656 L 254.867188 251.492188 L 262.238281 257.507812 L 260.964844 257.425781 L 266.121094 258.519531 L 267.890625 258.648438 L 268.15625 256.605469 L 263.320312 255.351562 L 258.222656 252.9375 L 253.652344 248.847656 L 251 246.464844 L 248.699219 245.039062 L 243.625 231.648438 L 230.734375 212.582031 L 222.210938 198.839844 L 216.472656 192.140625 L 210.363281 185.238281 L 207.683594 183.410156 L 209.585938 183.101562 L 210.679688 184.90625 L 202.785156 183.765625 L 180.398438 172.316406 L 160.355469 153.054688 L 158.15625 151.488281 L 158.421875 150.199219 L 158.160156 149.75 L 157.699219 147.589844 L 151.800781 133.617188 L 146.265625 113.1875 L 145.804688 99.714844 L 143.871094 82.167969 L 142.785156 71.988281 L 142.832031 72.5625 L 141.894531 73.6875 L 142.683594 73.460938 L 144.359375 73.296875 L 144.007812 74.054688 L 143.679688 75.234375 L 143.105469 77.035156 L 146.160156 80.984375 L 147.59375 82.753906 L 145.328125 72.585938 L 145.632812 71.871094 L 142.886719 77.722656 L 131.957031 78.152344 L 120.253906 82.855469 L 122.917969 85.75 L 126.136719 91.355469 L 114.507812 119.644531 L 102.105469 135.796875 L 92.027344 144.820312 L 72.628906 165.003906 L 70.136719 170.984375 L 66.347656 182.433594 L 61.625 191.878906 L 61.558594 192.347656 L 56.425781 196.300781 L 57.128906 198.707031 L 51.894531 212.140625 L 49.339844 225.234375 L 48.582031 242.253906 L 43.765625 253.199219 L 36.699219 255.71875 L 31.265625 260.15625 L 32.5 261.160156 L 37.132812 257.980469 L 46.25 250.71875 L 47.078125 243.910156 L 46.890625 241.707031 L 50.570312 221.261719 L 60.785156 193.886719 L 63.71875 172.644531 L 64.414062 158.847656 L 64.359375 135.960938 L 65.09375 119.300781 L 72.300781 110.207031 L 72.433594 109.132812 L 82.34375 110.175781 L 114.929688 112.808594 L 144.566406 106.15625 L 167.359375 100.023438 L 197.828125 94.617188 L 223.605469 94.082031 L 217.09375 92.683594 L 222.753906 88.429688 L 223.386719 89.273438 L 220.46875 92.105469 L 215.65625 96.304688 L 212.007812 96.578125 L 225.132812 91.832031 L 235.980469 71.949219 L 243.988281 57.742188 L 253.382812 38.203125 L 262.515625 27.105469 L 263.359375 26.523438 L 267.054688 21.433594 L 265.875 21.21875 L 265.117188 22.167969 L 264.695312 22.363281 L 265.570312 21.4375 L 265.464844 21.480469 L 265.449219 21.292969 L 265.582031 21.117188 L 264.914062 21.476562 L 268.191406 19.589844 L 268.589844 19.40625 L 266.976562 20.507812 L 262.722656 24.296875 L 260.097656 24.980469 L 259.054688 24.945312 L 258.652344 24.683594 L 259.296875 23.914062 L 260.949219 23.09375 L 260.855469 23.640625 L 261.328125 23.230469 L 263.425781 21.886719 L 263.121094 21.929688 L 258.09375 29.878906 L 256.847656 36.707031 L 257.476562 32.828125 L 258.996094 29.410156 L 261.210938 32.367188 L 258.292969 33.058594 L 256.480469 34.898438 L 256.558594 34.734375 L 255.097656 31.488281 L 252.988281 33.160156 L 245.832031 34.632812 L 241.800781 38.835938 L 228.34375 48.210938 L 210.289062 62.425781 L 192.003906 77.347656 L 175.761719 91.488281 L 158.785156 108.050781 L 153.960938 117.261719 L 153.542969 118.800781 L 147.238281 126.847656 L 137.636719 150.425781 L 134.09375 167.695312 L 133.269531 167.417969 L 134.644531 167.59375 L 129.9375 172.253906 L 118.820312 184.9375 L 114.058594 195.695312 L 103.734375 195.417969 L 86.855469 194.269531 L 68.71875 196.441406 L 75.777344 197.371094 L 72.175781 193.035156 L 73.019531 194.3125 L 78.355469 206.910156 L 66.480469 237.855469 L 52.5 244.867188 L 37.796875 256.582031 L 42.597656 253.558594 L 41.867188 253.289062 L 34.929688 259.683594 L 37.265625 261.5 L 38.605469 260.214844 L 53.992188 246.210938 L 54.488281 242.574219 L 56.71875 218.78125 L 58.800781 210.871094 L 62.71875 203.144531 L 70.945312 192.222656 L 71.472656 189.5625 L 68.007812 193.28125 L 65.21875 192.242188 L 63.9375 194.507812 L 59.945312 194.261719 L 61.980469 193.773438 L 65.011719 192.136719 L 67.679688 190.609375 L 66.578125 190.710938 L 65.554688 191.5625 L 66.519531 190.339844 L 64.210938 190.628906 L 67.277344 185.140625 L 73.003906 170.339844 L 76.082031 167.125 L 80.710938 164 L 83.542969 166.292969 L 91.105469 166.753906 L 89.246094 165.886719 L 90.9375 165.59375 L 91.699219 165.863281 L 92.316406 166.082031 L 93.070312 169.164062 L 94.378906 174.742188 L 93.132812 173.570312 L 92.703125 173.171875 L 90.394531 172.675781 L 88.003906 175.996094 L 93.324219 169.738281 L 95.046875 179.074219 L 97.96875 198.785156 L 96.835938 216.679688 L 95.863281 221.035156 L 96.605469 227.28125 L 96.882812 227.046875 L 96.960938 226.746094 L 97.644531 220.8125 L 98.34375 220.304688 L 98.140625 227.128906 L 100.121094 228.679688 L 99.503906 228.269531 L 100.152344 225.867188 L 138.921875 225.054688 L 180.804688 218.703125 L 195.28125 212.34375 L 212.109375 201.703125 L 223.484375 196.65625 L 228.375 195.09375 L 235.660156 192.09375 L 242.019531 192.621094 L 240.570312 191.710938 L 227.011719 194.625 L 222.933594 192.421875 L 222.933594 191.621094 L 224.703125 193.175781 L 232.042969 219.078125 L 235.515625 231.75 L 238.226562 235.125 L 236.410156 239.972656 L 237.527344 241.988281 L 239.507812 247.414062 L 240.4375 245.535156 L 241.414062 232.738281 L 250.285156 230.96875 L 252.378906 231.082031 L 254.339844 231.3125 L 254.613281 231.707031 L 254.300781 231.597656 L 255.265625 232.316406 L 256.371094 234.058594 L 255.332031 233.976562 L 255.628906 233.355469 L 251.621094 233.0625 L 235.734375 230.621094 L 236.609375 229.941406 L 232.351562 221.851562 L 223.777344 192.515625 L 216.003906 174.933594 L 208.261719 163.347656 L 203.273438 158.894531 L 201.496094 148.296875 L 194.792969 144.964844 L 186.015625 138.5625 L 182.695312 136.75 L 167.421875 137.054688 L 151.265625 136.296875 L 147.417969 133.53125 L 140.097656 134.128906 L 112.027344 133.8125 L 90.179688 130.046875 L 85.5625 130.742188 L 73.394531 128.050781 L 73.847656 131.539062 L 71.359375 134.722656 L 72.675781 136.617188 L 75.070312 141.734375 L 82.535156 140.394531 L 90.871094 165.78125 L 103.089844 185.023438 L 112.585938 213.046875 L 110.242188 207.640625 L 119.929688 202.433594 L 143.640625 179.726562 L 165.664062 147.699219 L 173.421875 140.175781 L 189.046875 131.335938 L 205.324219 121.554688 L 218.050781 115.367188 L 217.625 116.917969 L 220.640625 128.074219 L 225.761719 136.78125 L 228.484375 140.457031 L 225.882812 140.035156 L 222.152344 157.671875 L 216.4375 177.152344 L 213.054688 196.761719 L 209.671875 206.871094 L 200.90625 208.34375 L 189.035156 207.566406 L 168.476562 208.542969 L 146.128906 208.691406 L 135.632812 204.085938 L 127.292969 202.886719 L 108.855469 199.589844 L 102.914062 194.4375 L 94.164062 187.996094 L 79.785156 180.808594 L 72.867188 178.5625 L 66.933594 183.207031 L 57.5 181.183594 L 58.28125 181.535156 L 63.445312 181.96875 L 78.882812 176.074219 L 98.996094 144.945312 L 103.304688 137.800781 L 108.453125 126.046875 L 106.839844 116.839844 L 109.410156 107.5625 L 114.449219 96.785156 L 121.210938 76.664062 L 126.464844 65.964844 L 128.542969 60.050781 L 126.53125 57.332031 L 125.15625 54.75 L 124.15625 54.765625 L 122.039062 56.527344 L 122.707031 63.671875 L 126.242188 70.421875 L 145.960938 63.855469 L 180.136719 57.054688 L 193.320312 55.222656 L 207.9375 53.308594 L 237.429688 49.851562 L 238.90625 48.917969 L 235.789062 53.367188 L 240.667969 57.539062 L 240.714844 56.34375 L 238.902344 55.886719 L 234.511719 72 L 222.734375 89.964844 L 211.011719 98.140625 L 189.050781 104.035156 L 163.675781 100.738281 L 151.617188 101.382812 L 152.492188 99.550781 L 146.507812 101.464844 L 136.003906 105.652344 L 120.085938 112.042969 L 102.863281 119.230469 L 94.027344 127.179688 L 95.945312 127.03125 L 96.5625 126.785156 L 96.988281 127.28125 L 97.398438 127.421875 L 97.507812 127.679688 L 97.503906 127.59375 L 97.433594 127.726562 L 97.460938 127.667969 L 97.800781 127.96875 L 97.578125 128.066406 L 97.527344 128.046875 L 97.585938 128.179688 L 97.515625 128.4375 L 97.589844 128.046875 L 97.910156 128.015625 L 97.375 128.050781 L 97.21875 127.269531 L 96.230469 127.429688 L 97.621094 127.296875 L 96.84375 128.464844 L 97.085938 127.238281 L 96.839844 127.535156 L 96.804688 128.125 L 96.816406 127.980469 L 97.339844 127.472656 L 97.707031 127.316406 L 98.066406 127.007812 L 98.089844 127.320312 L 98.136719 127.496094 L 97.988281 126.507812 L 99.308594 126.792969 L 98.886719 126.519531 L 98.929688 126.707031 L 98.386719 126.765625 L 97.742188 126.125 L 96.082031 126.300781 L 95.695312 127.007812 L 95.347656 126.332031 L 94.570312 126.625 L 95.554688 126.417969 L 95.464844 124.886719 L 93.992188 127.820312 L 94.863281 127.832031 L 95.984375 127.558594 L 95.058594 127.007812 L 95.121094 127.066406 L 95.003906 127.71875 L 96.441406 128.464844 L 97.464844 129.289062 L 96.859375 129.636719 L 97.066406 129.695312 L 96.910156 128.925781 L 98.414062 129.375 L 97.542969 128.964844 L 96.359375 127.398438 L 90.289062 126.179688 L 90.296875 128.417969 L 90.164062 127.542969 L 90.554688 128.195312 L 90.652344 129.0625 L 90.554688 128.542969 L 91.144531 129.789062 L 91.179688 129.804688 L 91.34375 130.039062 L 92.542969 131.519531 L 91.988281 132.847656 L 92.945312 131.820312 L 91.765625 132.921875 L 93.507812 135.800781 L 93.960938 135.21875 L 94.03125 134.410156 L 94.425781 134.394531 L 94.460938 133.449219 L 95.105469 132.882812 L 94.441406 132.75 L 93.496094 132.976562 L 92.410156 134.027344 L 92.234375 132.914062 L 91.652344 131.34375 L 91.519531 130.800781 L 93.257812 130.703125 L 94.710938 131.34375 L 94.378906 131.878906 L 93.566406 131.488281 L 94.503906 130.488281 L 93.78125 133.640625 L 92.195312 132.40625 L 95.539062 130.140625 L 100.792969 122.265625 L 94.273438 127.28125 L 95.492188 128.890625 L 95.964844 127.785156 L 96.605469 128.289062 L 95.761719 128.21875 L 95.609375 127.777344 L 97.109375 127.085938 L 103.957031 128.199219 L 106.292969 132.046875 L 112.257812 138.503906 L 110.175781 140.421875 L 109.882812 146.652344 L 104.804688 171.941406 L 102.992188 180.257812 L 105.53125 180.828125 L 104.578125 180.707031 L 101 177.304688 L 99.882812 173.890625 L 97.402344 171.566406 L 97.066406 171.164062 L 111.601562 168.238281 L 140.542969 168.007812 L 169.28125 174.527344 L 179.726562 179.066406 L 179.847656 182.996094 L 181.136719 184.859375 L 178.535156 189.644531 L 181.359375 195.09375 L 182.246094 201.734375 L 194.761719 201.609375 L 214.515625 208.207031 L 227.296875 215.429688 L 236.390625 231.1875 L 245.738281 237.65625 L 250.082031 244.464844 L 251.699219 245.113281 L 258.722656 251.074219 L 258.378906 253.945312 L 257.25 255.199219 L 257.941406 255.394531 L 258.414062 254.128906 L 255.019531 249.175781 L 248.253906 243.964844 L 246.824219 242.566406 L 250.421875 241.726562 L 251.074219 241.589844 L 241.84375 240.242188 L 222.117188 233.980469 L 206.769531 229.054688 L 198.671875 228.957031 L 194.496094 228.71875 L 182.886719 215.78125 L 175.8125 199.589844 L 170.871094 193.078125 L 169.683594 182.964844 L 169.109375 182.167969 L 168.425781 180.824219 L 168.820312 177.75 L 169.785156 175.09375 L 170.398438 176.527344 L 168.796875 172.570312 L 157.160156 153.878906 L 161.433594 166.730469 L 161.625 165.984375 L 161.511719 166.324219 L 162.917969 167.609375 L 154.792969 152.578125 L 148.039062 143.558594 L 131.332031 127.980469 L 119.390625 114.601562 L 116.777344 109.820312 L 114.449219 110.933594 L 103.226562 104.640625 L 103.875 104.503906 L 109.859375 105.75 L 110.511719 81.152344 L 109.515625 64.027344 L 102.910156 56.652344 L 98.214844 52.605469 L 98.171875 53.28125 L 98.59375 54.042969 L 100.320312 56.128906 L 102.09375 58.757812 L 103.359375 60.53125 L 108.714844 65.519531 L 102.097656 67.484375 L 83.101562 68.890625 L 69.878906 68.695312 L 57.339844 60.890625 L 43.039062 43.050781 L 38.746094 37.070312 L 33.496094 30.222656 L 24.992188 22.820312 L 24.800781 19.457031 L 22.664062 18.390625 L 31.894531 23.910156 L 37.789062 36.570312 L 48.410156 61.3125 L 55.40625 77.667969 L 63.570312 91.320312 L 68.746094 102.714844 L 82.59375 120.523438 L 102.542969 143.726562 L 128.558594 151.695312 L 140.0625 150.882812 L 152.625 150.222656 L 163.199219 149.941406 L 170.839844 153.625 L 188.769531 175.324219 L 195.074219 184.679688 L 197.6875 200.804688 L 199.027344 205.589844 L 197.679688 206.917969 L 196.46875 208.023438 L 194.878906 207.929688 L 191.464844 213.472656 L 193.691406 210.582031 L 194.683594 211.78125 L 209.050781 226.84375 L 221.230469 227.617188 L 233.367188 228.539062 L 240.632812 233.316406 L 240.746094 234.550781 L 246.078125 239.207031 L 243.828125 240.257812 L 250.1875 236.972656 L 253.394531 237.191406 L 254.492188 236.390625 L 240.785156 239.582031 L 241 224.34375 L 237.210938 199.007812 L 235.34375 176.015625 L 232.195312 166.664062 L 225.730469 152.160156 L 214.804688 143.820312 L 207.914062 135.019531 L 201.035156 128.179688 L 198.585938 118.515625 L 195.898438 109.027344 L 188.828125 91.949219 L 184.027344 76.703125 L 180.085938 63.691406 L 175.03125 63.085938 L 172.882812 59.363281 L 173.609375 61.71875 L 174.039062 62.898438 L 175.871094 66.40625 L 179.203125 65.945312 L 178.839844 64.519531 L 179.957031 70.441406 L 173.734375 72.972656 L 172.828125 70.898438 L 175.300781 72.074219 L 163.238281 85.230469 L 162.640625 90.171875 L 167.132812 125.5625 L 164.945312 144.789062 L 165.171875 150.667969 L 165.640625 149.417969 L 172.707031 176.78125 L 166.300781 198.820312 L 161.921875 212.269531 L 158.460938 219.636719 L 163.207031 220.042969 L 164.117188 219.46875 L 140.464844 217.171875 L 119.933594 217.941406 L 97.914062 229.238281 L 86.289062 234.882812 L 70.289062 236.105469 L 56.316406 237.707031 L 58.386719 237.710938 L 61.09375 229.070312 L 80.585938 207.355469 L 94.835938 189.058594 L 116.089844 177.152344 L 143.496094 185.355469 L 164.5 199.046875 L 164.738281 207.601562 L 168.617188 214.941406 L 175.070312 215.089844 L 206.847656 220.84375 L 213.976562 218.289062 L 228.058594 218.800781 L 232.511719 219.878906 L 238.40625 226.679688 L 244.589844 239.425781 L 250.09375 244.21875 L 257.5625 253.308594 L 261.902344 256.058594 L 264.304688 259.382812 L 265.765625 259.277344 L 268.382812 262.433594 L 268.363281 263.445312 L 266.351562 257.867188 L 261.921875 253.242188 L 265.316406 249.25 L 263.695312 247.128906 L 259.320312 247.644531 L 249.347656 246.761719 L 237.921875 236.636719 L 236.050781 218.832031 L 238.070312 206.0625 L 230.914062 191.589844 L 221.238281 177.703125 L 214.738281 167.75 L 208.941406 156.9375 L 212.8125 159.441406 L 216.003906 159.296875 L 216.03125 163.085938 L 214.011719 167.84375 L 217.429688 160.191406 L 224.984375 150.382812 L 225.167969 148.746094 L 222.828125 150.90625 L 222.703125 147.964844 L 221.058594 137.09375 L 212.761719 118.835938 L 203.195312 109.59375 L 197.550781 101.1875 L 189.066406 88.441406 L 177.320312 68.445312 L 171.140625 65.550781 L 170.65625 68.511719 L 173.472656 68.917969 L 171.230469 68.71875 L 144.53125 80.589844 L 130.867188 89.046875 L 121.796875 106.726562 L 100.9375 134.914062 L 79.4375 141.296875 L 70.949219 154.160156 L 65.683594 181.035156 L 58.230469 206.492188 L 55.96875 226.214844 L 46.496094 247.234375 L 31.578125 260.15625 L 26.175781 263.132812 L 24.03125 266.683594 L 23.75 266.90625 L 25.542969 264.023438 L 28.941406 263.046875 L 30.164062 262.324219 L 31.734375 254.078125 L 67.410156 242.90625 L 119.203125 219.691406 L 155.449219 203.667969 L 178.59375 190.601562 L 195.179688 190.160156 L 216.925781 194.382812 L 226.433594 193.609375 L 225.535156 196.023438 L 237.339844 212.761719 L 240.957031 230.820312 L 244.515625 237.761719 L 254.265625 247.269531 L 259.980469 255.851562 L 263.015625 260.128906 L 266.53125 261.199219 L 267.714844 260.191406 L 261.222656 254.308594 L 262.566406 243.972656 L 257.066406 247.015625 L 253.234375 243.160156 L 247.839844 226.996094 L 234.546875 196.539062 L 226.210938 158.832031 L 219.609375 130.664062 L 215.882812 108.132812 L 211.484375 86.757812 L 208.5 61.355469 L 206.851562 63.632812 L 207.875 58.96875 L 217.109375 48 L 230.929688 41.59375 L 244.085938 34.847656 L 253.910156 28.660156 L 260.386719 24.675781 L 265.015625 20.011719 L 265.292969 21.847656 L 268.304688 20.214844 L 269.179688 19.171875 L 269.347656 18.726562 L 267.855469 18.878906 L 264.511719 19.777344 L 261.386719 20.953125 L 259.480469 24.941406 L 257.964844 24.945312 L 258.8125 23.722656 L 261.652344 21.628906 L 263.320312 20.8125 L 263.074219 20.550781 L 263.488281 20.347656 L 263.378906 20.632812 L 263.949219 20.398438 L 265.078125 20.792969 L 261.078125 23.351562 L 256.660156 25.578125 L 256.683594 27.332031 L 257.828125 27.417969 L 256.785156 33.597656 L 248.882812 47.566406 L 228.695312 56.378906 L 216.910156 52.328125 L 217.429688 52.792969 L 217.527344 53.007812 L 212.117188 56.605469 L 214.113281 57.398438 L 210.992188 53.804688 L 211.78125 49.136719 L 213.929688 52.851562 L 212.886719 63.085938 L 180.121094 79.15625 L 165.632812 96.128906 L 162.363281 109.871094 L 158.386719 121.519531 L 141.390625 141.265625 L 117.296875 164.785156 L 107.066406 164.152344 L 87.476562 167.425781 L 75.828125 168.691406 L 80.59375 169.507812 L 81.382812 172.644531 L 87.210938 170.773438 L 96.972656 194.269531 L 107.753906 213.660156 L 108.769531 217.160156 L 103.046875 232.066406 L 219.570312 84.003906 L 103.457031 212.617188 L 133.109375 205.367188 L 177.902344 196.707031 L 204.257812 196.890625 L 229.148438 198.707031 L 234.476562 204.128906 L 243.566406 208.855469 L 248.839844 210.234375 L 240.058594 202.367188 L 242.992188 191.628906 L 244.222656 189.976562 L 236.546875 194.222656 L 230.933594 180.199219 L 227.605469 139.75 L 230.699219 108.660156 L 237.570312 87.777344 L 244.046875 83.851562 L 244.9375 83.332031 L 234.1875 85.5 L 227.203125 91.324219 L 228.667969 103.09375 L 231.558594 121.808594 L 237.984375 123.195312 L 237.230469 123.292969 L 221.261719 110.003906 L 213.644531 113.316406 L 189.011719 131.398438 L 166.078125 137.6875 L 132.242188 146.089844 L 133.566406 144.617188 L 129 131.820312 L 125.398438 109.257812 L 125.054688 72.652344 L 122.507812 68.019531 L 116.726562 66.808594 L 97.394531 61.40625 L 75.234375 52.144531 L 53.246094 44.203125 L 40.289062 37.164062 L 38.398438 36.191406 L 30.808594 30.410156 L 28.8125 26.632812 L 27.628906 25.613281 L 24.875 20.761719 L 24.617188 18.722656 L 25.492188 19.257812 L 26.550781 23.902344 L 28.042969 30.738281 L 29.660156 34.285156 L 28.558594 33.082031 L 26.53125 29.722656 L 23.761719 22.578125 L 22.433594 24.492188 L 23.347656 21.109375 L 20.6875 18.589844 L 21.222656 20.621094 L 27.449219 32.449219 L 53.839844 42.941406 L 75.304688 59.71875 L 86.027344 71.078125 L 87.679688 73.652344 L 87.085938 71.964844 L 86.859375 71.5625 L 76.039062 83.355469 L 65.800781 87.796875 L 63.238281 83.164062 L 57.765625 80.703125 L 51.542969 76.136719 L 47.710938 72.851562 L 53.089844 74.996094 L 61.40625 79.226562 L 69.921875 97.570312 L 84.992188 135.890625 L 108.835938 163.367188 L 121.074219 166.617188 L 139.8125 165.453125 L 169.082031 154.296875 L 191.347656 151.640625 L 212.324219 143.539062 L 224.132812 136.042969 L 229.273438 125.691406 L 225.03125 122.464844 L 229.996094 100.84375 L 233.785156 90.292969 L 243.070312 72.742188 L 245.628906 62.773438 L 252.484375 46.941406 L 256.316406 36.671875 L 257.84375 35.429688 L 256.019531 37.109375 L 256.148438 36.328125 L 263.878906 26.183594 L 264.367188 21.894531 L 265.023438 21.09375 L 265.003906 21.652344 L 265.039062 21.863281 L 264.710938 21.558594 L 261.839844 22.5625 L 257.191406 27.308594 L 257.089844 25.535156 L 256.96875 24.65625 L 255.386719 25.0625 L 253.457031 27.253906 L 252.796875 32.589844 L 254.328125 35.824219 L 254.882812 37.316406 L 254.683594 38.816406 L 252.789062 47.28125 L 246.878906 60.863281 L 234.082031 90.402344 L 220.429688 112.128906 L 209.324219 115.617188 L 207.554688 117.109375 L 200.871094 111.410156 L 186.875 97.984375 L 174.808594 76.960938 L 170.273438 65.917969 L 171.847656 59.152344 L 175.433594 56.058594 L 179.105469 56.445312 L 178.867188 59.15625 L 177.164062 61.742188 L 177.140625 61.570312 L 182.914062 56.546875 L 205.363281 47.34375 L 226.832031 40.5 L 238.59375 35.726562 L 250.9375 31.363281 L 257.238281 27.523438 L 263.625 25.171875 L 264.679688 22.636719 L 264.8125 22.707031 L 264.699219 22.488281 L 263.867188 24.320312 L 263.234375 26.441406 L 260.847656 30.714844 L 262.507812 27.203125 L 262.207031 25.558594 L 263.996094 25.347656 L 265.253906 24.332031 L 266.09375 23.859375 L 265.796875 25.167969 L 265.445312 25.4375 L 266 24.890625 L 267.355469 23.292969 L 266.984375 22.683594 L 264.472656 28.457031 L 256.425781 34.53125 L 246.882812 39.953125 L 220.226562 53.175781 L 186.964844 70.859375 L 169.777344 83.367188 L 163.679688 95.929688 L 156.839844 124.316406 L 155 131.457031 L 155.46875 130.023438 L 154.726562 128.84375 L 155.691406 128.054688 L 155.191406 128.867188 L 152.738281 143.492188 L 149.992188 149.023438 L 149.070312 149.039062 L 143.621094 149.195312 L 134.6875 151.183594 L 129.28125 165.039062 L 132.902344 179.613281 L 132.648438 208.582031 L 130.375 215.027344 L 131.800781 207.890625 L 133.214844 208.375 L 150.8125 221.105469 L 192.0625 229.214844 L 212.238281 234.03125 L 236.71875 240.980469 L 242.496094 241.363281 L 243.648438 241.367188 L 250.058594 246.894531 L 262.15625 254.964844 L 264.65625 258.390625 L 265.316406 261.28125 L 268.097656 263.707031 L 269.324219 263.964844 L 264.863281 261.035156 L 263.519531 259.441406 L 259.761719 258.65625 L 256.59375 254.773438 L 255.339844 254.035156 L 254.820312 244.382812 L 244.441406 220.007812 L 238.242188 196.941406 L 234.046875 181.125 L 227.714844 170.019531 L 221.300781 160.066406 L 219.238281 149.488281 L 220.421875 142.230469 L 219.988281 127.253906 L 222.226562 113.828125 L 229.472656 99.800781 L 235.242188 88.769531 L 233.902344 85.082031 L 238.089844 84.246094 L 239.390625 84.027344 L 238.59375 81.980469 L 235.539062 86.988281 L 229.761719 91.515625 L 227.980469 93.132812 L 229.417969 92.792969 L 227.832031 93.421875 L 224.835938 78.789062 L 219 63.761719 L 218.304688 59.296875 L 220.910156 53.871094 L 219.148438 53.28125 L 217.414062 66.1875 L 222.296875 72.089844 L 228.984375 71.34375 L 228.019531 74.191406 L 235.089844 86.265625 L 241.472656 86.40625 L 241.484375 82.515625 L 228.210938 80.9375 L 215.4375 101.117188 L 199.703125 126.851562 L 196.589844 141.121094 L 193.710938 152.40625 L 189.222656 180.550781 L 181.417969 192.242188 L 169.144531 206.257812 L 159.933594 216.234375 L 158.382812 216.824219 L 135.449219 214.871094 L 114.363281 216.039062 L 89.921875 217.375 L 72.824219 214.335938 L 65.085938 215.871094 L 60.746094 217 L 51.476562 226.257812 L 45.042969 235.28125 L 39.832031 241.871094 L 38.664062 241.96875 L 40.203125 242.171875 L 43.726562 240.332031 L 40.90625 248.824219 L 33.003906 258.980469 L 28.382812 262.699219 L 26.894531 264.027344 L 23.027344 266.105469 L 22.753906 267.203125 L 25.039062 263.84375 L 30.941406 263.105469 L 35.269531 259.273438 L 43.804688 255.183594 L 51.144531 248.796875 L 72.921875 239.265625 L 94.328125 226.527344 L 115.285156 221.964844 L 130.664062 224.960938 L 148.414062 220.054688 L 164.632812 209.796875 L 175.875 199.746094 L 191.054688 195.132812 L 211.585938 190.296875 L 210.5 183.945312 L 219.46875 164.4375 L 227.421875 148.085938 L 229.269531 134.402344 L 232.917969 116.835938 L 236.816406 104.105469 L 238.726562 91.6875 L 238.960938 90.421875 L 235.953125 93.664062 L 230.066406 99.675781 L 230.070312 139.566406 L 226.949219 177.921875 L 222.070312 198.570312 L 217.160156 218.941406 L 214.671875 220.59375 L 211.382812 224.082031 L 203.949219 227.238281 L 197.058594 227.46875 L 198.332031 229.453125 L 198.929688 231.601562 L 200.414062 105.277344 L 200.796875 227.558594 L 197.089844 225.589844 L 173.453125 224.113281 L 151.515625 213.949219 L 136.148438 202.769531 L 115.03125 200.8125 L 94.464844 196.746094 L 74.476562 187.554688 L 69.742188 186.3125 L 63.996094 177.261719 L 63.304688 167.039062 L 60.894531 159.808594 L 63.714844 161.195312 L 57.777344 164.855469 L 59.859375 164.371094 L 65.191406 169.574219 L 57.644531 199.761719 L 54.007812 228.5625 L 50.601562 244.628906 L 43.714844 252.515625 L 46.894531 249.554688 L 60.433594 240.738281 L 98.734375 233.335938 L 192.050781 229.03125 L 207.957031 233.253906 L 220.46875 237.054688 L 238.59375 239.003906 L 249.644531 244.066406 L 249.878906 247.476562 L 254.859375 255.410156 L 255.84375 255.953125 L 255.902344 254.75 L 254.917969 253.472656 L 249.015625 248.144531 L 247.519531 243.898438 L 242.984375 246.230469 L 243.214844 241.796875 L 248.085938 237.914062 L 251.144531 241.644531 L 249.769531 251.917969 L 250.53125 241.605469 L 248.101562 233.253906 L 241.902344 230.375 L 222.128906 222.371094 L 194.402344 210.28125 L 182.628906 199.78125 L 175.136719 181.441406 L 171.203125 170.984375 L 165.277344 147.742188 L 150.0625 127.546875 L 142.09375 106.480469 L 138.414062 86.257812 L 139.335938 89.347656 L 134.132812 76.515625 L 132.183594 66.347656 L 128.460938 59.601562 L 122.75 56.464844 L 120.730469 54.90625 L 122.132812 57.484375 L 126.507812 67.796875 L 102.296875 65.046875 L 77.074219 64.867188 L 59.035156 64.132812 L 56.132812 61.292969 L 45.886719 47.167969 L 40.433594 38.332031 L 41.941406 41.84375 L 53.179688 62.910156 L 69.503906 94.550781 L 88.726562 115.265625 L 114.980469 133.917969 L 131.386719 150.25 L 155.433594 182.375 L 177.40625 212.648438 L 201.472656 226.261719 L 224.953125 228.882812 L 241.851562 236.648438 L 238.519531 237.058594 L 244.503906 235.527344 L 250.78125 236.097656 L 251.742188 232.695312 L 251.269531 232.574219 L 236.714844 238.679688 L 236.855469 241.042969 L 235.003906 238.527344 L 252.125 250.039062 L 263.097656 257.6875 L 267.109375 262.148438 L 263.441406 259.566406 L 257.5 256.910156 L 256.886719 257.390625 L 259.511719 256.726562 L 258.1875 258.4375 L 258.96875 259.480469 L 261.683594 261.628906 L 265.351562 265.054688 L 258.097656 260.585938 L 255.484375 256.855469 L 256.105469 255.609375 L 255.328125 244.84375 L 249.070312 225.171875 L 241.105469 204.976562 L 235.929688 182.496094 L 229.171875 164.828125 L 225.539062 148.453125 L 225.992188 135.410156 L 225.007812 120.996094 L 221.222656 116.476562 L 216.460938 104.121094 L 210.054688 96.074219 L 207.003906 88.171875 L 203.378906 85.972656 L 204.023438 86.167969 L 203.972656 84.664062 L 204.601562 84.003906 L 205.203125 84.65625 L 205.550781 76.410156 L 208.398438 60.863281 L 212.546875 56.5 L 226.515625 49.8125 L 243.964844 45.875 L 248.070312 40.453125 L 252.808594 38.132812 L 250.992188 39.84375 L 241.976562 43.964844 L 233.550781 43.667969 L 232.605469 42.988281 L 230.0625 59.84375 L 218.984375 75.648438 L 219.433594 74.875 L 217.976562 76.558594 L 218.09375 76.625 L 217.296875 77.011719 L 216.839844 77.820312 L 213.347656 82.40625 L 203.363281 95.765625 L 201.78125 95.632812 L 191.421875 94.296875 L 163.777344 92.28125 L 140.625 84.984375 L 134.570312 85.078125 L 119.378906 92.207031 L 85.261719 96.355469 L 69.296875 101.21875 L 65.042969 117.410156 L 62.644531 146.539062 L 61.652344 184.578125 L 56.070312 218.0625 L 51.605469 239.496094 L 51.5625 240.144531 L 40.902344 247.921875 L 29.105469 261.597656 L 25.203125 264.921875 L 30.914062 257.855469 L 33.847656 255.515625 L 31.351562 256.542969 L 31.339844 257.28125 L 30.238281 258.722656 L 27.5625 262.808594 L 24.402344 260.546875 L 22.046875 262.691406 L 23.417969 266.71875 L 24.554688 260.164062 L 25.5625 258.566406 L 29.269531 259.757812 L 27.554688 257.34375 L 26.863281 257.851562 L 26.164062 257.625 L 27.109375 256.433594 L 32.324219 257.21875 L 31.535156 258.609375 L 30.160156 258.648438 L 28.933594 258.738281 L 27.886719 260.914062 L 24.527344 260.375 L 23.992188 260.601562 L 25.523438 262.378906 L 24.007812 260.671875 L 23.085938 260.621094 L 25.210938 258.347656 L 27.308594 256.664062 L 29.070312 254.125 L 32.253906 257.1875 L 37.125 258.214844 L 41.960938 256.410156 L 49.769531 250.195312 L 70.148438 232.449219 L 90.605469 216.226562 L 107.996094 207.042969 L 123.222656 206.714844 L 141.183594 210.984375 L 151.410156 215.679688 L 161.046875 223.117188 L 167.144531 224.675781 L 173.433594 224.808594 L 174.394531 224.574219 L 173.105469 223.289062 L 170.867188 224.613281 L 178.929688 222.835938 L 196.636719 213.269531 L 213.714844 207.632812 L 224.714844 201.667969 L 229.804688 193.882812 L 230.691406 178.675781 L 229.367188 150.59375 L 231.5 126.679688 L 229.164062 105.652344 L 222.144531 99.390625 L 215.65625 92.609375 L 202.957031 77.082031 L 190.339844 62.171875 L 169.910156 56.332031 L 153.210938 54.199219 L 139.679688 54.910156 L 123.683594 52.804688 L 105.917969 49.554688 L 89.429688 48.90625 L 76.203125 53.871094 L 67.65625 58.378906 L 66.898438 58.253906 L 67.054688 58.421875 L 62.359375 62.929688 L 53.730469 60.25 L 45.375 51.582031 L 39.082031 40.78125 L 30.78125 32.410156 L 28.308594 28.878906 L 29.109375 32.726562 L 30.546875 34.480469 L 30.359375 34.789062 L 29.96875 33.902344 L 30.796875 35.652344 L 33.410156 35.058594 L 36.9375 32.164062 L 39.785156 32.066406 L 44.664062 33.632812 L 47.144531 33.511719 L 48.890625 34.675781 L 53.015625 36.589844 L 51.539062 34.855469 L 50.871094 33.433594 L 48.789062 33.808594 L 44.605469 29.863281 L 40.375 25.457031 L 39.035156 25.839844 L 38.050781 28.945312 L 39.183594 31.328125 L 38.445312 31.21875 L 31.496094 26.800781 L 26.0625 23.921875 L 23.007812 19.878906 L 22.957031 19.226562 L 25.40625 29.570312 L 39.34375 34.535156 L 74.621094 53.105469 L 99.003906 68.953125 L 119.867188 87.082031 L 142.398438 118.796875 L 167.820312 147.375 L 195.226562 173.082031 L 212.789062 188.507812 L 224.375 209.425781 L 229.722656 228.496094 L 229.925781 233.296875 L 229.386719 235.164062 L 233.839844 238.292969 L 243.128906 247.378906 L 249.976562 251.511719 L 253.160156 255.730469 L 251.929688 253.246094 L 245.949219 245.539062 L 256.042969 251.113281 L 264.425781 258.242188 L 267.652344 261.296875 L 264.660156 260.511719 L 267.171875 253.996094 L 260.367188 254.890625 L 258.480469 251.996094 L 255.945312 247.355469 L 247.757812 234.539062 L 236.109375 203.140625 L 228.335938 176.351562 L 225.070312 158.667969 L 222.949219 140.132812 L 220.453125 125.359375 L 217.933594 102.03125 L 217.324219 81.265625 L 215.933594 59.402344 L 218.382812 52.199219 L 230.054688 42.769531 L 247.949219 37.40625 L 252.410156 33.117188 L 257.128906 27.742188 L 255.1875 29.753906 L 250.324219 31.800781 L 247.109375 33.957031 L 244.671875 37.609375 L 212.355469 51.851562 L 168.175781 69.648438 L 137.050781 79.101562 L 112.226562 81.925781 L 85.398438 82.429688 L 61.542969 80.1875 L 62.710938 80.582031 L 60.6875 73.976562 L 51.675781 54.257812 L 47.375 42.578125 L 48.730469 47.125 L 47.089844 40.335938 L 44.648438 43.492188 L 42.25 44.398438 L 40.390625 45 L 40.941406 47.640625 L 42.234375 48.960938 L 50.867188 53.621094 L 51.136719 59.054688 L 48.070312 64.472656 L 44.730469 64.566406 L 49.449219 63.527344 L 62.402344 71.421875 L 85.953125 117.222656 L 104.144531 143.789062 L 117.832031 185.335938 L 127.546875 212.761719 L 123.515625 208.394531 L 127.957031 208.152344 L 131.136719 208.878906 L 158.75 216.636719 L 173.0625 223.402344 L 177.332031 217.203125 L 170.910156 212.765625 L 184.308594 201.765625 L 206.230469 190.472656 L 219.992188 188.464844 L 216.269531 188.042969 L 217.625 179.984375 L 228.550781 170.21875 L 237.175781 169.945312 L 226.414062 173.359375 L 213.445312 173.105469 L 206.011719 143.484375 L 197.355469 110.339844 L 191.136719 84.738281 L 188.558594 66.898438 L 192.453125 73.101562 L 213.777344 54.164062 L 230.535156 47.496094 L 248.308594 39.636719 L 262.636719 28.3125 L 265.007812 25.554688 L 263.792969 25.535156 L 265.167969 25.359375 L 264.730469 24.023438 L 265.222656 26.230469 L 263.625 26.761719 L 263.011719 26.992188 L 263.019531 27.082031 L 264.28125 25.023438 L 269.222656 21.109375 L 270.050781 20.417969 L 262.625 29.011719 L 254.46875 30.328125 L 253.976562 30.433594 L 245.613281 31.851562 L 222.652344 54.898438 L 204.503906 88.925781 L 189.257812 110.636719 L 168.371094 127.890625 L 167.382812 127.78125 L 152.066406 148.679688 L 118 175.035156 L 91.425781 191.890625 L 69.421875 196.886719 L 68.417969 210.332031 L 59.210938 239.679688 L 44.265625 249.144531 L 36.558594 256.40625 L 31.21875 261.09375 L 29.773438 260.667969 L 25.191406 264.820312 L 25.339844 265.117188 L 28.195312 265.007812 L 37.988281 259.070312 L 44.628906 254.039062 L 50.152344 248.675781 L 88.152344 226.808594 L 132.65625 212.011719 L 169.1875 217.191406 L 190.449219 215.660156 L 211.285156 209.09375 L 229.949219 204.964844 L 236.34375 217.742188 L 245.980469 237.332031 L 247.160156 235.996094 L 250.628906 245.683594 L 255.773438 253.375 L 258.933594 253.628906 L 259.140625 247.28125 L 253.933594 241.738281 L 256.066406 242.976562 L 265.199219 245.992188 L 263.757812 244.917969 L 256.070312 243.789062 L 248.972656 236.933594 L 243.878906 229.40625 L 232.710938 190.339844 L 224.28125 148.3125 L 230.402344 121.753906 L 233.347656 105.558594 L 234.625 96.894531 L 238.011719 76.085938 L 245.636719 62.90625 L 253.167969 46.085938 L 250.613281 44.941406 L 257.207031 45.191406 L 250.566406 46.285156 L 241.21875 47.34375 L 242.890625 48.511719 L 243.378906 47.925781 L 241.589844 46.351562 L 237.183594 43.960938 L 233.285156 62.640625 L 208.785156 83.878906 L 174.742188 108.953125 L 147.972656 128.136719 L 140.035156 144.59375 L 137.152344 169.46875 L 131.523438 170.648438 L 127.261719 171.480469 L 118.757812 169.167969 L 93.21875 174.710938 L 90.59375 179.71875 L 94.28125 180.828125 L 99.953125 193.3125 L 107.84375 213.542969 L 110.007812 213.964844 L 112.070312 216.140625 L 112.683594 214.683594 L 112.109375 211.230469 L 155.023438 216.164062 L 189.515625 216.164062 L 222.867188 222.269531 L 237.988281 226.640625 L 248.820312 238.929688 L 259.898438 250.796875 L 263.070312 257.800781 L 265.519531 260.539062 L 266.332031 261.402344 L 266.046875 260.710938 L 265.742188 256.859375 L 257.296875 248.082031 L 254.53125 241.054688 L 256.398438 235.886719 L 240.824219 235.949219 L 223.46875 236.035156 L 223.546875 236.335938 L 224.308594 242.707031 L 224.722656 240.214844 L 229.304688 229.542969 L 220.058594 222.820312 L 196.867188 200.082031 L 168.570312 173.566406 L 139.242188 143.921875 L 129.585938 113.269531 L 121.714844 71.089844 L 112.132812 59.320312 L 105.265625 55.164062 L 101.738281 52.949219 L 104.265625 55.515625 L 101.988281 58.339844 L 67.515625 52.335938 L 44.925781 46.480469 L 31.015625 30.546875 L 28.265625 24.382812 L 28.636719 23.761719 L 27.835938 23.371094 L 27.785156 23.207031 L 31.226562 25.253906 L 28.75 23.679688 L 28.410156 23.574219 L 36.726562 28.308594 L 37.472656 28.34375 L 34.691406 26.929688 L 35.15625 29.578125 L 43.132812 35.816406 L 68.433594 87.566406 L 67.492188 107.265625 L 63.914062 119.867188 L 64.078125 123.4375 L 60.910156 123.808594 L 68.085938 115.722656 L 83.941406 138.910156 L 109.78125 171.601562 L 134.089844 203.0625 L 154.105469 220.164062 L 177.261719 221.109375 L 212.996094 219.4375 L 241.257812 231.320312 L 255.875 247.84375 L 264.460938 258.8125 L 267.671875 263.507812 L 266.398438 263.300781 L 267.808594 259.988281 L 264.15625 249.027344 L 260.765625 245.261719 L 254.527344 249.320312 L 248.496094 233.828125 L 232.691406 198.824219 L 221.441406 152.921875 L 217.878906 132.84375 L 204.4375 130.941406 L 174.714844 117.253906 L 151.003906 91.886719 L 139.085938 70.273438 L 120.65625 59.683594 L 93.042969 53.910156 L 68.867188 46.160156 L 65.480469 45.394531 L 56.6875 39.851562 L 50.425781 37.753906 L 41.207031 31.027344 L 32.5 28.007812 L 29.023438 24.292969 L 28.308594 25.441406 L 29.011719 26.898438 L 26.980469 24.335938 L 23.5625 19.710938 L 23.480469 19.898438 L 24.710938 21.386719 L 27.519531 26.175781 L 31.453125 28.925781 L 36.683594 28.703125 L 39.957031 29.261719 L 40.488281 29.984375 L 41.625 30.636719 L 37.605469 33.222656 L 45.878906 34.8125 L 60.21875 47.34375 L 62.53125 57.789062 L 65.09375 58.566406 L 64.414062 58.832031 L 64.460938 58.984375 L 64.492188 59.148438 L 65.414062 60.289062 L 71.40625 68.542969 L 70.570312 70.683594 L 77.039062 88.234375 L 84.960938 119.632812 L 93.90625 145.210938 L 117.035156 186.027344 L 126.949219 213.230469 L 139.90625 214.269531 L 147.679688 212.886719 L 146.757812 212.507812 L 143.886719 216.429688 L 141.238281 213.6875 L 140.335938 214.125 L 139.84375 214.300781 L 139.957031 214.757812 L 140.976562 213.910156 L 141.367188 213.640625 L 142.644531 211.421875 L 144.539062 211.417969 L 144.460938 210.503906 L 142.667969 201.621094 L 142.226562 196.332031 L 137.78125 185.835938 L 137.699219 179.394531 L 136.304688 175.792969 L 136.324219 182.347656 L 133.910156 180.699219 L 130.199219 170.359375 L 125.300781 166.589844 L 120.402344 137.492188 L 125.078125 138.472656 L 138.617188 131.449219 L 142.746094 132.234375 L 141.183594 130.652344 L 136.074219 134.769531 L 134.191406 136.566406 L 133.976562 135.910156 L 133.984375 135.890625 L 137.007812 135.878906 L 155.070312 126.324219 L 168.71875 113.796875 L 183.070312 98.453125 L 200.066406 81.304688 L 211.515625 66.769531 L 218.894531 56.625 L 213.234375 64.652344 L 210.335938 61.574219 L 212.5625 66.78125 L 201.960938 85.542969 L 200.707031 113.96875 L 199.339844 134.046875 L 199.257812 144.636719 L 190.253906 154.359375 L 170.578125 168.390625 L 170.703125 167.777344 L 171.34375 167.570312 L 170.792969 167.410156 L 170.011719 167.476562 L 167.652344 168.148438 L 157.6875 172.996094 L 138.503906 184.515625 L 120.523438 200.011719 L 105.007812 211.863281 L 80 224.101562 L 65.296875 226.449219 L 59.980469 224.507812 L 57.796875 224.378906 L 58.113281 227.039062 L 46.964844 236.539062 L 40.167969 248.054688 L 39.386719 249.980469 L 38.480469 250.589844 L 32.03125 255.589844 L 31.367188 258.238281 L 31.210938 260.171875 L 28.308594 261.238281 L 26.488281 262.5625 L 27.621094 263.15625 L 24.871094 265.945312 L 30.371094 262.984375 L 29.613281 260.910156 L 32.941406 258.859375 L 39.550781 256.121094 L 46.207031 257.34375 L 43.507812 247.414062 L 43.078125 251.574219 L 43.199219 252.089844 L 45.027344 257.402344 L 45.847656 258.277344 L 45.46875 259.289062 L 46.949219 257.199219 L 47.832031 258.363281 L 47.378906 258.605469 L 47.074219 257.648438 L 46.230469 257.34375 L 43.507812 250.945312 L 46.796875 246.507812 L 52.503906 244.925781 L 53.882812 244.917969 L 52.609375 243.753906 L 51.023438 245.519531 L 50.632812 245.640625 L 56.71875 243.722656 L 62.355469 239.503906 L 65.144531 232.273438 L 63.566406 232.636719 L 61.058594 234.601562 L 60.554688 234.226562 L 60.804688 234.242188 L 60.355469 234.105469 L 60.003906 233.707031 L 60.230469 233.625 L 60.800781 233.921875 L 61.425781 234.050781 L 61.449219 233.785156 L 61.039062 233.867188 L 60.585938 232.5 L 60.578125 232.59375 L 61.566406 233.410156 L 61.515625 232.804688 L 60.0625 233.265625 L 60.203125 233.121094 L 60.234375 232.394531 L 59.21875 232.570312 L 60.09375 233.335938 L 60.082031 232.410156 L 59.804688 231.820312 L 59.167969 233.691406 L 59.601562 232.71875 L 59.679688 232.230469 L 59.671875 232.578125 L 58.46875 232.144531 L 59.144531 232.617188 L 58.246094 233.738281 L 57.664062 234.074219 L 57.328125 234.628906 L 57.214844 235.269531 L 57.230469 235.914062 L 56.507812 236.261719 L 56.847656 237.078125 L 57.191406 236.597656 L 58.125 233.96875 L 57.957031 232.359375 L 59.199219 231.707031 L 60.019531 231.695312 L 59.878906 231.230469 L 59.300781 230.511719 L 58.816406 230.574219 L 58.035156 230.804688 L 58.308594 230.351562 L 58.695312 228.925781 L 58.792969 228.957031 L 58.132812 229.445312 L 58.035156 229.414062 L 58.066406 228.804688 L 57.164062 230.851562 L 56.707031 231.492188 L 57.132812 230.71875 L 55.664062 231.886719 L 56.671875 231.0625 L 56.40625 230.246094 L 56.226562 230.191406 L 54.921875 232.519531 L 55.195312 232.570312 L 56.441406 229.863281 L 54.699219 228.382812 L 54.914062 228.117188 L 55.222656 230.070312 L 55.1875 231.269531 L 55.769531 230.648438 L 55.738281 230.699219 L 56.226562 228.671875 L 56.914062 228.515625 L 54.648438 229.996094 L 56.890625 230.230469 L 56.148438 228.8125 L 57.035156 229.128906 L 58 229.539062 L 58.980469 231.515625 L 58.980469 231.09375 L 58.707031 230.839844 L 59.179688 231.023438 L 58.722656 230.675781 L 58.613281 230.582031 L 58.328125 229.636719 L 58.015625 228.179688 L 58.46875 228.972656 L 58.390625 230.152344 L 58.042969 230.921875 L 58.34375 231.265625 L 58.199219 230.152344 L 57.613281 230.28125 L 57.4375 229.78125 L 56.722656 229.394531 L 56.417969 228.992188 L 55.757812 228.71875 L 55.714844 228.535156 L 57.132812 229.335938 L 56.792969 229.859375 L 55.5 230.089844 L 56.691406 230.878906 L 58.628906 230.226562 L 58.90625 229.535156 L 58.351562 229.605469 L 58.980469 229.054688 L 58.605469 229.074219 L 58.054688 229.339844 L 56.957031 229.234375 L 57.734375 228.179688 L 56.804688 230.117188 L 56.789062 230.230469 L 57.066406 230.597656 L 56.136719 230.730469 L 57.242188 230.253906 L 55.269531 230.953125 L 54.824219 229.660156 L 55.652344 229.402344 L 54.75 230.523438 L 54.609375 230.660156 L 54.429688 230.578125 L 54.425781 230.171875 L 54.179688 230.359375 L 54.488281 230.332031 L 54.28125 229.175781 L 54.390625 228.894531 L 54.914062 229.355469 L 54.816406 229.800781 L 54.019531 229.324219 L 53.835938 228.371094 L 54.601562 228.421875 L 54.949219 228.621094 L 54.4375 228.6875 L 54.824219 227.996094 L 54.773438 227.863281 L 54.945312 227.277344 L 55.617188 227.046875 L 55.328125 228.050781 L 55.441406 228.792969 L 55.324219 228.605469 L 55.992188 228.238281 L 55.125 229.191406 L 55.941406 228.832031 L 56.699219 228.640625 L 57.644531 228.765625 L 53.5625 230.839844 L 55.820312 229.300781 L 60.164062 229.59375 L 58.777344 230.675781 L 60.378906 231.984375 L 59.363281 230.429688 L 61.660156 228.535156 L 61.644531 227.214844 L 61.40625 227.210938 L 59.785156 228.398438 L 58.550781 228.113281 L 59.152344 227.457031 L 57.148438 230.097656 L 57.949219 229.375 L 57.738281 227.832031 L 57.363281 229.078125 L 57.625 228.75 L 58.214844 228.34375 L 57.378906 229.023438 L 56.253906 228.171875 L 56.105469 228.824219 L 56.414062 228.636719 L 57.015625 228.753906 L 55.789062 228.628906 L 56.703125 228.585938 L 56.371094 229.238281 L 57.179688 229.96875 L 58.167969 229.089844 L 56.875 229.609375 L 56.199219 229.578125 L 57.316406 229.152344 L 55.789062 229.71875 L 56.625 229.382812 L 56.136719 229.222656 L 55.882812 230.007812 L 56.394531 229.890625 L 55.757812 230.851562 L 57.246094 230.144531 L 59.019531 228.527344 L 57.4375 229.171875 L 57.488281 228.910156 L 54.4375 230.136719 L 54.976562 230.035156 L 55.722656 229.800781 L 55.886719 228.316406 L 54.742188 229.585938 L 54.125 229.679688 L 53.464844 229.179688 L 52.828125 229.117188 L 52.605469 229.1875 L 52.046875 227.800781 L 51.726562 232.210938 L 50.734375 231.96875 L 54.71875 232.964844 L 56.394531 232.042969 L 54.519531 232.695312 L 56.191406 232.132812 L 54.925781 229.375 L 54.035156 227.035156 L 54.261719 227.996094 L 55.140625 230.34375 L 54.589844 228.902344 L 54.964844 229.785156 L 53.535156 227.910156 L 53.261719 228.316406 L 52.949219 229.023438 L 54.386719 229.445312 L 54.394531 229.535156 L 54.921875 231.210938 L 55.367188 232.21875 L 55.570312 231.421875 L 55.902344 229.738281 L 55.839844 230.421875 L 55.203125 231.199219 L 54.949219 231.601562 L 57.117188 229.4375 L 55.453125 231.277344 L 56.28125 231.09375 L 58.175781 229.03125 L 58.875 228.566406 L 57.199219 227.136719 L 57.675781 226.644531 L 57.011719 229.179688 L 55.972656 229.933594 L 54.941406 230.417969 L 56.390625 229.546875 L 56.425781 228.582031 L 56.542969 228.601562 L 57.683594 228.785156 L 57.050781 228.558594 L 57 228.558594 L 55.289062 228.3125 L 54.589844 229.828125 L 55.816406 228.679688 L 56.136719 228.375 L 56.609375 228.585938 L 56.910156 228.457031 L 57.859375 228.636719 L 57.820312 228.464844 L 58.308594 227.828125 L 58.402344 229.660156 L 58.25 229.679688 L 59.726562 230.683594 L 59.554688 230.863281 L 59.941406 233.347656 L 59.082031 232.992188 L 59.867188 230.113281 L 54.519531 228.882812 L 56.617188 228.605469 L 58.59375 229.050781 L 55.953125 228.972656 L 57.914062 230.035156 L 56.585938 229.472656 L 53.597656 227.667969 L 52.558594 227.4375 L 54.382812 227.417969 L 54.617188 227.128906 L 53.761719 228.957031 L 52.847656 228.011719 L 53.871094 227.773438 L 54.074219 226.78125 L 53.207031 227.597656 L 52.199219 226.75 L 52.578125 227.007812 L 54.164062 227.488281 L 53.101562 227.132812 L 53.84375 227.523438 L 54.566406 227.820312 L 54.960938 227.894531 L 55.863281 227.820312 L 57.242188 227.496094 L 56.066406 226.03125 L 55.980469 226.8125 L 56.914062 227.488281 L 59.25 227.503906 L 59.574219 229.992188 L 58.75 229.574219 L 58.425781 227.742188 L 54.511719 226.625 L 53.726562 225.667969 L 55.953125 222.878906 L 73.523438 211.875 L 83.578125 205.277344 L 93.507812 201.363281 L 115.484375 195.089844 L 127.113281 187.382812 L 134.519531 180.449219 L 134.152344 181.316406 L 132.957031 183.792969 L 150.648438 177.105469 L 161.410156 172.316406 L 162.066406 171.367188 L 161.230469 171.402344 L 161.273438 172.574219 L 162.101562 176.210938 L 188.441406 175.445312 L 209.324219 181.296875 L 221.90625 188.097656 L 223.742188 187.835938 L 227.800781 201.425781 L 231.265625 221.039062 L 235.421875 230.484375 L 242.058594 234.9375 L 247.160156 242.792969 L 253.40625 247.195312 L 254.667969 247.707031 L 259.074219 248.734375 L 258.6875 250.523438 L 258.566406 251.800781 L 262.691406 252.457031 L 263.523438 252.535156 L 263.957031 253.132812 L 263.523438 253.898438 L 263.691406 253.742188 L 264.140625 253.355469 L 263.878906 252.886719 L 262.210938 251.246094 L 258.222656 247.1875 L 251.015625 242.28125 L 247.574219 238.882812 L 245.53125 234.011719 L 237.429688 216.582031 L 233.546875 199.148438 L 229.09375 192.855469 L 224.355469 185.421875 L 225.996094 185.632812 L 227.257812 185.449219 L 228.859375 185.996094 L 229.128906 186.492188 L 227.28125 186.058594 L 223.382812 183.164062 L 216.929688 166.101562 L 210.492188 152.46875 L 203.640625 139.714844 L 196.730469 131.1875 L 189.035156 126.949219 L 184.179688 120.609375 L 183.140625 116.640625 L 183.183594 117.148438 L 182.980469 116.46875 L 184.410156 118.097656 L 185.644531 118.5625 L 185.652344 116.390625 L 185.019531 118.957031 L 182.738281 117.410156 L 181.878906 109.496094 L 185.6875 93.644531 L 187.308594 80.269531 L 184.703125 73.324219 L 180.023438 64.457031 L 172.515625 60.765625 L 170.320312 59.308594 L 169.472656 59.070312 L 169.386719 59.851562 L 172.515625 61.480469 L 177.890625 67.535156 L 178.738281 66.089844 L 178.988281 69.035156 L 180.152344 67.460938 L 195.097656 62.796875 L 217.414062 61.613281 L 233.785156 59.292969 L 241.082031 51.746094 L 247.292969 43.417969 L 253.710938 35.5 L 259.402344 26.433594 L 264.589844 24.730469 L 262.554688 26.066406 L 257.535156 32.960938 L 253.992188 39.679688 L 223.265625 53.878906 L 197.960938 77.289062 L 183.039062 93.511719 L 171.597656 99.984375 L 173.15625 99.183594 L 184.6875 105.367188 L 176.339844 98.515625 L 176.242188 98.234375 L 177.285156 98.058594 L 178.070312 98.476562 L 177.074219 98.105469 L 176.484375 98.203125 L 176.089844 98.191406 L 175.820312 98.386719 L 175.433594 98.925781 L 174.234375 98.699219 L 174.640625 98.988281 L 175.957031 99.203125 L 174.460938 96.898438 L 176.164062 96.316406 L 177.554688 97.5 L 165.4375 103.367188 L 137.171875 117.210938 L 118.734375 131.480469 L 102.917969 145.234375 L 72.6875 167.703125 L 63.0625 180.453125 L 61.96875 192.210938 L 55.601562 216.539062 L 52.679688 234.351562 L 51.492188 236.222656 L 42.5 250.027344 L 35.652344 253.28125 L 39.535156 250.707031 L 43.589844 246.925781 L 77.371094 228.914062 L 93.011719 213.796875 L 91.9375 214.074219 L 90.320312 216.671875 L 90.226562 215.515625 L 90.242188 218.554688 L 88.328125 220.207031 L 87.371094 220.695312 L 88.089844 221.5625 L 88.660156 222.257812 L 88.800781 222.332031 L 91.574219 223.265625 L 94.140625 223.636719 L 103.789062 212.8125 L 106.765625 213.613281 L 107.253906 212.628906 L 106.808594 211.3125 L 107.449219 208.09375 L 106.492188 209.496094 L 106.445312 209.496094 L 109.847656 210.183594 L 111.605469 211.582031 L 111.40625 211.535156 L 111.535156 211.738281 L 111.242188 213.035156 L 111.089844 215.074219 L 86.621094 220.1875 L 75.152344 218.332031 L 77.90625 219.117188 L 72.105469 216.121094 L 64.742188 211.964844 L 64.558594 212.4375 L 81.777344 200.9375 L 103.261719 196.390625 L 118.492188 205.933594 L 123.636719 217.875 L 128.222656 216.785156 L 139.851562 217.589844 L 157.960938 210.726562 L 175.648438 202.640625 L 192.367188 196.335938 L 204.808594 195.96875 L 215.742188 195.152344 L 223.285156 196.578125 L 226.585938 201.917969 L 232.058594 210.792969 L 232.648438 212.054688 L 231.941406 226.261719 L 234.679688 235.253906 L 235.6875 236.144531 L 235.441406 234.796875 L 232.492188 236.109375 L 232.066406 240.6875 L 230.488281 242.777344 L 229.355469 242.226562 L 228.945312 241.566406 L 230.207031 242.191406 L 231.507812 241.609375 L 233.601562 235.40625 L 231.714844 227.113281 L 226.664062 219.871094 L 229.160156 213.53125 L 232.769531 208.980469 L 233.046875 202.925781 L 227.789062 178.6875 L 221.523438 156.425781 L 215.046875 147.238281 L 213.015625 141.421875 L 214.484375 140.988281 L 216.636719 135.375 L 226.550781 120.730469 L 229.1875 114.289062 L 226.773438 105.402344 L 225.226562 98.578125 L 223.003906 84.890625 L 224.820312 89.679688 L 224.152344 90.011719 L 224.453125 90.039062 L 224.742188 90.039062 L 223.46875 89.890625 L 222.773438 89.988281 L 216.394531 88.628906 L 204.132812 77.625 L 197.296875 62.375 L 197.113281 62.859375 L 191.128906 82.230469 L 185.253906 93.828125 L 182.445312 93.742188 L 169.308594 110.261719 L 156.289062 130.839844 L 155.070312 132.914062 L 156.582031 133.554688 L 153.121094 127.839844 L 156.183594 130.714844 L 161.894531 148.386719 L 175.75 182.722656 L 186.878906 212.667969 L 209.921875 228.578125 L 234.417969 239.011719 L 253.214844 248.839844 L 256.722656 252.519531 L 263.847656 257.890625 L 266.390625 259.503906 L 265.1875 258.753906 L 264.050781 258.398438 L 263.664062 258.09375 L 264.554688 258.125 L 252.882812 254.796875 L 253.480469 244.902344 L 253.867188 236.84375 L 245.34375 240.195312 L 238.828125 216.414062 L 232.40625 176.394531 L 230.855469 146.453125 L 224.941406 124.078125 L 218.671875 104.359375 L 211.417969 91.441406 L 210.117188 83.710938 L 198.847656 64.070312 L 189.382812 60.574219 L 166.453125 60.769531 L 130.539062 60.257812 L 112.101562 57.089844 L 86.042969 55.972656 L 60.886719 55.816406 L 48.828125 49.386719 L 40.984375 38.21875 L 40.957031 39.132812 L 40.023438 37.421875 L 28.1875 23.769531 L 24.035156 21.039062 L 22.785156 18.253906 L 22.164062 18.261719 L 21.984375 17.949219 L 23.007812 18.824219 L 34.128906 28.96875 L 42.308594 42.460938 L 47.523438 63.003906 L 56.835938 78.128906 L 77.125 99.835938 L 96.316406 125.570312 L 104.570312 142.925781 L 118.226562 173.792969 L 132.695312 204.992188 L 140.339844 215.273438 L 182.367188 219.464844 L 221.894531 225.355469 L 241.117188 232.625 L 245.421875 237.84375 L 259.777344 251.988281 L 260.847656 254.925781 L 264.308594 258.328125 L 266.269531 260.257812 L 268.484375 263.238281 L 265.714844 257.308594 L 261.824219 258.101562 L 261.070312 258.382812 L 257.722656 251.570312 L 259.101562 247.417969 L 239.0625 241.15625 L 221.332031 224.460938 L 207.1875 208.863281 L 203.582031 197.074219 L 210.972656 178.625 L 221.523438 164.703125 L 228.292969 152.679688 L 222.691406 135.945312 L 214.914062 131.378906 L 210.183594 128.089844 L 207.640625 127.484375 L 209.707031 117.863281 L 206.96875 89.714844 L 206.257812 68.5 L 207.773438 60.1875 L 225.265625 48.273438 L 243.398438 39.90625 L 253.167969 31.570312 L 252.351562 30.234375 L 250.390625 32.136719 L 250.855469 32.101562 L 258.871094 27.3125 L 264.617188 20.640625 L 267.542969 20.335938 L 266.054688 21.113281 L 265.386719 20.890625 L 253.023438 31.515625 L 250.9375 41.519531 L 244.917969 65.898438 L 232.160156 87.957031 L 215.046875 125.519531 L 211.175781 171.75 L 207.402344 197.25 L 207.988281 218.464844 L 206.332031 226.347656 L 202.484375 227.332031 L 206.132812 224.378906 L 192.296875 216.0625 L 161.785156 211.8125 L 123.53125 205.222656 L 98.070312 200.316406 L 86.109375 189.441406 L 85.238281 191.324219 L 68.910156 191.382812 L 71.921875 194.203125 L 72.386719 194.097656 L 72.488281 194.070312 L 72.476562 194.046875 L 72.917969 192.949219 L 71.042969 190.804688 L 73.417969 189.851562 L 81.359375 182.113281 L 83.792969 167.792969 L 85.441406 163.492188 L 85.019531 163.664062 L 79.742188 160.769531 L 81.015625 161.117188 L 86.964844 165.070312 L 84.898438 142.15625 L 85.382812 140.027344 L 84.832031 139.710938 L 84.960938 139.675781 L 85.015625 134.527344 L 96.699219 122.660156 L 114.003906 119.855469 L 133.390625 116.980469 L 149.410156 115.242188 L 153.582031 116.140625 L 161.90625 115.285156 L 166.28125 116.050781 L 169.328125 120.988281 L 180.191406 135.863281 L 189.257812 151.046875 L 200.214844 174.445312 L 199.765625 174.5 L 199.074219 173.5 L 188.332031 174.460938 L 179.867188 176.480469 L 161.476562 178.28125 L 129.882812 181.988281 L 103.019531 187.945312 L 87.695312 193.460938 L 70.132812 204.515625 L 65.207031 209.101562 L 65.5 209.117188 L 59.554688 220.976562 L 52.449219 240.234375 L 52.195312 237.167969 L 54.515625 239.34375 L 54.332031 238.929688 L 49.347656 239.1875 L 50.0625 242.683594 L 52.394531 249.867188 L 53.125 246.472656 L 50.808594 224.960938 L 47.214844 233.722656 L 38.566406 249.289062 L 31.894531 257.261719 L 40.117188 244.265625 L 48.382812 245.914062 L 63.917969 233.46875 L 67.144531 222 L 71.132812 216.578125 L 69.378906 221.046875 L 68.316406 222.480469 L 66.867188 221.855469 L 63.023438 216.207031 L 64.816406 217.488281 L 85.101562 204.367188 L 107.117188 190.222656 L 117.839844 175.894531 L 120.546875 165.65625 L 116.320312 143.121094 L 117.472656 143.757812 L 120.875 144.097656 L 121.273438 141.785156 L 120.832031 142.539062 L 120.996094 142.398438 L 120.132812 143.484375 L 119.222656 144.390625 L 119.429688 144.585938 L 119.460938 144.941406 L 119.722656 144.738281 L 119.800781 144.820312 L 119.558594 144.914062 L 119.4375 144.863281 L 119.554688 144.722656 L 119.335938 144.980469 L 119.292969 144.800781 L 119.285156 144.796875 L 119.214844 144.777344 L 119.582031 144.699219 L 119.632812 144.847656 L 119.414062 143.441406 L 118.144531 142.578125 L 117.890625 142.296875 L 117.648438 142.335938 L 117.402344 141.96875 L 117.097656 141.808594 L 117.605469 140.664062 L 119.800781 140.929688 L 121.121094 139.121094 L 126.421875 124.164062 L 136.492188 102.164062 L 147.457031 80.195312 L 156.050781 65.003906 L 157.660156 63.496094 L 158.613281 59.164062 L 158.769531 55.9375 L 156.746094 62.917969 L 156.847656 70.601562 L 165.4375 60.699219 L 186.132812 57.222656 L 216.929688 50.898438 L 238.003906 48.546875 L 241.28125 44.71875 L 243.042969 37.914062 L 241.960938 36.488281 L 244.109375 34.757812 L 243.023438 36.324219 L 235.21875 44.304688 L 224.296875 44.890625 L 222.859375 42.402344 L 223.699219 44.039062 L 226.835938 51.269531 L 206.378906 53.214844 L 182.015625 55.046875 L 153.40625 56.414062 L 131.945312 56.445312 L 111.269531 57.546875 L 84.683594 60.335938 L 58.679688 62.554688 L 55.105469 61.3125 L 46.113281 53.019531 L 37.914062 41.777344 L 32.953125 33.839844 L 27.9375 28.089844 L 27.945312 25.804688 L 26.960938 24.539062 L 28.660156 26.273438 L 28.710938 26.945312 L 25.035156 26.171875 L 24.914062 25.273438 L 26.734375 24.414062 L 27.304688 23.554688 L 24.351562 22.402344 L 24.976562 21 L 37.304688 24.117188 L 41.425781 29.695312 L 34.929688 27.253906 L 31.144531 23.871094 L 27.796875 20.558594 L 28.371094 20.667969 L 27.753906 20.660156 L 29.121094 20 L 28.03125 19.6875 L 28.039062 20.027344 L 27.554688 19.859375 L 26.894531 20.394531 L 27.269531 20.210938 L 26.933594 20.304688 L 27.023438 20.050781 L 26.816406 20.394531 L 26.628906 20.605469 L 26.839844 20.484375 L 26.953125 20.523438 L 26.933594 20.222656 L 26.894531 19.960938 L 26.734375 19.972656 L 28.046875 19.125 L 26.96875 19.816406 L 27.4375 19.359375 L 27.328125 19.40625 L 27.378906 19.988281 L 27.078125 20.019531 L 27.804688 19.375 L 28.007812 19.601562 L 27.472656 20 L 26.894531 20.34375 L 26.714844 20.441406 L 26.742188 20.429688 L 27.535156 19.34375 L 26.707031 20.558594 L 26.402344 20.5625 L 27.035156 19.714844 L 24.992188 19.730469 L 24.71875 20.359375 L 25.09375 20.324219 L 25.601562 20.210938 L 26.105469 19.96875 L 26.003906 20.835938 L 26.445312 19.449219 L 21.835938 18.203125 L 27.203125 19.5625 L 35.730469 29.445312 L 40.699219 40.847656 L 47.871094 55.03125 L 55.171875 70.492188 L 64.121094 81.519531 L 72.914062 87.464844 L 78.195312 86.628906 L 77.410156 86.589844 L 76.5 87.152344 L 92.824219 98.996094 L 107.167969 111.292969 L 110.53125 114.265625 L 110.296875 115.671875 L 109.074219 114.691406 L 116.566406 118.328125 L 137.296875 134.039062 L 160.554688 150.371094 L 177.105469 171.675781 L 183.277344 188.238281 L 188.230469 205.097656 L 193.226562 210.875 L 192.929688 212.152344 L 193.042969 211.910156 L 182.792969 219.84375 L 176.460938 221.585938 L 171.988281 222.148438 L 175.359375 218.398438 L 168.59375 214.574219 L 143.273438 200.652344 L 135.179688 193.550781 L 140.972656 185.796875 L 148.011719 171.484375 L 163.980469 150.632812 L 161.441406 142.441406 L 162.847656 135.183594 L 165.84375 114.304688 L 168.671875 99.90625 L 166.089844 106.097656 L 164.007812 100.066406 L 170.117188 91.910156 L 174.390625 82.453125 L 184.867188 74.667969 L 199.21875 61.9375 L 213.53125 49.140625 L 222.40625 44.636719 L 236.4375 42.023438 L 242.023438 38.5 L 247.847656 37.710938 L 256.1875 28.515625 L 258.730469 27.738281 L 249.179688 37.660156 L 223.8125 45.1875 L 206.871094 47.210938 L 190.328125 59.757812 L 171.046875 78.621094 L 152.539062 99.863281 L 135.109375 127.320312 L 130.675781 133.84375 L 120.113281 140.652344 L 101.789062 146.210938 L 78.84375 146.574219 L 75.167969 146.601562 L 70.945312 143.585938 L 77.445312 150.496094 L 86.921875 176.644531 L 110.953125 194.480469 L 131.378906 218.234375 L 168.34375 216.714844 L 194.640625 214.433594 L 227.246094 211.109375 L 234.214844 217.183594 L 245.519531 228.875 L 248.757812 241.796875 L 254.71875 247.894531 L 258.777344 256.324219 L 263.960938 258.003906 L 261.703125 254.4375 L 250.398438 246.371094 L 256.109375 243.386719 L 255.09375 241.078125 L 243.859375 236.804688 L 234.523438 214.007812 L 228.171875 178.097656 L 228.332031 154.484375 L 230.335938 136.167969 L 233.53125 115.429688 L 231.507812 105.15625 L 224.960938 89.335938 L 219.023438 79.929688 L 213.910156 60.070312 L 214.484375 59.621094 L 216.132812 57.074219 L 229.476562 44.441406 L 246.835938 39.582031 L 247.335938 37.46875 L 240.664062 41.480469 L 240.628906 72.097656 L 238.71875 92.527344 L 238.234375 92.316406 L 237.257812 93.617188 L 237.640625 103.179688 L 236.367188 109.644531 L 236.015625 112.023438 L 238.210938 113.46875 L 239.394531 112.777344 L 236.953125 103.058594 L 237.347656 98.105469 L 241.03125 91.804688 L 246.03125 86.648438 L 245.71875 85.910156 L 241.136719 88.746094 L 237.621094 91.4375 L 239.136719 82.390625 L 244.496094 61.042969 L 249.375 53.28125 L 254.765625 49.617188 L 257.617188 46.445312 L 256.304688 46.125 L 254.40625 47.105469 L 242.917969 55.570312 L 237.597656 57.273438 L 238.0625 63.640625 L 239.199219 56.925781 L 238.992188 57.199219 L 233.722656 75.046875 L 222.546875 99.871094 L 210.96875 119.828125 L 198.667969 142.40625 L 196.410156 149.78125 L 195.449219 149.839844 L 197.066406 153.554688 L 208.039062 194.195312 L 210.070312 219.46875 L 210.230469 223.066406 L 207.460938 224.101562 L 207.351562 213.535156 L 200.875 212.160156 L 202.132812 211.542969 L 210.382812 211.890625 L 209.214844 207.667969 L 187.539062 205.136719 L 149.304688 200.195312 L 109.066406 197.296875 L 83.398438 194.933594 L 79.421875 194.121094 L 91.363281 198.273438 L 93.25 220.210938 L 100.058594 216.636719 L 143.769531 222.582031 L 175.496094 224.402344 L 208.417969 230.898438 L 235.6875 235.753906 L 247.472656 243.582031 L 255.34375 251.210938 L 262.933594 257.351562 L 264.71875 259.476562 L 265.070312 259.476562 L 265.164062 259.539062 L 266.554688 260.871094 L 268.390625 262.910156 L 267.238281 260.957031 L 265.183594 262.8125 L 262.84375 258.453125 L 255.789062 257.890625 L 250.484375 257.066406 L 249.640625 253.347656 L 244.652344 248.992188 L 218.625 235.535156 L 188.523438 215.203125 L 178.210938 207.421875 L 172.488281 201.933594 L 168.855469 192.402344 L 161.230469 188.320312 L 147.195312 180.1875 L 136.441406 170.011719 L 131.179688 165.710938 L 126.613281 140.128906 L 117.214844 110.394531 L 105.5625 80.429688 L 101.894531 64.0625 L 83.78125 58.296875 L 60.273438 50.277344 L 46.796875 44.507812 L 42.167969 44.238281 L 39.011719 45.84375 L 43.648438 45.867188 L 55.027344 47.898438 L 62.261719 78.066406 L 72.054688 123.058594 L 110.457031 163.433594 L 145.382812 185.941406 L 163.105469 207.777344 L 164.351562 212.882812 L 163.898438 211.464844 L 172.488281 216.746094 L 181.296875 221.15625 L 194.875 230.3125 L 203.375 232.769531 L 218.132812 232.128906 L 234.496094 226.046875 L 238.007812 218.507812 L 238.53125 221.492188 L 238.433594 221.851562 L 238.617188 220.429688 L 244.652344 211.375 L 247.535156 209.386719 L 245.972656 210.496094 L 243.515625 211.136719 L 231.898438 209.429688 L 233.132812 170.160156 L 230.933594 139.273438 L 232.851562 117.992188 L 235.816406 99.1875 L 240.785156 79.910156 L 242.1875 81.703125 L 245.242188 83.9375 L 246.222656 82.617188 L 246.367188 82.921875 L 244.375 86.472656 L 239.4375 88.242188 L 242.292969 94.9375 L 242.964844 96.207031 L 233.816406 87.28125 L 230.132812 119.894531 L 231.15625 163.480469 L 234.519531 181.617188 L 238.714844 181.472656 L 235.355469 175.710938 L 240.140625 170.125 L 239.09375 171.28125 L 231.960938 171.296875 L 230.6875 166.289062 L 227.34375 160.566406 L 226.621094 159.875 L 230.339844 154.402344 L 230.269531 149.699219 L 231.375 140.570312 L 234.519531 115.183594 L 237.945312 92.539062 L 239.144531 80.574219 L 242.167969 80.960938 L 232.628906 85.652344 L 233.847656 98.167969 L 233.726562 112.78125 L 234.207031 139.660156 L 233.394531 149.640625 L 233.941406 156.519531 L 233.886719 160.441406 L 234.234375 182.738281 L 237.714844 199.550781 L 235.222656 212.683594 L 231.726562 220.898438 L 225.871094 226.613281 L 228.671875 224.464844 L 222.355469 224.859375 L 212.78125 225.152344 L 196.757812 207.601562 L 195.617188 204.101562 L 182.617188 202.191406 L 144.992188 197.695312 L 105.808594 192.089844 L 86.714844 189.648438 L 87.582031 194.140625 L 78.503906 212.417969 L 72.574219 233.945312 L 65.691406 241.632812 L 56.664062 250.238281 L 43.671875 257.058594 L 37.410156 259.402344 L 31.429688 261.203125 L 30.371094 262.507812 L 26.917969 265.65625 L 25.859375 266.476562 L 25.667969 267.3125 L 25.570312 266.582031 L 29.261719 258.574219 L 39.0625 256.808594 L 41.71875 255.0625 L 44.851562 256.414062 L 44.898438 249.414062 L 85.398438 228.394531 L 125.191406 220.339844 L 170.839844 223.34375 L 208.875 224.976562 L 235.398438 222.128906 L 242.070312 230.078125 L 256.214844 246.535156 L 262.503906 254.90625 L 265.734375 259.480469 L 266.171875 259.632812 L 267.363281 261.382812 L 262.601562 259.871094 L 256.066406 250.632812 L 261.542969 243.773438 L 262.195312 241.511719 L 261.757812 241.445312 L 252.386719 243.824219 L 243.820312 231.070312 L 234.121094 194.636719 L 227.609375 153.0625 L 223.691406 118.707031 L 219.191406 91.636719 L 214.949219 67.339844 L 215.71875 57.894531 L 231.953125 43.457031 L 243.230469 38.476562 L 230.464844 53.492188 L 235.695312 76.585938 L 237.792969 71.664062 L 243.113281 70.460938 L 228.59375 65.691406 L 217.664062 65.636719 L 187.652344 97.699219 L 165.375 120.503906 L 148.742188 124.25 L 116.898438 127.535156 L 80.367188 135.835938 L 82.085938 136.746094 L 80.0625 143.992188 L 77.4375 191.976562 L 77.335938 222.691406 L 73.34375 229.460938 L 74.691406 230.402344 L 74.660156 230.726562 L 75.203125 232.640625 L 75.648438 232.917969 L 71.777344 236.648438 L 66.476562 242.476562 L 61.238281 250.589844 L 59.292969 251.582031 L 67.851562 240.59375 L 74.808594 241.875 L 74.371094 243.265625 L 76.054688 245.335938 L 74.6875 240.886719 L 79.097656 232.421875 L 128.941406 214.71875 L 176.585938 209.671875 L 209.261719 207.867188 L 230.1875 204.390625 L 239.953125 213.492188 L 251.1875 233.023438 L 255.90625 240.40625 L 263.246094 245.066406 L 262.609375 254.730469 L 264.695312 256.816406 L 266.871094 253.515625 L 266.703125 252.148438 L 256.796875 246.984375 L 259.421875 237.769531 L 258.324219 239.480469 L 261.75 236.988281 L 257.511719 240.199219 L 245.5625 238.230469 L 234.929688 199.253906 L 227.261719 157.867188 L 219.183594 115.105469 L 210.582031 83.9375 L 210.921875 60.796875 L 208.914062 67.503906 L 160.578125 117.730469 L 155.867188 146.148438 L 156.109375 142.148438 L 156.992188 139.992188 L 157.152344 137.976562 L 156.050781 136.652344 L 153.03125 131.738281 L 151.753906 130.699219 L 151.933594 130.367188 L 151.25 130.777344 L 151.144531 131.921875 L 150.8125 131.554688 L 150.371094 131.449219 L 150.800781 130.367188 "/>
<g clip-path="url(#clip-0)">
<path fill="none" stroke-width="1.066978" stroke-linecap="butt" stroke-linejoin="round" stroke="rgb(0%, 71.764706%, 100%)" stroke-opacity="1" stroke-dasharray="4.267913 4.267913" stroke-miterlimit="10" d="M 8.21875 149.75 L 282.519531 149.75 "/>
</g>
<g clip-path="url(#clip-1)">
<path fill="none" stroke-width="1.066978" stroke-linecap="butt" stroke-linejoin="round" stroke="rgb(0%, 71.764706%, 100%)" stroke-opacity="1" stroke-dasharray="4.267913 4.267913" stroke-miterlimit="10" d="M 150.574219 279.78125 L 150.574219 5.480469 "/>
</g>
</svg>
